<?xml version="1.0" encoding="UTF-8"?>
<svg id="Layer_2" data-name="Layer 2" xmlns="http://www.w3.org/2000/svg" viewBox="0 0 43.83 43.39">
  <defs>
    <style>
      .cls-1 {
        fill: #0e103d;
      }
    </style>
  </defs>
  <g id="Layer_1-2" data-name="Layer 1">
    <path id="Path_1393" data-name="Path 1393" class="cls-1" d="M25.04,43.39v-16.34h4.95c.52,0,.73-.79.82-1.2.34-1.87.58-3.76.7-5.66h-6.16l-.3-.3v-5.05c.34-1.34,1.39-2.38,2.73-2.72h3.84c.29-.18.28-.4.31-.7.11-1.48.11-2.98,0-4.46-.12-1.04-1.78-1.03-2.74-1.1-6.02-.43-11.61,1.58-11.61,8.57v5.45l-.3.3h-5.56v6.56l.3.3h5.55v16.36H7.78c-3.16,0-7.32-4.71-7.76-7.78V8.18C.72,4.07,3.9.82,8,.03l27.25-.03c4.6.72,8.09,4.54,8.38,9.18.64,8.11-.5,17.03,0,25.23.29,3.45-4.44,8.97-7.78,8.97h-10.81Z"/>
  </g>
</svg>