<?xml version="1.0" encoding="UTF-8"?>
<svg id="Layer_2" data-name="Layer 2" xmlns="http://www.w3.org/2000/svg" viewBox="0 0 44.08 43.61">
  <defs>
    <style>
      .cls-1 {
        fill: #0e103d;
      }
    </style>
  </defs>
  <g id="Layer_1-2" data-name="Layer 1">
    <g id="Group_478" data-name="Group 478">
      <g id="Group_456" data-name="Group 456">
        <path id="Path_1380" data-name="Path 1380" class="cls-1" d="M8.08.04l27.81-.04c4.37.87,7.63,4.53,7.99,8.97-.47,8.2.63,17.1,0,25.22-.2,4.62-3.62,8.45-8.19,9.17-8.74-.56-18.44.76-27.07,0-4.37-.57-7.81-4.01-8.37-8.38.62-8.51-.85-18.24.02-26.6C.87,4.24,3.99.91,8.08.04M15.36,7.71c-3.35.47-6.08,2.91-6.93,6.19-.58,2.45-.59,12.71,0,15.15.89,3.32,3.69,5.77,7.1,6.23,4.29.32,8.61.33,12.9.02,4.12-.48,7.3-3.85,7.55-7.99.27-2.96.36-11.4-.48-14-.9-2.63-3.04-4.64-5.71-5.39-2.35-.59-11.8-.52-14.43-.2"/>
        <path id="Path_1382" data-name="Path 1382" class="cls-1" d="M31.69,30.99c-.9.87-2.05,1.45-3.28,1.66-4.03.3-8.07.31-12.1.03-2.94-.11-5.34-2.42-5.54-5.36-.26-3.83-.27-7.67,0-11.51.11-2.79,2.19-5.12,4.95-5.54,4.17-.3,8.36-.3,12.53,0,3.11.28,4.95,3.04,5.15,5.95.25,3.69.24,7.39-.03,11.08-.19,1.36-.77,2.64-1.67,3.68M29.3,12.53c-.9.06-1.57.84-1.51,1.73.06.9.84,1.57,1.73,1.51.11,0,.22-.03.33-.06,1.74-.33,1.41-3.36-.55-3.19M20.82,14.77c-8,1.16-6.98,14.71,2.52,13.41,8.32-1.14,7.19-14.82-2.52-13.41"/>
        <path id="Path_1383" data-name="Path 1383" class="cls-1" d="M21.21,17.18c6.23-1.06,7.26,8.03,1.34,8.61-5.57.54-6.41-7.75-1.34-8.61"/>
      </g>
    </g>
  </g>
</svg>