<?xml version="1.0" encoding="UTF-8"?>
<svg id="Layer_2" data-name="Layer 2" xmlns="http://www.w3.org/2000/svg" viewBox="0 0 43.94 43.38">
  <defs>
    <style>
      .cls-1 {
        fill: #0e103d;
      }
    </style>
  </defs>
  <g id="Layer_1-2" data-name="Layer 1">
    <path id="Path_1395" data-name="Path 1395" class="cls-1" d="M7.9.05l27.82-.05c4.16.68,7.4,3.99,7.97,8.18-.56,8.67.75,18.28.01,26.84-.37,4.26-3.95,7.47-7.98,8.37H8.25c-3.89-.89-7.56-4.04-7.97-8.18-.86-8.62.63-18.65.01-27.42C1.06,3.92,4.05.88,7.9.05M15.76,10.76c-2.36-2.47-6.46,1.37-3.75,3.85,2.56,2.34,6.04-1.45,3.75-3.85M33.19,31.88v-10.19c-.16-.9-.45-1.76-.85-2.58-1.26-2.22-4.66-2.69-6.88-1.7-.71.32-1.48,1.41-2.07,1.36l-.1-1.41h-4.24v14.52c1.46.32,2.98.32,4.44,0v-7.97c0-.07.25-1.18.3-1.32.89-2.6,4.75-1.7,4.75.1v8.88c.48.53,4.41.68,4.65.3M16.03,17.35h-4.44v14.53c1.46.32,2.98.32,4.44,0v-14.53Z"/>
  </g>
</svg>