<?xml version="1.0" encoding="UTF-8"?>
<svg id="Layer_2" data-name="Layer 2" xmlns="http://www.w3.org/2000/svg" viewBox="0 0 44.08 43.61">
  <defs>
    <style>
      .cls-1 {
        fill: #0e103d;
      }
    </style>
  </defs>
  <g id="Layer_1-2" data-name="Layer 1">
    <path id="Path_1394" data-name="Path 1394" class="cls-1" d="M43.88,8.97c-.36-4.44-3.62-8.1-7.99-8.97L8.08.04C3.99.9.87,4.24.28,8.38c-.87,8.36.6,18.1-.02,26.61.56,4.37,4,7.82,8.37,8.38,8.63.75,18.32-.57,27.07,0,4.56-.72,7.99-4.55,8.19-9.17.62-8.12-.48-17.02,0-25.22M34.67,11.79l-12.59,12.28-12.67-12.28h25.26ZM7.78,30.3V13.31l8.81,8.45-8.81,8.53ZM9.31,31.82l8.86-8.48c1.6,1.15,3.02,4.01,5.29,2.32.41-.31,2.26-2.38,2.55-2.32l8.78,8.48H9.31ZM36.31,30.3l-8.81-8.53,8.81-8.45v16.98Z"/>
  </g>
</svg>