<?xml version="1.0" encoding="UTF-8"?>
<svg id="Layer_2" data-name="Layer 2" xmlns="http://www.w3.org/2000/svg" viewBox="0 0 43.82 43.63">
  <defs>
    <style>
      .cls-1 {
        fill: #0e103d;
      }
    </style>
  </defs>
  <g id="Layer_1-2" data-name="Layer 1">
    <g id="Group_477" data-name="Group 477">
      <path id="Path_1378" data-name="Path 1378" class="cls-1" d="M7.78.04l28.01-.04c3.95.99,7.41,4.15,7.78,8.36.77,8.54-.57,18.17,0,26.83-.6,4.24-3.94,7.57-8.18,8.17-8.52.85-18.4-.64-27.07,0-3.91-.46-7.77-4.01-8.17-7.98-.32-3.2.02-6.87,0-10.08-.02-5.08-.25-10.25-.13-15.31C.15,4.82,2.84,1.52,7.78.03M36.51,34.89l-11.72-16.05,10.31-11.49c-.03-.52-2.32-.36-2.72.1l-8.89,9.49-7.29-9.47-.59-.42H7.43l.11.8,10.69,14.14.11.49-11.12,12.42,2.54-.19,9.89-10.51,8.28,10.7h8.58Z"/>
      <path id="Path_1381" data-name="Path 1381" class="cls-1" d="M11.27,9.07h3.53l17.87,23.51-.3.5h-3.23c-.14,0-.56-.38-.68-.53L11.71,10.14l-.44-1.08Z"/>
    </g>
  </g>
</svg>