<?xml version="1.0" encoding="UTF-8"?>
<svg id="Layer_2" data-name="Layer 2" xmlns="http://www.w3.org/2000/svg" xmlns:xlink="http://www.w3.org/1999/xlink" viewBox="0 0 3121.51 2737.11">
  <defs>
    <style>
      .cls-1 {
        fill: none;
      }

      .cls-2 {
        fill: #208dba;
      }

      .cls-3 {
        clip-path: url(#clippath-1);
      }

      .cls-4 {
        clip-path: url(#clippath);
      }
    </style>
    <clipPath id="clippath">
      <rect class="cls-1" width="3121.51" height="2737.11"/>
    </clipPath>
    <clipPath id="clippath-1">
      <rect class="cls-1" y="0" width="3121.5" height="2737.11"/>
    </clipPath>
  </defs>
  <g id="Layer_1-2" data-name="Layer 1">
    <g class="cls-4">
      <g class="cls-3">
        <path class="cls-2" d="M1974.4,1052.04c3.43-6.82,3.26-19.17,1.87-26.26-1.85-9.48-4.17-18.87-6.84-28.16-19.57-68.12-49.6-131.81-77.62-196.84-31.16-72.33-60.8-145.53-86.26-219.93-11.67-34.09-19.15-75.23-48.83-99.67-14.82-12.2-35.65-14.3-55.08-14.68-93.07-1.82-184.51,23.18-272.06,53.88-77.89,27.31-154.85,59.76-221.1,107.99-16.03,11.67-31.95,24.98-39.47,42.99-7.45,17.84-5.67,37.88-3.77,57.04,15.89,160.3,29.1,321.02,44.99,481.32,1.63,16.44,3.36,33.26,10.67,48.17,7.3,14.92,24.09,27.36,41.05,28.76,8.55-11.08,17.11-22.17,25.66-33.25-30.74-6.85-39.7-44.45-42.61-74.93-13.41-140.33-26.83-280.66-40.24-420.99,45.07-2.53,90.14-5.05,135.22-7.58-15.78,88.77-15.82,180.12-.49,268.96,2.08,12.07,5.09,25.18,14.98,32.78s28.5,4.27,30.06-7.88c2.66,4.22,6.66,7.64,11.32,9.66,3.05-5.66,3.98-12.37,2.59-18.62,7.75,1.08,15.5,2.15,23.25,3.23-23.14-92.08-32.73-187.37-28.37-282.05.26-5.62.69-11.59,4.09-16.15,4.29-5.75,12.07-7.69,19.19-9.33,123.31-28.26,240.55-81.22,342.21-154.6l46.07,118.33c15.36,39.44,30.72,78.89,46.07,118.33l46.07,118.33c7.68,19.72,15.36,39.44,23.04,59.17,3.84,9.86,7.68,19.72,11.52,29.58,1.92,4.93,3.84,9.86,5.76,14.79,1.54,3.96,3.36,7.59,2.26,11.89M1711.43,519.43c-19.69,16.39-40.88,29.57-62.53,41.71-22.71,12.73-45.94,23.94-69.42,34.43-21.51,9.61-43.25,18.39-65.17,26.5-18.77,6.94-37.63,13.57-56.73,19.15-8.16,2.38-16.25,5.12-24.39,7.64-1.26.39-2.58.46-4.27.74,1.62-5.45,4.58-9.14,7.01-13.15,9.14-15.09,19.27-29.14,31.1-41.34,1.82-1.88,5.35-3.84,4.05-6.86-1.68-3.91-4.7-.6-7.15.28-20.38,7.33-38.93,18.92-55.75,34.52-11.5,10.67-21.52,23.13-30.37,36.93-2.3,3.59-4.86,4.96-8.65,5.52-11.18,1.68-22.29,3.99-33.38,6.42-16.89,3.69-33.94,5.67-51,7.58-23.56,2.64-47.16,3.35-70.78,1.07-1.05-.1-2.41.18-2.86-1.08-.68-1.94,1.12-2.21,1.97-2.96,21.66-19.46,45.55-34.23,69.97-47.85,25.05-13.97,50.71-26.16,76.68-37.47,26.95-11.73,54.21-22.27,81.73-31.78,24.36-8.42,48.95-15.83,73.68-22.62,19.17-5.27,38.48-9.64,57.75-14.27,11.78-2.83,23.77-4.33,35.66-6.47,26.82-4.82,53.78-7.53,80.9-7.46,8.87.02,17.75.76,26.62,1.26,1.26.07,2.68-.23,4.03,1.25-2.48,3.52-5.72,5.79-8.72,8.29"/>
        <path class="cls-2" d="M1260.89,1286.41l-43.98-41.34c3.29-3.3,82.09-81.53,213.2-152.45,174.43-94.36,358.84-129.91,533.28-102.79l-9.68,58.67c-203.07-31.54-380.6,34.8-493.78,96.02-123.31,66.7-198.29,141.15-199.03,141.89"/>
        <path class="cls-2" d="M901.85,1619.76c1.97.26,3.94.51,5.91.74-1.02-.22-2.04-.44-3.06-.67-1.1-.17-2.03-.2-2.85-.07"/>
        <path class="cls-2" d="M2640.55,1616.9c-2.8-3.57-5.57-9.29-5.06-13.4,2.63-21.3-2.8-40.83-11.77-63.6-.96-2.42-1.92-4.84-2.88-7.26-3.93-9.84-7.99-20.02-11.14-30.21-7.66-24.71-14.77-49.4-21.15-73.39-1.57-5.91-2.09-12.23-2.59-18.34-.2-2.48-.41-4.95-.67-7.41-1.8-16.43-3.56-32.86-5.3-49.09l-2.17-20.24c-.08-.73-.59-1.36-1.3-1.6-2.26-.77-4.28-1.16-6.18-1.19-6.49-.1-9.83,4.06-13.07,8.08l-.59.74c-6.01,7.42-12.38,14.78-18.54,21.89-4.82,5.56-9.63,11.13-14.34,16.78-3.48,4.19-6.69,8.67-9.8,13.01-1.47,2.06-2.94,4.11-4.45,6.15-1.34,1.81-2.63,3.67-3.92,5.52-2.83,4.08-5.76,8.3-9.17,11.85-9.19,9.55-11.25,18.95-5.96,27.2,6.76,10.54,6.3,20.91,5.81,31.9-.15,3.31-.3,6.73-.24,10.17.21,12.74,2.24,25.45,5.21,40.62.87,4.43,2.75,8.67,4.56,12.76,1.3,2.93,2.64,5.95,3.56,8.96,5.26,17.2,10.39,34.44,15.52,51.68,3.4,11.44,6.8,22.88,10.24,34.31,1.4,4.64,2.92,9.25,4.44,13.86,2.59,7.87,5.28,16,7.25,24.1.71,2.93,1.39,6.07,2.05,9.51,5.97,43.16,2.27,87.74-10.71,128.92-.26.82.09,1.71.85,2.17.3.18.65.28.99.28.5,0,.99-.17,1.36-.53l9.93-9.59c-7.01,29.47-17.02,58.59-29.76,86.56l-1.83,3.55c-3.41,6.81-6.63,13.62-9.59,19.94-2.77,5.29-5.34,10.01-7.86,14.43-.5.87-.19,1.98.69,2.52.31.19.65.28.99.29.63,0,1.23-.28,1.6-.82l.91-1.34,1.83,1.13c.31.19.66.29,1.01.3.45,0,.9-.15,1.26-.45.6-.5,1.23-.97,1.86-1.44,1.51-1.12,3.07-2.28,4.28-3.85,4.33-5.64,8.59-11.33,12.86-17.02,4.31-5.75,8.61-11.5,13-17.2,1.55-2.01,3.33-3.97,5.06-5.86,2.6-2.84,5.28-5.77,7.37-9.11,17.16-27.42,34.03-55.09,49.7-80.91,1.03-1.7,2.09-3.39,3.15-5.08,4.08-6.52,8.3-13.25,10.97-20.57,2.14-5.86,4.41-11.69,6.67-17.52,11.58-29.75,23.54-60.51,17.48-95.61-.54-3.1,1.1-7.1,2.29-10.02,3.74-9.17,2.24-17.58-4.72-26.48M2585.99,1555.22c-.16.98-.64,1.75-1,2.6-.45-.6-.89-1.2-1.64-2.2.47-.72.87-1.53,1.43-2.03.1-.09,1.25,1.33,1.2,1.62M2585.76,1506.96c-5.29-13.06-11.28-25.82-17.12-38.7-5.86-12.88-15.76-23.57-19.07-39.1,10.39,9.36,29.02,45.06,36.19,77.8M2580.63,1534.77c-.61.18-1.21.37-1.82.55-.37-1.98-.74-3.96-1.13-5.94.42-.07.84-.14,1.26-.21.57,1.86,1.13,3.73,1.69,5.6M2555.71,1525.06c-4.09-13.1-8.73-26.08-13.86-38.93-2.33-5.83-3.17-11.11-1.62-17.25,5.73,6.57,8.38,13.4,10.02,20.67,2.22,9.86,5.34,19.06,9.79,28.3,2.81,5.85,3.94,12.85,6.08,21.07-5.56-3.66-8.51-7.76-10.41-13.87M2572.37,1609.93c-1.2-10.18-1.3-20.73-6.08-30.13,2.51-8.91,1.64-18.56-1.23-28.4-.04-.13.38-.42.99-1.06.79.91,2.15,1.79,2.52,3.03,4.96,16.85,10.06,33.88,10.26,51.5.02,2.06-.05,4.43-.75,5.95-.64,1.39-2.11,2.42-3.32,2.46-.71.02-2.23-2.11-2.38-3.35M2576.68,1621.1c1.33,4.43,2.14,7.28,2.94,10.14-.63.46-1.25.93-1.88,1.39-2.18-2.6-3.44-5.45-1.07-11.53M2578.88,1659.93c-.23.96-.47,1.92-.73,2.98-.53-.58-1.16-.99-1.14-1.3.03-.69.29-1.51.64-1.91.23-.26.81.13,1.23.23M2576.22,1764.5c1.48-12.93,2.34-23.93,2.93-34.95.69.06,1.38.13,2.08.19,3.11,12.79,3.61,18.69-5,34.76M2584.33,1713.94c-3.94,2.72-5.64-.55-5.79-3.59-.4-8.25-.73-16.65-.4-24.89.23-5.6,3.03-8.56,8.95-6.21-6.1,11.86-5.52,23.25-2.76,34.7"/>
        <path class="cls-2" d="M902.37,1441.55c7.94,6.36,15.45,12.36,22.07,22.71,5.09,7.96,10.95,15.34,19.28,15.47,2.07.03,4.19-.37,6.48-1.22.47-.17.84-.52,1.05-.97l4.48-9.8c.46.31,1.17,1.02,1.62,1.48,1.32,1.33,2.82,2.83,4.74,2.86.79.01,1.96-.24,3.03-1.48,3.15-3.67,6.39-7.28,9.62-10.89,7.81-8.71,15.88-17.72,22.7-27.52,5.5-7.91,12.38-12.03,19.88-11.92,7.63.11,16,4.58,24.19,12.9,2.32,2.36,4.68,4.68,7.03,6.99,3.55,3.48,7.21,7.09,10.65,10.76,7.45,7.94,11.55,12.09,16.01,12.16,4.03.06,7.38-3.16,12.42-8.46,3.21-3.38,5.97-6.29,9.34-6.24,2.29.03,4.96,1.36,8.17,4.06,1.54,1.29,3.9,1.6,5.6,1.62,2.5.04,6.11-.54,8.07-2.29,5-4.47,9.52-9.65,14.74-15.64,2.25-2.58,4.68-5.36,7.38-8.37.11-.12.21-.26.28-.41.55-.45,2.16-1.43,3.48-2.23,6.63-4.01,12.12-7.64,12.19-11.43.09-4.53.55-8.54,1-12.42.76-6.6,1.48-12.83.33-20.7-1.01-6.89-10.04-14.38-18.79-21.61-4.6-3.81-8.94-7.41-11.2-10.26-7.79-9.83-17.86-18.18-27.61-26.26l-3.78-3.14c-6.66-5.56-10.91-7.85-14.67-7.91-5.34-.08-8.85,4.45-12.79,11.78-11.33,21.11-21.22,38.56-32.65,55.17-5.12,7.45-11.12,11.17-17.81,11.07h0c-7.94-.12-16.48-5.66-24.71-16.03-7.61-9.59-15.17-19.87-23.12-31.43l-.35-.51c-7.75-11.27-11.28-16.41-16.26-16.48-4.11-.06-7.88,3.34-15.44,10.16-1.92,1.73-3.78,3.46-5.38,5.51-4.79,6.14-9.57,12.29-14.34,18.45-7.95,10.25-15.89,20.51-23.95,30.66-3.53,4.44-7.17,9.03-11.79,12.12-4.97,3.32-7.8,5.34-8.24,8.34-.48,3.3,2.17,6.54,6.98,12.43,6.71,8.2,13.5,13.63,20.07,18.89M1102.25,1426.88c.85-.86,2.43-2.45,3.05-2.5,1.31.36,3.04,2.37,4.87,4.5.6.7,1.24,1.44,1.91,2.19-.57.33-1.1.66-1.62.98-1.12.69-2.66,1.64-3.07,1.66-1.73-.8-3.41-2.77-5.03-4.68-.35-.41-.7-.83-1.05-1.23.31-.3.62-.61.93-.93M1087.42,1358.16c.88-1.16,1.83-2.43,2.8-3.85,1.36,1.82,2.68,3.46,3.89,4.96,3.05,3.79,5.46,6.79,5.62,9.05.11,1.62-2.35,3.66-4.53,5.46-.64.53-1.3,1.07-1.92,1.63-.72-.84-1.47-1.67-2.22-2.5-2.86-3.18-5.57-6.19-6.74-9.38-.3-.82,1.51-3.23,3.11-5.36"/>
        <path class="cls-2" d="M909.37,2033.12c-5.63-.95-14.13-2.39-15.34-3.65-2.22-2.44-5.58-3.59-8.84-4.7-.73-.25-1.46-.5-2.17-.76l1.26-3.47c1-.11,2.01-.21,3.02-.3,3.19-.3,6.49-.61,9.65-1.45,5.61-1.5,9.67-4.55,10.88-8.17.66-1.97.81-5.09-2.16-8.83-3.23-4.07-10.01-6.76-17.19-9.61-7.31-2.9-14.88-5.9-16.4-9.79-3.03-7.71-10.4-14.04-16.91-19.63-1.05-.9-2.7-1.37-4.91-1.41-2.99-.04-7.04.79-8.86,2.73-8.63,9.19-16.52,19.28-24.15,29.03l-.26.34c-2.99,3.83-5.87,7.83-8.65,11.71-4.26,5.94-8.66,12.07-13.52,17.6-6.18,7.01-9.25,9.14-13.14,9.08-3.21-.05-7.39-1.65-13.52-4.4-19.17-8.61-33.23-23.88-46.83-38.65-2.7-2.93-5.39-5.85-8.12-8.73-5.74-6.04-11.45-9.28-16.51-9.35-3.88-.06-7.26,1.77-9.78,5.3-6.27,8.81-12.77,18.5-20.45,30.52-3.51,5.5-4.65,11.07-3.3,16.11,1.4,5.24,5.47,9.86,11.77,13.35.3.16.61.24.93.25.63.01,1.25-.29,1.61-.83l11.25-16.75c.99.43,1.93.81,2.81,1.17,2.45.99,4.38,1.78,5.83,2.95,2.48,2.02,4.64,4.4,6.92,6.93.52.57,1.04,1.15,1.56,1.72-.77.6-1.54,1.22-2.3,1.83-3.09,2.47-6,4.81-9.25,6.69-1.61.93-3.79,1.31-6.55,1.79-1.53.27-3.23.56-5.1,1-.62.14-1.12.58-1.34,1.16-.22.58-.12,1.23.25,1.74,1.24,1.68,2.42,3.16,3.5,4.52,2.17,2.74,3.89,4.91,5.04,7.26,1.09,2.22,1.58,4.75,2.11,7.43.09.47.18.95.28,1.42-.51.02-1.02.04-1.52.06-1.36.07-2.71.13-4.05.11-1.58-.02-2.86-.16-4.02-.44-1.52-.36-3.05-1.52-4.68-2.76-1.07-.82-2.18-1.66-3.39-2.35-9.18-5.23-16.95-7.72-24.45-7.83-4.25-.06-8.44.67-12.48,2.19-5.38,2.02-8.92,5.79-9.71,10.35-.74,4.27,1.13,8.7,5.14,12.16,12.33,10.63,23.57,16.51,36.44,19.08.12.03.24.04.36.04.57,0,1.12-.23,1.49-.67.45-.53.56-1.25.29-1.89-2.49-5.96-6.58-10.47-10.53-14.83-4.42-4.88-8.6-9.49-9.71-15.49l1.05-.98,56.44,42.63-11.42,12.58c-.6.66-.63,1.66-.07,2.38,8.45,10.74,19.5,13.19,30.18,15.57,3.23.72,6.27,1.39,9.27,2.29,3.02.91,5.71,1.36,8.21,1.4,7.14.11,12.52-3.22,16.46-10.18,5.07-8.97,11.4-17.48,17.52-25.71l2.35-3.16c2.93-3.95,6.28-7.71,9.52-11.34,1.14-1.27,2.27-2.54,3.38-3.81,1.04.54,1.97,1.01,2.82,1.44,2.17,1.11,3.74,1.9,5.19,2.83,1.82,1.16,3.66,2.29,5.49,3.43,5.16,3.19,10.48,6.48,15.2,10.26,6.71,5.37,4.61,10.35,1.95,16.66-.69,1.63-1.4,3.32-1.93,5.02-.94,2.98,1.46,8.66,4.36,10.29.91.51,2.06.78,3.43.8,2.61.04,5.67-.88,7.43-2.24,3.06-2.35,5.55-5.25,7.97-8.05.64-.74,1.28-1.48,1.91-2.2,4.31,1.52,12.21,1.75,20.52,2,6.89.2,14.7.43,16.73,1.57.29.16.61.25.94.25.18,0,.37-.02.55-.07.5-.14.92-.47,1.16-.91,3.72-6.86,9.23-12.7,14.56-18.34,8.54-9.05,16.61-17.6,14-28.07-.49-1.98-.51-4.75-.03-7.42.85-4.77,3.18-9.42,5.66-14.34,2.9-5.76,5.89-11.72,6.33-18,.27-3.95-6.46-5.27-19.41-7.47"/>
        <path class="cls-2" d="M984.38,1306.87c6.58,5.8,13.17,11.6,19.72,17.43,3.1,2.76,6.04,4.12,8.99,4.16h0c4.27.06,8.19-2.6,12.34-8.39,12.87-17.95,28.62-38.73,47.85-56.81,7.64-7.18,10.86-16.73,8.84-26.21-2.01-9.43-8.83-17.04-18.73-20.87-.95-.37-1.94-.71-2.93-1.06-3.11-1.09-6.32-2.21-8.37-4.13-4.2-3.94-8.75-7.63-13.14-11.2-10.54-8.55-21.43-17.39-27.9-30.15-2.23-4.41-5.75-8.08-9.82-12.33l-2.48-2.6c-1.25-1.33-3.02-2.11-4.85-2.13-2.13-.03-4.14.95-5.37,2.62l-7.09,9.63c-7.67,10.43-14.91,20.27-22.17,30.08-2.2,2.98-4.31,6.12-6.35,9.16-4.67,6.96-9.5,14.16-15.63,19.53-8.09,7.08-12.06,13.73-12.14,20.35-.07,6.05,3.02,11.95,9.45,18.03,16.23,15.36,33.28,30.38,49.77,44.9"/>
        <path class="cls-2" d="M1886.67,1524.47c3.04,3.54,6.08,7.08,9.05,10.68,2.46,2.98,4.95,5.95,7.43,8.92,7.41,8.87,15.07,18.03,22.06,27.4,2.48,3.33,5.24,6.41,8.69,6.46,2.85.04,5.44-1.84,8.93-6.51,1.92-2.57,4.68-4.56,7.61-6.67,1.11-.8,2.22-1.6,3.28-2.43,1.01-.79,2.12-1.49,3.23-2.19,2.11-1.32,4.28-2.69,5.9-4.68,6.32-7.77,12.54-15.63,18.75-23.49,2.72-3.44,5.5-6.93,8.27-10.42-1.08-.87-2.16-1.73-3.23-2.6.14-.4.28-.8.41-1.19,1.21.93,2.41,1.86,3.62,2.79,5.24-6.58,10.53-13.17,15.9-19.62,5.23-6.29,8.35-11.19,7.73-16.2-.53-4.29-3.62-8.24-10.68-13.61-15.05-11.47-26.85-26.22-38.26-40.49-3.37-4.21-6.73-8.42-10.18-12.55-4.32-5.18-7.62-11.23-11.43-18.22-1.91-3.52-3.9-7.15-6.2-11.04-.32-.54-.88-.89-1.51-.95-.05,0-.1,0-.15,0-.57,0-1.12.23-1.49.67-2.01,2.38-3.86,4.51-5.58,6.49-3.43,3.95-6.4,7.37-9.1,10.98-7.36,9.85-14.61,19.78-21.86,29.71-3.42,4.69-6.84,9.39-10.28,14.07-2.19,2.99-4.46,5.93-6.72,8.87-5.52,7.17-11.24,14.59-15.76,22.61-2.53,4.49-1.64,13.69,1.79,18.58,6.06,8.61,13.05,16.75,19.8,24.63M1933.09,1513.55c-1.49-1.43-2.45-2.92-3.64-4.4,1.16.45,2.32.91,4.4,1.72,1.15,1.77,2.02,3.11,2.89,4.45-1.25-.59-2.97-1.12-3.66-1.78M1949.34,1496.11c-3.88-6.14-7.51-11.89-11.6-18.37,9.72,4.58,19.21,12.97,26.23,19.81,6.44,6.27,10.04,12.77,15.28,19.69-11.69-4.72-20.53-15.16-29.91-21.13M1927.12,1452.88c14.28,11.97,28.42,24.09,42.32,36.43-17.81-10.39-32.76-25.78-49.18-38.43-.03-.63-.06-1.27-.08-1.9,2.34,1.29,4.99,2.26,6.95,3.9M1926.35,1493.64c-3.06-3.14-6.13-6.28-10.84-11.11,7.99,4.36,10.99,7.57,10.84,11.11"/>
        <path class="cls-2" d="M1674.48,1345.14l9.05,7.79c3.23,2.79,6.5,4.22,9.71,4.27,2.99.04,7.4-1.15,11.45-7.1,3.48-5.1,7.67-11.04,12.39-16.41,5.73-6.52,11.54-12.97,17.34-19.42,8.76-9.73,17.81-19.79,26.45-29.94,2.97-3.49,5.94-11.17,3.64-14.79-1.03-1.63-2.01-3.32-2.98-5.02-4.7-8.17-9.56-16.61-21-19.36-3.9-.94-7.88-4.18-11.39-7.04l-.54-.43c-15.26-12.4-31.03-25.22-41.14-43.44-1.69-3.04-4.59-5.37-7.4-7.62-1.27-1.02-2.56-2.05-3.76-3.16-.36-.34-.84-.52-1.31-.53-.36,0-.72.09-1.04.28-1.18.72-2.28,1.29-3.28,1.8-2.08,1.08-3.89,2.01-5.11,3.6-9.11,11.85-18.1,24.12-25.81,34.7-2.29,3.14-4.42,6.51-6.48,9.77-4.14,6.54-8.41,13.3-14.02,18.18-9.17,7.98-13.49,15.07-13.58,22.32-.09,6.55,3.36,13.03,10.53,19.82,18.86,17.85,38.89,35.08,58.27,51.74"/>
        <path class="cls-2" d="M2168.22,1209.95c1.48.73,3.3,1.11,5.41,1.14h0c8.12.12,18.98-4.87,24.49-9.62,13.67-7.82,29.43-11.83,45.58-11.59,6.81.1,13.54.98,20.01,2.61,9,2.27,16.34,5.72,21.83,10.27,6.54,5.41,10.61,12.63,11.16,19.79.65,8.34-3.39,17.24-11.06,24.43-7.05,6.59-16.01,11.03-24.68,15.32-.77.38-1.17,1.22-.98,2.05.19.83.92,1.44,1.79,1.49l1.8.11-13.89,7.91c-.8.46-1.14,1.41-.81,2.26.26.65.84,1.1,1.52,1.21l-31.47,19.57c-.57.36-.9.99-.87,1.66.15,2.64,2.71,4.33,5.09,4.44h.22c1.99.04,3.76-.81,5.06-1.43,9.51-4.53,19.29-9.61,29.08-15.11,3.06-1.72,6.08-3.5,9.09-5.29.08.01.16.02.23.02.45,0,.9-.14,1.26-.44l1.03-.86.81-.7c7.28-4.38,13.25-8.15,18.82-11.86,10.74-7.17,22.88-15.83,30.95-27.94,1.58-2.38,3-4.96,4.2-7.66,4.88-10.97,6.8-24.18,5.29-36.26-.38-3.03-.98-5.97-1.77-8.75-1.15-4.01-3.16-7.33-5.81-9.59-1.4-1.19-2.94-2.06-4.43-2.9-1.03-.58-2.06-1.16-3.01-1.85-1.66-1.2-2.72-2.65-3.93-4.32-.49-.68-.99-1.37-1.55-2.07-5.71-7.15-13.75-10.65-19.49-12.33-5.18-1.51-10.94-1.72-16.4-1.8l-4.19-.05c-7.97-.12-15.61-.53-21.49-4.26-6.4-4.06-12.61-11.94-15.08-19.16-2.11-6.16-.29-12.3,5.57-18.78,2.5-2.76,4.81-5.79,7.05-8.72,6.53-8.57,12.71-16.66,23.75-19.49,1.81-.46,3.44-2.43,4.36-4.12.65-1.2,1.33-2.93.84-4.37-.97-2.81-4.47-7.87-8.04-7.93-9.91-.15-18,7.5-24.5,13.64-1.06,1.01-2.1,1.99-3.11,2.9-7.46,6.76-14.88,14.31-22.07,22.43-4.02,4.55-9.06,7.71-14.39,11.06-2.73,1.71-5.55,3.48-8.22,5.45-9.07,6.7-14.79,18.4-18.26,28.61-.14.08-.28.17-.4.28l-.15.13,2.1-8.95c.2-.83-.21-1.69-.99-2.09-.28-.15-.59-.22-.89-.22-.53,0-1.05.2-1.42.59-4.67,4.94-15.67,17.65-17.47,29.37-.39.89-.83,1.78-1.26,2.66-1.63,3.35-3.32,6.82-3.22,10.49.16,5.49,2.11,11.84,5.51,17.9,2.43,4.33,6.79,8.42,11.4,10.68"/>
        <path class="cls-2" d="M2044.62,1652.77c-1.92-.32-3.63-.49-5.19-.51-6.08-.09-10.48,1.96-14.7,6.84-8.66,10.02-18.1,19.69-27.23,29.05-2.86,2.93-5.72,5.86-8.56,8.8-1.11,1.15-2.73,2.07-4.29,2.95l-.59.34c-24.98,14.29-54.23,21.32-92.03,22.12-6.85.14-13.95.16-21.69.04-16.91-.25-34.16-1.11-50.85-1.93-7.67-.38-15.33-.76-22.99-1.09,0,0-.37-.01-.39-.01-1.45-.02-3.05.16-4.74.36-1.94.23-4.14.48-6.4.45-1.08-.02-2.12-.1-3.11-.25,1.33-1.94,2.85-4.71,4.55-8.28.45-.14.84-.44,1.08-.86l25.25-44.46c.13.55.26,1.11.4,1.68.67,2.8,1.34,5.6,1.59,6.47.22.74.88,1.28,1.66,1.37.06,0,.12.01.19.01.71.01,1.38-.37,1.71-.99,10.18-19.1,15.22-47.12,13.49-74.77.13-5.04-.32-9.98-1.33-14.7-.71-3.32-2.34-6.4-3.92-9.37-.82-1.55-1.65-3.11-2.33-4.69-3.08-7.12-5.94-14.54-8.7-21.71-6.12-15.85-12.44-32.24-21.6-46.75-14.66-23.25-31.88-45.49-48.52-66.99-5.79-7.48-11.58-14.97-17.28-22.5-4.4-5.83-7.89-8.45-11.31-8.5-4.87-.07-7.87,5.07-9.95,9.56-3,6.49-7.11,12.62-11.09,18.55-3.21,4.78-6.52,9.73-9.3,14.91-20.82,38.82-42.34,78.96-57.66,122.5-1.77,5.02-3.61,9.97-5.44,14.9-9.97,26.84-19.39,52.19-15.17,81.84,1.27,8.9,3.47,17.72,5.41,25.5.8,3.23,1.57,6.3,2.25,9.28,1.18,3.88.7,7.13-1.47,9.93-6.83,8.81-29.48,11.65-48.41,11.37-4.6-.07-7.04-.31-7.26-.34-15.83-5.77-15.57-12.59-15-27.54.12-3.05.24-6.38.24-10.04,0-4.12.4-8.19.78-12.12.59-6.01,1.15-11.68.36-17.4-1.06-7.66-1.51-15.54-1.95-23.16-.6-10.36-1.22-21.08-3.35-31.54-6.02-29.48-22.66-54.05-38.75-77.82-9.13-13.49-18.58-27.44-25.97-42.13-7.3-14.52-17.29-28.02-26.94-41.08-4.87-6.59-9.91-13.41-14.53-20.25-2.26-3.36-4.02-7.21-5.72-10.94-.81-1.77-1.62-3.55-2.48-5.29l-6.98-14.07c-.23-.46-.64-.82-1.14-.98-.19-.06-.39-.1-.59-.1-.31,0-.62.06-.91.21-1.51.76-3.07,1.46-4.64,2.16-3.74,1.67-7.61,3.4-10.77,6.04-3.32,2.77-5.35,6.82-7.31,10.74l-.88,1.74c-6.95,13.56-14.37,27.23-21.54,40.46-16.82,31.02-34.22,63.09-47.19,96.49-14.05,36.2-24.04,75.67-29.63,117.09-4.02,14.38-5.39,28.56-4.08,42.14,2.13,21.97,11.28,42.26,25.78,57.12,17.59,18.03,42.17,27.46,65.25,34.11,0,0-16.3-1.33-16.35-1.33-.87-.01-1.64.55-1.86,1.39-.23.87.22,1.79,1.06,2.18,22.02,10.17,52.21,17.75,92.27,23.14,1.89,2.15,4.58,2.48,6.79,2.51,2,.03,4.41-.21,7.63-.59.2-.02.43-.03.57-.05,1.81.2,3.59.39,5.38.58l.37.02c2.7.64,3.76,1.38,3.86,1.48,1.2,3.55.73,8.89-1.19,13.61-2.03,4.97-5.37,10.22-9.93,15.59-3.18,3.76-6.98,7.73-11.03,8.78-16.32,4.22-32.99,7.84-47.7,11.03-4.95,1.07-8.99,1.48-13.95,1.41-2.15-.03-4.37-.15-6.83-.31-.31-.02-.63-.03-.94-.04-2.85-.04-5.57.51-8.2,1.03-2.52.51-4.9.98-7.29.95h-.51c-2.09-.11-4.38-.64-6.8-1.2-1.96-.46-3.99-.92-5.96-1.15-12.85-1.51-25.56-1.99-35.19-2.24-3.44-.09-6.87-.15-10.31-.21-3.22-.05-16.08-.2-19.29-.25-12.41-.19-25.74-.54-39.06-1.87-3.35-.33-6.67-.68-9.98-1.02-15.87-1.65-30.87-3.21-46.37-3.44-8.86-.13-17.02.19-24.94.97-50.56,5.01-88.2,15.8-118.47,33.96-24.89,14.93-42.13,37.54-58.8,59.4l-1.37,1.79c-.12.16-.22.34-.28.54-5.24,15.93-10.06,31.56-11.39,47.48-.96,11.49,1.47,22.47,3.68,30.74.2.75.85,1.31,1.64,1.41.07,0,.14.02.22.02.29,0,.56-.06.81-.16.03,0,.17.02.22.02.96.01,1.78-.67,1.9-1.6l.33-2.39c2.06-4.44,3.05-8.33,3.03-11.89-.02-3.97,1.05-7.52,3.54-11.44.84-2,1.93-3.99,2.99-5.84.08-.13.13-.26.17-.41,1.51-5.36,3.87-10.69,6.87-15.66,2.72-3.44,5.77-6.68,9.08-9.64.13-.05.24-.09.24-.09.41-.12.77-.36,1.01-.69l.61-.79.66-.56c.59-.51,1.17-1.01,1.79-1.48,14.27-10.96,26.85-16.08,40.56-16.61.53.05,1.05.07,1.57.08.87.01,1.73-.03,2.3-.1,2.54.05,5.09.24,7.69.58-4.52,2.17-7.82,5.26-11.04,8.28-1.39,1.31-2.81,2.64-4.35,3.92-.62.52-.83,1.38-.51,2.13.3.7,1,1.16,1.77,1.17.05,0,.11,0,.16,0,16.6-1.12,35.94-1.49,54.64-1.84,10.46-.2,21.11-.39,31.4-.73-3,1.08-5.65,2.31-8.05,3.73-.75.44-1.09,1.34-.81,2.16.26.78,1,1.3,1.82,1.32.05,0,.1,0,.15,0,3.93-.24,7.63-.49,11.16-.73,10.84-.74,20.2-1.37,29.14-1.24,8.08.12,15.36.86,22.93,2.33,20.32,3.94,41.23,6.1,62.16,6.42,28.63.43,57.26-2.56,84.97-8.87,11.41-1.93,23.55-4.08,35.51-7.27,24.09-6.44,41.19-16.84,55.42-33.72,3.02-3.58,6.17-7.1,9.32-10.62,11.75-13.13,23.9-26.71,29.98-44.47.34-.99,1.17-1.95,2.05-2.96.9-1.03,1.82-2.09,2.46-3.41.39-.81.83-1.63,1.27-2.46,1.45-2.73,2.95-5.54,3.27-8.48,3.65-6.99,7.1-14.06,10.31-21.11l-.42,8.99c-.04.9.58,1.71,1.48,1.93.15.04.29.06.44.06.75.01,1.45-.41,1.76-1.1l13.33-29.56c4.8.35,9.43.68,13.76.98.03,0,.07,0,.1,0,3.85.32,7.96.5,12.57.57,5.65.09,11.26-.02,16.52-.14l74.19-1.63c-1.11.18-2.22.36-3.32.53-6.64,1.05-13.51,2.15-20.3,3.98-1.12.31-1.82,1.36-1.67,2.5.15,1.13,1.1,1.99,2.25,2.04,12.48.59,25.4.98,38.41,1.18,59.57.89,119.3-2.28,172.77-9.18,1.13.16,2.34.31,3.59.33.96.01,1.84-.05,2.69-.19,1.75-.3,3.34-.96,4.68-1.59,16.64-2.35,32.65-5.1,47.58-8.17l1.88-.37c.1-.02.19-.05.27-.08,45.54-9.51,77.7-44.23,106.75-78.99,5.73-6.86,10.67-14.5,15.46-21.9,6.59-10.19,13.41-20.73,22.26-29.11,10.76-10.19,16.28-20.4,18.45-34.12.16-1.02-.55-1.98-1.6-2.16M1280.38,1914.28c1.65-4.8,7.48-6.05,13.56-6.9,1.96-.27,4.17-.62,5.88-.3,10.38,1.88,21.18-.44,31.85-.8,9.18-.31,18.34.29,27.46,1.12,4.95.44,8.75,2.07,9.58,6.16-14.3-1.03-27.55-3.48-41.51-1.04-9.12,1.6-18.28,1.19-26.62-2.71-4.31,1.57-9.41,3.05-13.81,5.24-4,1.99-7.48,1.97-11.3,1.55-7.65-.84-15.29-1.67-23.13-2.6,10.11-3.98,18,1.6,28.04.28M1122.67,1953.28c-3.18-.05-4.4-1.74-6.22-10.47l13.76,9.11c-3.13.84-5.69,1.39-7.53,1.36M1146.9,1940.3c-.27-.39-.54-.76-.79-1.11-.72-.99-1.7-2.36-1.74-2.73.24-.67,2.25-1.97,3.24-1.96h.01c.52.11,1.64,1.67,2.25,2.51.12.17.25.35.38.52l-3.34,2.77ZM1178.67,1929.24c-11.22-3.65-22.41-7.99-33.57-13.26,10.03,2.2,20.05,4.38,30.13,5.51,3.17.36,6.39.14,10.69.08.55,2.96.98,5.28,1.57,8.48-3.39-.25-6.16-.33-8.82-.82M1194.04,1916.93c-1.9-.2-3.79-.42-5.69-.66.03-.34.05-.68.08-1.03,1.98.02,3.96.02,5.95,0-.11.56-.22,1.12-.34,1.68M1216.71,1922.03c-4.52.92-8.99,1.95-13.57,2.48-2.83.33-5.5-.74-4.97-2.81.27-1.05,2.63-2.34,4.41-2.7,5.18-1.06,9.25,1.21,14.19,1.09-.02.65-.05,1.3-.07,1.95M1311.37,1938.31c-.58-.29-1.17-.59-1.77-.89.38-.27.9-.8,1.13-.77.73.11,1.34.42,2,.66-.38.28-.77.56-1.36.99M1317.52,1951.02c6.48-3.24,11.7-1.44,17.41-1.72-5.25,4.09-6.13,4.1-17.41,1.72M1329.87,1946.39c.06-.28.12-.55.17-.83.97.08,1.94.16,2.91.28.04,0-.05.51-.07.51-1.01.03-2.01.03-3.01.04M1333.87,1938.06c-3.98.37-8.02.23-12.04.38,9.49-4.67,14.65-5.1,23.29-2.55-2.91,3.3-7.58,1.82-11.25,2.16M1341.52,1956.56c.28-5.54,4.29-5.89,11.14-5.27-4.14,1.9-6.94,3.23-11.14,5.27M1349.68,1932.04c3.24-1.06,6.26-2.03,10.63-3.34-8.1-2.09-15.14-1.02-22.02-.88-1.58.03-3.2.85-4.78.88-10.99.22-22,.83-33.02,1.57.3.18.61.37.89.55.67.41,1.38.85,2.16,1.31-.63.46-1.22.91-1.78,1.33-2.2,1.66-3.79,2.87-5.27,3.03-.7-.01-2.4-1.47-3.42-2.34-.24-.21-.48-.41-.72-.61.25-.28.5-.56.75-.84.66-.74,1.3-1.45,1.95-2.07-4.57.33-9.14.68-13.72,1.05-2.96.23-6.17.01-8.83.86-8.87,2.82-17.46,3.21-26.26,2.64-3.4-.22-7.17.66-10.76.83-4.07.19-8.13.18-14.2.17,7.95-2.9,13.7-5.13,20.07-7.63-1.52-2.59-2.72-4.63-3.8-6.48-4.05-.16-7.6-.34-11.15-.55.05-.41.09-.82.14-1.23,5.66-1.75,11.33-3.58,17.43-5.61,2.62,1.22.58,3.23-.03,5.04-1.38,4.14.95,6.33,7.05,5.63,11.43-1.32,22.85-.69,34.37-4.01,3.91-1.13,8.46-.85,12.71-1.09,13.95-.77,27.93-1.5,41.78-.9,4.07.18,7.81,2.24,11.81,3.56,3.4-1.27,7.05-3.39,11.13-3.7,2.87-.22,6.31,1.96,9.29,4.26-3.27-.01-6.54.02-10.71.15,1.6,3.5,5.19,5.06,9.43,6.54,3.99,1.38,8.72,2.67,9.03,6.8-6.39-.14-12.42-.11-18.43.23-5.76.33-9.28-1.34-11.7-5.17M1219.17,1929.7c3.34-.58,6.67-1.17,11.77-2.16-3.99,4.29-8.01,3.19-11.77,2.16M1372.5,1955.2c.05-.77.1-1.54.15-2.31,3.95.14,7.92.2,11.84.78,1.07.16,2.05,1.59,3.07,2.44-5.01-.46-10.04-.75-15.06-.91M1389.83,1925.73c-.98-.28-1.81-.96-3.07-1.68,1.24-.57,2.29-1.22,2.49-1.1.91.51,1.72,1.22,2.24,1.93.12.16-1.22.98-1.66.86M1391.89,1916.72c-3.98.37-8.02.23-12.04.38,9.49-4.67,14.65-5.1,23.29-2.55-2.91,3.3-7.58,1.82-11.25,2.16M1394.87,1936.21c2.71-.69,5.42-1.37,9.69-2.3-1.21,4.8-5.03,3.93-9.69,2.3M1513.29,1641.67c.06-.07.51.26.53.36.07.46.05.9.06,1.34-.35-.25-.71-.5-1.06-.75.15-.33.27-.71.48-.96M1512.1,1624.85c.09.24.26.51.26.7,0,.17-.19.25-.3.37-.16-.17-.31-.34-.47-.51.17-.19.35-.37.52-.56M1497.6,1589.48c.11.13-.2,1.54-.57,1.55-.48.02-1.39-.61-1.81-1.25-.33-.49-.2-1.4-.36-2.91,1.26,1.14,2.07,1.78,2.74,2.6M1479.14,1551.97c.13.1.3.75.26.76-.32.07-.68.05-1.02.05-.15-.5-.31-1-.47-1.5.41.22.83.39,1.22.69M1458.7,1528.79c-3.2-1.33-5.86-2.4-9.31-3.74,3.96-3.05,4.01-3.1,9.31,3.74M1436.97,1511.74c.2-.06.86.64,1.3.99,0,.38.01.75.02,1.12-.88-.37-1.77-.74-2.65-1.1.43-.36.78-.84,1.33-1.01M1435.33,1527.98c10.71,17.4,19.87,35.12,27.64,53.14-5.71,2.93-6.1,4.32-2.62,12.21-1.92-3.84-3.91-7.64-5.96-11.41-.39,1.29-.48,2.61-.36,3.94,1.7,4.15,3.33,8.32,4.89,12.52-2.29-4.36-4.54-8.54-4.89-12.52-2.35-5.72-4.83-11.4-7.45-17.02-.49-.89-.97-1.9-1.48-3.15-.96-2.34-2.16-5.26-1.86-7.06.89-5.28-2.43-10.33-5.28-15.41-1.59-2.84-3.29-5.64-4.97-8.45-2.72-4.5-1.47-6.17,2.35-6.79M1438.85,1550.97c-.28.29-.56.57-.84.86-1.19-1.39-2.38-2.79-3.58-4.16.26-.27.52-.55.79-.82,1.22,1.36,2.43,2.74,3.64,4.12M1428.29,1511.63c-.26.43-.51.85-.77,1.28-1.15-.61-2.66-.96-3.38-1.85-5.24-6.44-10.52-12.85-15.74-19.31,8.83,4.49,13.41,13.17,19.89,19.88M1414.16,1524.48c.68,3.69,1.26,7.13,1.85,11-5.26-1.39-9.02-5.45-11.68-8.91,3.26-.73,6.54-1.43,9.84-2.09M1357.05,1741.05c-.88-.5-1.75-.97-2.6-1.44-7.94-4.37-11.98-6.93-9.83-12.95,1.37-3.82,4.16-5.72,8.31-5.66,2.5.04,5.45.81,8.59,2.24l-4.48,17.81ZM1407.75,1759.63c-.05.06-.21.24-.92.23-1.24-.02-3.28-.61-6.24-1.82-4.71-1.91-9.24-4.85-13.62-7.69-.84-.54-1.68-1.09-2.52-1.63l23.12,3c.45,2.59,1.07,6.89.19,7.9M1465.92,1783.55c-2.64-.04-5.33-1.21-8.23-3.57-1.99-1.63-4.58-2.45-6.95-3.06-8.24-2.13-12.78-3.3-14.37-5.5-1.58-2.17-1.08-6.57-.19-14.56.2-1.8.39-3.61.57-5.42l.12-1.14,1.15-.4c1.11,1.96,2.17,4.03,3.2,6.04,3.03,5.93,6.17,12.07,11.07,16.34,4.42,3.85,10.66,5.51,16.69,7.12,1.53.41,3.09.82,4.62,1.27-2.78,1.98-5.27,2.9-7.68,2.87M1472.06,1716.25c-1.07-.02-2.07-.11-2.98-.27-9.84-1.81-19.78-4.38-29.39-6.86-5.78-1.49-11.77-3.04-17.68-4.41-22.36-5.17-37.88-22.26-50.34-35.99-10.35-11.4-18.9-24.15-24.72-36.86-4.83-10.55-7.78-21.85-10.39-31.82-1-3.84-1.95-7.46-2.92-10.72.9-17.34,3.01-26.99,12.43-34.72,4.79-3.94,9.02-13.59,7.29-20.12-2.13-8.05,1.18-13.23,5.19-18.37,19.06,21.31,33.37,46.64,41.43,73.38.24.81,1,1.36,1.84,1.37.13,0,.26,0,.38-.03.98-.18,1.64-1.05,1.53-2.02l-2.29-19.98c34.15,41.98,62.53,88.15,84.41,137.33-.25,2.85-1.06,5.28-2.19,6.56-1.88,2.13-6.75,3.62-11.59,3.55M1489.01,1768.43l-4.32-12.75,1.39-.62c3.12,1.85,4.67,3.52,5.13,5.51.47,2.07-.25,4.66-2.19,7.87M1512.59,1665.73c-.35-.81-1.03-1.75-1.02-2.39.1-6.52-2.03-10.77-6.98-14.16-2.24-1.54-4.25-6.23-5.95-9.73-1.85-3.82-3.63-7.92-4.76-11.91-2.02-7.15-6.33-13.07-9.28-19.62-4.03-8.84-4.13-8.92-9.29-5.22-2.83-2.52-3.09-4.86-2.53-7.94.91-4.89,1.42-10.07,1.45-15.43.02-1.84-1.27-4.45-2.33-6.59-3.26-6.63-7.04-13.06-10.52-19.55-3.39-6.32-6.53-12.71-10.36-19.56,7.14,1.85,12.52,7.66,17.68,13.29,1.02,1.11,1.99,3.59,1.84,4.73-.46,3.59,1.41,6.5,4.02,9.43,4.31,4.85,4.93,10.53,7.13,15.85,2.58,6.23,5.08,12.53,7.82,18.75.85,1.93,2.98,3.89,4.65,5.08,2.98,2.13,4.8,4.94,6.07,8.82.96,2.95,2.33,5.87,3.49,8.81.35.88,1.06,1.86,1.1,2.61.66,12.73,7.74,25.43,8.76,38.34.18,2.23.27,4.45.37,6.67-.45-.09-.91-.18-1.37-.28M1588.83,1789.16c-4.73,3.53-10.11,6.34-14.85,8.81-1.44.76-2.83,1.48-4.12,2.18-2.15-.66-4.07-1.13-5.78-1.55-3.21-.78-5.52-1.35-6.65-2.53-2.53-2.66-4.33-6.02-6.24-9.58-.48-.89-.95-1.77-1.44-2.65.91-.36,1.82-.74,2.72-1.12,3.51-1.46,6.83-2.85,10.29-3.29,1.79-.23,3.72-.32,5.92-.29,3.01.04,6.15.33,9.18.6,1.15.1,4.06.35,4.06.35,1.62.12,5.92.46,6.58.91,1.22,2.86,1.11,7.45.33,8.16M1796.82,1609.57c1.24,1.16,2.46,2.11,2.45,2.37-.04,1.16-.33,2.27-.78,3.05-.1.18-1.65-1.03-1.76-1.54-.23-1.15.02-2.27.09-3.88M1796.17,1631.78c-5.62-.08-6.74-4.33-7.5-9.74,2.13,2.66,4.25,5.35,7.5,9.74M1740.96,1503.26c3.65,3.07,6.49,7.76,9.46,11.86,9.77,13.46,18.72,27.58,25.88,42.44,2.1,4.38,2.19,9.31,3.05,14.09,3.05,2.99,7.09,5.97,9.58,10.22,1.76,2.99,1.43,7.59.7,11.64-1.71-3.5-3.46-6.97-5.8-11.33-2.6,3.15-2.27,7.53-1.55,12.52.69,4.7,1.83,10.11-2.19,11.85-3.12-6.63-6.22-12.78-9.62-18.71-3.26-5.68-3.43-9.89-1-14.1,2.72,2.82,5.25,5.48,8.82,9.47-2.2-9.32-7-16.15-10.87-23.08-.89-1.6-2.56-2.84-3.45-4.42-9.9-17.43-21.36-33.98-34.34-49.36-2.2-2.61-4.27-5.75-6.83-7.6-3.19-8.24-6.81-16.46-10.85-24.63,10.34,9.09,18.31,20.15,28.99,29.13M1773,1638.16c-.57.21-1.14.43-1.71.65-.72-2.37-1.48-4.73-2.26-7.08.44-.2.88-.39,1.32-.59.91,2.33,1.8,4.67,2.65,7.03M1755.4,1560.84c-2.47-3.72-4.53-7.74-6.89-11.56,9.52,6.69,12.8,11.84,14.88,21.66-4.68-1.34-5.7-6.65-7.99-10.1M1755.99,1597.89c-.49-1.98-.98-3.96-1.89-7.3,3.68,3.03,4.11,5.18,1.89,7.3M1745.38,1567.52c-6.57-2.9-6.88-3.6-10.69-15.38,6.43,4.22,7.52,10.15,10.69,15.38M1742.5,1536.88c.46.21,1.23.4,1.34.64.33.77.4,1.54.56,2.31-.47-.21-.94-.42-1.67-.73-.07-.73-.15-1.47-.23-2.22M1752.33,1585.28c-3.89-3.1-6.54-5.12-10.56-8.04,5.43-2.4,7.79,1.24,10.56,8.04M1745.49,1561.24c.29-.09.58-.18.87-.27.43.97.86,1.94,1.25,2.92.02.04-.5.21-.5.21-.56-.96-1.08-1.91-1.62-2.86M1760.51,1605.1c1.8,3.86,3.68,7.74,5.04,11.77.37,1.1-.6,2.51-.97,3.77-1.2-1.19-3.04-2.22-3.48-3.55-1.23-3.71-1.95-7.53-2.98-11.29.8-.23,1.59-.47,2.39-.71M1732.1,1545.19c-.18.12-.34.36-.56.31-.21-.05-.47-.4-.71-.62.04-.25.08-.5.12-.74.38.35.76.71,1.15,1.06M1658,1572.65c6.95-12.5,9.19-24.17,7.05-36.72-.38-2.2,2.66-6.91,5-7.75.11-.04.37-.11.84-.1,2.44.04,6.46,1.98,7.95,3.85l4.93,6.14c12.48,15.56,25.4,31.66,36.6,48.38,11.49,17.15,22.13,35.28,32.43,52.8,3.11,5.29,6.21,10.58,9.35,15.85,1.66,2.79,2.82,6.01,3.85,8.85.4,1.09.78,2.15,1.17,3.13-.27,1.16-.47,2.24-.66,3.23-.38,2.03-.68,3.62-1.35,4.86-3.14,5.84-13.93,10.12-25.09,9.95-5.87-.09-10.82-1.44-13.93-3.8-16.23-12.32-36.67-29.31-50.78-51.54-6.71-10.58-10.7-23.17-14.55-35.34-1.29-4.08-2.58-8.16-3.97-12.16-.9-2.6-.38-6.84,1.17-9.65M1762.81,1771.46c-7.32.52-14.63,1.03-21.95,1.55-.17-.63-.34-1.26-.51-1.89,7.42-.32,14.84-.64,22.26-.96.07.43.14.87.21,1.3M1733.56,1761.96c-2.5,2.76-6.81,2.28-11.33,1.7-6.1-.78-12.28-1.41-19.76-2.25,6.55-5.32,16.85-7.57,24.93-5.88,5.7,1.19,8.4,3.94,6.16,6.43M1629.47,1800.73c-2.22-1.12-4.13-2.45-5.7-3.98,1.75.34,3.79.9,6.19,1.7l-.49,2.28ZM1637.95,1770.35c-1.62,1.79-4.92,2.59-10.39,2.51-.95-.02-1.98-.06-3.09-.12l15.06-10.62c.31,4.11-.2,6.71-1.58,8.23M1643.76,1678.94c.84-.74,2.18-1.94,2.85-2.26,1.83.85,3.59,2.58,5.78,4.74.64.63,1.31,1.29,2.04,1.99-.97.58-1.87,1.14-2.7,1.66-1.12.7-2.47,1.55-3.11,1.88-1.82-1.55-3.32-3.61-4.9-5.78-.32-.44-.65-.89-.98-1.33.34-.29.68-.59,1.02-.9M1656.76,1786.69c-2.59,1.9-5.98,2.9-9.56,3.95-.96.28-1.92.57-2.86.87l-1.38-2.66,12.03-9.83,1.38.35c.06.78.14,1.6.23,2.41.18,1.63.48,4.37.16,4.91M1659.91,1760.51c5.12-2.56,9.05-3.28,13.85-2.71.06-1.34.36-2.91.7-4.48.21-.99.43-2,.58-3l1.82-.42,17.03,17.89c-1.8.21-3.47.31-5.01.29-7.03-.1-11.57-2.53-14.75-7.87-.03-.06-.03-.15-.06-.21-3.86,1.3-7.9,1.42-14.16.51M1671.56,1782.57c10.99-2.74,19.32-4.22,28.75-3.34-7.8,2.62-15.81,4.79-28.75,3.34M1764.55,1820.59c-1.31-.38-2.09-.61-2.88-.84.82-.49,1.52-1.07,2.53-1.42.3-.11,2.19.5,2.12.61-.37.58-1.13,1.1-1.77,1.66M1756.23,1790.12c-11.35.56-22.77.77-34.08,1.54-8.3.57-15.9.4-23.03-1.93,27.21-2.6,54.34-4.43,81.46-6.31,4.07-.28,9.18.15,10.76-3.8-21.71-1.25-43.71,2.09-67.22-1.12,10.71-3.79,19.78-3.11,28.55-3.3,8.5-.18,18.14.97,22.14-4.79.35-.5,2.4-1,3.71-1.05,14.56-.6,29.19-5.11,42.83-.34,18.1-5.74,20.22-7.64,15.59-14.23-8.14.9-16.44,1.81-24.72,2.76-7.87.9-15.4,4.21-26.1.71,18.68-4.02,35.76-7.69,53.35-11.47l-2.52,8.01,20.68,1.36,11.33.95c3.97-.94,8.2-.98,12.96,1.09l-12.96-1.09c-2.79.66-5.45,1.75-8.05,2.93-1.37-1.62-2.25-2.67-3.27-3.88-8.81.95-13.29,3.3-12.69,7.67,4.97,1.53,9.48,2.92,16.83,5.18-9.35.92-14.83,1.46-22.09,2.17,10.76,6.13,28.14-.11,37.93,6.27-11.14,2.47-21.29,1.81-31.54,1.49-5.21-.16-12.16-.53-15.57.86-14.17,5.77-31.78,5.92-47.74,8.58-8.34,1.39-17.63,1.31-26.52,1.76M1787.92,1819.28c0-.54-.02-1.08-.02-1.63,2.18-.04,4.36-.08,6.54-.12.07.36.15.72.22,1.08-2.25.22-4.49.44-6.74.66M1797.01,1800.19c-.22.03-.62-.26-1.39-.6,1.76,0,3.05,0,4.34,0-.97.21-1.94.45-2.95.61M1861.37,1806.82c-15.41-.07-30.76-.71-46.14-1.1,36.25-3.62,79.12-2.85,93.38,1.05-16.63,3.77-31.9.12-47.24.05"/>
        <path class="cls-2" d="M1445.09,1565.68c.5,1.05.99,2.1,1.48,3.15.6,1.09,1.22,1.93,1.91,2.57-1.11-1.92-2.25-3.82-3.39-5.72"/>
        <path class="cls-2" d="M2401.79,1420.49c.36.29.79.45,1.23.45.46,0,.92-.15,1.28-.46,14.8-12.65,29.05-26.57,42.18-41.2,14.1-12.09,26.99-27.41,39.42-46.82,10.04-15.68,18.14-32.68,25.99-49.13,1.36-2.85,2.71-5.69,4.08-8.53,4.76-9.9,10.42-19.7,15.9-29.17,11.59-20.07,23.58-40.83,28.11-64.18.64-3.28-.78-6.78-2.16-10.16-.55-1.37-1.11-2.74-1.51-4.07-.18-.58-.63-1.06-1.22-1.26-.2-.07-.41-.11-.62-.11-.4,0-.79.11-1.12.33-1.04.71-2.26,1.35-3.56,2.03-3.08,1.61-6.26,3.28-7.48,6.21-12.29,29.56-29.86,57.47-52.22,82.97-16.21,18.49-37.66,32.04-58.4,45.14-5.75,3.63-11.48,7.25-17.1,10.97-57.09,37.77-105.86,84.14-149.1,141.76-4.07,5.42-13.08,9.58-20.52,9.47-2.73-.04-6.35-.69-8.05-3.56-4.33-7.29-11.55-11.4-18.54-15.37-3.49-1.99-6.78-3.86-9.73-6.1-11.48-8.73-22-19.28-32.17-29.49l-1.06-1.06c-2.59-2.6-5.21-5.21-7.84-7.82-18.21-18.13-37.05-36.88-51.22-57.95-13.44-19.98-22.67-42.78-31.59-64.82l-1.6-3.95c-.7-1.71-1.48-3.43-2.31-5.15-5.45-26.99-3.75-54.74,4.92-80.26.27-.79-.04-1.67-.75-2.15-.32-.22-.7-.33-1.07-.33-.44,0-.89.14-1.24.43-19.55,15.9-32.06,40.2-33.98,65.16l-3.29-8.59c-.28-.74-1.01-1.23-1.8-1.24-.08,0-.16,0-.24.01-.88.09-1.57.76-1.67,1.62l-6.34,54.51c-1.28,2.59-1.74,5.71-2.02,8.43l-.32,3.13c-2.69,26.2-5.47,53.3-.9,80.35.92,5.45,3.41,10.65,5.83,15.68,1.86,3.88,3.78,7.88,4.9,11.88,5.56,19.82,19.49,33.81,32.96,47.33,2.59,2.61,5.2,5.22,7.76,7.89,9.96,10.38,19.18,21.38,28.06,32.3-1.39-.91-2.77-1.82-4.15-2.74-.32-.22-.69-.33-1.07-.33-.39,0-.78.1-1.11.33-.65.44-.95,1.23-.75,1.98,5.83,22.06,26.44,36.94,47.05,50.28l33.24,21.53c.32,2.52-.29,5.45-1.85,8.93-3.64,8.11-7.4,16.19-11.15,24.26-3.55,7.63-7.1,15.25-10.54,22.9-2.85,6.33-5,12.82-7.08,19.09-2.52,7.59-5.11,15.44-8.95,22.88-4.93,9.56-8.42,19.62-11.8,29.35-2.91,8.38-5.92,17.03-9.82,25.3-3.98,8.43-8.52,16.79-12.92,24.87-4.76,8.76-9.69,17.82-13.95,27.06-4.55,9.88-7.5,20.16-10.34,30.1-1.27,4.43-2.54,8.87-3.95,13.29-1.55,4.87-3.31,9.78-5.02,14.53-1.46,4.07-2.92,8.13-4.27,12.23-.33,1-1.19,3-2.2,5.31-5.06,11.69-7.23,17.76-5.88,20.61l1.9,3.98c1.85,3.85,4.09,8.55,6.21,13.29,2.2,4.94,5.16,7.47,8.79,7.52,2.22.03,4.56-.85,7.15-2.71,3.1-2.22,6.06-4.88,9.2-7.69,6.64-5.96,13.51-12.13,21.61-13.68,2.8-.54,5.04-.69,7.2-.83,4-.27,7.78-.52,13.37-3.29,8.08-4,16.43-8.13,25.56-10.32,11.61-2.78,25.83-4.13,41.11-3.9,14.57.22,29.94,1.84,44.45,4.7,7.97,1.56,15.5,3.47,22.39,5.65,1.88.6,3.71,1.27,5.5,1.98-18.93.13-37.11,3.48-54.08,9.99-.87.33-1.36,1.24-1.14,2.14.2.85.98,1.46,1.87,1.48.04,0,.09,0,.13,0,5.55-.29,11.19-.4,16.78-.31,36.78.55,73.72,9.24,106.86,25.14,3.14,4.23,5.96,6.22,8.83,6.26,4.25.06,7.18-4.13,9.27-7.79,6.04-10.63,12.2-21.19,18.36-31.76,4.26-7.31,8.52-14.61,12.74-21.94,1.85-3.21,3.74-6.69,5.09-10.45,1.6-4.49,3.23-8.97,4.85-13.45,5.08-14.02,10.33-28.51,14.82-43.02,6.6-21.34,12.93-43.16,19.06-64.25,3.12-10.76,6.25-21.52,9.42-32.27,6.96-23.58-9.47-48.53-22.67-68.57-1.59-2.42-3.14-4.77-4.59-7.03-18.5-28.86-37.01-47.88-58.25-59.86l-1.2-.67c-2.66-1.48-5.18-2.88-7.23-4.79-1.42-1.32-2.61-2.88-3.87-4.53-1.13-1.48-2.3-3-3.67-4.39-4.46-4.5-10.21-6.96-15.78-9.33-4.06-1.73-7.9-3.37-11.27-5.74-3.14-2.21-6.38-4.4-9.65-6.6-5.7-3.84-11.6-7.81-16.95-11.94,28.77-14.03,54.8-33.88,75.38-57.49.59-.68.6-1.69.01-2.39-.38-.45-.93-.69-1.48-.7-.32,0-.64.07-.93.22l-29.32,15.4c20.51-16.19,40.21-33.6,58.76-51.95l7.99-3.36-6.37,10.02c-.5.78-.32,1.81.41,2.42M2066.11,1393.08l-11.41-19.25c5.1,7.06,9.11,12.61,13.04,18.05-.82.64-1.18,1.43-1.63,1.2M2072.36,1372.98l16.55,8.94c.9,3.64,1.79,7.2,3.11,12.5-7.43-6.93-13.65-11.34-19.66-21.44M2103.8,1428.93c2.01,1.85,4.03,3.71,6.04,5.56-.31.43-.62.86-.92,1.3-2.1-1.79-4.19-3.58-6.29-5.37.39-.5.78-.99,1.17-1.48M2108.81,1459.91c1.49.65,2.8.89,3.54,1.63.73.73.87,1.95,1.28,2.95l-4.82-4.58ZM2117.01,1415.51c.63.29,1.25.57,1.88.86,0,.49.24,1.32-.05,1.36-.4.06-1.2-.49-1.83-.78,0-.48,0-.96,0-1.44M2123.32,1451.37c-3.75-4.99-4.56-10.8-6.85-16.7,9.66,2.31,14.02,11.01,20.84,15.08,1.25,5.4,2.41,10.45,3.73,16.15-7.75-2.58-13.64-9.08-17.72-14.52M2413.38,1640.98c2.64,2.05,5.28,4.1,7.93,6.15-.38.57-.77,1.13-1.15,1.7-2.54-2.16-5.08-4.31-7.63-6.47.28-.46.56-.92.85-1.38M2286.9,1529.16c.3.29.6.58.9.88-.19.12-.39.24-.59.37-.3-.29-.75-.61-.84-.86-.07-.18.34-.26.53-.38M2287.29,1552.36c.22.09.76.92.72.94-.38.2-.86.3-1.31.42-.45-.63-.9-1.26-1.35-1.9.65.16,1.29.26,1.95.53M2249.51,1525.29c-4.91-.86-8.99-1.57-14.28-2.5q3.97-5.33,14.28,2.5M2282.09,1598.54c-5.71,6.22-5.42,8.42,4.4,18.29,10.34,10.4,21.46,20.28,31.85,30.65l-30.29-22.89c-9.13-8.03-17.78-15.79-16.95-25.14.2-2.29-2.3-6.05-3.77-9.62-7.76,2.39-11.22.95-18.35-7.52-2.63-3.12-5.87-7.03-6.42-9.72-1.6-7.87-8.68-14.31-15.02-21.09-3.54-3.78-7.16-7.51-10.72-11.28-5.74-6.07-4.64-8.7.43-10.24,21.95,23.2,43.49,45.98,64.85,68.56M2234.24,1562.33c-.22.49-.44.99-.66,1.48-2.43-1.65-4.86-3.3-7.28-4.95.2-.47.41-.93.62-1.4,2.44,1.62,4.88,3.24,7.32,4.86M2212.5,1507.15c.25-.13,1.44.71,2.19,1.11.16.52.32,1.05.49,1.57-1.37-.33-2.73-.66-4.1-.99.45-.59.73-1.35,1.42-1.7M2160.98,1428.67c.88,1.13,1.2,2.44,1.75,3.68-.97-.21-1.93-.43-3.66-.82-.39-1.55-.69-2.72-.99-3.9,1,.34,2.48.51,2.89,1.03M2159.21,1447.4c1.72,2.53,3.43,5.07,6.08,8.96-6.12-2.72-7.74-5.35-6.08-8.96M2165.35,1483.08c13.88,5.59,23.32,17.27,35.09,25.64-.18.66-.37,1.31-.55,1.96-1.85-.66-4.11-.88-5.47-2.03-9.92-8.3-19.66-16.78-29.07-25.58M2135.5,1810.66l-2.67-4.64c5.36-3.09,10.74-2.58,16.26-4.34.19.59.38,1.18.57,1.78-4.78,2.32-9.37,4.88-14.16,7.2M2203.94,1852.52c-1.34-5.1-1.38-5.2,7.17-7.01-2.53,2.38-4.58,4.38-7.17,7.01M2231.04,1827.07c-.3,0-.69.06-.87-.03-.13-.06.03-.33.06-.51.3,0,.6,0,.9,0-.03.18-.06.35-.1.53M2241.77,1838.67c-.53-.1-1.06-.21-1.6-.31.38-.27.73-.58,1.18-.79.15-.07.83.1.82.13-.08.33-.25.65-.4.97M2258.68,1820.6c-.15.13-.58.14-.89.2-.19-.16-.37-.31-.56-.47.5-.1.99-.2,1.49-.3,0,.19.12.43-.03.57M2259.17,1809.12c-.65-.32-1.3-.64-1.97-.96.42-.23.98-.7,1.23-.66.8.15,1.49.49,2.22.77-.42.24-.84.48-1.48.85M2265.9,1821.68c6.9-2.56,12.45-.33,18.5.02-5.82,3.34-6.6,3.2-18.5-.02M2270.67,1810.08c10.51-3.57,16.48-3.34,25.8.15-3.51,2.75-8.49.78-12.56.7-4.39-.09-8.82-.63-13.24-.85M2282.48,1818.21s-.08.47-.08.47c-1.1-.08-2.17-.18-3.25-.28.07-.26.15-.51.22-.77,1.04.18,2.08.36,3.11.58M2283.35,1842.24c-.6.04-1.36-.57-2.79-1.21,1.64-.54,2.61-.93,3.68-1.1.17-.03,1.29,1,1.12,1.35-.22.45-1.23.92-2.01.97M2290.79,1829.32c.74-5.21,5.03-5.08,12.22-3.62-4.6,1.26-7.67,2.18-12.22,3.62M2301.92,1807.19c3.74-.56,7.26-1.05,12.4-1.64-8.94-3.15-17.09-3.11-24.87-3.81-1.8-.16-3.67.43-5.45.28-19.63-1.64-39.3-1.67-58.78,0-3.31.28-6.97.19-9.84,1.13-9.56,3.13-18.99,4.33-28.92,5.23-3.84.34-7.81,1.86-11.71,2.78-4.43,1.06-8.89,1.99-15.5,3.71,7.74-4.89,13.56-8.23,20.12-11.78-2.37-2.1-4.27-3.74-6-5.21-4.7.73-8.8,1.45-12.91,2.23-.07-.39-.14-.78-.21-1.16,5.95-3.15,12.02-6.16,18.69-9.19,3.39.65,1.46,2.88,1.2,4.68-.57,4.11,2.63,5.63,9.44,4.06,12.86-2.92,26.09-3.09,39.05-6.34,4.43-1.11,9.76-.8,14.68-.88,16.16-.29,32.45.34,48.48,2.66,4.71.69,8.88,3.14,13.33,4.95,4.04-.71,8.55-2.16,13.36-1.83,3.39.24,7.08,2.83,10.14,5.43-3.79-.53-7.59-1.02-12.42-1.52,1.35,3.52,5.21,5.52,9.79,7.54,4.31,1.89,9.46,3.83,8.96,7.68-7.17-1.1-13.91-1.97-20.63-2.52-6.43-.51-10.09-2.54-12.4-6.48M2154.9,1809.6c3.5-1.54,7.02-3.05,12.47-5.2-3.26,4.9-7.97,4.98-12.47,5.2M2188.67,1787.68c11.2-5.2,21.68-.59,33.29-2.16,1.33-4.6,8.22-5.94,15.48-6.64,2.34-.23,4.98-.49,7.07-.14,12.6,2.16,25.44.85,38.34,1.75,11.07.77,22.04,2.66,32.92,4.89,5.91,1.2,10.26,3.37,10.58,7.31-16.79-3.29-32.39-7.59-49.04-6.76-10.83.56-21.49-.52-31.71-4.55-5.05,1.33-11.01,2.64-15.99,4.75-4.51,1.91-8.58,1.99-13.15,1.77-9.13-.43-18.33-.52-27.8-.23M2308.43,1827.13c4.44-1.15,6.48-.36,7.18,2.36-1.93-.66-3.87-1.31-7.18-2.36M2323.37,1847.19c-.07-.26-.14-.52-.21-.77.26.05.59.06.75.17.15.1.11.31.16.47-.23.04-.46.08-.7.13M2334.61,1835.61c-3.79-1.01-7.42-2.45-11.15-3.63.19-.71.39-1.42.58-2.12,4.2.67,8.45,1.28,12.57,2.35,1.12.29,1.86,1.74,2.76,2.66-1.61.27-3.4,1.1-4.76.73M2339.05,1856c-.2-.32-.46-.65-.57-.97-.03-.09.5-.29.61-.24.44.2.8.48,1.19.73-.41.16-.82.32-1.23.48M2348.93,1807.45c-1.09-.42-1.9-1.18-3.24-2.05,1.59-.32,2.98-.73,3.19-.59.96.62,1.76,1.4,2.2,2.14.1.16-1.67.69-2.16.51M2358.23,1839.32c-2.39-.69-4.78-1.36-7.18-2,.04-.43.09-.85.13-1.28,2.44.53,4.88,1.09,7.32,1.67-.09.53-.18,1.07-.27,1.6M2352.29,1817.81c3.3-.2,6.61-.39,11.9-.54-2.77,4.12-6.93,2.76-11.9.54M2389.65,1771.27c-.32.02-.65.02-.97.02-4.32-.07-8.73-2.05-13.19-4.05-18.27-8.22-37.5-14.92-56.09-21.4-10.78-3.76-23.01-8.01-35.37-8.2h-.76c-7.62-.02-15.11,1.52-22.36,3.01-6.78,1.39-13.78,2.84-20.73,2.94-.61,0-1.22,0-1.83,0-2.49-.04-5.05-.21-7.57-.42,18.31-5.69,37.18-9.35,56.22-10.92l-.38-3.73c-.56.05-1.14.06-1.74.05-3.91-.06-8.6-1.22-13.14-2.33-3.72-.92-7.55-1.86-10.94-2.19-4.96-.48-10.02-.76-15.05-.83-3.88-.06-7.83,0-11.73.19-34.05,1.6-67.43,12-91.58,28.55-1.23.84-2.88,2.02-4.69,3.42-.18-6.17,2.27-13.84,7.42-23.29l55.26-101.26c1.46-2.68,2.78-5.32,4.06-7.85,5.64-11.25,9.72-19.38,19.24-19.24,3.92.06,8.62,1.47,14.37,4.32,9.09,4.5,16.73,11.49,24.12,18.24l94.77,86.66c2.88,2.63,5.85,5.34,7.6,8.69,1.14,2.2,1.75,4.62,2.39,7.2.5,2,1.01,4.06,1.81,6.06,2.22,5.59,6.33,10.05,10.31,14.36,1.3,1.42,2.61,2.83,3.84,4.28,3.2,3.76,8.15,10.9,6.72,17.74M2384.95,1616.52c4.45,3.66,9.04,7.2,13.26,11.07,1.15,1.06,1.17,3.15,1.7,4.76-2.07-.74-4.69-.98-6.09-2.29-3.91-3.65-7.31-7.73-10.91-11.65.68-.63,1.36-1.27,2.04-1.9M2389.48,1656.46c-.61-.09-1.21-.18-1.82-.28-.08-.51-.23-1.07-.19-1.51.01-.12.8,0,.9.13.44.53.75,1.1,1.11,1.65M2375.46,1610.08c-1.78-2.12-3.56-4.24-6.58-7.84,5.84,2.14,7.61,4.42,6.58,7.84M2374.17,1635.42c-.31-.12-.62-.25-.93-.37.07-.34.15-.68.22-1.01.28.25.68.5.81.74.12.22-.05.43-.1.64M2363.78,1596.6c-6.08-2.27-10.18-3.8-16.35-6.1,4.82-4.62,9.35-.97,16.35,6.1M2346.34,1577.6c-8.85-1.63-9.84-2.43-19.55-16,9.31,3.74,13.28,10.58,19.55,16M2332.13,1597.82c-.6.25-2.13-.17-3.05-.82-.72-.5-1.12-1.78-2.25-3.71,2.29.95,3.7,1.42,5.06,2.2.21.12.71,2.14.24,2.33M2304.05,1585.5c6.98,7.47,14.06,14.93,21.55,22.03,2.32,2.2,6.3,3.82,9.18,4.59,5.14,1.39,9.26,4.19,13.48,8.63,3.21,3.38,6.93,6.47,10.44,9.67,1.05.96,2.62,1.84,3.2,2.78,10.02,16.26,28.28,28.15,40.11,43.41,2.06,2.65,4.02,5.34,6.03,8.01-.59.2-1.19.4-1.78.59-1.09-.76-2.66-1.47-3.19-2.27-5.4-8.19-11.26-12.09-19.82-13.3-3.88-.55-10.06-5.36-14.84-8.9-5.23-3.88-10.57-8.24-14.97-12.9-7.86-8.32-17.49-14-25.78-21.45-11.19-10.07-11.32-10.25-15.4-2.77-5.36-2.21-7.31-5.37-8.61-9.88-2.07-7.17-4.68-14.55-7.85-21.97-1.09-2.55-4.3-5.66-6.92-8.25-8.09-7.99-16.58-15.71-24.52-23.79-7.73-7.86-14.97-16.04-23.14-24.83,10.52.98,20.26,7.65,29.84,13.88,1.88,1.22,4.37,4.35,4.73,5.97,1.15,5.11,5.15,8.56,10.13,11.68,8.22,5.16,12.15,12.66,18.12,19.06M2340.83,1432.59c-1.45,5.57-2.45,8.47-7.56,8.39-.47,0-.97-.04-1.38-.07-1.22-.49-3.77-4.65-3.59-5.85,2.16-8.03,6.49-7.96,7.91-7.94,1.67.03,3.61.53,5.78,1.5-.46,1.32-.81,2.67-1.16,3.98"/>
        <path class="cls-2" d="M990.89,1872.32l68.56-33.07c3.36-1.62,9.9-4.33,15.9-4.24,1.41.02,2.71.2,3.85.54,1.89.56,3.86.85,5.86.88,3.16.05,6.35-.59,9.22-1.84,5.13-2.23,11.59-2.99,16.78-3.6,44.38-5.19,87.79-16.15,129.04-32.57,2.58-1.03,6.12-2.44,6.87-6.96.74-4.41-1.86-8.91-6.33-10.95-1.96-.89-4.11-1.36-6.4-1.4-4.55-.07-9.01,1.53-12.95,2.93-79.57,28.45-167.09,34.06-242.87,37.09-44.97,1.8-82.13,2.39-116.96,1.87-111.36-1.67-200.03-15.28-279.05-42.83-21.96-7.66-45.68-18.31-55.08-39.19-9.22-20.49-2.63-46.02,19.58-75.88,31.96-42.96,73.9-79.53,121.27-105.76,12.28-6.8,30.53-14.85,47.76-14.59,9.36.14,17.48,2.74,24.16,7.73,10.57,7.89,15.81,20.75,20.88,33.18l1.3,3.17c11.2,27.17,25.89,52.94,43.68,76.62,5.82,7.75,12.86,16.43,22.69,21.22,3.67,1.79,7.83,3.07,12.69,3.9,13.23,6.75,28.06,10.43,42.92,10.66,8.7.13,17.1-.91,25.08-3.09-.46.42-.92.84-1.37,1.26-2.93,2.68-5.96,5.45-8.53,7.42-.66.51-.9,1.38-.58,2.15.29.72,1,1.19,1.78,1.2.06,0,.11,0,.17,0,36.66-2.66,84.37-16.83,103.67-69.18,1.78-1.98,3.45-3.12,5.09-3.5.33-.07.68-.11,1.05-.1,5.62.08,13.24,9.17,15.59,16.53l-1.44,4.71c-.85,2.81-1.57,5.78-.11,8.54.96,1.82,3.11,4.01,7.86,4.08,2.51.04,5-.53,6.65-1.02,43.31-12.74,82.79-35.8,114.6-66.88l-2.75,11.51c-.19.79.17,1.62.89,2.04.31.18.65.27.98.28.46,0,.91-.14,1.27-.45,29.06-24.55,40.76-63.78,50.16-95.3,3.43-11.51,6.76-23.11,10.08-34.71,3.32-11.59,6.64-23.17,10.07-34.68.27-.89-.18-1.85-1.06-2.24-1.99-.9-4.03-1.38-6.08-1.41-12.04-.18-21.24,14.63-25.66,23.47-20.4,40.88-54.36,69.37-90.83,76.2-2.93.55-5.45.8-7.72.77-6.71-.1-11-2.77-13.11-8.17-1.85-4.71-1.06-10.26,2.12-14.82,1.48-2.13,2.9-4.09,4.27-5.97,5.06-6.96,9.43-12.96,12.98-22.66,1.07-2.91.58-7.47-2.08-10.04-1.43-1.39-3.17-2.14-5.02-2.17-6.38-.1-12.26,8.02-14.46,13.16-11.79,27.43-36.54,51-67.92,64.68-24.61,10.72-53.41,15.91-85.6,15.43-3.49-.05-6.97-.17-10.46-.35-9.92-.51-22.82-1.65-34.65-5.9-24.4-8.76-44.97-30.98-56.45-60.95-2.35-6.12-4.34-12.55-6.27-18.75-3.85-12.38-7.83-25.18-14.83-36.54-10.31-16.76-25.28-25.4-44.48-25.69-25.51-.38-54.11,13.84-78.72,27.79-38.5,21.84-72.77,52.43-101.84,90.91-36.64,48.5-65.18,108.94-89.82,190.21-12.03,39.68-21.3,85.09,1.16,121.08,12.39,19.86,29.69,28.39,43.48,33.57,38.05,34.82,89.32,55.23,140.72,56,2.62.04,5.23.03,7.86-.04.76-.02,1.39-.48,1.67-1.15,6.41.6,12.82,1.18,19.12,1.76,2.29-5.49,2.22-8.43-2.7-11.48,3.08-.09,6.16-.19,9.24-.31.07,5.48,4.6,8.21,13.03,8.94.83-1.6,1.54-2.99,2.65-5.14,6.38,3.32,12.97,6.17,20.29,1.24-.08-.07-.97-.83-2.71-2.33,13.26-2.71,25.68-4.05,37.35,1.87,2.6-2.47,4.14-5.11,7.06-6.35,2.72-1.16,6.92-.83,10.47-1.15.18-.68.35-1.35.53-2.03-4.99-1.16-10-2.32-15.23-3.53,6.27-1.38,12.37-2.94,18.24-4.66,5.91.64,11.17,2.14,14.7,4.47,4.5,2.99,9.24,2.75,14.55,2.62,5.9-.15,11.83-.01,20.68.01,5.87-4.37,15.66-7.48,28.79-6.75,4.24.23,9.39-3.44,13.28-5.91,3.06-1.94,4.83-4.76,7.82-7.85-9.37-.5-18.62,1.43-27.09,4.41-7.35,2.59-12.93,2.71-19.23-1.43-2.99-1.96-6.55-3.56-10.24-5.19,2.72-1.86,5.39-3.95,7.97-6.35,2.95-1.78,5.8-3.66,8.6-5.58,16.41,11.53,52.61,4.94,67,.64-8.24-7.13-19.36-11.01-30.28-10.56,2.39-3.96,8.11-4.74,12.7-3.51,4.6,1.24,8.63,3.97,13.1,5.61,4.47,1.64,10.01,1.95,13.43-1.22,2-1.85,2.91-4.9,1.82-7.41-.51-1.18-1.51-2.13-2.68-2.71,9.46.56,18.93,1.11,28.39,1.67,2.35.84,4.81,1.38,7.43,1.41,1.83.01,3.6-.25,5.32-.67,1.1.07,2.2.13,3.3.19,2.79.16,5.7.31,8.27-.71,2.55-1.02,4.66-3.55,4.25-6.21M815.55,1635.47l-.09-1c-.26-2.72-.52-5.51-.53-8.23.55-.08,1.22-.17,1.75-.24.13-.02.26-.03.39-.05l1.84,9.14-3.36.37ZM820.51,1616.8c-.32-.26-.58-.57-.85-.86.38-.04.76-.08,1.14-.12.11.31.26.63.28.91,0,.08-.48.12-.56.06M831.48,1626.92c-.1-.12-.03-.28-.03-.42.2.02.41.04.61.06,0,.22,0,.45,0,.67-.2-.1-.48-.19-.59-.32M861.7,1652.24c-.15,0-1.02-.97-.83-1.23.24-.34,1.16-.62,1.84-.58.52.04,1.12.62,2.3,1.32-1.48.26-2.36.47-3.31.5M900.13,1651.41c-.14.04-.7-.2-.68-.23.12-.25.31-.49.49-.73.44.16.89.33,1.33.49-.37.17-.71.36-1.14.47M927.55,1649.78c2.62-1.49,4.77-2.76,7.53-4.42.17,4.38.18,4.44-7.53,4.42M951.19,1643.96c-.06.17-.91.25-1.39.37-.28-.2-.55-.39-.83-.59.73-.41,1.45-.82,2.17-1.24.04.49.21.99.04,1.46M980.49,1634.99c-7.83,3.68-16.51,2.17-24.74,3.03-.18-.41-.36-.81-.53-1.22,1.04-.46,2.07-1.32,3.09-1.34,7.4-.15,14.78-.34,22.18-.46M957.28,1613.41c-1.15,2.65-2.34,5.29-3.56,7.92-3.03-1.52-5.84-2.97-8.95-4.65,3.73-2.89,8.63-3.29,12.52-3.27M926.38,1622.84c.07.33.13.66.19.99-1.62.11-3.25.21-4.88.29-.06-.35-.13-.7-.19-1.05,1.63-.07,3.26-.14,4.88-.23M888.47,1615.8c5.37,1.46,10.78,2.8,16.23,4.02.9.14,1.89.35,3.06.67,2.2.6,4.94,1.34,6.09,2.52,3.38,3.46,8.77,3.89,13.94,4.66,2.89.43,5.8.77,8.71,1.12,4.68.55,5.25,2.31,3.72,5.28-18.19-1.97-35.81-5.19-52.93-9.54.82-5.52.01-6.54-7.52-8.39,3.78.74,7.58,1.42,11.38,2.03-.74-.97-1.65-1.74-2.68-2.38-3.9-1.06-7.78-2.18-11.63-3.37,4.36.77,8.56,1.47,11.63,3.37M870.68,1632.26c3.08,3.26,6.59,6.4,10.47,9.31,1.33,1,3.89,1.52,6,1.94,6.51,1.32,14.74-6.12,21.27-5.03,6.35,1.06,12.62,2.34,19.58,3.38-5.04,3.94-12.04,4.52-18.8,5.05-1.33.11-3.64-.56-4.39-1.28-2.37-2.26-5.46-2.53-8.94-2.31-5.76.36-11.81,6.03-16.82,4.68-3.02-.81-6.04-1.64-9.07-2.46l5.65,7.23c-.2.14-1.94,1.39-2.55,1.81-2.16-2.46-4.17-5.13-6.12-7.72l-.52-.69,1.6-1.14c-2.22-.59-4.43-1.18-6.66-1.73-1.84-.45-2.86-2.31-4.66-2.14-3.22.3-6.11-.52-9.28-2.36-2.42-1.4-3.47-10.85-6.01-12.14-.76-.39-1.82-.63-2.3-1.1-4.55-4.5-10.37-7.84-16.1-11.3,1.33.2,2.65.35,3.98.37,2.77,1.24,5.51,2.55,8.21,3.97,1.25.66,2.49.96,3.69.99,1.96.84,4.02,1.39,6.37,1.73,1.18.17,2.29.1,3.34-.13,3.2,3.87,6.36,8.08,9.93,9.69,7.98,3.55,5.1,4.39,5.08-1.17,3.3-.59,5.14.48,7.08,2.53M815.94,1559c1.29.71,2.58,1.42,3.88,2.13l1.04-1.47c-.02,1.65-.03,3.3-.05,4.95-1.52.5-3.34,0-4.38-1.21-1.04-1.21-1.24-3.04-.48-4.4M851.15,1602.02l11.46,6.39c-13.67-3.48-26.68-9.54-38.09-17.75-5.86-4.21-11.79-10.03-11.46-17.06,12.7,9.47,25.4,18.94,38.1,28.41M809.94,1554.27c-.05,1.29-1.58,2.27-2.82,1.82-1.24-.45-.85-.11-.1-1.15.69-.96-.47-2.54-1.63-2.21,1.27-.33,4.6.26,4.55,1.55M799.81,1556.15l-.26,4.97c-1.28-1.38-1.16-3.76.26-4.97M798.56,1574.85l1.08,2.34c-.53,1.26-2.73,1.26-3.31.01-.58-1.25.91-2.82,2.23-2.35M741.55,1852.8c.63-.61,1.31-1.26,2.01-1.97.45.92.89,1.78,1.3,2.58,1.23,2.39,2.3,4.46,2.06,5.58-.23,1.07-2.11,2.3-3.77,3.38-.39.26-.78.51-1.17.77-.34-.41-.69-.82-1.04-1.23-1.34-1.57-3-3.51-2.94-4.64.05-1.1,1.68-2.66,3.55-4.47M685.01,1854.42c.24-.14.89-.05,1.36-.07.26.24.51.48.77.72-.75.02-1.51.05-2.26.07.03-.25-.12-.59.13-.72M682.61,1869.14c.92.55,1.86,1.11,2.81,1.66-.66.21-1.56.7-1.94.58-1.19-.37-2.16-.96-3.22-1.47.66-.22,1.32-.44,2.34-.78M674.41,1851.48c-10.66,1.84-18.59-2.22-27.55-3.96,9.23-3.06,10.32-2.73,27.55,3.96M654.15,1852.88c-.15.32-.31.63-.46.95-1.52-.45-3.05-.91-4.54-1.4-.07-.02.2-.59.23-.59,1.6.33,3.18.69,4.77,1.04M665.53,1865.44c-16.3,2.35-25.25.77-38.63-5.72,5.72-2.78,12.86.81,18.94,1.79,6.56,1.05,13.1,2.71,19.69,3.93M638.65,1836.37c-1.99,6.55-8.35,5.47-18.8,2.08,7.08-.65,11.81-1.17,18.8-2.08M612.03,1835.47c-6.83.54-9.73-.91-10.25-4.53,2.76,1.25,5.52,2.49,10.25,4.53M540.14,1809.43c3.43,1.39,6.87,2.73,10.32,4.05-.16.53-.31,1.06-.47,1.59-3.54-1.19-7.08-2.41-10.61-3.67.25-.66.51-1.32.76-1.97M526.36,1836.11c5.08-4.62,11.06-1.99,18.09,1.9-5.02-.45-10.05-.93-18.09-1.9M546.93,1855.33c-1.33-1.01-2.38-2.17-2.9-3.21-.12-.23,2.67-.52,3.37-.17,1.56.77,2.64,1.92,4.48,3.32-2.46.06-4.66.28-4.95.06M567.42,1819.05c2.46,0,5.3-.68,7.25.07,5.44,2.08,10.57,4.68,15.9,6.97-.43.86-.85,1.73-1.28,2.59-6.13-1.74-12.36-3.41-18.29-5.65-1.62-.61-2.42-2.61-3.58-3.97M709.75,1896.47c-1.94-.28-3.87-.56-5.76-.8-24.48-3.12-49-7.48-72.81-13.95-7.01-1.91-12.88-5.97-19.27-9.26-6.22.04-13.29.92-20.51-.56-5.07-1.04-10.19-5.17-14.31-9.17,5.63,1.51,11.27,2.95,18.46,4.65-1.4-4.81-6.83-8.2-13.34-11.79-6.14-3.35-13.51-6.94-11.99-11.76,10.56,2.95,20.53,5.51,30.51,7.65,9.56,2.03,14.66,5.42,17.46,10.98-5.72-.08-11.09-.21-18.95-.57,12.9,5.97,25.18,7.69,36.76,10.27,2.68.6,5.6.24,8.25.82,17.67,3.83,35.47,6.9,53.3,9.19l-23.71,2.08c15.34,1.19,31.79,1.23,46.54.42,4.1.37,8.19.7,12.29.99,5.02.35,10.54,1.26,14.98.66,2.17.73,4.42,1.4,6.61,2.11l-44.52,8.05Z"/>
        <polygon class="cls-2" points="1279.57 2115.87 1201.12 2115.87 1201.12 2163.29 1268.03 2163.29 1268.03 2191.23 1201.12 2191.23 1201.12 2238.65 1279.57 2238.65 1279.57 2267.37 1167.29 2267.37 1167.29 2087.15 1279.57 2087.15 1279.57 2115.87"/>
        <polygon class="cls-2" points="1339.81 2238.4 1412.36 2238.4 1412.36 2267.37 1305.98 2267.37 1305.98 2087.15 1339.81 2087.15 1339.81 2238.4"/>
        <path class="cls-2" d="M1596.17,2267.37l-15.64-45.12h-67.16l-15.64,45.12h-34.1l66.91-180.21h35.37l65.88,180.21h-35.63ZM1522.85,2194.31h47.94l-24.1-69.21-23.84,69.21Z"/>
        <polygon class="cls-2" points="1777.92 2087.15 1810.48 2087.15 1810.48 2267.36 1778.69 2267.36 1692.82 2156.88 1679.75 2136.88 1680.26 2170.98 1680.26 2267.36 1647.7 2267.36 1647.7 2087.15 1679.75 2087.15 1761.26 2194.82 1778.69 2218.91 1777.92 2189.43 1777.92 2087.15"/>
        <polygon class="cls-2" points="1956.61 2115.87 1879.19 2115.87 1879.19 2170.72 1947.38 2170.72 1947.38 2199.18 1879.19 2199.18 1879.19 2267.37 1845.35 2267.37 1845.35 2087.15 1956.61 2087.15 1956.61 2115.87"/>
        <path class="cls-2" d="M1966.88,2177.13c0-54.59,39.22-93.56,92.28-93.56s91.78,38.2,91.78,93.56-39.48,93.57-92.03,93.57-92.02-37.17-92.02-93.57M2116.06,2177.13c0-40.24-26.15-63.31-57.16-63.31s-57.42,23.58-57.42,63.06,25.63,63.32,57.67,63.32c30,0,56.91-23.33,56.91-63.06"/>
        <path class="cls-2" d="M2166.06,2256.34l5.9-29.73c14.09,8.45,32.81,14.87,50.76,14.87,22.55,0,35.37-9.75,35.37-23.58,0-35.12-90.24-14.61-90.24-78.7,0-33.07,26.15-55.63,64.86-55.63,20.25,0,43.83,6.16,54.35,14.36l-7.69,28.2c-11.54-6.41-27.95-13.08-45.63-13.08-22.31,0-32.3,10.77-32.3,22.82,0,37.94,89.97,19.22,89.97,79.73,0,34.09-30.76,55.11-68.18,55.11-20.77,0-42.3-5.89-57.17-14.36"/>
        <polygon class="cls-2" points="2444.97 2087.15 2478.81 2087.15 2478.81 2267.36 2444.97 2267.36 2444.97 2193.02 2349.36 2193.02 2349.36 2267.36 2315.52 2267.36 2315.52 2087.15 2349.36 2087.15 2349.36 2162.52 2444.97 2162.52 2444.97 2087.15"/>
        <polygon class="cls-2" points="2646.48 2087.15 2587.26 2198.66 2587.26 2267.36 2553.68 2267.36 2553.68 2198.15 2494.21 2087.15 2530.61 2087.15 2570.6 2170.72 2611.87 2087.15 2646.48 2087.15"/>
      </g>
    </g>
  </g>
</svg>