<?xml version="1.0" encoding="UTF-8"?>
<svg id="Layer_2" data-name="Layer 2" xmlns="http://www.w3.org/2000/svg" xmlns:xlink="http://www.w3.org/1999/xlink" viewBox="0 0 1000 1000">
  <defs>
    <style>
      .cls-1, .cls-2 {
        fill: none;
      }

      .cls-3 {
        fill: #86d53f;
      }

      .cls-4 {
        clip-path: url(#clippath-1);
      }

      .cls-5 {
        fill: #fff;
      }

      .cls-6 {
        clip-path: url(#clippath);
      }

      .cls-2 {
        stroke: #86d53f;
        stroke-miterlimit: 10;
        stroke-width: 5px;
      }
    </style>
    <clipPath id="clippath">
      <rect class="cls-1" width="1000" height="1000"/>
    </clipPath>
    <clipPath id="clippath-1">
      <rect class="cls-1" width="1000" height="1000"/>
    </clipPath>
  </defs>
  <g id="Layer_1-2" data-name="Layer 1">
    <g class="cls-6">
      <g class="cls-4">
        <path d="M857.5,500c0,197.44-160.06,357.5-357.5,357.5s-357.5-160.06-357.5-357.5S302.56,142.5,500,142.5s357.5,160.06,357.5,357.5"/>
        <path class="cls-5" d="M850,500c0,193.3-156.7,350-350,350s-350-156.7-350-350S306.7,150,500,150s350,156.7,350,350"/>
        <circle class="cls-2" cx="500" cy="500" r="350"/>
        <path d="M764.13,530.7c-2.03-7.92,5.1-19.35-7.47-25.29-1.91-.9-2-9.16.39-9.88,9.26-2.81,7.23-10.01,6.95-16.41-.31-6.97,3.12-7.83,8.62-7.95,6.24-.14,9.44,1.39,8.97,8.8-.44,6.88-2.49,15.46,9.46,13.89,5.03-.66,4.55,4.29,4.65,7.96.14,4.77-2.27,6.94-6.47,6.35-7.41-1.05-8.16,3.27-7.85,9.4.34,6.52.18,13.08,0,19.61-.22,8.32.08,15.53,11.32,11.09,5.23-2.07,5.18,2.86,6.4,6.16,1.46,3.94,1.52,6.34-2.91,8.65-17.91,9.36-31.84.65-32.07-20.49-.04-3.68,0-7.36,0-11.88"/>
        <path class="cls-3" d="M236.77,501.73c-22.64-16.43-26.37-42.74-8.52-59.92,3.8-3.66,8.27-7.85,13.03-7.59,15.33.85,27.73-7.15,41.2-12.48,11.76-4.65,22.96-.35,32.98,7.01,3.12,2.29,5.6,4.61,10.23,4.43,22.04-.86,35.74,8.98,39.64,27.45,4,18.94-4.83,34-25.57,43.61-.1,11.7,2.19,23.27,1.53,35.02-.78,13.88-2.92,16.65-15.71,17.21-22.51.98-45.04.83-67.55.11-12.35-.4-14.82-3.42-15.62-16.17-.39-6.12-.22-12.25.34-18.36.7-7.67-.72-14.6-5.97-20.32"/>
        <path d="M388.48,501.05c0-18.42.22-36.84-.13-55.25-.13-6.92,2.02-9.42,8.67-9.16,13.22.5,26.46.22,39.69.44,10.02.16,19.01,3.84,27.26,9.63,20.69,14.54,29.59,46.14,21.49,76.09-6.99,25.84-26.21,41.66-52.26,42.54-12.05.41-24.14-.18-36.18.29-6.77.27-8.75-2.54-8.64-9.31.3-18.41.1-36.83.1-55.25"/>
        <path d="M564.46,517.34c0-13.08.31-26.17-.12-39.23-.23-7.04,2.16-9.38,8.72-9.04,9.3.48,18.66-.17,27.97.27,24.12,1.15,40.29,19.44,40.83,45.77.58,28.46-14.31,47.62-39.28,49.67-10.04.83-20.2.04-30.29.48-6.26.27-8.04-2.45-7.88-8.69.34-13.07.1-26.15.1-39.23h-.04Z"/>
        <path class="cls-3" d="M342.36,508.68c3.07-.39,7.05-1.68,8.69,1.46,3.95,7.52,11.4,9.33,17.48,13.38,17.95,11.95,17.91,26.89-.24,38.88-8.31,5.49-17.48,9.02-26.96,11.35-37.04,9.1-73.91,8.98-110.44-3.09-7.46-2.46-14.57-5.76-20.79-10.82-13.61-11.07-13.37-22.68.05-34.06,7.11-6.03,17.9-6.75,22.01-17,6.89-4.02,11.21-1.79,12.48,6.2,1.17,7.37-2.78,10.51-9.32,10.85-1.94.1-3.89-.12-5.83.07-5.03.49-9.17,2.78-10.78,7.97-1.83,5.88,2.28,9.01,6.17,11.86,5.49,4.03,11.68,6.63,18.08,8.38,34.21,9.34,68.31,8.96,102.15-2.05,4.83-1.57,9.51-3.79,13.46-7.2,7.21-6.22,5.8-14.48-2.96-17.85-2.6-1-5.4-.63-8.07-1.14-9.77-1.85-11.48-7.61-5.19-17.2"/>
        <path d="M724.74,535.85c-5.45-.01-10.91-.17-16.35.06-2.54.11-5.98-1.57-7.47,1.33-1.74,3.4,1.22,6.16,3.08,8.54,6.63,8.51,17.34,9.22,25.79,1.2,3.13-2.97,5.29-4.96,9.92-3.61,7.23,2.12,9.13,4.7,3.58,11.31-10.06,11.99-29.74,15.49-44.05,7.29-14.15-8.11-20.92-26.2-16.25-43.4,4.57-16.83,19.34-27.36,36.51-26.04,16.51,1.27,29.71,13.92,31.94,30.51,1.14,8.44.34,14.61-10.35,12.96-5.34-.82-10.88-.14-16.34-.16"/>
        <path class="cls-5" d="M342.36,508.68c-1.76,3.41-5.4,6.43-2.07,10.9,2.72,3.65,5.82,4.37,10.24,2.94,8.12-2.63,13.43,2.99,16.84,9.29,3.98,7.34-1.34,12.25-6.57,16.18-6.71,5.05-14.35,8.12-22.33,10.12-31.93,8.03-63.91,8.33-95.75-.31-6.68-1.81-13.23-4.87-19.26-8.44-6.06-3.58-13.33-8.6-8.93-17.16,3.49-6.8,9.2-13.27,18.82-9.21,5.46,2.31,10.22-1.06,10.32-6.3.13-6.99-5.08-9.38-11.51-7.92,1.05-2.7,4.74-3.49,4.6-7.04,7.06.78,9.58,4.48,9.03,12.23-.75,10.56.06,21.23-.16,31.85-.1,5.27,1.77,7.15,6.78,7.12,26.03-.18,52.06-.27,78.09-.02,6.03.06,6.71-2.82,7-8.14.72-13.51-2.38-27.27,2.24-40.53.12,1.96.8,3.57,2.61,4.43"/>
        <path d="M521.04,483.78c6.47-6.9,13.54-12.56,22.66-14.07,3.87-.64,8.04-1.36,9.02,4.6.92,5.57-1.24,7.5-6.58,8.82-19.65,4.86-26.06,14.13-26.07,35.74,0,12.7-.11,25.4.04,38.1.06,5.22-.84,8.8-6.92,8.55-5.74-.23-5.8-4.2-5.8-8.49,0-24.58-.19-49.17.14-73.75.07-4.89-3.42-12.66,5.47-13.53,10.14-.99,5.13,8.59,8.05,14.01"/>
        <path d="M653.49,529.13c0-9.41.24-18.84-.06-28.24-.25-7.52,4.24-7.18,9.2-7.37,5.11-.2,7.96.89,7.88,7.24-.27,19.23-.23,38.47-.03,57.71.07,6.71-3.69,6.87-8.35,6.8-4.53-.08-8.77.1-8.68-6.66.13-9.82.03-19.65.04-29.47"/>
        <path d="M670.33,476.23c1.14,7.38-1.31,9.9-8.03,9.95-7.25.05-9.08-2.87-9.11-10.02-.04-7.34,2.15-9.75,9.24-9.82,7.97-.08,9.1,3.9,7.9,9.89"/>
        <path class="cls-5" d="M291.48,540.75c-3.12,0-6.23,0-9.35,0-25.83.02-29.85-5.29-24.99-32.26.62-3.45,2.11-4.77,4.89-5.79,2.58-.95,5.19-2.21,3.17-6.12-1.48-2.85-2.25-6.3-6.57-5.27-2.26.54-4.61.94-6.93.94-9.4.02-16.54-4.26-20.82-13.12-4.31-8.91-3.35-17.62,2.48-25.33,5.8-7.67,13.9-11.51,22.8-8.43,7.01,2.43,10.93.98,15.96-4.42,11.23-12.06,28.04-11.64,39.62.64,4.31,4.56,7.49,6.37,13.92,4.16,10.83-3.73,20.1.4,25.77,11.04,5.35,10.03,4.26,19.88-3.34,28.24-7.65,8.42-16.94,9.18-26.83,4.71-1.41-.64-2.76-1.56-3.96-2.57-4.15-3.49-6.52.14-8.76,2.66-3.51,3.95.47,6.86,2.7,7.4,19.05,4.65,14.33,20.29,14.93,33.81.32,7.27-1.51,10.43-8.99,9.86-8.52-.66-17.13-.15-25.7-.15"/>
        <path class="cls-5" d="M400.98,501.03c-.01-14.3.33-28.62-.16-42.9-.24-7.12,2.05-9.38,8.62-8.84,6.57.54,13.2.04,19.8.15,29.24.47,46.29,19.83,46.07,52.23-.22,31.53-17.49,50.64-46.13,51.04q-28.2.4-28.19-29.63c0-7.35,0-14.71,0-22.06"/>
        <path class="cls-5" d="M581.58,517c0-3.68-.54-7.47.11-11.02,1.22-6.73-4.24-15.66,3.5-19.97,8.78-4.89,26.76,1.16,33.15,9.49,8.2,10.69,8.8,29.81,1.31,41.56-6.17,9.67-21.16,14.56-33.67,11.6-4.34-1.02-4.39-3.74-4.38-7.12.01-8.18,0-16.36,0-24.54"/>
        <path class="cls-5" d="M716.73,522.86c-1.54,0-3.18.37-4.6-.07-3.98-1.22-10.71,3.39-11.63-3.09-.82-5.75,4.59-9.72,9.86-12.05,4.1-1.81,8.21-1.98,12.36-.25,5.7,2.38,11.6,6.69,10.7,12.74-.82,5.48-7.87,1.73-12.07,2.65-1.48.33-3.07.05-4.61.05"/>
      </g>
    </g>
  </g>
</svg>