<?xml version="1.0" encoding="UTF-8"?>
<svg id="Layer_2" data-name="Layer 2" xmlns="http://www.w3.org/2000/svg" xmlns:xlink="http://www.w3.org/1999/xlink" viewBox="0 0 514.13 367.28">
  <defs>
    <style>
      .cls-1 {
        fill: none;
      }

      .cls-2 {
        fill: #cc2229;
      }

      .cls-3 {
        clip-path: url(#clippath-1);
      }

      .cls-4 {
        fill: #272525;
      }

      .cls-5 {
        clip-path: url(#clippath);
      }
    </style>
    <clipPath id="clippath">
      <rect class="cls-1" width="514.13" height="367.28"/>
    </clipPath>
    <clipPath id="clippath-1">
      <rect class="cls-1" width="514.13" height="367.28"/>
    </clipPath>
  </defs>
  <g id="Layer_1-2" data-name="Layer 1">
    <g class="cls-5">
      <polygon class="cls-2" points="96.1 95.15 115.98 95.15 132.94 137.1 162.06 95.15 183.58 95.15 171.62 171.22 153.15 171.22 160.21 126.45 136.74 158.94 122.83 158.94 109.57 126.56 102.62 171.22 84.14 171.22 96.1 95.15"/>
      <g class="cls-3">
        <path class="cls-2" d="M143.02,235.55l18.47-5c.76,5,5,8.04,10.87,8.04s10.21-2.83,10.76-6.85c.98-5.43-6.52-6.63-14.24-8.8-9.67-2.83-21.95-8.26-19.45-23.47,1.96-12.93,15-22.82,31.62-22.82,14.02,0,22.71,7.39,24.34,19.02l-17.39,4.78c-.98-4.67-3.8-7.61-9.35-7.61-6.09,0-10,3.48-10.54,7.17-.87,5.11,5.87,6.74,13.15,8.91,9.56,2.72,23.37,7.06,20.76,22.82-2.17,14.34-15.1,23.36-32.38,23.36-14.24,0-24.78-7.61-26.62-19.56"/>
        <path class="cls-2" d="M222.52,145.98c-1.8,6.87-6.18,11.11-12.29,11.11-6.52,0-9.78-5-8.37-13.58l4.23-26.08h-17.6l-4.45,28.04c-2.72,16.85,6.85,26.41,19.02,26.41,7.39,0,12.82-2.83,16.73-6.96h.22l-1.08,6.3h17.39l3.94-25.24h-17.74Z"/>
        <path class="cls-2" d="M260.03,116.45c-6.41,0-12.06,2.93-16.19,6.96l.98-5.98h-17.6l-4.01,24.8h17.76c1.86-6.65,6.38-11,12.34-11,6.52,0,9.56,5,8.26,13.48l-4.13,26.51h17.6l4.46-28.03c2.61-16.63-6.63-26.73-19.45-26.73"/>
        <path class="cls-2" d="M284.74,144.27c2.5-15.87,16.52-28.8,33.69-28.8,9.56,0,17.5,4.67,21.63,11.85l-15.32,10.11c-1.52-3.37-4.78-5.43-8.91-5.54-6.85-.11-12.71,5.22-13.91,12.5-1.09,7.06,2.93,12.17,9.67,12.28,4.13.11,8.58-2.07,10.98-5.54l12.06,10c-6.41,7.06-15.76,11.63-25.32,11.63-15.54,0-27.06-12.71-24.56-28.47"/>
        <path class="cls-2" d="M351.08,98.86h17.5l-3.42,24.33c4.13-4.02,9.67-6.41,16.08-6.41,13.04,0,22.17,10.32,19.56,26.41l-4.46,28.04h-17.61l4.24-26.62c1.3-8.37-1.85-13.04-8.37-13.04s-11.3,5-12.71,12.61l-4.35,27.06h-17.5l11.03-72.36Z"/>
        <path class="cls-2" d="M71.28,235.38c1.57-10.24,9.2-16.72,18.71-22.36-4.29-6.27-6.58-12.33-5.54-18.29,1.36-9.09,10.03-18.08,23.93-18.08,13.06,0,19.33,9.09,17.98,17.66-1.36,8.36-7.11,14.63-16.2,21l7.53,10.03c1.57-1.99,2.93-4.28,3.87-6.27l18.08.11c-3.76,7.94-7.94,14.21-12.44,19.33l10.03,13.59h-18.39l-2.61-3.34c-6.69,4.91-14.63,7.32-22.47,7.32-13.27,0-24.67-7.32-22.47-20.69M107.23,236.53l-9.61-12.65c-3.97,2.82-7.52,5.54-8.15,9.4-.63,4.08,2.61,7.11,7.52,7.11,3.35,0,7.11-1.15,10.24-3.87M111.09,195.46c.52-3.03-.73-5.64-4.81-5.64-3.34,0-6.38,2.61-6.79,5.75-.52,2.93,1.36,6.06,3.76,9.72,5.33-4.18,7.42-7,7.84-9.82"/>
        <path class="cls-2" d="M216.43,180.69h17.5l-3.42,24.33c4.13-4.02,9.67-6.41,16.08-6.41,13.04,0,22.17,10.32,19.56,26.41l-4.46,28.04h-17.6l4.24-26.62c1.3-8.37-1.85-13.04-8.37-13.04s-11.3,5-12.72,12.61l-4.35,27.06h-17.5l11.03-72.36Z"/>
        <path class="cls-2" d="M269.19,226.09c2.5-15.87,14.45-27.82,29.12-27.82,7.17,0,12.06,2.82,15.32,7.5l.98-6.52h17.61l-8.48,53.79h-17.6l.98-6.09c-4.24,4.46-9.89,7.06-17.5,7.06-13.58,0-22.93-12.06-20.43-27.93M310.38,226.09c1.3-7.39-3.15-12.82-10-12.82s-12.71,5.43-14.02,12.82c-1.19,7.39,3.26,12.82,9.89,12.82s12.93-5.22,14.13-12.82"/>
        <polygon class="cls-2" points="339.06 180.69 356.45 180.69 351.08 217.07 357.6 217.07 374.12 199.25 395.96 199.25 370.31 225.44 388.03 253.04 367.59 253.04 355.86 233.59 348.58 233.59 345.53 253.04 328.15 253.04 339.06 180.69"/>
        <path class="cls-2" d="M442.56,218.73c.36,1.7.52,3.47.57,5.26l-38.94,10.87c2.47,5.63,7.96,7.48,13.08,6.05,4.92-1.37,8.97-4.65,11.16-8.53l12.34,5.81c-4.33,8.32-12.24,14.36-21.79,16.92-15.1,4.1-29.51-5.07-31.35-22.16-1.68-14.09,6.98-30.38,24.45-35.26,14.55-4.06,27.01,4.19,30.48,21.05M426.43,217.14c-2.88-5.85-8-7.24-12.82-5.9-5.02,1.4-9.5,5.59-10.63,12.44l23.45-6.55Z"/>
        <path class="cls-4" d="M76.89,280.18v2.88h-.68v-15.54h.68v8.16c.75-1.76,2.47-2.98,4.62-2.98,2.88,0,5.12,2.3,5.12,5.24s-2.24,5.22-5.12,5.22c-2.15,0-3.87-1.24-4.62-2.98M85.92,277.95c0-2.55-1.95-4.62-4.52-4.62s-4.52,2.07-4.52,4.62,1.97,4.6,4.52,4.6,4.52-2.05,4.52-4.6"/>
        <path class="cls-4" d="M90.79,278.05v-5.24h.68v5.2c0,3.33,1.8,4.54,3.58,4.54,2.3,0,3.87-1.6,3.87-4.56v-5.18h.68v10.25h-.68v-2.42h-.04c-.64,1.57-2.05,2.53-3.9,2.53-2.24,0-4.21-1.51-4.21-5.12"/>
        <path class="cls-4" d="M104.63,272.81h.68v2.36c.64-1.41,2.09-2.48,3.98-2.46v.71c-.19-.04-.35-.04-.54-.04-1.93.12-3.44,1.76-3.44,3.79v5.9h-.68v-10.26Z"/>
        <path class="cls-4" d="M112.42,285.51l.52-.46c.89,1.55,2.24,2.53,4.52,2.53s4.43-1.53,4.43-4.62v-2.78c-.73,1.76-2.49,2.98-4.62,2.98-2.88,0-5.12-2.3-5.12-5.22s2.24-5.24,5.12-5.24c2.13,0,3.87,1.22,4.62,2.98v-2.88h.68v10.13c0,3.5-2.44,5.28-5.12,5.3-2.44.02-4.04-1.06-5.03-2.74M121.89,277.95c0-2.55-1.99-4.62-4.54-4.62s-4.5,2.07-4.5,4.62,1.95,4.6,4.5,4.6,4.54-2.05,4.54-4.6"/>
        <path class="cls-4" d="M137.47,277.55v.5h-9.86c.06,2.61,2.05,4.62,4.62,4.62,1.68,0,3.07-.66,3.9-1.8l.48.37c-.95,1.31-2.53,2.03-4.39,2.03-2.94,0-5.26-2.38-5.26-5.32s2.26-5.37,5.26-5.37,5.14,2.09,5.26,4.97M127.63,277.43h9.2c-.19-2.4-2.05-4.23-4.62-4.23s-4.33,1.82-4.58,4.23"/>
        <path class="cls-4" d="M141.66,272.81h.68v2.36c.64-1.41,2.09-2.48,3.98-2.46v.71c-.19-.04-.35-.04-.54-.04-1.93.12-3.44,1.76-3.44,3.79v5.9h-.68v-10.26Z"/>
        <path class="cls-4" d="M149.55,280.58l.6-.21c.72,1.86,2.3,2.42,3.83,2.42,2.13,0,3.42-1.06,3.42-2.61,0-2.38-3.54-1.57-5.72-2.36-.87-.33-1.66-.93-1.66-2.3,0-1.49,1.47-2.94,3.73-2.94s3.46,1.28,3.85,2.69l-.6.19c-.37-1.18-1.29-2.3-3.25-2.3s-3.09,1.18-3.09,2.36c0,2.74,4.14,1.74,6.13,2.69.79.37,1.26,1.01,1.26,1.97,0,1.84-1.51,3.19-4.08,3.19-1.76,0-3.67-.68-4.43-2.8"/>
        <polygon class="cls-4" points="161.65 282.22 162.31 282.22 161.32 286.05 160.68 286.05 161.65 282.22"/>
        <polygon class="cls-4" points="171.29 272.81 172.01 272.81 175.2 282.21 178.68 272.81 179.41 272.81 182.89 282.21 186.08 272.81 186.8 272.81 183.26 283.06 182.51 283.06 179.03 273.68 175.57 283.06 174.83 283.06 171.29 272.81"/>
        <path class="cls-4" d="M190.49,269.85c0-.27.23-.5.5-.5.29,0,.52.23.52.5,0,.29-.23.52-.52.52-.27,0-.5-.23-.5-.52M190.66,272.81h.68v10.25h-.68v-10.25Z"/>
        <path class="cls-4" d="M196.27,272.81h.68v2.51c.64-1.66,2.05-2.61,3.94-2.61,2.24,0,4.21,1.51,4.21,5.12v5.24h-.68v-5.2c0-3.34-1.8-4.54-3.58-4.54-2.3,0-3.87,1.6-3.87,4.56v5.18h-.68v-10.26Z"/>
        <path class="cls-4" d="M209.53,285.51l.52-.46c.89,1.55,2.24,2.53,4.52,2.53s4.43-1.53,4.43-4.62v-2.78c-.73,1.76-2.49,2.98-4.62,2.98-2.88,0-5.12-2.3-5.12-5.22s2.24-5.24,5.12-5.24c2.13,0,3.87,1.22,4.62,2.98v-2.88h.68v10.13c0,3.5-2.44,5.28-5.12,5.3-2.44.02-4.04-1.06-5.03-2.74M219,277.95c0-2.55-1.99-4.62-4.54-4.62s-4.5,2.07-4.5,4.62,1.95,4.6,4.5,4.6,4.54-2.05,4.54-4.6"/>
        <path class="cls-4" d="M224.08,280.58l.6-.21c.72,1.86,2.3,2.42,3.83,2.42,2.13,0,3.42-1.06,3.42-2.61,0-2.38-3.54-1.57-5.72-2.36-.87-.33-1.66-.93-1.66-2.3,0-1.49,1.47-2.94,3.73-2.94s3.46,1.28,3.85,2.69l-.6.19c-.37-1.18-1.29-2.3-3.25-2.3s-3.09,1.18-3.09,2.36c0,2.74,4.14,1.74,6.13,2.69.79.37,1.26,1.01,1.26,1.97,0,1.84-1.51,3.19-4.08,3.19-1.76,0-3.67-.68-4.43-2.8"/>
        <polygon class="cls-4" points="236.18 282.22 236.84 282.22 235.85 286.05 235.2 286.05 236.18 282.22"/>
        <path class="cls-4" d="M246.27,280.58l.6-.21c.73,1.86,2.3,2.42,3.83,2.42,2.13,0,3.42-1.06,3.42-2.61,0-2.38-3.54-1.57-5.72-2.36-.87-.33-1.66-.93-1.66-2.3,0-1.49,1.47-2.94,3.73-2.94s3.46,1.28,3.85,2.69l-.6.19c-.37-1.18-1.28-2.3-3.25-2.3s-3.09,1.18-3.09,2.36c0,2.74,4.14,1.74,6.13,2.69.79.37,1.26,1.01,1.26,1.97,0,1.84-1.51,3.19-4.08,3.19-1.76,0-3.67-.68-4.43-2.8"/>
        <path class="cls-4" d="M259.07,267.53h.68v7.79c.64-1.66,2.05-2.61,3.94-2.61,2.24,0,4.21,1.51,4.21,5.12v5.24h-.68v-5.2c0-3.34-1.8-4.54-3.58-4.54-2.3,0-3.87,1.6-3.87,4.56v5.18h-.68v-15.54Z"/>
        <path class="cls-4" d="M272.06,277.95c0-2.94,2.24-5.24,5.1-5.24,2.18,0,3.9,1.22,4.64,2.98v-2.88h.68v10.25h-.68v-2.88c-.75,1.74-2.47,2.98-4.64,2.98-2.86,0-5.1-2.32-5.1-5.22M281.8,277.95c0-2.55-1.99-4.62-4.54-4.62s-4.52,2.07-4.52,4.62,1.97,4.6,4.52,4.6,4.54-2.05,4.54-4.6"/>
        <polygon class="cls-4" points="287.5 267.53 288.18 267.53 288.18 277.47 290.79 277.47 295.39 272.81 296.31 272.81 291.35 277.82 296.31 283.06 295.41 283.06 290.77 278.13 288.18 278.13 288.18 283.06 287.5 283.06 287.5 267.53"/>
        <path class="cls-4" d="M309.92,277.55v.5h-9.86c.06,2.61,2.05,4.62,4.62,4.62,1.68,0,3.07-.66,3.9-1.8l.48.37c-.95,1.31-2.53,2.03-4.39,2.03-2.94,0-5.26-2.38-5.26-5.32s2.26-5.37,5.26-5.37,5.14,2.09,5.26,4.97M300.08,277.43h9.2c-.19-2.4-2.05-4.23-4.62-4.23s-4.33,1.82-4.58,4.23"/>
        <path class="cls-4" d="M313.44,280.58l.6-.21c.72,1.86,2.3,2.42,3.83,2.42,2.13,0,3.42-1.06,3.42-2.61,0-2.38-3.54-1.57-5.72-2.36-.87-.33-1.66-.93-1.66-2.3,0-1.49,1.47-2.94,3.73-2.94s3.46,1.28,3.85,2.69l-.6.19c-.37-1.18-1.29-2.3-3.25-2.3s-3.09,1.18-3.09,2.36c0,2.74,4.14,1.74,6.13,2.69.79.37,1.26,1.01,1.26,1.97,0,1.84-1.51,3.19-4.08,3.19-1.76,0-3.67-.68-4.43-2.8"/>
        <path class="cls-4" d="M332.03,277.95c0-2.94,2.24-5.24,5.1-5.24,2.18,0,3.9,1.22,4.64,2.98v-2.88h.68v10.25h-.68v-2.88c-.75,1.74-2.47,2.98-4.64,2.98-2.86,0-5.1-2.32-5.1-5.22M341.76,277.95c0-2.55-1.99-4.62-4.54-4.62s-4.52,2.07-4.52,4.62,1.97,4.6,4.52,4.6,4.54-2.05,4.54-4.6"/>
        <path class="cls-4" d="M347.44,272.81h.68v2.51c.64-1.66,2.05-2.61,3.94-2.61,2.24,0,4.21,1.51,4.21,5.12v5.24h-.68v-5.2c0-3.34-1.8-4.54-3.58-4.54-2.3,0-3.87,1.6-3.87,4.56v5.18h-.68v-10.26Z"/>
        <path class="cls-4" d="M360.43,277.95c0-2.94,2.24-5.24,5.12-5.24,2.15,0,3.87,1.22,4.62,2.98v-8.16h.68v15.54h-.68v-2.88c-.75,1.74-2.47,2.98-4.62,2.98-2.88,0-5.12-2.32-5.12-5.22M370.17,277.95c0-2.55-1.97-4.62-4.52-4.62s-4.52,2.07-4.52,4.62,1.95,4.6,4.52,4.6,4.52-2.05,4.52-4.6"/>
        <path class="cls-4" d="M382.31,272.81h.68v2.49c.7-1.74,2.07-2.59,3.87-2.59,1.64,0,3.23.85,3.81,3.11.58-2.07,2.09-3.11,4.08-3.11,2.09,0,4.12,1.33,4.12,5.12v5.24h-.68v-5.2c0-3.5-1.87-4.56-3.52-4.56-2.09,0-3.73,1.43-3.73,4.56v5.2h-.68v-5.2c0-3.5-1.87-4.56-3.52-4.56-2.07,0-3.75,1.43-3.75,4.6v5.16h-.68v-10.26Z"/>
        <path class="cls-4" d="M403.05,277.95c0-2.98,2.34-5.37,5.28-5.37s5.3,2.38,5.3,5.37-2.32,5.35-5.3,5.35-5.28-2.4-5.28-5.35M412.94,277.95c0-2.61-1.99-4.7-4.6-4.7s-4.58,2.09-4.58,4.7,1.99,4.68,4.58,4.68,4.6-2.09,4.6-4.68"/>
        <path class="cls-4" d="M418.03,272.81h.68v2.36c.64-1.41,2.09-2.48,3.98-2.46v.71c-.19-.04-.35-.04-.54-.04-1.93.12-3.44,1.76-3.44,3.79v5.9h-.68v-10.26Z"/>
        <path class="cls-4" d="M436.2,277.55v.5h-9.86c.06,2.61,2.05,4.62,4.62,4.62,1.68,0,3.07-.66,3.89-1.8l.48.37c-.95,1.31-2.53,2.03-4.39,2.03-2.94,0-5.26-2.38-5.26-5.32s2.26-5.37,5.26-5.37,5.14,2.09,5.26,4.97M426.36,277.43h9.2c-.19-2.4-2.05-4.23-4.62-4.23s-4.33,1.82-4.58,4.23"/>
      </g>
    </g>
  </g>
</svg>