<?xml version="1.0" encoding="UTF-8"?>
<svg id="Layer_2" data-name="Layer 2" xmlns="http://www.w3.org/2000/svg" viewBox="0 0 859.45 543.44">
  <defs>
    <style>
      .cls-1 {
        fill: #050;
      }
    </style>
  </defs>
  <g id="Layer_1-2" data-name="Layer 1">
    <g>
      <path class="cls-1" d="M481.32,0v201.09c-2.1-1.26-4.61-2.01-6.67-3.33-2.79-1.79-3.93-4.62-8.26-4.73s-12.97,5.1-17.64,6.59c-35.06,11.21-78.19-11.27-88.2-46.77-8.62-30.55,5.23-69.62,36.1-81.51,19.62-7.56,42.46-4.43,60.87,4.88V.81l.81-.81h22.99ZM419,75.84c-49.85,5.07-49.57,102.42-1.63,115.91,13.31,3.75,31.64,3.23,40.03-9.42l.08-90.67c-.63-3.98-11.94-10.8-15.67-12.45-7.39-3.26-14.74-4.2-22.81-3.37Z"/>
      <path class="cls-1" d="M482.4,228.12v200.55c-5.06-.57-9.26-7.08-13.78-7.58-5.33-.59-14.48,5.09-20.3,6.77-21.78,6.29-44.05.32-62.06-12.58-28.93-20.73-34.75-59.31-17.74-89.87,18.74-33.67,57.57-37.06,90.08-21.61v-75.68h23.8ZM421.71,303.42c-22.78,2.07-33.51,19.52-37.6,40.27-6.38,32.37,6.92,75.24,45.02,77.95,10.45.74,24.45-2.08,29.44-12.23v-90.17c-.37-2.41-3.57-4.45-5.43-5.92-8.95-7.11-19.88-10.94-31.43-9.89Z"/>
      <path class="cls-1" d="M581.4,185.96c-22.67,25.84-85.68,20.6-81.68-22.43,3.16-34,55.63-43.27,81.7-50.37.78-14.24.31-27.84-14.64-33.96-15.66-6.42-31.33-.61-42.75,10.78-1.42,1.42-5.53,7.36-6.75,7.86-.91.37-.73-.35-.92-.68-2.25-3.87-4.32-7.92-6.3-11.94,16.58-14.38,38.32-22.04,60.2-16.52,18.01,4.54,32.23,18.39,34.4,37.26,28.36-7.98,48.85-34.04,48.68-63.79-1.33,1.04-3.03,2.47-4.01,3.82-2.57,3.52-2.99,8.18-5.71,11.31-2.43-10.25-9.36-17.63-19.48-20.55,3.21-3.32,7.94-4.84,11.36-7.83s5.37-7.67,8.91-10.55c3.17,4.03,4.75,8.37,8.98,11.57,1.53,1.16,4.98,2.41,5.76,3.17,2.29,2.23,1.05,15.33.62,18.97-3.27,27.39-18.46,46.26-42.46,58.66-3.71,1.91-8.43,2.97-11.57,5.74v81.9h-24.34v-12.43ZM581.4,123.79c-6.87,1.65-13.67,3.73-20.43,5.8-17.72,5.42-35.95,8.35-37.45,30.69-2.34,34.89,30.07,43.71,51.66,18.11,6.93-8.21,6.06-12.45,6.19-22.42.14-10.73-.04-21.46.02-32.18Z"/>
      <path class="cls-1" d="M561.27,295.31c55.23-5.01,93.55,52.9,65.46,101.09-27.49,47.18-97.57,43.06-119.37-7-17.74-40.73,9.22-90.04,53.91-94.09ZM564.52,302.88c-49.3,5.08-51.56,105.58-4.87,118.07,30.05,8.04,50.14-25.31,52.04-50.93,2.09-28.27-12.04-70.76-47.17-67.14Z"/>
      <path class="cls-1" d="M760.19,67.03c1.11.24,3.35,2.61,3.78,3.79l39.5,100.01,1.05-1.08,35.34-99.85c2.06-3.7,6.62-3.14,9.86-1.5l-42.88,119.32c-17.39,44.03-46.2,103.38-103.15,67.66-1.04-.65-4.25-2.21-3.58-3.48l13.53-12.95c4.74,2.52,8.64,6.68,13.45,9.27,36.56,19.7,51.44-21.41,63.58-47.39l-51.86-133.79h21.37Z"/>
      <path class="cls-1" d="M766.41,370.29c2.83,29.17,24.31,52.23,55.29,45.24,8.61-1.94,17.91-6.91,23.68-13.64,4.51-5.27,5.18-12.53,14.08-7.56-16.44,39.7-77.49,44.48-103.31,11.88-29.63-37.41-11.51-107.71,40.8-111.1,41.03-2.66,62.54,27.89,23.73,53.98-15.79,10.61-35.57,17.87-54.27,21.19ZM765.88,362.18c19.03-3.56,52.03-17.97,53.54-40.28,1.32-19.5-21.01-22.97-33.79-12.69-14.95,12.03-19.24,34.76-19.75,52.96Z"/>
      <path class="cls-1" d="M712.86,325.96c-4.16-13.73-15.78-26.38-31.41-23.54-12.1,2.2-15.37,17.02-9.18,26.53,13.82,21.22,55.97,29.59,57.92,58.88,2.1,31.52-31.91,45.71-58.56,37.44-11.19-3.47-19.8-11.09-27.98-19.11l12.14-16.41c6.53,16.73,20.52,34.87,40.83,27.29,5.9-2.2,10.9-7.84,11.77-14.19,4.83-35.46-55.72-41.17-62.37-73.62-4.15-20.25,12.39-32.26,30.47-35.02,15.73-2.4,37.13,1.99,46.59,15.88l-10.21,15.87Z"/>
      <rect class="cls-1" x="691.22" width="23.26" height="198.93"/>
      <path class="cls-1" d="M659.3,84.33v114.6h-23.8v-86.22c0-3.61,7.08-8.79,9.47-11.62,2.38-2.81,4.4-6.22,6.31-9.37,2.44-4.05,1.98-6.98,8.02-7.39Z"/>
      <path class="cls-1" d="M151.75,94.75c27.85-3.57,34,36.24,8.26,42.31-29.47,6.94-36.79-38.65-8.26-42.31Z"/>
      <path class="cls-1" d="M87.84,158.2c-21.05,21.03-51.89-13.35-29.03-31.98,21.28-17.34,48.11,12.91,29.03,31.98ZM70.72,124.88c-13.03.79-20.29,15.44-14.16,26.85,1.95,3.64,6.72,8.25,10.91,8.01-6.71-11.24-6.02-25.29,3.25-34.86Z"/>
      <path class="cls-1" d="M236.16,121.23c27.85-1.63,30.66,40.49,3.61,43.1-29.33,2.83-32.45-41.41-3.61-43.1ZM237.88,161.08c21.34-1.44,24.22-29.65,4.05-36.21-.69,2.72.68,5.59.84,8.35.56,9.61-.84,19.12-4.89,27.85Z"/>
      <path class="cls-1" d="M18.67,191.51c27.86-3.33,33.59,36.83,7.83,42.42-29.47,6.39-36.51-38.99-7.83-42.42ZM22.58,194.6c-23.23-.56-26.21,32.98-3.25,36.22,2.67-11.9,3.78-24,3.25-36.22Z"/>
      <path class="cls-1" d="M284.27,190.95c24.64-3.83,35.87,27.08,15.78,39.56-16.75,10.41-37.52-5.74-31.84-24.79,2-6.7,8.98-13.67,16.06-14.77ZM287.11,230.29c24.37,1.35,27.3-33.55,3.29-36.18-3.8,11.82-4.7,23.84-3.29,36.18Z"/>
      <path class="cls-1" d="M208.33,185.75c.96.97,3.81,2.81.88,4.27-3.38,1.69-8.4-6.13-12.44-3.79l-.09-2.67c-.28-1.31-5.26-2.31-6.59-3.1s-2.06-2.39-3.47-3.02c-.82-.37-11.55-2.48-13.43-2.8-16.9-2.89-33.93-1.93-49.82,4.71s-30.22,17.02-39.21,32.17c-1.17,1.97-4.21,6.62-4.92,8.08-1.68,3.44-2.54,9.17-3.97,12.77-.41,1.04-2.03,3.87-3.18,3.87l-1.36-.84c1.86-2.27.32-3.76.66-6.33.25-1.88,2.34-9.66,3.03-11.59.39-1.1,4.36-8.54,4.95-9.11.94-.93,2.29-.89,3.26-1.61,1.9-1.41,2.42-7.04,4.86-9.2,1.03-.92,2.2-.69,3.31-1.55,1.87-1.45,6.15-8.81,8.75-9.89,1.43-.6,3.43.27,5.25-.45.65-.26,9.5-5.25,9.95-5.6.58-.45.35-1.57.87-1.99.48-.39,1.77.49,2.87-.19,1.34-.83,3-4.13,5.41-3.73,1.81.3,1.97,1.32,4.87.86,5.32-.84,6.55-4.24,10.14-5.55,6.2-2.27,10.51-.94,16.5-.77,4.97.15,10.62-.69,15.65,0,2.14.3,4.55,1.82,6.81,2.39,7.43,1.89,17.04,1.72,23.01,7.28,1.01.95,1.26,2.48,2.39,3.56,1.48,1.41,3.21,1.93,5.1,3.82Z"/>
      <path class="cls-1" d="M18.67,278.01c25.58-2.93,33.53,33.94,9.44,41.86-30.2,9.94-40.1-38.35-9.44-41.86ZM18.66,281.24c-18.71,2.53-21.5,29.15-3.81,35.42,5.65,2,6.45,1.59,9.24-3.5,3.86-7.05,4.86-16.72,3.1-24.51-1.29-5.69-2.27-8.26-8.54-7.41Z"/>
      <path class="cls-1" d="M285.93,278.54c27.9-1.26,30.48,40.92,3.06,43.09-29.39,2.33-31.51-41.81-3.06-43.09ZM288.04,282.29c-2.63.79-7.36,9.71-8.12,12.43-1.87,6.7-.92,17.15,3.47,22.81,1.46,1.88,7.36.65,9.56-.06,12.61-4.07,16.47-20.7,7.18-30.18-2.48-2.53-8.52-6.08-12.08-5Z"/>
      <path class="cls-1" d="M68.43,348.27c34.03-4.9,33.5,47.47.1,42.32-23.37-3.6-22.55-39.09-.1-42.32ZM68.97,351.51c-15.93,1.99-20.26,25.87-5.11,34.01,4.78,2.57,6.72,2.83,10.91-.65,9.05-7.53,9.57-20.71,1.89-29.43-2.26-2.57-4.12-4.38-7.69-3.93Z"/>
      <path class="cls-1" d="M233.43,348.27c24.24-3.3,35.15,27.17,15.23,39.55-16.41,10.19-36.69-4.96-32.27-23.59,1.8-7.59,9.22-14.89,17.03-15.95ZM238.28,351.5c-13.96,2.55-18.51,23.17-7.69,32.84,10.22,9.13,24.72-2.23,25.17-14.3.32-8.59-8.34-20.21-17.48-18.54Z"/>
      <path class="cls-1" d="M504.04,500.57l-4.1-6.44c-5.58-7.95-21.38-13.01-26.07-1.82-6.49,15.5,6.93,43.34,25.48,34.11,2.74-1.37,4.21-4.16,6.85-5.58-10.54,19.77-41.43,13.58-42.75-9.7-1.38-24.29,21.04-30.99,40.6-23.81v13.24Z"/>
      <path class="cls-1" d="M104.93,324.76c.51.94,3.62,1.42,4.73,1.22l.53,2.45c6.24.1,7,6.3,11.39,9.17l-1.34,1.34c-1.05-.78-1.92-2.31-3.02-2.93-3.08-1.75-10.56-2.52-12.24-4.25-.39-.4-.32-1.52-1.19-2.32-2-1.85-8.33-5.47-9.85-7.49-.49-.66.16-1.7-.33-2.84-.85-1.98-3.75-3.88-5.04-5.28-.74-.81-1.08-2.5-1.83-3.03-1.07-.75-2.54-.16-3.08-.83-1.55-1.91-2.79-9.83-4.87-12.85-.65-.94-2-1.38-2.88-2.53-1.61-2.08-3.03-7.43-4.6-8.93-.74-.71-2.1-.64-2.23-1.1-.36-1.27.65-3.14.48-4.66-.21-1.88-2-3.88-2.48-5.68-1.57-5.83-1.46-13.99-.6-19.8.4-2.73,1.41-10.95,2.23-12.91.59-1.42,2.44-1.38,2.58-3.1l1.07,4.05c-1.48,7.26-.6,14.5-.56,21.6.04,8.24.86,7.38,3.12,14.22,1.34,4.05,1.95,10.65,3.69,14.15.5,1.01,11.89,17.36,12.68,18.14.98.96,2.55,1.2,3.2,2.21,1.7,2.64.67,3.39,4.2,6.07,1.36,1.03,5.17,2.6,5.61,3.04.87.88.22,2.09.64,2.88Z"/>
      <path class="cls-1" d="M542.99,531.92h-7.57l-1.09-14.05-3.33,8.83c-12.11,15.78-31.86-4.01-13.6-15.21,2.09-1.28,5.12-2.59,7.45-3.37.46-.15,2.02-1.08,1.91.01-2.97.5-7.05,3.17-8.57,5.76-2.98,5.09-1.05,18.7,7.11,16.83,6.78-1.55,9.86-17.8,7.88-23.32-.34-.95-1.28-.86-2.08-.9-.12-1.21,2.01.24,1.61-1.33-1.15-4.54-5.92-7.13-10.38-6.65s-6.25,4.12-9.07,6.9l.07-6.95c.55-.88,15.78-.82,17.99-.56s4.87,1.22,6.29,2.91c3.54,4.22,3.29,20.68,4.37,26.98.25,1.42,1.11,2.62,1.03,4.1Z"/>
      <path class="cls-1" d="M152.29,374.77c29.51-3.36,32.63,41.31,4.17,43.08-27.79,1.74-31.21-40-4.17-43.08ZM152.83,378.01c-25.8,2.82-17.85,43.4,7.59,35.69,20.87-6.33,14.49-38.1-7.59-35.69Z"/>
      <path class="cls-1" d="M601.42,510.84h-25.43c-.4,13.04,13.66,24.65,23.72,12.62l1.7-4.51c-.83,15.63-24.22,17.81-30.22,4.52-4.5-9.97-.06-22.19,10.75-25.06-.42.95-1.77.99-2.73,1.86-2.39,2.18-3.3,6.37-3.22,9.49l18.05-.62c1.29-.42.4-2.16.06-3.15-1.71-4.91-6.36-8.09-11.61-7.59l4.59-1.07c7.89.35,14.13,5.3,14.34,13.51Z"/>
      <path class="cls-1" d="M781.56,510.84c-.54,10.42,7.89,20.95,18.93,16.48,2.87-1.16,5.08-3.63,5.42-6.75l.3,1.65c-2.81,10.02-17.18,12.7-24.92,6.99-10.51-7.74-7.86-25.69,4.21-30.39.52-.2,1.67-.84,2.02-.15-5.05,1.2-5.84,6.72-6.5,11.08l17.58-.54c1.69-.24,1.49-1.38,1.11-2.71-.75-2.66-4.4-6.66-7.03-7.58l-4.62-1.06h8.39c2.16,0,6.2,3.14,7.53,4.91s3.61,6.17,2.21,8.06h-24.61Z"/>
      <path class="cls-1" d="M387.73,487.05v18.38l2.17-4.05c6.11-7.41,18-3.65,21.36,4.59,4.05,9.94-.17,22.57-11.08,25.4l3.48-3.27c4.8-6.62,2.38-22.5-4.01-27.28-7.14-5.34-11.43,2.77-11.93,9.18-.28,3.49-.43,13.7.83,16.51.57,1.28,2.14,2.96,3.34,3.69,1.56.96,3.5.85,4.51,2.25-4.14-.18-7.36-1-10.08-4.28l-5.61,3.75v-40.81c0-.48-1.82-2.16-1.62-2.43l8.65-1.63Z"/>
      <path class="cls-1" d="M626.84,488.68c-.18.63-.59,1.12-.54,1.85.09,1.24,11.6,19.49,13.06,21.04.37.4.48,1.09,1.26.89,2.47-4.53,10.91-15.27,10.44-20.15-.15-1.57-1.27-2.45-2.05-3.64h8.66c-1.31,1.66-2.67,3.29-3.91,5.02-2.29,3.22-11.14,15.51-11.96,18.32-1.3,4.47-.71,15.5,1.26,19.91h-10.28c1.97-3.63,2.48-14.15,1.38-17.86-.71-2.37-11.16-17.09-13.38-20.15-1.33-1.82-2.8-3.51-4.23-5.24h10.28Z"/>
      <path class="cls-1" d="M549.48,531.92l1.1-3.5v-29.48c-.33-.31-3.98.75-4.34-1.07h4.33c-.64-5.65,1.48-11.8,7.83-12.45.24.93-1.49.89-2.35,1.97-1.49,1.87-1.46,4.9-.74,7.08.23.71,2.08,3.39,2.56,3.39h9.2l.8.81-.8.81h-8.66l-.81.81v27.57c0,.78,1.27,3.14,1.62,4.05h-9.74Z"/>
      <path class="cls-1" d="M203.97,332.09c-2.12,1.05-4.1,4-6.09,4.99-2.62,1.3-5.74.83-7.95,1.79-1.07.47-3.66,2.3-5.12,3.01-1.2.58-2.81,1.78-2.99,1.84-.4.14-7.84.99-8.51.97-6.78-.21-.8-3.25,2.07-4.13,9.93-3.06,20.94-5.61,29.68-11.96s13.64-12.49,20.91-20.73c.86-.97,3.3-5.75,5.14-5.66,2.72.14-1.55,6.1-1.66,6.44-1.36,4.26-.23,4.58-3.75,8.69-3.78,4.42-7.82,4.82-11.04,7.89-1.28,1.22-1.9,3.02-3.43,4.14-2.16,1.57-5.07,1.65-7.28,2.74Z"/>
      <path class="cls-1" d="M771.28,531.92h-9.74c-.17-1.04.79-1.64.97-2.55.48-2.32-1.45-19.91-2.11-23.08-.99-4.77-4.38-8.93-9.53-6.38-1.13.56-1.7,1.89-2.85,2.01,3.2-5.28,12.28-5.57,16.51-1.38,6.14,6.09,2.68,23.56,6.74,31.37Z"/>
      <path class="cls-1" d="M425.6,497.87l-.3,3.81,10.31,26.46,9.79-27.02-.32-3.25,4.32.26c-1.03,1.15-1.96,2.46-2.64,3.85-4.67,9.57-10.78,33.03-18.45,38.87-3.85,2.93-9.92,3.39-14.28,1.27-4.31-2.1-2.95-3.12-.6-6.42.85-.2,2.66,2.33,3.54,2.94,6.9,4.74,14.74,1.03,16.73-6.72-2.04.04-4.08.48-4.98-1.79l-12.33-32.27h9.2Z"/>
      <path class="cls-1" d="M707.45,497.87v24.6c0,.2.88,3.37,1.05,3.81,1.4,3.47,4.33,4.84,7.82,3.43,2.12-.86,2.41-2.46,4.1-3.46-2.75,5.74-9.22,7.25-14.8,4.53-10.04-4.89-1.86-22.63-6.82-30.48l8.64-2.43Z"/>
      <path class="cls-1" d="M729.63,528.95c.1.75,1.32,1.9,1.08,2.97-1.65-.33-7.47.84-8.04-.88.41-4.06-.62-8.48-.64-12.33-.02-5.84,2.25-13.41-1.05-18.41l8.64-2.43v31.08Z"/>
      <path class="cls-1" d="M747.48,531.92h-9.2c.19-1.45.93-2.51,1.08-4.05.36-3.65.56-23.11-.24-25.71-.22-.71-.87-1.32-1.37-1.86l8.1-2.43c-.48,3.7.45,7.55.57,11.06.26,7.63-.95,15.64,1.06,23Z"/>
      <path class="cls-1" d="M835.11,504.89c-4.19-2.89-8.6-7.23-14.2-6.36-3.54.55-5.77,3.64-4.06,7.05,2.33,4.65,14.49,4.21,18.55,9.03,5.83,6.9-.34,17.28-8.94,17.31l3.96-1.71c4.38-3.42,3.63-9.02-1.27-11.52-7.08-3.61-19.55-3.24-16.5-14.89,1.89-7.21,16.68-6.87,22.23-4.88l.23,5.98Z"/>
      <path class="cls-1" d="M680.94,531.92c.24-.91,1.69-.68,2.68-1.37,7.43-5.13,4.28-20.82-.53-27-5.2-6.67-13.22-7.72-15.51,1.77-2.12,8.77,1.01,19.9,8.3,25.44l4.52,1.69c-9.86.94-18.18-3.83-19.77-14.02-2.3-14.75,10.91-25.06,24.66-19.24,14.41,6.1,11.31,30.54-4.34,32.72Z"/>
      <path class="cls-1" d="M236.8,219.47c-2.48.17-3.5.28-5.16-1.61-6.01-6.83-6.15-13.11-14.36-19.7-2.3-1.85-6.77-3.13-6.99-6.8,4.32-.83,3.9.66,6,2.38,3,2.45,7.28,5.74,9.9,8.48,1.86,1.94,9.01,11.62,9.97,13.82.53,1.2.83,2.07.63,3.43Z"/>
      <path class="cls-1" d="M243.29,264.34c-1.1,1.26-2.09-3.59-2.13-4.14-.15-2.16.89-4.55.75-6.76-.42-6.62-2.41-13.23-3.43-19.7-.39-2.51.1-5.26-.59-7.78l4.75,6.88c-.99,2.02.25,4.37.12,5.82-.11,1.24-1.76,1.73-1.6,2.64.11.61,2.11,1.79,2.46,3.03.16.56,1.32,5.92,1.32,6.24-.02,1.36-1,2.19-1.11,3.28-.12,1.26.63,2.42.56,3.71-.11,2.13-1.14,4.57-1.1,6.79Z"/>
      <path class="cls-1" d="M594.37,489.74l-15.68,4.33c2.81-1.66,9.69-8.46,12.3-9.11.45-.11.83-.13,1.22.16.79.42,2.65,3.93,2.15,4.61Z"/>
      <path class="cls-1" d="M811.85,521.11l7.31,8.65,6.76,2.44c0,1.26-12.95-.92-14.07-2.7v-8.38Z"/>
      <path class="cls-1" d="M163.21,343.29c.09,2.93-1.27,4.23-4.16,4.16-1.2-.03-4.89-4.6-7.71-3.11.59-3.26,5.63-.36,7.88-2.72l3.99,1.67Z"/>
      <path class="cls-1" d="M129.69,338.4c3.16,1.5,6.56-.06,8.95,3.26l-1.11,2.68c-2.34-4.08-9.7.28-7.84-5.94Z"/>
      <path class="cls-1" d="M242.21,277.32c-.86,3.35,1.11,5.35-2.14,7.86-1.35,1.04-2.67.61-2.72-1.09-.03-1.07,1.02-1.7,1.31-2.48.73-1.98.4-4.41,3.55-4.28Z"/>
      <path class="cls-1" d="M569.43,486.05c.1,1.67.16,3.4.07,5.07-.03.61.35,1.48-.53,1.34-.42-2.36-2.04-4.17-3.82-5.65l-5.92-1.91c3.45-.15,6.93-.03,10.21,1.15Z"/>
      <path class="cls-1" d="M241.67,270.28c-.16-.79-.12-3.6,1.34-3.24,1.68.42.46,3.56-1.34,3.24Z"/>
      <path class="cls-1" d="M234.63,295.15c.24,1.83.09,2.17-1.61,2.7-.13-1.34-.05-2.85,1.61-2.7Z"/>
      <rect class="cls-1" x="806.45" y="517.87" width=".53" height="2.16"/>
      <rect class="cls-1" x="398.01" y="531.39" width="1.62" height=".53"/>
      <rect class="cls-1" x="527.31" y="507.06" width="1.08" height=".53"/>
      <path class="cls-1" d="M721.78,521.65c.35.18.35.36,0,.54v-.54Z"/>
      <path class="cls-1" d="M241.4,272.99c.35.18.35.36,0,.54v-.54Z"/>
      <path class="cls-1" d="M747.21,503.81c.35.18.35.36,0,.54v-.54Z"/>
      <path class="cls-1" d="M747.75,502.73c.35.18.35.36,0,.54v-.54Z"/>
      <path class="cls-1" d="M529.74,506.52c.35.18.35.36,0,.54v-.54Z"/>
    </g>
  </g>
</svg>