<?xml version="1.0" encoding="UTF-8"?>
<svg id="Layer_2" data-name="Layer 2" xmlns="http://www.w3.org/2000/svg" xmlns:xlink="http://www.w3.org/1999/xlink" viewBox="0 0 671.28 671.28">
  <defs>
    <style>
      .cls-1 {
        fill: none;
      }

      .cls-2 {
        fill: #4dba6d;
      }

      .cls-3 {
        clip-path: url(#clippath-1);
      }

      .cls-4 {
        clip-path: url(#clippath);
      }
    </style>
    <clipPath id="clippath">
      <rect class="cls-1" y="0" width="671.28" height="671.28"/>
    </clipPath>
    <clipPath id="clippath-1">
      <rect class="cls-1" y="0" width="671.28" height="671.28"/>
    </clipPath>
  </defs>
  <g id="Layer_1-2" data-name="Layer 1">
    <g class="cls-4">
      <g class="cls-3">
        <path class="cls-2" d="M23.2,587.06c0-.06-.08-.12-.23-.19-1.22-.25-2.2-.59-2.94-1.03-.75-.44-1.33-.92-1.75-1.45-.42-.53-.71-1.08-.86-1.64-.16-.56-.23-1.08-.23-1.54,0-1.4.23-2.74.7-4,.47-1.26,1.08-2.43,1.82-3.51.75-1.08,1.6-2.03,2.57-2.87.97-.84,1.95-1.56,2.95-2.15,1-.59,1.96-1.05,2.88-1.38.92-.33,1.74-.49,2.45-.49.28,0,.59.05.94.14.34.09.66.24.96.44.3.2.55.48.75.84.2.36.3.8.3,1.33,0,.16-.06.58-.16,1.26-.11.69-.3,1.4-.56,2.15-.27.75-.59,1.43-.98,2.03-.39.61-.86.91-1.43.91-.28,0-.48-.13-.61-.4-.13-.26-.3-.56-.51-.89-.22-.33-.54-.63-.96-.91-.42-.28-1.05-.42-1.89-.42s-1.61.19-2.29.56c-.69.37-1.26.8-1.73,1.29-.47.48-.83.97-1.1,1.45-.27.48-.4.82-.4,1.01,0,.28.25.64.75,1.08.5.44,1.18.86,2.03,1.26.86.41,1.86.76,3.02,1.05,1.15.3,2.38.44,3.69.44.53,0,1.02-.03,1.47-.09.45-.06.76-.13.91-.19.93-.37,1.79-.77,2.57-1.19.78-.42,1.46-.81,2.06-1.17.59-.36,1.09-.65,1.5-.86.4-.22.7-.33.89-.33.34,0,.51.34.51,1.03,0,.31-.08.69-.23,1.15-.16.45-.34.9-.56,1.33-.22.44-.48.84-.77,1.22-.3.37-.58.64-.86.79-1.09.59-2.43,1.33-4.02,2.22-1.59.89-3.27,1.85-5.03,2.88-1.76,1.03-3.54,2.1-5.33,3.22-1.79,1.12-3.42,2.2-4.89,3.23-.06.03-.16.1-.3.21-.14.11-.3.22-.49.33-.19.11-.38.2-.58.28-.2.08-.37.12-.49.12-.25,0-.37-.14-.37-.42,0-.44.19-1,.58-1.68.39-.69.9-1.4,1.54-2.15.64-.75,1.36-1.49,2.17-2.22.81-.73,1.64-1.38,2.48-1.94.06-.06.09-.11.09-.14"/>
        <path class="cls-2" d="M57.14,585.33c-.72-.5-1.4-1.08-2.06-1.73-.65-.66-1.26-1.43-1.8-2.34-.55-.9-1.01-1.95-1.4-3.13-.39-1.18-.69-2.52-.91-4.02-.25-1.68-.44-3.65-.58-5.91-.14-2.26-.26-4.61-.35-7.06-.09-2.45-.18-4.91-.26-7.39-.08-2.48-.17-4.8-.28-6.97-.11-2.17-.26-4.09-.44-5.77-.19-1.68-.44-2.95-.75-3.79-.03-.06-.05-.16-.05-.28s.05-.32.14-.58c.09-.26.21-.55.35-.86.14-.31.29-.63.44-.96.16-.33.31-.63.47-.91.22-.4.41-.81.58-1.22.17-.4.32-.77.44-1.1.12-.33.25-.6.37-.82.12-.22.26-.33.42-.33.25,0,.47.42.68,1.26.2.84.37,1.98.51,3.41.14,1.43.26,3.08.35,4.93.09,1.86.18,3.79.26,5.8.08,2.01.14,4.03.19,6.05.05,2.03.09,3.93.14,5.7.05,1.78.09,3.36.12,4.75.03,1.39.08,2.44.14,3.16.09,1.31.24,2.6.44,3.88.2,1.28.48,2.49.84,3.65.36,1.15.83,2.2,1.4,3.16.58.95,1.3,1.74,2.17,2.36.5.37.88.77,1.15,1.19.26.42.47.85.61,1.29.14.44.23.84.26,1.22.03.37.05.7.05.98,0,.75-.27,1.37-.79,1.87-.53.5-1.12.75-1.78.75-.19,0-.37,0-.54-.02-.17-.02-.35-.08-.54-.21"/>
        <path class="cls-2" d="M57.14,585.33c-.37-.25-.6-.64-.68-1.17-.08-.53-.12-1.06-.12-1.59,0-.5.05-1.01.14-1.54.09-.53.23-1.01.42-1.45.19-.44.4-.79.63-1.05.23-.26.49-.4.77-.4.12,0,.27.05.42.14,3.15,2.27,7.5,3.93,13.04,4.98,5.55,1.04,12.55,1.57,20.99,1.57,5.14,0,9.66-.17,13.56-.51,3.9-.34,7.33-.79,10.31-1.33,2.98-.55,5.56-1.14,7.76-1.78,2.2-.64,4.18-1.25,5.96-1.85.19-.09.45-.14.79-.14.78,0,1.39.35,1.85,1.05.45.7.68,1.43.68,2.17,0,.34-.03.72-.09,1.12-.06.41-.19.7-.37.89-1.22,1.12-3.07,2.17-5.56,3.13-2.49.97-5.49,1.81-8.98,2.52-3.49.72-7.42,1.29-11.78,1.71-4.36.42-9.02.63-13.98.63s-8.85-.15-12.44-.44c-3.58-.3-6.79-.74-9.61-1.33-2.82-.59-5.34-1.33-7.55-2.22-2.21-.89-4.27-1.92-6.17-3.11"/>
        <path class="cls-2" d="M154.57,557.7c-.31.41-.69.86-1.12,1.38-.44.51-.86,1.01-1.26,1.47-.4.47-.76.86-1.08,1.19-.31.33-.5.49-.56.49-.37,0-.89-.2-1.54-.61-.65-.4-1.31-.87-1.96-1.4-.65-.53-1.22-1.08-1.71-1.64-.48-.56-.72-1.01-.72-1.36,0-.12.06-.26.19-.42.28-.47.66-1.01,1.15-1.61.48-.61.97-1.19,1.45-1.75.48-.56.93-1.04,1.33-1.43.41-.39.67-.58.79-.58.09,0,.17.05.23.14.22.34.53.72.94,1.14.41.42.84.84,1.31,1.26.47.42.94.8,1.43,1.14.48.34.93.62,1.33.84.31-.47.7-.98,1.17-1.54.47-.56.92-1.09,1.36-1.59.44-.5.83-.91,1.19-1.24.36-.33.58-.49.68-.49s.17.03.23.09c.25.41.61.85,1.1,1.33.48.48.99.95,1.52,1.4.53.45,1.06.86,1.59,1.22.53.36.98.6,1.36.72.12.03.19.13.19.28,0,.06-.08.17-.23.33-.16.22-.48.62-.96,1.19-.48.58-.98,1.18-1.5,1.8-.51.62-1,1.18-1.45,1.66-.45.48-.74.72-.86.72-.28,0-.68-.14-1.19-.42-.51-.28-1.05-.63-1.61-1.05-.56-.42-1.09-.87-1.59-1.36-.5-.48-.89-.93-1.17-1.33M154.01,537.7c.25.41.62.85,1.1,1.33.48.48.99.94,1.52,1.38.53.44,1.06.83,1.59,1.19.53.36.98.6,1.36.72.12.03.19.13.19.28,0,.13-.08.23-.23.33-.16.22-.48.62-.96,1.22-.48.59-.98,1.2-1.5,1.82-.51.62-1,1.18-1.45,1.66-.45.48-.74.72-.86.72-.34,0-.84-.2-1.5-.61-.65-.4-1.31-.87-1.96-1.4-.65-.53-1.22-1.07-1.71-1.64-.48-.56-.72-1.01-.72-1.36,0-.12.06-.26.19-.42.28-.47.66-1.01,1.15-1.61.48-.61.97-1.19,1.47-1.75.5-.56.94-1.04,1.33-1.43.39-.39.65-.58.77-.58.09,0,.17.05.23.14"/>
        <path class="cls-2" d="M173.08,585.57c-.19,0-.37,0-.54-.02-.17-.02-.35-.08-.54-.21-.72-.47-1.43-1.11-2.13-1.94-.7-.83-1.29-1.64-1.75-2.45-1.22,2.03-2.49,3.4-3.81,4.11-1.32.72-2.59,1.08-3.81,1.08-.72,0-1.45-.08-2.2-.23-.75-.16-1.47-.4-2.17-.72-.7-.33-1.35-.74-1.94-1.24-.59-.5-1.09-1.08-1.5-1.73-1.5,1.87-3.1,3.16-4.82,3.88-1.71.72-3.46,1.08-5.24,1.08-1.56,0-3.01-.41-4.35-1.24-1.34-.83-2.46-2.03-3.37-3.62-.28.47-.58.9-.89,1.29-.31.39-.59.68-.84.86-.16.12-.31.2-.47.21-.16.02-.31.02-.47.02-.37,0-.76-.13-1.15-.4-.39-.26-.74-.58-1.05-.96-.31-.37-.56-.77-.75-1.19-.19-.42-.28-.8-.28-1.14s.08-.64.23-.89c.16-.25.51-.5,1.08-.75,1.46-.59,2.63-1.32,3.48-2.2.86-.87,1.54-1.71,2.06-2.5.51-.8.94-1.48,1.26-2.06.33-.58.71-.86,1.15-.86.5,0,.75.45.75,1.36,0,.34-.06.7-.16,1.08-.11.37-.23.73-.35,1.08.12.59.38,1.16.77,1.71.39.55.87,1.03,1.45,1.45.58.42,1.22.76,1.92,1.01.7.25,1.41.37,2.13.37,1,0,2.01-.15,3.04-.44,1.03-.3,2.02-.77,2.97-1.43.95-.66,1.82-1.5,2.59-2.52.78-1.03,1.43-2.28,1.96-3.74.16-.4.34-.7.56-.89.22-.19.42-.28.61-.28.25,0,.43.09.54.28.11.19.16.42.16.7,0,.69-.06,1.32-.19,1.89-.13.58-.28,1.05-.47,1.43.16.62.43,1.18.82,1.68.39.5.84.91,1.36,1.24.51.33,1.04.58,1.59.75.54.17,1.07.26,1.57.26.78,0,1.52-.06,2.22-.19.7-.13,1.29-.34,1.75-.66,1.03-.65,1.82-1.45,2.38-2.38.56-.94.97-1.84,1.22-2.71.22-.81.44-1.51.68-2.1.23-.59.6-.89,1.1-.89.28,0,.49.14.63.42.14.28.21.56.21.84,0,.19-.02.45-.07.79-.05.34-.1.69-.16,1.05-.06.36-.15.71-.26,1.05-.11.34-.21.62-.3.84.06.44.26.97.58,1.61.33.64.9,1.27,1.71,1.89.5.37.88.77,1.15,1.19.26.42.47.85.61,1.29.14.44.23.84.26,1.22.03.37.05.7.05.98,0,.75-.26,1.37-.79,1.87-.53.5-1.12.75-1.78.75"/>
        <path class="cls-2" d="M172.01,585.33c-.37-.25-.6-.64-.68-1.17-.08-.53-.12-1.06-.12-1.59,0-.5.05-1.01.14-1.54.09-.53.23-1.01.42-1.45.19-.44.4-.79.63-1.05.23-.26.49-.4.77-.4.12,0,.27.05.42.14.72.5,1.83.97,3.34,1.4,1.51.44,3.44.65,5.77.65,1.5,0,2.83-.05,4-.14,1.17-.09,2.25-.25,3.25-.47,1-.22,1.94-.48,2.83-.77.89-.3,1.8-.66,2.73-1.1.25-.12.76-.21,1.52-.26.76-.05,1.52-.07,2.27-.07s1.42.02,2.01.05c.59.03.89.08.89.14,0,.28-.16.86-.47,1.73-.31.87-.9,1.78-1.78,2.71-.28.34-.87.82-1.78,1.43-.9.61-2.08,1.21-3.53,1.8-1.45.59-3.18,1.11-5.19,1.57-2.01.45-4.26.68-6.76.68-1.37,0-2.63-.08-3.79-.23-1.15-.16-2.18-.35-3.09-.58-.9-.23-1.68-.48-2.34-.75-.65-.26-1.15-.51-1.5-.72"/>
        <path class="cls-2" d="M214.45,575.75c-.87.53-2.16,1.23-3.86,2.1-1.7.87-3.57,1.79-5.61,2.76-2.04.97-4.11,1.9-6.22,2.8-2.1.9-4,1.67-5.68,2.29-1.03.37-2.31.73-3.86,1.08s-3.22.51-5.03.51c-1.65,0-3.04-.25-4.16-.75-1.12-.5-1.68-1.14-1.68-1.92,0-.44.14-.84.42-1.22.28-.37.79-.64,1.54-.79.65-.12,1.47-.3,2.43-.54.97-.23,1.97-.48,3.02-.75,1.04-.26,2.06-.53,3.06-.79,1-.26,1.82-.49,2.48-.68-2.15-1.31-3.67-2.72-4.56-4.23-.89-1.51-1.33-3.17-1.33-4.98,0-.69.17-1.57.51-2.64.34-1.08.83-2.2,1.45-3.37.62-1.17,1.38-2.34,2.27-3.53.89-1.18,1.88-2.25,2.97-3.2,1.09-.95,2.27-1.72,3.53-2.31,1.26-.59,2.58-.89,3.95-.89,1.15,0,2.28.3,3.39.89,1.11.59,2.1,1.27,2.99,2.03.89.76,1.6,1.5,2.15,2.22.54.72.82,1.22.82,1.5s-.09.44-.28.49c-.19.05-.33.07-.42.07-.25,0-.55-.09-.89-.26-.34-.17-.78-.35-1.31-.54-.53-.19-1.18-.37-1.94-.54-.76-.17-1.71-.26-2.83-.26-1.47,0-2.86.18-4.18.54-1.33.36-2.49.82-3.51,1.38-1.01.56-1.82,1.17-2.43,1.82-.61.65-.91,1.28-.91,1.87,0,1.09.37,2.11,1.1,3.06.73.95,1.67,1.8,2.83,2.55,1.15.75,2.43,1.4,3.83,1.96,1.4.56,2.77.98,4.11,1.26,1.81-.56,3.55-1.22,5.24-1.99,1.68-.76,3.2-1.48,4.56-2.15,1.36-.67,2.5-1.24,3.44-1.71.94-.47,1.54-.7,1.82-.7.25,0,.4.05.47.16.06.11.09.23.09.35,0,.16-.16.58-.49,1.29-.33.7-.7,1.46-1.12,2.27-.42.81-.84,1.56-1.26,2.24-.42.69-.72,1.09-.91,1.22"/>
        <path class="cls-2" d="M291.92,587.06c0-.06-.08-.12-.23-.19-1.22-.25-2.2-.59-2.94-1.03-.75-.44-1.33-.92-1.75-1.45-.42-.53-.71-1.08-.86-1.64-.16-.56-.23-1.08-.23-1.54,0-1.4.23-2.74.7-4,.47-1.26,1.08-2.43,1.82-3.51.75-1.08,1.6-2.03,2.57-2.87.97-.84,1.95-1.56,2.95-2.15,1-.59,1.96-1.05,2.88-1.38.92-.33,1.74-.49,2.45-.49.28,0,.59.05.94.14.34.09.66.24.96.44.3.2.55.48.75.84.2.36.3.8.3,1.33,0,.16-.06.58-.16,1.26-.11.69-.3,1.4-.56,2.15-.27.75-.59,1.43-.98,2.03-.39.61-.86.91-1.43.91-.28,0-.48-.13-.61-.4-.13-.26-.3-.56-.51-.89-.22-.33-.54-.63-.96-.91s-1.05-.42-1.89-.42-1.61.19-2.29.56c-.69.37-1.26.8-1.73,1.29-.47.48-.83.97-1.1,1.45-.27.48-.4.82-.4,1.01,0,.28.25.64.75,1.08.5.44,1.18.86,2.03,1.26.86.41,1.86.76,3.02,1.05,1.15.3,2.38.44,3.69.44.53,0,1.02-.03,1.47-.09.45-.06.76-.13.91-.19.93-.37,1.79-.77,2.57-1.19.78-.42,1.46-.81,2.06-1.17.59-.36,1.09-.65,1.5-.86.4-.22.7-.33.89-.33.34,0,.51.34.51,1.03,0,.31-.08.69-.23,1.15-.16.45-.34.9-.56,1.33-.22.44-.48.84-.77,1.22-.3.37-.58.64-.86.79-1.09.59-2.43,1.33-4.02,2.22-1.59.89-3.27,1.85-5.03,2.88-1.76,1.03-3.54,2.1-5.33,3.22-1.79,1.12-3.42,2.2-4.89,3.23-.06.03-.16.1-.3.21-.14.11-.3.22-.49.33-.19.11-.38.2-.58.28-.2.08-.37.12-.49.12-.25,0-.37-.14-.37-.42,0-.44.19-1,.58-1.68.39-.69.9-1.4,1.54-2.15.64-.75,1.36-1.49,2.17-2.22.81-.73,1.64-1.38,2.48-1.94.06-.06.09-.11.09-.14"/>
        <path class="cls-2" d="M321.51,583.6c-.03-2.31-.14-4.85-.33-7.64-.19-2.79-.41-5.62-.68-8.49-.27-2.87-.54-5.69-.82-8.46-.28-2.77-.55-5.3-.79-7.57-.25-2.27-.46-4.2-.63-5.77-.17-1.57-.26-2.61-.26-3.11,0-.81.14-1.8.42-2.97.28-1.17.61-2.29,1-3.37.39-1.08.8-1.99,1.24-2.74.44-.75.81-1.12,1.12-1.12.22,0,.36.15.42.44.06.3.09.82.09,1.57,0,1.75.05,3.39.16,4.93.11,1.54.25,3.13.42,4.77.17,1.64.35,3.41.54,5.31.19,1.9.37,4.11.54,6.62.17,2.51.31,5.4.42,8.67.11,3.27.16,7.08.16,11.41,0,1.31-.09,2.57-.26,3.79-.17,1.22-.38,2.3-.63,3.25-.25.95-.52,1.71-.82,2.27-.3.56-.57.84-.82.84-.16,0-.27-.19-.35-.56-.08-.37-.13-1.06-.16-2.06"/>
        <path class="cls-2" d="M352.32,527.83c.25.4.62.85,1.1,1.33.48.48.99.94,1.52,1.38.53.44,1.06.83,1.59,1.19.53.36.98.6,1.36.72.12.03.19.13.19.28,0,.12-.08.23-.23.33-.16.22-.48.62-.96,1.22-.48.59-.98,1.2-1.5,1.82-.51.62-1,1.18-1.45,1.66-.45.48-.74.72-.86.72-.34,0-.84-.2-1.5-.61-.66-.4-1.31-.87-1.96-1.4-.65-.53-1.22-1.08-1.71-1.64-.48-.56-.72-1.01-.72-1.36,0-.12.06-.26.19-.42.28-.47.66-1.01,1.15-1.61.48-.61.97-1.19,1.47-1.75.5-.56.94-1.04,1.33-1.43.39-.39.65-.58.77-.58.09,0,.17.05.23.14"/>
        <path class="cls-2" d="M363.87,585.33c-.97-.59-1.8-1.25-2.5-1.99-.7-.73-1.32-1.51-1.85-2.34-.53-.82-.99-1.65-1.38-2.48-.39-.83-.76-1.63-1.1-2.41.03.31.05.57.05.77v.77c-.03,1.25-.51,2.43-1.43,3.55-.92,1.12-2.14,2.11-3.65,2.97-1.51.86-3.26,1.54-5.24,2.03-1.98.5-4.04.75-6.19.75-.78,0-1.64-.1-2.59-.3-.95-.2-1.83-.5-2.64-.89-.81-.39-1.5-.88-2.06-1.47-.56-.59-.84-1.29-.84-2.1,0-.87.05-1.75.16-2.64.11-.89.25-1.68.42-2.38.17-.7.38-1.27.63-1.71.25-.44.51-.66.79-.66.19,0,.37.06.54.19.17.12.29.36.35.7.22.69.55,1.26,1.01,1.73.45.47.96.85,1.52,1.15.56.3,1.15.51,1.75.63.61.13,1.16.19,1.66.19.97,0,2.15-.11,3.55-.33,1.4-.22,2.78-.56,4.14-1.03,1.36-.47,2.59-1.08,3.72-1.82,1.12-.75,1.9-1.65,2.34-2.71.31-.78.47-1.59.47-2.43,0-.19-.02-.39-.05-.61-.03-.22-.08-.42-.14-.61-.47-1.81-.9-3.6-1.29-5.38-.39-1.78-.73-3.37-1.03-4.79-.3-1.42-.52-2.59-.68-3.51-.16-.92-.23-1.43-.23-1.52,0-.31.09-.88.26-1.71.17-.83.39-1.67.65-2.52.26-.86.56-1.61.89-2.27.33-.65.63-.98.91-.98.19,0,.33.08.42.23.09.16.19.42.28.8.56,2.46,1.13,4.95,1.71,7.46.58,2.51,1.15,4.91,1.73,7.2.58,2.29,1.14,4.4,1.68,6.33.54,1.93,1.07,3.52,1.57,4.77.19.5.42.97.7,1.43.28.45.58.86.89,1.24.31.37.62.7.91.98.3.28.55.5.77.66.5.37.88.77,1.15,1.19.26.42.47.85.61,1.29.14.44.23.84.26,1.22.03.37.05.7.05.98,0,.75-.27,1.37-.79,1.87-.53.5-1.12.75-1.78.75-.19,0-.37,0-.54-.02-.17-.02-.35-.08-.54-.21"/>
        <path class="cls-2" d="M363.87,585.33c-.37-.25-.6-.64-.68-1.17-.08-.53-.12-1.06-.12-1.59,0-.5.05-1.01.14-1.54.09-.53.23-1.01.42-1.45.19-.44.4-.79.63-1.05.23-.26.49-.4.77-.4.12,0,.27.05.42.14,1.71,1.18,4.01,2.1,6.87,2.73,2.87.64,6.26.96,10.19.96,2.52,0,4.91-.14,7.15-.42,2.24-.28,4.31-.62,6.19-1.03,1.89-.4,3.58-.84,5.07-1.31,1.5-.47,2.79-.9,3.88-1.31.16-.06.28-.09.37-.09.12,0,.19.07.21.21.02.14.02.43.02.86,0,.5-.09,1.09-.26,1.78-.17.69-.41,1.36-.72,2.03-.31.67-.69,1.28-1.12,1.82-.44.55-.92.93-1.45,1.14-1.22.5-2.56.97-4.04,1.4-1.48.44-3.05.83-4.72,1.17-1.67.34-3.4.61-5.19.82-1.79.2-3.59.3-5.4.3-4.52,0-8.27-.37-11.24-1.1-2.98-.73-5.45-1.71-7.41-2.92"/>
        <path class="cls-2" d="M406.88,531.57c.25.41.62.85,1.1,1.33.48.48.99.94,1.52,1.38.53.44,1.06.83,1.59,1.19.53.36.98.6,1.36.72.12.03.19.13.19.28,0,.12-.08.23-.23.33-.16.22-.48.62-.96,1.22-.48.59-.98,1.2-1.5,1.82-.51.62-1,1.18-1.45,1.66-.45.48-.74.72-.86.72-.34,0-.84-.2-1.5-.61-.66-.4-1.31-.87-1.96-1.4-.65-.53-1.22-1.07-1.71-1.64-.48-.56-.72-1.01-.72-1.36,0-.12.06-.26.19-.42.28-.47.66-1.01,1.15-1.61.48-.61.97-1.19,1.47-1.75.5-.56.94-1.04,1.33-1.43.39-.39.65-.58.77-.58.09,0,.17.05.23.14"/>
        <path class="cls-2" d="M423.24,575.75c-.87.53-2.16,1.23-3.86,2.1-1.7.87-3.57,1.79-5.61,2.76-2.04.97-4.11,1.9-6.22,2.8-2.1.9-4,1.67-5.68,2.29-1.03.37-2.31.73-3.86,1.08-1.54.34-3.22.51-5.03.51-1.65,0-3.04-.25-4.16-.75-1.12-.5-1.68-1.14-1.68-1.92,0-.44.14-.84.42-1.22.28-.37.79-.64,1.54-.79.65-.12,1.47-.3,2.43-.54.97-.23,1.97-.48,3.02-.75,1.04-.26,2.06-.53,3.06-.79,1-.26,1.82-.49,2.48-.68-2.15-1.31-3.67-2.72-4.56-4.23-.89-1.51-1.33-3.17-1.33-4.98,0-.69.17-1.57.51-2.64.34-1.08.83-2.2,1.45-3.37.62-1.17,1.38-2.34,2.27-3.53.89-1.18,1.88-2.25,2.97-3.2,1.09-.95,2.27-1.72,3.53-2.31,1.26-.59,2.58-.89,3.95-.89,1.15,0,2.28.3,3.39.89,1.11.59,2.1,1.27,2.99,2.03.89.76,1.6,1.5,2.15,2.22.54.72.82,1.22.82,1.5s-.09.44-.28.49c-.19.05-.33.07-.42.07-.25,0-.55-.09-.89-.26-.34-.17-.78-.35-1.31-.54-.53-.19-1.18-.37-1.94-.54-.76-.17-1.71-.26-2.83-.26-1.47,0-2.86.18-4.18.54-1.33.36-2.49.82-3.51,1.38-1.01.56-1.82,1.17-2.43,1.82-.61.65-.91,1.28-.91,1.87,0,1.09.37,2.11,1.1,3.06.73.95,1.68,1.8,2.83,2.55,1.15.75,2.43,1.4,3.83,1.96,1.4.56,2.77.98,4.11,1.26,1.81-.56,3.55-1.22,5.24-1.99,1.68-.76,3.2-1.48,4.56-2.15,1.36-.67,2.5-1.24,3.44-1.71.94-.47,1.54-.7,1.82-.7.25,0,.4.05.47.16.06.11.09.23.09.35,0,.16-.16.58-.49,1.29-.33.7-.7,1.46-1.12,2.27-.42.81-.84,1.56-1.26,2.24-.42.69-.72,1.09-.91,1.22"/>
        <path class="cls-2" d="M507.81,589.36c-.19-1.15-.55-2.33-1.08-3.53-.53-1.2-1.1-2.33-1.71-3.39-.61-1.06-1.2-2.01-1.78-2.85-.58-.84-.97-1.5-1.19-1.96-.13-.28-.19-.64-.19-1.08,0-.19.07-.62.21-1.31.14-.69.32-1.39.54-2.1.22-.72.45-1.36.7-1.94.25-.58.48-.86.7-.86.28,0,.61.25,1,.75.39.5.79,1.14,1.19,1.92.4.78.82,1.66,1.24,2.64.42.98.8,1.94,1.15,2.88.34.93.63,1.82.86,2.64.23.83.38,1.47.44,1.94.06.62.15,1.4.26,2.34.11.93.16,1.93.16,2.99,0,1.84-.29,3.86-.86,6.08-.58,2.21-1.47,4.45-2.66,6.71-1.2,2.26-2.73,4.44-4.61,6.54-1.87,2.1-4.11,3.93-6.73,5.49-.72.44-1.54.69-2.48.77-.93.08-2.01.12-3.23.12-1.31,0-2.74-.11-4.3-.33-1.56-.22-3.02-.49-4.37-.82-1.36-.33-2.49-.68-3.41-1.05-.92-.37-1.38-.7-1.38-.98,0-.25.22-.41.65-.47.44-.06.92-.09,1.45-.09,1.46,0,2.84-.04,4.14-.12,1.29-.08,2.55-.25,3.76-.51,1.22-.27,2.43-.66,3.65-1.17,1.22-.51,2.49-1.19,3.83-2.03.97-.62,1.98-1.36,3.04-2.22,1.06-.86,2.1-1.79,3.13-2.8,1.03-1.01,2.01-2.07,2.94-3.16.94-1.09,1.76-2.17,2.48-3.23.72-1.06,1.29-2.09,1.73-3.09.44-1,.67-1.9.7-2.71"/>
        <path class="cls-2" d="M527.26,585.33c-.72-.5-1.4-1.08-2.06-1.73-.65-.66-1.26-1.43-1.8-2.34-.55-.9-1.01-1.95-1.4-3.13-.39-1.18-.69-2.52-.91-4.02-.25-1.68-.44-3.65-.58-5.91-.14-2.26-.26-4.61-.35-7.06-.09-2.45-.18-4.91-.26-7.39-.08-2.48-.17-4.8-.28-6.97-.11-2.17-.26-4.09-.44-5.77-.19-1.68-.44-2.95-.75-3.79-.03-.06-.05-.16-.05-.28s.05-.32.14-.58c.09-.26.21-.55.35-.86.14-.31.29-.63.44-.96.16-.33.31-.63.47-.91.22-.4.41-.81.58-1.22.17-.4.32-.77.44-1.1.12-.33.25-.6.37-.82.12-.22.26-.33.42-.33.25,0,.48.42.68,1.26.2.84.37,1.98.51,3.41.14,1.43.26,3.08.35,4.93.09,1.86.18,3.79.26,5.8.08,2.01.14,4.03.19,6.05.05,2.03.09,3.93.14,5.7.05,1.78.09,3.36.12,4.75.03,1.39.08,2.44.14,3.16.09,1.31.24,2.6.44,3.88.2,1.28.48,2.49.84,3.65.36,1.15.83,2.2,1.4,3.16.58.95,1.3,1.74,2.17,2.36.5.37.88.77,1.15,1.19.26.42.47.85.61,1.29.14.44.23.84.26,1.22.03.37.05.7.05.98,0,.75-.27,1.37-.79,1.87-.53.5-1.12.75-1.78.75-.19,0-.37,0-.54-.02-.17-.02-.35-.08-.54-.21"/>
        <path class="cls-2" d="M526.47,582.58c0-.5.05-1.01.14-1.54.09-.53.23-1.01.42-1.45.19-.44.4-.79.63-1.05.23-.26.49-.4.77-.4.12,0,.26.05.42.14,2.37,1.71,5.75,3.06,10.15,4.04,4.39.98,9.88,1.47,16.46,1.47,2.93,0,5.9-.12,8.91-.35,3.01-.23,5.97-.56,8.88-.98,2.91-.42,5.76-.94,8.53-1.57,2.77-.62,5.39-1.33,7.85-2.13,2.46-.8,4.73-1.65,6.8-2.57,2.07-.92,3.87-1.91,5.4-2.97.4-.25.7-.37.89-.37.25,0,.42.26.51.77.09.51.14,1.08.14,1.71s-.08,1.18-.23,1.75c-.16.58-.31.96-.47,1.15-1.03,1.34-2.62,2.59-4.77,3.74-2.15,1.15-4.64,2.2-7.48,3.13-2.84.93-5.91,1.76-9.21,2.48-3.3.72-6.65,1.32-10.03,1.8-3.38.48-6.69.85-9.91,1.1-3.23.25-6.16.37-8.81.37-5.86,0-10.81-.48-14.87-1.45-4.05-.97-7.5-2.32-10.33-4.07-.37-.25-.6-.64-.68-1.17-.08-.53-.12-1.06-.12-1.59"/>
        <path class="cls-2" d="M602.67,578.23c-1.03,1.37-2.7,2.62-5,3.74-2.31,1.12-5.12,2.08-8.44,2.88-3.32.79-7.1,1.42-11.34,1.87-4.24.45-8.82.68-13.74.68-.31,0-.47-.16-.47-.47,0-.37.27-1.08.8-2.13.53-1.04,1.45-2.21,2.76-3.48.59-.59,1.18-1.18,1.78-1.75.59-.58,1.25-1.21,1.96-1.89.72-.69,1.53-1.44,2.43-2.27.9-.83,1.96-1.77,3.18-2.83.06-1,.13-1.97.21-2.92.08-.95.12-1.89.12-2.83,0-1.65-.1-3.35-.3-5.1-.2-1.75-.47-3.51-.79-5.28-.33-1.78-.69-3.53-1.1-5.26-.41-1.73-.79-3.4-1.17-5.03-.9-1.18-1.56-2.31-1.96-3.39-.41-1.07-.61-2.28-.61-3.62,0-.65.15-1.43.44-2.31.3-.89.65-1.74,1.05-2.55.4-.81.83-1.5,1.26-2.06.44-.56.81-.84,1.12-.84.12,0,.23.05.33.14.09.09.16.28.19.56.06.69.14,1.27.23,1.75.09.48.28.94.56,1.38.28.44.68.89,1.19,1.36.51.47,1.24,1.03,2.17,1.68.41.28.68.57.82.86s.21.71.21,1.24c0,.5-.07,1.03-.21,1.59-.14.56-.33,1.14-.56,1.73-.23.59-.48,1.17-.75,1.73-.27.56-.54,1.08-.82,1.54-.13.19-.19.33-.19.42.37,2.71.76,5.41,1.15,8.09.39,2.68.58,5.42.58,8.23,0,1.09-.04,2.18-.12,3.27-.08,1.09-.21,2.18-.4,3.27,1.62-1.34,3.26-2.62,4.91-3.86,1.65-1.23,3.23-2.32,4.72-3.27,1.5-.95,2.88-1.71,4.14-2.27,1.26-.56,2.3-.84,3.11-.84,1.5,0,2.92.3,4.28.91,1.36.61,2.55,1.35,3.58,2.22,1.03.87,1.85,1.81,2.45,2.8.61,1,.91,1.87.91,2.62,0,1.22-.43,2.68-1.29,4.39-.86,1.71-1.99,3.48-3.39,5.28M568.64,583.51c3.77-.22,7.37-.7,10.8-1.45,3.43-.75,6.58-1.62,9.44-2.62,2.87-1,5.4-2.05,7.6-3.16s3.98-2.13,5.35-3.06c-.19-.59-.59-1.23-1.22-1.92-.62-.69-1.36-1.33-2.2-1.92-.84-.59-1.74-1.08-2.69-1.45-.95-.37-1.85-.56-2.69-.56-1.31,0-2.68.27-4.11.8-1.43.53-2.88,1.23-4.35,2.1-1.47.87-2.93,1.87-4.39,2.99-1.47,1.12-2.88,2.28-4.25,3.46-1.37,1.18-2.68,2.37-3.93,3.55-1.25,1.18-2.37,2.26-3.37,3.23"/>
        <path class="cls-2" d="M605.52,581.45c2.4,0,4.64-.14,6.71-.42,2.07-.28,3.93-.61,5.59-1.01,1.65-.39,3.07-.79,4.25-1.19,1.18-.4,2.09-.72,2.71-.93.16-.06.25-.09.28-.09h.14c.12,0,.19.07.21.21.02.14.02.43.02.86,0,.5-.09,1.09-.26,1.78-.17.69-.41,1.36-.72,2.03-.31.67-.69,1.28-1.12,1.82-.44.55-.92.93-1.45,1.14-.75.31-1.67.64-2.76.98-1.09.34-2.36.66-3.81.96-1.45.3-3.08.54-4.89.75-1.81.2-3.8.3-5.98.3s-4.63-.05-7.25-.14c-2.62-.09-5.22-.26-7.81-.51-2.59-.25-5.05-.59-7.39-1.03-2.34-.44-4.35-.98-6.03-1.64-.16-.06-.23-.16-.23-.28s.3-.34.89-.63c.59-.3,1.39-.63,2.38-1.01,1-.37,2.14-.77,3.44-1.19,1.29-.42,2.64-.79,4.04-1.12,1.4-.33,2.82-.6,4.25-.82,1.43-.22,2.77-.33,4.02-.33.28,0,.55.02.82.07.27.05.48.1.63.16.78.31,1.96.6,3.53.86,1.57.27,3.5.4,5.77.4"/>
        <path class="cls-2" d="M619.87,529.7c.25.41.62.85,1.1,1.33.48.48.99.94,1.52,1.38.53.44,1.06.83,1.59,1.19.53.36.98.6,1.36.72.12.03.19.13.19.28,0,.12-.08.23-.23.33-.16.22-.48.62-.96,1.22-.48.59-.98,1.2-1.5,1.82-.51.62-1,1.18-1.45,1.66-.45.48-.74.72-.86.72-.34,0-.84-.2-1.5-.61-.66-.4-1.31-.87-1.96-1.4-.65-.53-1.22-1.08-1.71-1.64-.48-.56-.72-1.01-.72-1.36,0-.12.06-.26.19-.42.28-.47.66-1.01,1.15-1.61.48-.61.97-1.19,1.47-1.75.5-.56.94-1.04,1.33-1.43.39-.39.65-.58.77-.58.09,0,.17.05.23.14"/>
        <path class="cls-2" d="M627.03,567.62c-.12.34-.37.76-.75,1.24-.37.48-.87.94-1.47,1.38-.61.44-1.32.81-2.13,1.12-.81.31-1.71.47-2.71.47-1.4,0-2.56-.23-3.46-.68-.9-.45-1.61-1.02-2.13-1.71-.51-.69-.87-1.43-1.08-2.24-.2-.81-.3-1.57-.3-2.29s.14-1.62.42-2.62c.28-1,.66-2.03,1.15-3.11.48-1.08,1.04-2.13,1.66-3.18.62-1.04,1.28-1.97,1.96-2.78.69-.81,1.38-1.47,2.08-1.99.7-.51,1.38-.77,2.03-.77,1.06,0,2.17.64,3.32,1.92,1.15,1.28,2.2,2.92,3.16,4.93.95,2.01,1.74,4.23,2.36,6.66.62,2.43.94,4.8.94,7.11,0,.75-.05,1.58-.14,2.5-.09.92-.23,1.82-.42,2.71-.19.89-.43,1.72-.72,2.5-.3.78-.65,1.39-1.05,1.82-1,1.06-2.17,2.01-3.51,2.85-1.34.84-2.76,1.57-4.25,2.2-.81.34-1.98.69-3.51,1.03-1.53.34-3.35.51-5.47.51-1.65,0-3.04-.23-4.16-.7-1.12-.47-1.68-1.09-1.68-1.87,0-.44.16-.87.49-1.31.33-.44.86-.73,1.61-.89.72-.12,1.57-.3,2.55-.54.98-.23,2.01-.5,3.09-.8,1.08-.3,2.14-.6,3.2-.91,1.06-.31,2.01-.62,2.85-.93.69-.25,1.48-.57,2.38-.96.9-.39,1.75-.81,2.55-1.26.79-.45,1.48-.92,2.06-1.4.58-.48.88-.94.91-1.38,0-.03-.02-.29-.05-.77-.03-.48-.11-1.05-.23-1.71-.13-.65-.31-1.36-.56-2.1-.25-.75-.58-1.43-.98-2.06M624.6,562.05c-.28-.59-.62-1.15-1.03-1.68-.41-.53-.82-1-1.24-1.4-.42-.41-.83-.72-1.24-.96-.41-.23-.75-.35-1.03-.35-.53,0-1.03.15-1.5.44-.47.3-.86.66-1.19,1.1-.33.44-.58.9-.77,1.38-.19.48-.28.91-.28,1.28,0,.72.39,1.4,1.17,2.03.78.64,1.87.96,3.27.96.47,0,.9-.1,1.31-.3.4-.2.77-.45,1.1-.75.33-.3.61-.6.84-.91.23-.31.43-.59.58-.84"/>
        <path class="cls-2" d="M248.25,541.09c3.01,28.17,3.73,28.79,24.63,28.22-20.7,2.81-21.3,3.5-19.79,31.93-2.87-28.34-3.49-29.06-24.4-28.86,20.73-2.15,21.24-2.97,19.56-31.29"/>
        <path class="cls-2" d="M456.44,541.09c3.01,28.17,3.73,28.79,24.63,28.22-20.7,2.81-21.3,3.5-19.79,31.93-2.87-28.34-3.49-29.06-24.4-28.86,20.73-2.15,21.24-2.97,19.56-31.29"/>
        <path class="cls-2" d="M500.24,124.45l2.56-.06c.05-35.01.53-35.05,25.58-37.07l-.07-2.56c-25.16-.69-25.64-.7-27.46-35.53l-2.56.07c.17,35.05-.3,35.07-25.21,36.28v2.56c25.04,1.12,25.52,1.14,27.16,36.3"/>
        <path class="cls-2" d="M137.17,103.69l-2.56.07c.17,35.05-.3,35.07-25.21,36.28v2.56c25.04,1.12,25.52,1.14,27.16,36.3l2.56-.06c.05-35.01.53-35.05,25.58-37.07l-.07-2.56c-25.16-.68-25.64-.69-27.46-35.53"/>
        <path class="cls-2" d="M255.62,117.33c-.82-.55-1.71-.75-2.63-.6l-38.23,5.95c-1.36.2-2.53-.05-3.57-.79-1.03-.73-1.64-1.77-1.86-3.18l-2.46-15.78c-.19-1.22.09-2.34.86-3.43.76-1.08,1.75-1.69,3.02-1.89l40.25-6.27c.99-.15,1.83-.63,2.43-1.4.62-.79.87-1.75.71-2.77-.16-1-.65-1.83-1.46-2.47-.83-.65-1.8-.91-2.83-.75l-52.44,8.16,11.42,73.33,7.69-1.2-4.49-28.88c-.21-1.34.06-2.49.82-3.5.77-1.03,1.77-1.62,3.06-1.82l38.24-5.95c.94-.15,1.72-.61,2.32-1.38.62-.79.86-1.78.69-2.87-.17-1.09-.7-1.96-1.54-2.53"/>
        <path class="cls-2" d="M304.93,142.93c-1.14.19-2.17-.08-3.14-.79-.97-.71-1.53-1.61-1.71-2.75l-7.83-50.27c-.18-1.14.08-2.15.78-3.08.71-.95,1.62-1.49,2.78-1.67l18.56-2.89-1.15-7.39-53.1,8.27,1.15,7.39,18.56-2.89c1.15-.17,2.18.06,3.15.75.96.68,1.51,1.56,1.68,2.69l7.83,50.27c.18,1.15-.07,2.18-.75,3.15-.67.96-1.59,1.51-2.79,1.7l-18.56,2.89,1.15,7.39,53.1-8.27-1.15-7.39-18.56,2.89Z"/>
        <path class="cls-2" d="M332.74,86.34c-.41-2.6,0-4.79,1.22-6.68,1.2-1.85,2.85-2.91,5.05-3.25,2.2-.35,4.08.17,5.74,1.57,1.72,1.44,2.75,3.4,3.15,6.01l6.8,43.7c.45,2.9,1.53,5.47,3.22,7.64,1.69,2.17,3.82,3.8,6.35,4.83,2.54,1.04,5.27,1.33,8.11.89,2.85-.45,5.35-1.56,7.41-3.31,2.05-1.75,3.57-3.94,4.52-6.51.94-2.57,1.19-5.35.74-8.26l-9.13-58.61-7.59,1.18,9.09,58.41c.41,2.6.02,4.79-1.18,6.68-1.16,1.83-2.79,2.89-4.99,3.24-2.21.34-4.11-.17-5.8-1.57-1.74-1.43-2.79-3.39-3.19-5.99l-6.8-43.7c-.45-2.9-1.53-5.47-3.22-7.64-1.68-2.16-3.8-3.79-6.29-4.83-2.51-1.04-5.22-1.34-8.07-.9-2.84.44-5.35,1.56-7.46,3.32-2.09,1.75-3.63,3.95-4.58,6.53-.94,2.58-1.19,5.35-.74,8.25l9.12,58.61,7.59-1.18-9.09-58.41Z"/>
        <path class="cls-2" d="M395.71,118.57c3.22,5.37,7.28,9.36,12.05,11.94,3.6,1.91,7.49,2.9,11.59,2.9,1.41,0,2.86-.14,4.31-.35,5.72-.88,10.56-3.32,14.38-7.28,3.75-3.89,6.39-8.94,7.84-15.02,1.45-6.01,1.59-12.68.49-19.82-1.13-7.17-3.29-13.46-6.5-18.76-3.21-5.34-7.28-9.36-12.05-11.94-4.84-2.58-10.18-3.43-15.9-2.54-5.72.88-10.53,3.36-14.34,7.28-3.78,3.89-6.43,8.94-7.88,15.02-1.45,6.01-1.59,12.68-.49,19.82,1.13,7.17,3.32,13.46,6.5,18.76M397.51,82.39c1.02-4.8,2.9-8.76,5.62-11.73,2.61-2.93,5.97-4.73,10-5.37.92-.14,1.87-.21,2.79-.21,2.93,0,5.76.74,8.34,2.26,3.5,2.05,6.47,5.23,8.9,9.47,2.47,4.31,4.2,9.5,5.12,15.37.92,5.9.85,11.34-.21,16.22-1.02,4.77-2.9,8.73-5.58,11.73-2.65,2.93-6.01,4.7-10,5.34-3.99.64-7.77-.07-11.16-2.05-3.46-2.05-6.47-5.23-8.9-9.47-2.47-4.31-4.2-9.5-5.09-15.37-.92-5.9-.88-11.34.18-16.18"/>
        <path class="cls-2" d="M280.38,263.39l-.21-.21h-.04l-2.26,2.72s.11.07.14.11c.07.03.11.07.14.14.07.03.11.07.14.11.07.04.11.11.18.14l2.09-2.86-.18-.14Z"/>
        <path class="cls-2" d="M617.48,248.51s-28.76-24.45-28.79-24.52c-.07-.04-.11-.07-.14-.11-.07-.04-.11-.07-.18-.14-.04-.04-.07-.07-.14-.11-1.34-1.2-2.72-2.33-4.17-3.46-.28-.25-.6-.49-.92-.74-1.31-.95-2.58-1.91-3.92-2.79-.18-.11-.32-.21-.46-.32-3.25-2.16-6.61-4.06-10.14-5.72,1.91-1.16,3.64-2.58,5.02-4.31,4.56-5.9,6.36-13.18,7.28-20.46.46-7.24,0-14.98-1.8-22.26-.92-3.18-2.76-6.82-5.48-9.08l-.11-.11h-.04s-.07-.07-.11-.11c-.03,0-.03-.04-.03-.04l-.11-.11h-.03s-.11-.07-.14-.11v-.04s-.11-.07-.14-.11v-.04s-.11-.03-.14-.07c0,0-22.93-19.54-26.99-23,24.27-19.89,36.85-41.06,33.6-61.05-6.61-40.81-77.06-65.33-171.78-65.33-31.55,0-65.75,2.69-101.19,8.44C164.46,35.82,56.49,98.53,65.29,152.91c6.61,40.81,77.06,65.33,171.82,65.33,1.06,0,2.16,0,3.21-.04.11,1.48.25,2.97.42,4.45.14,1.1.35,2.23.6,3.32.07.35.14.67.21.99.21.81.42,1.63.67,2.4.11.35.21.71.32,1.02.35,1.02.71,2.01,1.13,2.97.03.07.07.18.11.25.46.99.99,1.94,1.56,2.86.18.32.35.6.56.92.42.64.88,1.27,1.38,1.87.25.28.46.6.71.85.67.74,1.34,1.45,2.12,2.12.11.07.18.18.25.25.07.04.11.11.18.14.04.04.11.07.14.11v.04c.07.04.11.07.14.11.07.04.11.11.18.14.04.04.07.07.14.11.04.03.07.11.14.14.04.03.11.07.14.11.04.04,26.25,22.37,26.32,22.4.04.04.11.07.14.14l2.12-2.83c-.25-.21-10.88-9.26-18.55-15.79,8.13,1.13,16.92-1.84,21.55-8.73,4.1-5.9,5.9-13.64,5.9-20.46,0-.71,0-1.45-.03-2.19-.04-1.73-.14-3.53-.28-5.3-.42-4.59-1.24-9.22-2.47-13.42,4.56,3.89,10.28,8.73,14.49,12.3,2.65,2.3,4.7,4.03,5.51,4.73.25.21.39.32.39.32l.21.18v.04l.04.04.07.03.21.18.04.03c1.8,1.52,3.36,3.85,4.73,7.07,1.91,5.79,2.97,13.25,2.97,21.02,0,6.85-1.91,13.57-5.3,18.48-.95,1.41-2.23,2.72-3.78,3.85l-3.04,2.33c-.21-.6-.39-1.1-.57-1.52-1.38-3.18-3.18-6.36-6.36-7.7-2.26-1.24-7.88,1.73-14.06,5.9l-.71-.6-.07-.07-.14-.11-2.26,2.72s.07.07.14.11t.04.04c-.78.57-1.52,1.1-2.26,1.66-.35.25-.67.49-1.02.74-.71.53-1.38,1.06-2.05,1.56-.39.32-.78.6-1.17.88-.6.46-1.2.95-1.77,1.41-.42.32-.85.64-1.24.95-.42.32-.81.64-1.17.95-.56.42-1.1.85-1.63,1.27-.32.28-.64.53-.95.78-.53.42-.99.81-1.48,1.2-.25.25-.5.46-.74.64-1.41,1.17-2.54,2.12-3.18,2.65-.04,0-.07.03-.11.07-.25.21-.46.35-.53.39-.67.46-1.27.95-1.8,1.45-3.6,3.57-3.43,8.41-1.84,13.57l.04.04c.78,2.65,1.45,5.19,2.05,7.7.18.78.32,1.55.49,2.33.35,1.7.71,3.39.99,5.05.11.81.25,1.63.35,2.44.25,1.66.42,3.25.56,4.81.04.64.14,1.34.18,1.98.14,2.09.18,4.1.18,6.01-.03.67-.07,1.31-.11,1.94-.07,1.27-.14,2.54-.25,3.75-.11.85-.21,1.66-.32,2.44-.14.95-.32,1.87-.49,2.79-.18.85-.35,1.66-.53,2.47-.21.78-.46,1.48-.67,2.23-.6,1.87-1.27,3.67-2.05,5.34-.11.25-.18.46-.28.67-.49.95-.99,1.8-1.52,2.69-.18.32-.39.64-.57.95-.57.85-1.17,1.7-1.8,2.47-.14.18-.28.35-.42.57-3,3.6-6.61,6.43-10.71,8.37-1.06-32.54-14.7-57.66-32.65-73.24-.04-.04-.11-.07-.14-.11-.04-.04-.11-.07-.14-.14-.04-.04-.11-.07-.14-.11-.07-.04-28.48-24.24-28.51-24.27-.07-.04-.11-.07-.14-.11-.07-.04-.11-.11-.18-.14-1.48-1.31-3.04-2.54-4.59-3.71-.39-.28-.74-.56-1.13-.81-3.15-2.3-6.36-4.31-9.68-6.01-.39-.21-.78-.42-1.17-.6-3.32-1.66-6.64-3.04-10.03-4.1-.39-.11-.81-.25-1.2-.35-3.39-.99-6.75-1.7-10.11-2.08-.42-.04-.81-.07-1.24-.14-1.66-.14-3.32-.25-4.98-.25-1.84,0-3.64.07-5.41.21-.42.04-.81.04-1.2.07-1.73.14-3.43.35-5.09.6-.21.04-.42.07-.64.11-1.52.25-3,.56-4.45.88-.32.07-.67.18-.99.25-1.55.39-3.07.81-4.59,1.31-.28.11-.56.21-.85.28-1.34.46-2.65.95-3.92,1.52-.21.07-.46.18-.67.28-1.41.6-2.79,1.27-4.1,1.94-.32.18-.6.35-.88.49-1.24.67-2.47,1.41-3.64,2.16-.11.07-.21.14-.28.18-1.27.81-2.44,1.7-3.6,2.58-.28.21-.53.42-.81.64-1.13.92-2.26,1.87-3.32,2.83-.07.11-.14.18-.25.25-.99.95-1.94,1.91-2.86,2.93-.21.21-.42.46-.64.71-.95,1.06-1.87,2.15-2.72,3.29-.14.18-.28.39-.42.57-.78,1.02-1.48,2.09-2.19,3.14-.14.21-.32.46-.46.67-.74,1.2-1.48,2.44-2.16,3.71-.14.25-.25.53-.39.78-.6,1.17-1.17,2.37-1.7,3.53-.07.18-.18.35-.25.53-.56,1.31-1.06,2.65-1.52,4.03-.14.32-.25.64-.32.95-.49,1.38-.92,2.79-1.27,4.2v.04c-.35,1.41-.67,2.86-.92,4.35-.07.32-.14.64-.21.99-.21,1.45-.42,2.9-.57,4.38-.03.21-.03.39-.07.6-.11,1.34-.21,2.69-.25,4.06,0,.32-.04.64-.04.95-.04,1.48,0,3,.07,4.52,0,.28.04.57.04.88.11,1.34.21,2.72.39,4.1,0,.25.04.49.07.78.18,1.52.42,3.04.74,4.59.07.32.14.67.21,1.02.28,1.45.64,2.93,1.02,4.42.04.11.07.21.11.32.42,1.55.92,3.11,1.45,4.66.11.35.25.71.35,1.06.56,1.55,1.17,3.11,1.84,4.63.04.11.11.25.14.35.64,1.45,1.34,2.9,2.08,4.31.18.35.32.67.5,1.02.81,1.48,1.63,3,2.54,4.45.14.25.32.49.46.74.81,1.34,1.7,2.65,2.61,3.96.21.28.39.57.6.85,1.02,1.45,2.12,2.86,3.25,4.28.25.32.49.6.74.88,1.1,1.31,2.23,2.58,3.39,3.85.14.18.32.35.46.53,1.31,1.38,2.69,2.72,4.1,4.06.32.32.64.6.99.92,1.45,1.34,2.97,2.68,4.52,3.99.07.04.11.07.14.11.04.03.07.03.11.07,0,0,.03.03.07.07,0,0,.03.03.07.03,0,.04.03.07.07.07.03.04.11.11.14.14.04.04.11.07.14.11.04.04.11.11.14.14.04,0,.07.04.07.04.04.04.07.04.07.07.07.04.11.11.14.14.07.03.11.07.18.11.03.04.07.11.14.14.04.04.07.07.14.11,0,.04.04.04.04.07.04,0,.07.04.11.07.03.04.11.07.14.11.07.07.11.11.14.14.07.04.11.07.14.11.07.07.11.11.18.14,0,.04.04.04.07.04,0,.03.04.07.07.07.04.07.07.11.14.14.04.04.11.07.14.14.04.04.11.07.14.11.04.04.07.04.07.07.04,0,.07.04.07.07.07.04.11.07.14.11.04.04.07.04.11.07t.07.07s.07.07.14.11t.07.07s.04.04.07.07c.04.04.11.07.14.11.04.04.11.11.14.14.07.04.11.07.14.11.07.04.11.11.14.14.07.04.11.07.18.11.04.03.07.11.14.14.04.04,38.16,30.88,46.35,35.05-3.36,1.38-6.75,2.33-10.18,3-.35.07-.71.11-1.06.14-1.31.21-2.58.42-3.89.53-22.61,2.05-46-9.89-63.99-22.61-3.04-2.26-6.39-4.73-9.93-7.49-8.97-7.21-15.72-13.74-19.15-17.21-.78-.81-1.56-1.63-2.33-2.47-.07-.07-.14-.11-.14-.11-.04-.07-.11-.11-.14-.14-.04-.04-.11-.07-.14-.11-.04-.04-.11-.11-.14-.14-.74-.6-1.66-1.1-2.58-1.1-.04,0-.04-.04-.07-.04s-.07.04-.11.04c-.21,0-.42.03-.64.11-.07.04-.14.04-.21.07-.25.11-.49.25-.74.42v.04c-.99.81-.95,2.12-1.24,3.25-1.7,6.71-8.59,52.54-7.67,53.67,1.06,1.34,2.23,2.65,3.46,3.96.35.39.74.78,1.1,1.17.92.95,1.84,1.87,2.79,2.79.42.39.81.78,1.24,1.17,1.24,1.17,2.51,2.26,3.85,3.39.11.11.21.21.35.32.03.04.11.07.14.11.03.04.11.07.14.14.07.04.11.07.14.11.07.04,28.76,24.48,28.83,24.52,20.88,17.42,51.27,30,72.54,30,57.13,0,79.81-35.26,85.43-55.51,4.59.88,9.04,1.52,13.43,1.94,5.51.6,10.7.88,15.62.88,41.34,0,60.42-20.49,65.54-37.38.07.04.11.07.14.11.04.04.11.07.14.14.07.03.11.07.14.11.07.04.11.11.14.14.07.04.11.07.18.11.04.04,18.66,15.9,18.69,15.93.07.04.11.07.14.11.07.07.11.11.18.14,7.03,5.83,15.33,10.21,24.8,12.75-1.17.18-2.33.46-3.43.85-.04,0-.07.04-.07.04-3.36,1.17-6.36,3.07-8.87,5.58-.78.78-1.52,1.62-2.23,2.51-.07.11-.14.21-.21.28-.64.85-1.24,1.77-1.8,2.68-.07.14-.14.28-.25.42-.53.92-1.03,1.87-1.45,2.86-.07.11-.11.25-.18.39-.42,1.02-.85,2.05-1.17,3.14-1.38,4.2-1.94,8.73-1.94,13.32,0,2.83.21,5.69.57,8.48.18,1.13.39,2.26.6,3.36.07.35.18.67.25.99.18.81.42,1.63.64,2.4.11.35.21.67.32,1.02.35,1.02.74,2.01,1.17,2.97.04.07.07.14.11.21.42,1.03.95,1.98,1.52,2.9.18.32.39.6.57.88.46.67.92,1.31,1.41,1.91.21.28.46.57.67.85.67.74,1.38,1.45,2.15,2.12.07.07.14.18.25.25.04.04.11.11.18.14.04.04.07.07.14.11.04.07.11.11.14.14.04.03.11.07.14.14t.07.03s.04.04.07.07c.07.04.11.07.14.14.07.04.11.07.14.11.07.04.11.07.18.14.04.04.07.07.14.11.04.04,32.15,26.75,34.77,27.66,2.47.85,5.12,1.31,7.77,1.31,7.07,0,14.17-3.07,18.13-9.05.49-.67.85-1.45,1.27-2.19,0,.03.04.03.07.07.04.03.07.07.14.11.04.04,11.31,8.94,13.67,9.75,2.47.85,5.09,1.31,7.74,1.31,7.07,0,14.17-3.07,18.16-9.05,4.06-5.9,5.9-13.64,5.9-20.42,0-7.28-.92-15.47-3.18-22.29-1.38-3.18-3.18-6.36-5.9-8.62-.04-.04-.07-.04-.11-.07,0,0-.04-.03-.07-.03,0-.04-28.34-24.13-28.34-24.17-.04,0-.07-.04-.11-.04,0-.04-.04-.04-.07-.07,0-.04-.03-.04-.07-.07-.03,0-.03-.04-.07-.07,0,0-.03-.03-.07-.03-.03-.04-.03-.07-.07-.07t-.07-.07s-.04-.04-.07-.07c-.04,0-.07-.04-.07-.04-.04-.03-.04-.07-.07-.07-.04-.03-.07-.03-.07-.07h-.04s-.04-.03-.04-.07c-4.1-3.64-9.08-5.44-14.56-5.44h-.04c-1.1,0-2.16.11-3.18.25-.39.07-.78.18-1.17.25-.64.14-1.27.25-1.87.46-.46.14-.92.32-1.38.49-.49.18-.95.35-1.45.57-.49.25-.99.53-1.48.78-.35.21-.74.42-1.09.67-.53.32-1.06.67-1.56,1.06-.28.21-.56.42-.81.64-.53.46-1.06.92-1.55,1.41-.21.18-.39.35-.56.53-.53.57-1.06,1.13-1.55,1.77-.11.11-.21.25-.28.35-.57.71-1.06,1.41-1.55,2.16l-.07-.07v.18c-.42.67-.88,1.34-1.24,2.01-1.34-2.97-3.07-5.9-5.65-8.06-1.27-1.13-2.72-2.05-4.17-2.83,0,0,3.75.21,5.69.21,37.73,0,52.47-34.24,55.33-38.94,2.61,1.48,5.37,2.93,8.27,4.38,1.2.99,2.19,1.84,2.4,2.01,14.24,11.94,41.8,36.6,83.49,36.6,69.07,0,111.79-46.32,111.79-113.13,0-27.84-12.26-56.18-32.96-74.55M549.75,138.81c3.6,3.07,9.05,7.7,17.31,14.73l3.39,2.86v.04h.04l.07.11h.03l.04.07.18.11v.04l.04.04h.04l.04.04.07.07.07.04.11.11.07.04.07.07.11.07c1.8,1.55,3.43,4.28,4.28,7.24,1.55,6.32,2.16,13.6,1.7,21.06-1.06,8.37-3.07,14.1-6.47,18.55-1.09,1.34-2.47,2.51-4.13,3.5l-2.12,1.27c-7.45-3-15.47-4.95-23.99-5.55l-2.97-2.76-.21-.21c-.07-.04-.11-.07-.14-.11-.07-.07-.14-.11-.21-.18-.39-.32-2.12-1.8-10.64-9.04-.92-.78-1.84-1.59-2.75-2.37,7.7.99,15.83-1.55,20.49-7.35,4.56-5.9,6.36-13.18,7.28-20.42.46-7.21,0-14.84-1.77-22.05M280.84,188.06s-.07-.04-.07-.04c-.04-.04-.07-.07-.07-.07-.04-.04-.07-.04-.11-.07,0-.04-.04-.04-.04-.07-.04,0-.07-.04-.11-.04,0-.04-.04-.07-.07-.07,0-.04-.04-.04-.07-.07,0-.03-.04-.03-.07-.07,0,0-.04-.03-.07-.07-.04,0-.04-.03-.07-.03t-.07-.07s-.04-.04-.07-.07c-.04-.04-.07-.04-.07-.07-.04,0-.07-.04-.07-.04-2.61-2.33-5.58-3.82-8.8-4.66-1.87-.49-3.75-.81-5.76-.81-11.34,0-19.96,8.66-23.14,19.08-1.31,3.82-1.84,7.92-1.91,12.08-1.06.04-2.09.04-3.11.04-93.73,0-160.69-24.45-166.59-60.88-3.82-23.64,18.58-51.48,61.48-76.39,44.98-26.15,107.23-46.6,175.28-57.59,34.38-5.58,68.12-8.37,100.34-8.37,93.73,0,160.65,24.45,166.55,60.88,2.83,17.56-8.8,37.45-32.58,56.74-3.36-2.37-7.53-3.85-11.41-4.2h-.95c-.6,0-1.13.11-1.73.14-.6.04-1.24.07-1.87.18-.71.11-1.38.28-2.08.46-.57.18-1.17.28-1.73.46-.67.25-1.31.57-1.98.85-.53.25-1.06.46-1.55.74-.64.32-1.24.74-1.84,1.17-.49.32-.99.6-1.41.95-.6.46-1.17.99-1.73,1.48-.39.39-.81.71-1.2,1.1-.56.6-1.06,1.24-1.56,1.87-.32.39-.71.78-.99,1.2-.53.71-1.02,1.52-1.48,2.3-.21.39-.49.71-.67,1.1-.67,1.2-1.24,2.44-1.77,3.74-1.2,3.67-2.05,7.49-2.4,11.38-44.09,23.6-102.43,42.04-165.77,52.33-10.78,1.73-21.48,3.22-32.08,4.38-7.49-6.36-24.49-20.84-24.52-20.88M205.59,292.93l.14.11.18.14c19.33,16.78,30.49,41.87,31.41,70.66l.04,1.31c-3.75,1.27-7.81,1.98-12.05,1.98-5.16,0-10.32-.71-15.62-2.4,5.44-33.49-1.8-61.16-15.09-81.16,5.79,4.95,10.81,9.19,10.99,9.36M128.95,389.38c11.91,5.65,25.79,10.17,41.8,13.14-3.85,3.46-7.84,6.11-11.94,8.2l-2.44-1.24c-3.96-2.05-16.29-11.41-27.42-20.1M321.69,399.06c-5.16,16.85-24.2,34.87-62.18,34.87-4.88,0-9.96-.28-15.26-.85-4.42-.46-8.83-1.1-13.11-1.91l-3.21-.6-.85,3.14c-1.62,5.83-7.03,20.77-22.29,33.57-15.26,12.83-35.37,19.33-59.75,19.33-20.46,0-49.99-12.26-70.27-29.18-.11-.07-3.32-2.79-7.53-6.39,16.53,8.66,34.41,14.1,48.4,14.1,57.13,0,79.81-35.26,85.43-55.47,4.59.85,9.08,1.48,13.43,1.91,55.89,6.22,78.51-20.99,82.15-40.35h1.8c5.83,10.49,13.85,19.36,23.92,25.65l-.67,2.19ZM302.93,268.73l2.54,2.26.21.21.11.07.07.04.21.21.04.03.21.14v.04l.14.11.03.04c.32.25,17.1,14.56,17.35,14.73l.11.11.14.14h.04l.25.25h.04l.18.18.18.14h.04l.11.14h.04c1.52,1.27,2.61,3.53,3.29,5.12.92,2.05,2.19,7.99,3.64,14.87,3.25,15.12,8.09,37.7,16.43,55.58-31.37-5.41-40.42-77.27-45.37-94.41M390.83,486.12c.88-1.27,1.66-2.65,2.33-4.06,2.61,5.26,6.68,9.65,12.82,11.77,9.08,3.18,20.42.46,25.9-7.7,4.06-5.94,5.9-13.64,5.9-20.46s-.85-14.38-2.83-20.92c7.88,6.68,19.11,16.25,20.56,17.45l.18.18.21.18.04.04c1.8,1.52,3.36,3.85,4.73,7.07,1.91,5.79,2.97,13.25,2.97,21.02,0,6.85-1.94,13.57-5.33,18.48-3.04,4.59-8.87,7.46-15.19,7.46-2.3,0-4.52-.39-6.54-1.1-1.38-.56-7.67-5.23-12.61-9.11-.07-.07-.14-.11-.14-.11l-.11-.11-.07-.07-3.25-2.51-2.01,3.6-.35.67c-.21.42-.42.85-.74,1.27-3.07,4.59-8.87,7.46-15.19,7.46-2.23,0-4.42-.35-6.43-1.06-2.37-1.34-16.08-12.44-26.15-20.7,8.06,1.06,16.75-1.91,21.31-8.73M440.37,393.3c-4.63,8.73-18.83,35.3-51.2,35.3-1.8,0-5.48-.21-5.51-.21l-6.32-.35-6.82-1.84c-8.73-2.33-16.64-6.39-23.49-12.05l-.25-.21v-.04c-.21-.14-5.97-5.05-11.06-9.36-.95-.81-1.87-1.59-2.72-2.33,7.99,3.14,16.92,4.91,26.78,4.91,39.54,0,49.53-34.98,51.34-36.82.46-.46,1.84-.46,2.76,0,2.37,2.4,12.19,11.87,27.56,21.09-.28.49-.6,1.09-1.06,1.91M441.11,341.68c-23.5-19.12-25.33-49.04-33.71-69,.99.85,2.08,1.77,3.36,2.86,7.88,6.71,17.52,14.91,17.81,15.16.07.03.14.11.14.11.07.07.18.14.18.14.07.07.14.14.14.14.04,0,.07.04.11.11.07.04.14.11.21.18.07.04.11.07.14.11l.07.07.07.07c.11.07.18.18.21.18,1.02,1.66,2.05,3.57,3.14,6.08,2.54,5.62,4.49,12.26,6.54,19.33,2.97,10.14,6.25,21.41,12.05,31.87-3.82-2.33-7.31-4.8-10.46-7.38M436.23,296.42c-1.06-2.33-2.16-4.52-3.43-6.54-.25-.32-.49-.6-.78-.88-.07-.03-.14-.11-.18-.18-.07-.04-.11-.07-.14-.11-.07-.04-.11-.07-.18-.14-.04-.04-.07-.07-.14-.11-.04-.07-.11-.07-.14-.14-.04-.03-.11-.07-.14-.11-.03-.07-.11-.11-.14-.14-.03-.04-28.02-23.85-28.09-23.88-.04-.04-.11-.07-.18-.14-.56-.53-1.24-.88-1.98-1.1-.04,0-.11-.04-.14-.04-.42-.11-.88-.18-1.38-.18h-.07c-.6,0-1.24.11-1.91.25-.04,0-.11,0-.14.04-.67.14-1.38.35-2.08.64h-.04c-1.48.6-3.07,1.41-4.7,2.4-.07.03-.14.11-.21.14-.78.49-1.59,1.02-2.4,1.59-.07.04-.11.07-.14.11-1.7,1.17-3.39,2.47-5.09,3.85-.04.07-.11.11-.18.14-.81.71-1.63,1.38-2.44,2.08-.07.07-.18.14-.25.21-.81.74-1.62,1.45-2.44,2.19s-1.63,1.48-2.4,2.23c-.04.07-.11.11-.14.18-.74.71-1.48,1.41-2.15,2.08-.14.11-.21.21-.32.32-.71.67-1.38,1.34-2.01,1.98-.07.11-.14.18-.21.25-.6.64-1.2,1.24-1.77,1.8-.04.07-.11.14-.14.18-.57.6-1.1,1.13-1.59,1.66-.11.14-.21.25-.32.39-.46.5-.88.95-1.27,1.38-.11.11-.21.21-.32.35-.35.35-.64.71-.92,1.02-.04.04-.11.11-.14.14-3.64,4.1-.46,7.28,1.38,14.06,1.13,3.89,2.19,7.81,3.07,11.73,1.94,8.41,3.25,16.71,3.22,23.95-.04,1.27-.11,2.51-.21,3.71,0,.28-.04.56-.04.81-.14,1.16-.32,2.26-.5,3.32-.07.28-.14.56-.18.85-.25,1.06-.53,2.05-.85,3-.07.25-.18.5-.28.74-.35.92-.74,1.84-1.24,2.65-.07.21-.21.35-.32.56-.46.71-.92,1.41-1.48,2.05-.11.14-.25.32-.39.46-.6.67-1.27,1.27-2.01,1.84-.21.14-.42.32-.67.46-.71.53-1.52.95-2.4,1.31-.28.14-.56.25-.85.35-.92.35-1.87.64-2.9.81-.32.07-.67.11-.99.18-1.1.14-2.26.25-3.5.28-12.83-26.32-17.6-64.87-20.81-72.22-1.02-2.4-2.33-4.84-4.31-6.43-.04-.04-.07-.11-.14-.14-.04-.04-.07-.07-.14-.11-.03-.03-.11-.11-.14-.14-.03-.04-.11-.07-.14-.11-.07-.04-.11-.11-.14-.14-.07-.04-.11-.07-.14-.11-.07-.04-.11-.11-.18-.14-.04-.04-17.35-14.77-17.38-14.8-.04-.04-.11-.07-.14-.11l-.14-.14c-.07-.03-.11-.07-.14-.11-.07-.07-.11-.11-.18-.14-.04-.04-.07-.07-.14-.11-.04-.07-.07-.11-.14-.14-.04-.04-.07-.07-.14-.11,1.8-1.31,3.39-2.86,4.66-4.77,4.1-5.9,5.9-13.6,5.9-20.42,0-7.28-.92-15.44-3.18-22.26-1.1-2.54-2.47-5.09-4.38-7.17,9.08-1.1,18.27-2.4,27.56-3.89,64.55-10.42,122.07-29.08,164.75-51.44.04,1.31.14,2.58.32,3.85.03,1.17.18,2.33.32,3.5.03.35.11.71.14,1.06.14.81.28,1.62.46,2.4.11.39.18.78.28,1.13.21.92.49,1.8.81,2.69.07.25.14.46.21.71.39.95.81,1.91,1.27,2.83.21.39.42.74.64,1.1.35.6.71,1.2,1.1,1.77.25.35.53.74.81,1.1.46.6.99,1.17,1.52,1.73.21.25.42.53.67.74.07.07.11.11.14.14.07.04.11.07.18.11.04.07,22.9,19.5,22.93,19.54.07.07.11.11.18.14.04.04.07.07.14.11.03.07.07.11.14.14h-.14c-11.02,0-21.23,2.54-30.39,7.03-27.38,13.46-45.05,44.31-45.05,75.64,0,1.87.07,3.71.18,5.55,0,.56.04,1.1.07,1.62.11,1.34.21,2.72.35,4.03.04.56.11,1.09.14,1.63.21,1.77.46,3.5.74,5.23,0,.04,0,.07.04.14.28,1.73.64,3.46,1.06,5.16.11.53.25,1.06.39,1.55.28,1.24.64,2.47.99,3.67.18.53.32,1.06.49,1.59.46,1.52.99,3.04,1.59,4.52.04.14.07.28.14.42.6,1.55,1.31,3.11,2.01,4.63.25.5.49.99.74,1.48.56,1.09,1.13,2.15,1.7,3.22.28.49.56.99.88,1.48.78,1.31,1.59,2.58,2.44,3.85.14.18.25.39.39.57.95,1.38,1.98,2.69,3.04,3.99.35.46.74.88,1.13,1.34.78.92,1.59,1.84,2.44,2.72.42.42.85.88,1.27,1.31,1.1,1.1,2.23,2.15,3.39,3.18.18.18.35.35.57.5.03.07.11.11.14.14.04.04.11.07.14.11.04.07.11.11.14.14.07.04.11.07.14.11.07.07.11.11.14.14,0,0,.11.04.25.14,5.9,4.91,12.86,9.19,21.06,12.65v2.72c-12.37,0-24.91-2.58-36.39-6.75-.32-.11-.64-.21-.92-.32-.81-.32-1.59-.64-2.37-.92-3.71-1.52-7.28-3.11-10.46-4.77-12.19-18.34-14.56-40.6-21.55-56.14M538.66,432.66c-34.55,0-59.32-17.74-74.41-30.07,13.11,5.05,28.26,8.62,45.01,8.62,69.07,0,111.79-46.35,111.79-113.17,0-19.93-6.29-40.14-17.49-56.74,6.08,5.16,11.45,9.75,11.55,9.86,19.61,17.38,31.8,44.91,31.8,71.9,0,66.6-42.5,109.6-108.25,109.6"/>
        <path class="cls-2" d="M16.33,666.09l14.08-36.49,2.07.83-14.08,36.44-2.07-.78ZM24.25,651.96h16.51v2.23h-16.51v-2.23ZM32.53,630.43l2.07-.83,14.08,36.49-2.07.78-14.08-36.44Z"/>
        <path class="cls-2" d="M53.95,630.02h2.23v33.96h-2.23v-33.96ZM56.23,664.02h13.82v2.23h-13.82v-2.23ZM70.1,664.02l5.64-4.76,1.4,1.71-5.59,4.76-1.45-1.71Z"/>
        <path class="cls-2" d="M79.21,660.55l11.23-32.35,2.12.72-11.23,32.35-2.12-.72ZM80.66,663.51l.67-2.17,11.34,3.42-.62,2.12-11.39-3.36ZM92.72,664.75l9.73-2.54.57,2.12-9.73,2.54-.57-2.12Z"/>
        <path class="cls-2" d="M128.89,632.29h2.23v31.68h-2.23v-31.68ZM131.17,630.02h18.89v2.23h-18.89v-2.23ZM131.17,664.02h18.89v2.23h-18.89v-2.23ZM132.25,647.77h14.29v2.23h-14.29v-2.23Z"/>
        <path class="cls-2" d="M157.04,642.39h2.23v21.59h-2.23v-21.59ZM158.03,640.47l20.03-14.08,1.24,1.81-19.98,14.13-1.29-1.86ZM159.32,664.02h17.08v2.23h-17.08v-2.23ZM171.69,646.84h12.27v2.23h-12.27v-2.23ZM176.92,649.53h2.23v16.72h-2.23v-16.72Z"/>
        <path class="cls-2" d="M184.99,631.21l1.5-1.61,15.63,14.6-1.55,1.6-15.58-14.6ZM201.03,645.44h2.23v20.81h-2.23v-20.81ZM202.17,644.2l15.63-14.6,1.5,1.66-15.63,14.54-1.5-1.6Z"/>
        <path class="cls-2" d="M223.44,645.34h2.23v20.91h-2.23v-20.91ZM225.72,645.34l8.54-17.03,2.02.98-8.59,17.03-1.97-.98ZM227.74,646.37h17.65v2.23h-17.65v-2.23ZM236.33,629.29l1.91-1.04,9.16,17.03-1.97,1.04-9.11-17.03Z"/>
        <path class="cls-2" d="M249.47,630.02h24.9v2.23h-24.9v-2.23ZM260.81,632.86h2.23v33.39h-2.23v-33.39Z"/>
        <path class="cls-2" d="M276.43,664.02h14.65v2.23h-14.65v-2.23ZM278.71,630.02h10.15v2.23h-10.15v-2.23ZM282.64,632.91h2.23v30.44h-2.23v-30.44Z"/>
        <path class="cls-2" d="M293.15,666.09l13.61-36.49,2.07.78-13.61,36.49-2.07-.78ZM305.11,640.63h7.66v2.23h-7.66v-2.23ZM309.04,630.38l2.12-.78,13.56,36.49-2.07.78-13.61-36.49Z"/>
        <path class="cls-2" d="M329.89,630.02h2.23v36.23h-2.23v-36.23ZM332.22,634.47l1.97-1.09,18.01,31.83-1.91,1.09-18.07-31.83ZM352.26,630.02h2.23v36.23h-2.23v-36.23Z"/>
        <path class="cls-2" d="M383.98,630.02h2.23v36.23h-2.23v-36.23ZM387.44,647.2h14.34v2.23h-14.34v-2.23ZM403.18,630.02h2.17v36.23h-2.17v-36.23Z"/>
        <path class="cls-2" d="M414.15,632.24h2.23v31.78h-2.23v-31.78ZM416.42,630.02h21.22v2.23h-21.22v-2.23ZM416.42,664.02h21.22v2.23h-21.22v-2.23ZM437.65,632.24h2.23v31.78h-2.23v-31.78Z"/>
        <path class="cls-2" d="M447.63,665.89l5.69-37.89,2.17.36-5.69,37.89-2.17-.36ZM455.55,628.36l2.17-.36,5.69,37.89-2.17.36-5.69-37.89ZM463.47,665.89l5.69-37.89,2.17.36-5.69,37.89-2.17-.36ZM471.39,628.36l2.17-.36,5.69,37.89-2.17.36-5.69-37.89Z"/>
        <path class="cls-2" d="M487.01,632.29h2.23v31.68h-2.23v-31.68ZM489.29,630.02h18.89v2.23h-18.89v-2.23ZM489.29,664.02h18.89v2.23h-18.89v-2.23ZM490.38,647.77h14.29v2.23h-14.29v-2.23Z"/>
        <path class="cls-2" d="M536.39,631.15h2.23v32.82h-2.23v-32.82ZM538.09,630.74l1.24-1.81,18.32,12.42-1.24,1.86-18.32-12.47ZM538.66,664.02h11.44v2.23h-11.44v-2.23ZM547.62,662.26l8.8-6.94,1.35,1.76-8.8,6.88-1.34-1.71ZM556.42,643.27h2.23v12.01h-2.23v-12.01Z"/>
        <path class="cls-2" d="M565.37,645.75l.36-2.22,17.75,3.21-.36,2.17-17.75-3.16ZM565.37,651.86l17.75-2.85.31,2.23-17.75,2.79-.31-2.17ZM567.08,632.29h2.23v11.39h-2.23v-11.39ZM567.28,653.88h2.23v10.09h-2.23v-10.09ZM569.35,630.02h16.3v2.23h-16.3v-2.23ZM569.56,664.02h15.99v2.23h-15.99v-2.23Z"/>
        <path class="cls-2" d="M592.9,630.02h2.23v33.96h-2.23v-33.96ZM595.23,664.02h20.14v2.23h-20.14v-2.23Z"/>
        <path class="cls-2" d="M617.43,664.02h14.65v2.23h-14.65v-2.23ZM619.71,630.02h10.15v2.23h-10.15v-2.23ZM623.64,632.91h2.23v30.44h-2.23v-30.44Z"/>
      </g>
    </g>
  </g>
</svg>