<?xml version="1.0" encoding="UTF-8"?>
<svg id="Layer_2" data-name="Layer 2" xmlns="http://www.w3.org/2000/svg" xmlns:xlink="http://www.w3.org/1999/xlink" viewBox="0 0 595.28 841.89">
  <defs>
    <style>
      .cls-1 {
        fill: none;
      }

      .cls-2 {
        fill: #e29a3e;
      }

      .cls-3 {
        clip-path: url(#clippath-1);
      }

      .cls-4 {
        fill: #fff;
      }

      .cls-5 {
        fill: #872225;
      }

      .cls-6 {
        clip-path: url(#clippath);
      }
    </style>
    <clipPath id="clippath">
      <rect class="cls-1" y="0" width="595.28" height="841.89"/>
    </clipPath>
    <clipPath id="clippath-1">
      <rect class="cls-1" y="0" width="595.28" height="841.89"/>
    </clipPath>
  </defs>
  <g id="Layer_1-2" data-name="Layer 1">
    <g class="cls-6">
      <g class="cls-3">
        <path class="cls-5" d="M214.91,464.55c-2.26,0-3.98,1.78-3.98,4.13s1.72,4.17,3.98,4.17c1.22,0,2.62-.67,3.65-1.72l2.24,2.41c-1.57,1.66-3.92,2.73-6.1,2.73-4.42,0-7.72-3.23-7.72-7.55s3.38-7.42,7.86-7.42c2.18,0,4.47.97,5.93,2.52l-2.22,2.66c-.96-1.17-2.37-1.93-3.65-1.93"/>
        <path class="cls-5" d="M229.82,464.61v3.42c-2.08-.21-3.46.71-3.65,2.29v5.79h-3.73v-11.34h3.73v1.89c.78-1.3,2.05-2.03,3.65-2.03"/>
        <path class="cls-5" d="M235.3,461.53c0,1.17-.82,1.99-1.97,1.99s-1.97-.82-1.97-1.99.82-1.99,1.97-1.99,1.97.82,1.97,1.99M235.17,476.1h-3.71v-11.34h3.71v11.34Z"/>
        <path class="cls-5" d="M241.99,467.19c-.63,0-1.07.23-1.07.71,0,1.49,5.96.78,5.93,4.72,0,2.33-2.03,3.65-4.8,3.65-1.91,0-3.73-.55-5.12-1.61l1.17-2.41c1.3.9,2.77,1.4,4.03,1.4.69,0,1.2-.23,1.2-.69,0-1.55-5.85-.78-5.85-4.7,0-2.37,1.99-3.67,4.65-3.67,1.64,0,3.29.46,4.72,1.32l-1.26,2.43c-1.4-.73-2.68-1.15-3.61-1.15"/>
        <path class="cls-5" d="M261.32,470.48c0,3.46-2.05,5.74-5.2,5.74-1.45,0-2.62-.57-3.42-1.59v5.54h-3.73v-15.41h3.73v1.47c.8-1.03,1.93-1.59,3.33-1.59,3.17,0,5.28,2.33,5.28,5.85M257.57,470.4c0-1.68-.99-2.83-2.45-2.83s-2.41,1.15-2.41,2.83.99,2.81,2.41,2.81,2.45-1.13,2.45-2.81"/>
        <path class="cls-5" d="M274.51,464.76v10.17c0,3.21-2.48,5.41-6,5.39-1.72-.02-3.82-.63-5.12-1.49l.9-2.6c1.09.65,2.62,1.11,3.77,1.13,1.64,0,2.73-.99,2.73-2.5v-1.7c-.8,1.3-2.1,1.99-3.82,1.99-2.49,0-4.07-1.68-4.07-4.34v-6.06h3.73v4.99c0,1.28.73,2.05,1.93,2.05,1.39,0,2.22-1.03,2.22-2.62v-4.42h3.71Z"/>
        <path class="cls-5" d="M292.9,464.76v10.34c0,3.21-2.43,5.24-6.21,5.24-2.05-.02-4.13-.94-5.22-2.54l1.7-2.08c.84.99,2.03,1.64,3.35,1.66,1.62,0,2.66-.86,2.66-2.18v-1.2c-.73.94-1.78,1.47-3.1,1.47-3,0-4.95-2.18-4.95-5.47s1.91-5.35,4.82-5.35c1.38-.02,2.47.52,3.23,1.49v-1.38h3.71ZM289.19,470.1c0-1.59-.9-2.64-2.26-2.64s-2.31,1.07-2.31,2.64.92,2.64,2.31,2.64,2.26-1.09,2.26-2.64"/>
        <path class="cls-5" d="M307.09,470.42c0,3.5-2.48,5.81-6.21,5.81s-6.18-2.31-6.18-5.81,2.45-5.79,6.18-5.79,6.21,2.31,6.21,5.79M298.46,470.48c0,1.68.98,2.81,2.43,2.81s2.45-1.13,2.45-2.81-.99-2.83-2.45-2.83-2.43,1.13-2.43,2.83"/>
        <path class="cls-5" d="M320.47,470.42c0,3.5-2.47,5.81-6.21,5.81s-6.19-2.31-6.19-5.81,2.45-5.79,6.19-5.79,6.21,2.31,6.21,5.79M311.83,470.48c0,1.68.99,2.81,2.43,2.81s2.45-1.13,2.45-2.81-.99-2.83-2.45-2.83-2.43,1.13-2.43,2.83"/>
        <path class="cls-5" d="M333.83,460.54v15.56h-3.73v-1.47c-.78,1.05-1.93,1.62-3.35,1.62-3.19,0-5.29-2.35-5.29-5.87s2.08-5.75,5.2-5.75c1.47,0,2.64.59,3.44,1.61v-5.7h3.73ZM330.1,470.48c0-1.7-.99-2.83-2.43-2.83s-2.45,1.15-2.45,2.83.99,2.83,2.45,2.83,2.43-1.15,2.43-2.83"/>
        <path class="cls-5" d="M348.38,468.95v7.15h-3.71v-6.08c0-1.28-.76-2.08-1.93-2.08-1.26.02-2.08.88-2.22,2.16v6h-3.73v-11.34h3.73v1.84c.8-1.3,2.1-1.99,3.75-1.99,2.47,0,4.11,1.68,4.11,4.34"/>
        <path class="cls-5" d="M359.22,472.03l2.1,1.89c-1.32,1.55-3.06,2.31-5.2,2.31-3.67,0-6.12-2.29-6.12-5.74s2.29-5.83,5.91-5.85c3.4-.02,5.64,2.05,5.72,5.41l-7.59,1.83c.42.98,1.26,1.55,2.35,1.55,1.01,0,1.99-.48,2.83-1.38M353.75,469.81l4.21-1.05c-.27-1.01-.96-1.49-1.89-1.49-1.34,0-2.2.9-2.33,2.54"/>
        <path class="cls-5" d="M367.38,467.19c-.63,0-1.07.23-1.07.71,0,1.49,5.95.78,5.93,4.72,0,2.33-2.03,3.65-4.8,3.65-1.91,0-3.73-.55-5.11-1.61l1.17-2.41c1.3.9,2.77,1.4,4.03,1.4.69,0,1.2-.23,1.2-.69,0-1.55-5.85-.78-5.85-4.7,0-2.37,1.99-3.67,4.65-3.67,1.64,0,3.29.46,4.72,1.32l-1.26,2.43c-1.4-.73-2.68-1.15-3.61-1.15"/>
        <path class="cls-5" d="M378.22,467.19c-.63,0-1.07.23-1.07.71,0,1.49,5.95.78,5.93,4.72,0,2.33-2.03,3.65-4.8,3.65-1.91,0-3.73-.55-5.12-1.61l1.17-2.41c1.3.9,2.77,1.4,4.03,1.4.69,0,1.2-.23,1.2-.69,0-1.55-5.85-.78-5.85-4.7,0-2.37,1.99-3.67,4.65-3.67,1.64,0,3.29.46,4.72,1.32l-1.26,2.43c-1.4-.73-2.68-1.15-3.61-1.15"/>
        <path class="cls-5" d="M388.25,474.44c0,1.07-.76,1.83-1.8,1.83s-1.78-.76-1.78-1.83.73-1.8,1.78-1.8,1.8.73,1.8,1.8M388.29,461.48v3.75l-.65,5.77h-2.26l-.63-5.77v-3.75h3.54Z"/>
        <path class="cls-2" d="M171.42,376.48c8.47.03,16.83-.26,25.28,0v6.78c-1.39.47-2.62,1.19-3.45,2.48-.5.77-.78,1.55-.8,2.47-.03,2.25-.13,4.5-.17,6.74-.07,4.94-.12,9.88-.17,14.82,0,.39.06.78.1,1.25,1.81.26,3.54.17,5.28-.1,2.35-.36,4.71-.64,7.06-.95.35-.05.7-.08,1.04-.15.83-.18,1.03-.39,1.04-1.25.02-1.81.04-3.62,0-5.43-.05-2.11-.13-4.23-.25-6.34-.21-3.52-.41-7.04-.75-10.54-.09-.97-.55-1.95-1.02-2.82-.45-.84-1.31-1.28-2.25-1.5-.38-.09-.76-.15-1.2-.23v-6.48c1.87-.49,24.09-.53,28.26-.05.28,1.05.09,2.15.12,3.23.03,1.1,0,2.2,0,3.35-.42.16-.8.28-1.15.45-2.52,1.17-4.03,2.96-4.1,5.91-.1,4.05-.41,8.1-.61,12.14-.08,1.72-.14,3.44-.16,5.15-.05,3.4-.06,6.79-.1,10.19-.04,3.17-.15,6.35-.17,9.52-.01,1.85.03,3.7.16,5.55.13,1.82,1.31,2.96,2.9,3.59.72.29.95.64.92,1.35-.09,1.98-.15,3.95-.22,6.06-2.11.24-4.13.03-6.13.07-2.07.04-4.15,0-6.22,0-2.03,0-4.06,0-6.09,0-2.03,0-4.06,0-6.25,0-.22-1.91-.43-3.76-.64-5.53.2-.14.26-.22.33-.24,3.17-.96,4.4-3.34,4.57-6.4.11-1.94.05-3.88.07-5.82,0-1.85.02-3.71,0-5.56-.01-1.05-.12-1.11-1.15-1.04-2.72.18-5.44.32-8.15.52-1.45.1-2.89.28-4.33.44-.68.08-.99.4-.98,1.15.06,3.88.09,7.76.23,11.64.1,2.88,1.32,4.3,4.18,5.12v6.16c-8.95.11-17.87.52-26.89.34v-5.93c.49-.13.9-.26,1.32-.36,1.14-.26,2.18-.72,3.06-1.49.96-.84,1.6-1.88,1.7-3.18.19-2.37.48-4.74.51-7.11.08-7.19.07-14.38.07-21.58,0-4.46-.06-8.91-.02-13.37.01-1.52-.51-2.78-1.54-3.8-.93-.91-2.02-1.67-3.21-2.64v-6.56Z"/>
        <path class="cls-2" d="M321.61,383.86v-8.34c2.28-.19,4.49-.37,6.71-.56.87-.07,1.76-.11,2.62-.27,2.5-.48,5.01-.27,7.52-.24,2.73.03,5.48.03,8.2.26,5.1.43,9.97,1.75,14.42,4.36,5.78,3.38,9.99,8.12,12.64,14.29,1.95,4.52,2.4,9.22,2.27,14.08-.21,7.55-2.72,14.22-7.38,20.08-4.06,5.11-9.05,9.15-14.99,11.89-3.72,1.72-7.59,2.99-11.67,3.7-5.47.96-10.94,1.16-16.46.78-1.62-.11-3.22-.43-4.82-1.07v-7.79c.13-.06.25-.16.36-.16,1.29,0,2.26-.64,3.1-1.53.95-1.02,1.73-2.17,1.91-3.56.27-2.05.39-4.12.57-6.18.09-1.1.19-2.19.24-3.29.49-10.14.28-20.29.27-30.43,0-1.14-.43-2.05-1.17-2.85-1.2-1.31-2.54-2.45-4.34-3.15M342.7,385.4c-.06.33-.16.58-.16.83.04,2.78.03,5.56.17,8.33.17,3.61.49,7.2.7,10.81.21,3.61.42,7.21.56,10.82.16,4.27.23,8.53.37,12.8.02.65.11,1.32.29,1.95.33,1.19.6,1.28,1.65.66,3.97-2.35,7.28-5.39,9.69-9.35,1.84-3.03,3.11-6.28,3.79-9.78.35-1.8.31-3.59.4-5.39.16-3.24-.07-6.43-1.07-9.52-.82-2.54-2.08-4.85-3.9-6.83-2.84-3.1-6.4-4.75-10.51-5.31-.64-.09-1.29-.01-1.98-.01"/>
        <path class="cls-2" d="M386.51,433.62c-.23,2.59-.44,4.89-.66,7.36-2.94-.1-5.62-.65-8.42-1.11,0-1-.02-1.83,0-2.66.12-4.8.23-9.61.37-14.41.03-1.1.1-2.2.18-3.3.07-1.07.26-1.22,1.27-1.24,1.49-.04,2.99-.14,4.48-.15,1.13,0,2.27.09,3.42.15.76,2.98,2.26,5.51,4.13,7.8,1.79,2.2,3.84,4.12,6.41,5.41,1.01.51,2.06.82,3.18.7,1.17-.13,2.32.17,3.52-.25,2.19-.75,2.82-2.53,1.88-4.78-.79-1.9-2.17-3.43-3.76-4.69-2-1.58-4.09-3.06-6.21-4.47-3.94-2.63-7.64-5.55-10.75-9.12-1.79-2.05-3.42-4.26-4.6-6.75-.72-1.51-1.4-3.03-1.96-4.6-.26-.72-.13-1.58-.32-2.34-.71-2.77-.11-5.42.75-8.02,1.26-3.81,3.66-6.84,6.9-9.11,1.78-1.24,3.82-2.09,5.89-2.87,3.1-1.17,6.24-1.31,9.42-.9,2.72.35,5.08,1.68,7.28,3.27,1.07.77,2.16,1.51,3.2,2.32.47.36.83.86,1.39,1.46.66-1.51.63-3.03,1.2-4.56,2.55.38,5.09.93,7.7,1.52-.59,6.18-1.18,12.26-1.77,18.34-.03.28-.24.55-.4.88-2.62-.17-5.2-.34-7.78-.5-1.16-3.36-3.15-6.08-5.69-8.38-1-.91-2.14-1.73-3.35-2.31-2.01-.97-4.12-1.19-6.21-.09-2.26,1.2-2.72,2.47-1.84,5.03.88,2.53,2.41,4.68,4.14,6.7,2.11,2.46,4.61,4.47,7.11,6.51,4.44,3.63,8.69,7.45,12.24,12,1.83,2.35,3.34,4.88,4.42,7.62,1.22,3.1,1.31,6.33.36,9.58-.72,2.45-1.8,4.68-3.53,6.56-2.39,2.59-5.38,4.12-8.84,4.59-1.82.25-3.69.21-5.53.16-3.09-.09-5.92-1.16-8.62-2.59-3.31-1.76-6-4.29-8.54-7-.39-.42-.75-.87-1.16-1.27-.19-.18-.48-.26-.92-.49"/>
        <path class="cls-2" d="M316.51,436.34c-6.41,1.52-12.75,3.01-19.22,4.54-.99-1.58-1.53-3.36-2.44-5.02.31-.44.58-.88.91-1.28,1.12-1.35,1.29-2.89.75-4.48-.53-1.54-1.1-3.07-1.79-4.55-1.93-4.15-3.95-8.27-5.9-12.42-.31-.65-.77-.96-1.43-.97-2.36-.01-2.46-.67-2.45,2.14.02,4.99-.03,9.98.04,14.96.04,3.18.82,4.32,3.74,5.8-.13,1.46-.26,2.99-.4,4.51-.07.72-.51.94-1.18.95-1.06.01-2.11.1-3.17.12-5.77.1-11.55.2-17.33.3-.31,0-.62.01-.93.03-1.12.06-1.36-.11-1.44-1.17-.08-1.14-.11-2.29-.16-3.43-.03-.72.06-1.35.99-1.4.08,0,.17-.05.25-.08,2.21-.66,3.09-2.24,3.26-4.44.3-3.82.7-7.63.99-11.45.15-1.89.08-3.79.22-5.68.57-7.27.48-14.54.5-21.82,0-1.23.06-2.46-.47-3.64-.65-1.46-1.71-2.43-3.23-2.88-1.14-.33-1.18-.37-1.21-1.52-.04-1.37-.09-2.73-.12-4.1,0-.43.07-.86.11-1.41,1.33-.23,2.57-.58,3.83-.62,3.35-.11,6.7-.21,10.05-.06,4.49.21,8.96.54,13.4,1.39,4.19.8,8.21,1.94,11.91,4.06,3.06,1.75,5.75,3.93,7.28,7.24.29.63.53,1.31.66,2,.62,3.27.97,6.51-.08,9.8-1.1,3.44-3.29,5.91-6.38,7.59-1.81.98-3.73,1.81-5.84,2-.83.08-1.03.46-.64,1.31.63,1.36,1.35,2.68,2.05,4,.95,1.79,1.86,3.6,2.88,5.36,1.15,1.98,2.32,3.96,3.61,5.85,1.34,1.98,3.3,2.99,5.71,3.08,1.15.04,1.24.12,1.56,1.18.3,1.01.63,2.01.92,3.03.09.32.1.67.17,1.19M285.42,385.94c0,.5,0,.98,0,1.45-.04,5.24-.07,10.49-.11,15.73,0,.57-.03,1.15.02,1.72.06.77.43,1.13,1.21,1.06,2.88-.25,5.73-.71,8.09-2.52,4.11-3.14,5.4-6.07,4.18-10.88-.24-.94-.8-1.89-1.45-2.61-1.7-1.86-3.82-3.1-6.34-3.57-.61-.12-1.2-.31-1.81-.38-1.21-.14-2.42-.47-3.79-.01"/>
        <path class="cls-2" d="M259.29,441.42c-7.79.1-15.53.21-23.39.31-.1-.38-.24-.7-.26-1.03-.07-1.54-.1-3.09-.15-4.63-.02-.52.07-.91.64-1.15,3.36-1.47,4.71-4.2,4.69-7.72-.02-3.48-.08-6.97-.21-10.45-.15-4.1-.33-8.19-.59-12.28-.22-3.43-.52-6.85-.89-10.26-.22-2.01-.53-4.01-1.01-5.97-.44-1.78-1.68-2.93-3.49-3.45-1.46-.42-1.48-.49-1.49-2.03,0-1.76,0-3.52,0-5.38.34-.09.67-.22,1-.24,2.95-.13,5.89-.24,8.84-.37,2.55-.12,5.1-.28,7.65-.39,2.07-.08,4.14-.13,6.22-.16,1.19-.02,2.37.03,3.56.06.3,0,.6.07,1.01.12.39,2.23.6,4.44.5,6.73-1.6.37-2.94,1.05-3.99,2.28-1.15,1.36-1.88,2.84-1.95,4.65-.17,4.63-.41,9.25-.54,13.88-.14,5.11-.22,10.23-.28,15.35-.04,3.3.07,6.61.01,9.92-.04,2.55,1.41,4.11,3.37,5.27.73.43,1.03.83,1,1.62-.05,1.5-.05,3-.09,4.5,0,.25-.09.51-.15.85"/>
        <path class="cls-4" d="M172.15,376.48c8.47.03,16.83-.26,25.28,0v6.78c-1.39.47-2.62,1.19-3.45,2.48-.5.77-.78,1.55-.8,2.47-.03,2.25-.13,4.5-.17,6.74-.07,4.94-.12,9.88-.17,14.82,0,.39.06.78.1,1.25,1.81.26,3.54.17,5.28-.1,2.35-.36,4.71-.64,7.06-.95.35-.05.7-.08,1.04-.15.83-.18,1.03-.39,1.04-1.25.02-1.81.04-3.62,0-5.43-.05-2.11-.13-4.23-.25-6.34-.21-3.52-.41-7.04-.75-10.54-.09-.97-.55-1.95-1.02-2.82-.45-.84-1.32-1.28-2.25-1.5-.38-.09-.76-.15-1.2-.23v-6.48c1.87-.49,24.09-.53,28.26-.05.28,1.05.09,2.15.12,3.23.03,1.1,0,2.2,0,3.35-.42.16-.8.28-1.15.45-2.52,1.17-4.03,2.96-4.1,5.91-.1,4.05-.41,8.1-.61,12.14-.08,1.72-.14,3.44-.16,5.15-.05,3.4-.06,6.79-.1,10.19-.04,3.17-.15,6.35-.17,9.52-.01,1.85.03,3.7.16,5.55.13,1.82,1.31,2.96,2.9,3.59.72.29.95.64.92,1.35-.09,1.98-.15,3.95-.22,6.06-2.11.24-4.13.03-6.14.07-2.07.04-4.15,0-6.22,0-2.03,0-4.06,0-6.09,0-2.03,0-4.06,0-6.25,0-.22-1.91-.43-3.76-.64-5.53.19-.14.26-.22.33-.24,3.17-.96,4.4-3.34,4.57-6.4.11-1.94.05-3.88.07-5.82,0-1.85.02-3.71,0-5.56-.01-1.05-.12-1.11-1.15-1.04-2.72.18-5.44.32-8.15.52-1.45.1-2.89.28-4.33.44-.68.08-.99.4-.98,1.15.06,3.88.09,7.76.23,11.64.1,2.88,1.32,4.3,4.18,5.12v6.16c-8.95.11-17.87.52-26.89.34v-5.93c.49-.13.9-.26,1.32-.36,1.14-.26,2.18-.72,3.06-1.49.96-.84,1.6-1.88,1.7-3.18.19-2.37.48-4.74.51-7.11.08-7.19.07-14.38.07-21.58,0-4.46-.06-8.91-.02-13.37.01-1.52-.51-2.78-1.54-3.8-.93-.91-2.02-1.67-3.21-2.64v-6.56Z"/>
        <path class="cls-4" d="M322.33,383.86v-8.34c2.28-.19,4.49-.37,6.71-.56.88-.07,1.76-.11,2.62-.27,2.5-.48,5.01-.27,7.52-.24,2.73.03,5.48.03,8.2.26,5.1.43,9.97,1.75,14.42,4.36,5.78,3.38,9.99,8.12,12.64,14.29,1.95,4.52,2.4,9.22,2.27,14.08-.21,7.55-2.72,14.22-7.37,20.08-4.06,5.11-9.05,9.15-14.99,11.89-3.72,1.72-7.59,2.99-11.67,3.7-5.47.96-10.94,1.16-16.46.78-1.62-.11-3.22-.43-4.82-1.07v-7.79c.13-.06.25-.16.36-.16,1.29,0,2.26-.64,3.1-1.53.95-1.02,1.73-2.17,1.91-3.56.27-2.05.39-4.12.57-6.18.09-1.1.19-2.19.24-3.29.49-10.14.28-20.29.27-30.43,0-1.14-.43-2.05-1.17-2.85-1.2-1.31-2.54-2.45-4.34-3.15M343.43,385.4c-.06.33-.16.58-.16.83.04,2.78.04,5.56.17,8.33.17,3.61.49,7.2.7,10.81.21,3.61.42,7.21.56,10.82.16,4.27.23,8.53.37,12.8.02.65.11,1.32.29,1.95.33,1.19.6,1.28,1.65.66,3.97-2.35,7.28-5.39,9.69-9.35,1.84-3.03,3.11-6.28,3.79-9.78.35-1.8.31-3.59.4-5.39.16-3.24-.07-6.43-1.07-9.52-.82-2.54-2.08-4.85-3.9-6.83-2.84-3.1-6.4-4.75-10.51-5.31-.64-.09-1.29-.01-1.98-.01"/>
        <path class="cls-4" d="M387.24,433.62c-.23,2.59-.44,4.89-.66,7.36-2.94-.1-5.62-.65-8.42-1.11,0-1-.02-1.83,0-2.66.12-4.8.23-9.61.37-14.41.03-1.1.1-2.2.18-3.3.07-1.07.26-1.22,1.27-1.24,1.49-.04,2.99-.14,4.48-.15,1.13,0,2.27.09,3.42.15.76,2.98,2.26,5.51,4.13,7.8,1.79,2.2,3.84,4.12,6.41,5.41,1.01.51,2.06.82,3.18.7,1.17-.13,2.32.17,3.52-.25,2.19-.75,2.82-2.53,1.88-4.78-.79-1.9-2.17-3.43-3.76-4.69-2-1.58-4.09-3.06-6.21-4.47-3.94-2.63-7.64-5.55-10.75-9.12-1.79-2.05-3.42-4.26-4.6-6.75-.72-1.51-1.4-3.03-1.96-4.6-.26-.72-.13-1.58-.32-2.34-.71-2.77-.11-5.42.75-8.02,1.26-3.81,3.66-6.84,6.9-9.11,1.78-1.24,3.82-2.09,5.89-2.87,3.1-1.17,6.24-1.31,9.42-.9,2.72.35,5.08,1.68,7.28,3.27,1.07.77,2.16,1.51,3.2,2.32.47.36.83.86,1.39,1.46.66-1.51.63-3.03,1.2-4.56,2.55.38,5.09.93,7.7,1.52-.6,6.18-1.18,12.26-1.78,18.34-.03.28-.24.55-.4.88-2.61-.17-5.2-.34-7.78-.5-1.16-3.36-3.15-6.08-5.69-8.38-1-.91-2.14-1.73-3.35-2.31-2.01-.97-4.12-1.19-6.21-.09-2.26,1.2-2.72,2.47-1.84,5.03.88,2.53,2.41,4.68,4.14,6.7,2.11,2.46,4.61,4.47,7.11,6.51,4.44,3.63,8.69,7.45,12.24,12,1.83,2.35,3.34,4.88,4.42,7.62,1.22,3.1,1.31,6.33.36,9.58-.72,2.45-1.8,4.68-3.53,6.56-2.39,2.59-5.38,4.12-8.84,4.59-1.82.25-3.68.21-5.53.16-3.09-.09-5.92-1.16-8.62-2.59-3.31-1.76-6-4.29-8.54-7-.39-.42-.75-.87-1.16-1.27-.19-.18-.48-.26-.92-.49"/>
        <path class="cls-4" d="M317.24,436.34c-6.41,1.52-12.75,3.01-19.22,4.54-.99-1.58-1.53-3.36-2.44-5.02.31-.44.58-.88.91-1.28,1.12-1.35,1.29-2.89.75-4.48-.53-1.54-1.1-3.07-1.79-4.55-1.93-4.15-3.95-8.27-5.9-12.42-.31-.65-.77-.96-1.43-.97-2.36-.01-2.46-.67-2.45,2.14.02,4.99-.03,9.98.04,14.96.04,3.18.82,4.32,3.74,5.8-.13,1.46-.26,2.99-.4,4.51-.07.72-.51.94-1.18.95-1.06.01-2.11.1-3.17.12-5.77.1-11.55.2-17.33.3-.31,0-.62.01-.93.03-1.12.06-1.36-.11-1.44-1.17-.08-1.14-.11-2.29-.16-3.43-.03-.72.06-1.35.99-1.4.08,0,.17-.05.25-.08,2.2-.66,3.09-2.24,3.26-4.44.3-3.82.7-7.63.99-11.45.15-1.89.08-3.79.22-5.68.57-7.27.48-14.54.5-21.82,0-1.23.06-2.46-.46-3.64-.65-1.46-1.71-2.43-3.23-2.88-1.14-.33-1.18-.37-1.21-1.52-.04-1.37-.09-2.73-.12-4.1,0-.43.07-.86.11-1.41,1.33-.23,2.57-.58,3.83-.62,3.35-.11,6.7-.21,10.05-.06,4.49.21,8.96.54,13.4,1.39,4.19.8,8.21,1.94,11.91,4.06,3.06,1.75,5.75,3.93,7.28,7.24.29.63.53,1.31.66,2,.62,3.27.97,6.51-.08,9.8-1.1,3.44-3.29,5.91-6.38,7.59-1.82.98-3.73,1.81-5.84,2-.83.08-1.03.46-.64,1.31.63,1.36,1.35,2.68,2.05,4,.95,1.79,1.86,3.6,2.88,5.36,1.15,1.98,2.32,3.96,3.61,5.85,1.35,1.98,3.3,2.99,5.71,3.08,1.15.04,1.24.12,1.56,1.18.3,1.01.63,2.01.92,3.03.09.32.1.67.17,1.19M286.15,385.94c0,.5,0,.98,0,1.45-.04,5.24-.07,10.49-.11,15.73,0,.57-.03,1.15.02,1.72.06.77.43,1.13,1.21,1.06,2.88-.25,5.73-.71,8.09-2.52,4.11-3.14,5.39-6.07,4.18-10.88-.24-.94-.8-1.89-1.45-2.61-1.7-1.86-3.82-3.1-6.34-3.57-.61-.12-1.2-.31-1.81-.38-1.21-.14-2.42-.47-3.79-.01"/>
        <path class="cls-4" d="M260.01,441.42c-7.79.1-15.53.21-23.39.31-.1-.38-.24-.7-.26-1.03-.07-1.54-.09-3.09-.15-4.63-.02-.52.07-.91.64-1.15,3.36-1.47,4.71-4.2,4.69-7.72-.02-3.48-.08-6.97-.21-10.45-.15-4.1-.33-8.19-.59-12.28-.22-3.43-.52-6.85-.89-10.26-.22-2.01-.53-4.01-1.01-5.97-.44-1.78-1.68-2.93-3.49-3.45-1.46-.42-1.48-.49-1.49-2.03,0-1.76,0-3.52,0-5.38.34-.09.67-.22,1-.24,2.95-.13,5.89-.24,8.84-.37,2.55-.12,5.1-.28,7.65-.39,2.07-.08,4.14-.13,6.21-.16,1.19-.02,2.37.03,3.56.06.3,0,.6.07,1.01.12.39,2.23.6,4.44.5,6.73-1.6.37-2.94,1.05-3.99,2.28-1.15,1.36-1.88,2.84-1.95,4.65-.17,4.63-.41,9.25-.54,13.88-.14,5.11-.22,10.23-.28,15.35-.04,3.3.07,6.61.01,9.92-.04,2.55,1.41,4.11,3.37,5.27.73.43,1.03.83,1,1.62-.05,1.5-.05,3-.09,4.5,0,.25-.09.51-.15.85"/>
        <path class="cls-5" d="M172.88,376.48c8.47.03,16.83-.26,25.28,0v6.78c-1.39.47-2.62,1.19-3.45,2.48-.5.77-.78,1.55-.8,2.47-.03,2.25-.13,4.5-.17,6.74-.07,4.94-.12,9.88-.17,14.82,0,.39.06.78.1,1.25,1.81.26,3.54.17,5.28-.1,2.35-.36,4.71-.64,7.06-.95.35-.05.7-.08,1.04-.15.83-.18,1.03-.39,1.04-1.25.02-1.81.04-3.62,0-5.43-.05-2.11-.13-4.23-.25-6.34-.21-3.52-.41-7.04-.75-10.54-.09-.97-.55-1.95-1.02-2.82-.45-.84-1.31-1.28-2.25-1.5-.38-.09-.76-.15-1.2-.23v-6.48c1.87-.49,24.09-.53,28.26-.05.28,1.05.09,2.15.12,3.23.03,1.1,0,2.2,0,3.35-.42.16-.8.28-1.15.45-2.52,1.17-4.03,2.96-4.1,5.91-.1,4.05-.41,8.1-.61,12.14-.08,1.72-.14,3.44-.16,5.15-.05,3.4-.05,6.79-.1,10.19-.04,3.17-.15,6.35-.17,9.52-.01,1.85.03,3.7.16,5.55.13,1.82,1.31,2.96,2.9,3.59.72.29.95.64.91,1.35-.09,1.98-.15,3.95-.22,6.06-2.11.24-4.13.03-6.14.07-2.07.04-4.15,0-6.22,0-2.03,0-4.06,0-6.09,0-2.03,0-4.06,0-6.25,0-.22-1.91-.43-3.76-.64-5.53.19-.14.26-.22.33-.24,3.17-.96,4.4-3.34,4.57-6.4.11-1.94.05-3.88.07-5.82,0-1.85.02-3.71,0-5.56-.01-1.05-.12-1.11-1.15-1.04-2.72.18-5.44.32-8.15.52-1.45.1-2.89.28-4.33.44-.68.08-.99.4-.98,1.15.06,3.88.09,7.76.23,11.64.1,2.88,1.32,4.3,4.18,5.12v6.16c-8.95.11-17.87.52-26.89.34v-5.93c.49-.13.9-.26,1.32-.36,1.14-.26,2.18-.72,3.06-1.49.96-.84,1.6-1.88,1.7-3.18.19-2.37.48-4.74.51-7.11.08-7.19.07-14.38.07-21.58,0-4.46-.06-8.91-.02-13.37.01-1.52-.51-2.78-1.54-3.8-.93-.91-2.02-1.67-3.21-2.64v-6.56Z"/>
        <path class="cls-5" d="M323.06,383.86v-8.34c2.28-.19,4.49-.37,6.71-.56.87-.07,1.76-.11,2.62-.27,2.5-.48,5.01-.27,7.52-.24,2.73.03,5.48.03,8.2.26,5.1.43,9.97,1.75,14.42,4.36,5.78,3.38,9.99,8.12,12.64,14.29,1.95,4.52,2.4,9.22,2.27,14.08-.21,7.55-2.72,14.22-7.37,20.08-4.06,5.11-9.05,9.15-14.99,11.89-3.72,1.72-7.59,2.99-11.67,3.7-5.47.96-10.94,1.16-16.46.78-1.62-.11-3.22-.43-4.82-1.07v-7.79c.13-.06.24-.16.36-.16,1.29,0,2.26-.64,3.1-1.53.95-1.02,1.73-2.17,1.9-3.56.27-2.05.39-4.12.57-6.18.09-1.1.19-2.19.24-3.29.49-10.14.28-20.29.27-30.43,0-1.14-.43-2.05-1.17-2.85-1.21-1.31-2.54-2.45-4.34-3.15M344.16,385.4c-.06.33-.16.58-.16.83.04,2.78.04,5.56.17,8.33.17,3.61.49,7.2.7,10.81.21,3.61.42,7.21.56,10.82.16,4.27.23,8.53.37,12.8.02.65.11,1.32.29,1.95.33,1.19.6,1.28,1.65.66,3.97-2.35,7.28-5.39,9.69-9.35,1.85-3.03,3.11-6.28,3.79-9.78.35-1.8.31-3.59.4-5.39.16-3.24-.07-6.43-1.07-9.52-.82-2.54-2.08-4.85-3.9-6.83-2.84-3.1-6.4-4.75-10.51-5.31-.64-.09-1.29-.01-1.97-.01"/>
        <path class="cls-5" d="M387.97,433.62c-.23,2.59-.44,4.89-.66,7.36-2.94-.1-5.62-.65-8.42-1.11,0-1-.02-1.83,0-2.66.11-4.8.23-9.61.37-14.41.03-1.1.1-2.2.18-3.3.07-1.07.26-1.22,1.27-1.24,1.49-.04,2.99-.14,4.48-.15,1.13,0,2.27.09,3.42.15.76,2.98,2.26,5.51,4.13,7.8,1.79,2.2,3.84,4.12,6.42,5.41,1.01.51,2.06.82,3.18.7,1.17-.13,2.32.17,3.52-.25,2.19-.75,2.82-2.53,1.88-4.78-.79-1.9-2.17-3.43-3.76-4.69-2-1.58-4.09-3.06-6.21-4.47-3.94-2.63-7.63-5.55-10.75-9.12-1.79-2.05-3.42-4.26-4.6-6.75-.72-1.51-1.4-3.03-1.96-4.6-.26-.72-.13-1.58-.32-2.34-.71-2.77-.11-5.42.75-8.02,1.26-3.81,3.66-6.84,6.9-9.11,1.78-1.24,3.82-2.09,5.89-2.87,3.1-1.17,6.24-1.31,9.42-.9,2.72.35,5.08,1.68,7.28,3.27,1.07.77,2.16,1.51,3.2,2.32.47.36.83.86,1.39,1.46.66-1.51.63-3.03,1.2-4.56,2.55.38,5.09.93,7.7,1.52-.6,6.18-1.18,12.26-1.78,18.34-.03.28-.24.55-.4.88-2.62-.17-5.2-.34-7.78-.5-1.16-3.36-3.15-6.08-5.69-8.38-1-.91-2.14-1.73-3.35-2.31-2.01-.97-4.12-1.19-6.21-.09-2.26,1.2-2.72,2.47-1.84,5.03.88,2.53,2.41,4.68,4.14,6.7,2.11,2.46,4.61,4.47,7.11,6.51,4.44,3.63,8.69,7.45,12.24,12,1.83,2.35,3.34,4.88,4.42,7.62,1.22,3.1,1.31,6.33.36,9.58-.72,2.45-1.8,4.68-3.53,6.56-2.39,2.59-5.38,4.12-8.84,4.59-1.82.25-3.68.21-5.53.16-3.09-.09-5.92-1.16-8.62-2.59-3.31-1.76-6-4.29-8.54-7-.39-.42-.75-.87-1.16-1.27-.19-.18-.48-.26-.92-.49"/>
        <path class="cls-5" d="M317.97,436.34c-6.42,1.52-12.75,3.01-19.22,4.54-.99-1.58-1.53-3.36-2.44-5.02.31-.44.58-.88.91-1.28,1.12-1.35,1.29-2.89.75-4.48-.53-1.54-1.1-3.07-1.79-4.55-1.93-4.15-3.95-8.27-5.9-12.42-.31-.65-.77-.96-1.43-.97-2.36-.01-2.46-.67-2.45,2.14.02,4.99-.03,9.98.04,14.96.04,3.18.82,4.32,3.74,5.8-.13,1.46-.26,2.99-.4,4.51-.07.72-.51.94-1.18.95-1.06.01-2.11.1-3.17.12-5.77.1-11.55.2-17.33.3-.31,0-.62.01-.93.03-1.12.06-1.36-.11-1.44-1.17-.08-1.14-.11-2.29-.16-3.43-.03-.72.06-1.35.99-1.4.08,0,.17-.05.25-.08,2.21-.66,3.09-2.24,3.26-4.44.3-3.82.7-7.63.99-11.45.15-1.89.08-3.79.22-5.68.57-7.27.48-14.54.5-21.82,0-1.23.06-2.46-.47-3.64-.65-1.46-1.71-2.43-3.23-2.88-1.14-.33-1.18-.37-1.21-1.52-.04-1.37-.09-2.73-.12-4.1,0-.43.07-.86.11-1.41,1.33-.23,2.57-.58,3.83-.62,3.35-.11,6.7-.21,10.05-.06,4.49.21,8.96.54,13.4,1.39,4.19.8,8.21,1.94,11.91,4.06,3.06,1.75,5.75,3.93,7.28,7.24.29.63.53,1.31.66,2,.62,3.27.97,6.51-.08,9.8-1.1,3.44-3.29,5.91-6.38,7.59-1.82.98-3.73,1.81-5.84,2-.83.08-1.03.46-.64,1.31.63,1.36,1.35,2.68,2.05,4,.95,1.79,1.86,3.6,2.88,5.36,1.15,1.98,2.32,3.96,3.61,5.85,1.35,1.98,3.3,2.99,5.71,3.08,1.15.04,1.24.12,1.56,1.18.3,1.01.63,2.01.92,3.03.09.32.1.67.17,1.19M286.88,385.94c0,.5,0,.98,0,1.45-.04,5.24-.07,10.49-.11,15.73,0,.57-.03,1.15.02,1.72.06.77.43,1.13,1.21,1.06,2.88-.25,5.73-.71,8.09-2.52,4.11-3.14,5.39-6.07,4.18-10.88-.24-.94-.8-1.89-1.45-2.61-1.7-1.86-3.82-3.1-6.34-3.57-.61-.12-1.2-.31-1.81-.38-1.21-.14-2.42-.47-3.79-.01"/>
        <path class="cls-5" d="M260.74,441.42c-7.79.1-15.53.21-23.39.31-.1-.38-.24-.7-.26-1.03-.07-1.54-.1-3.09-.15-4.63-.02-.52.07-.91.64-1.15,3.36-1.47,4.71-4.2,4.69-7.72-.02-3.48-.08-6.97-.21-10.45-.15-4.1-.33-8.19-.59-12.28-.22-3.43-.52-6.85-.89-10.26-.22-2.01-.53-4.01-1.01-5.97-.44-1.78-1.68-2.93-3.49-3.45-1.46-.42-1.48-.49-1.49-2.03,0-1.76,0-3.52,0-5.38.34-.09.67-.22,1-.24,2.95-.13,5.89-.24,8.84-.37,2.55-.12,5.1-.28,7.65-.39,2.07-.08,4.14-.13,6.22-.16,1.19-.02,2.37.03,3.56.06.3,0,.6.07,1.01.12.39,2.23.6,4.44.5,6.73-1.6.37-2.94,1.05-3.99,2.28-1.15,1.36-1.88,2.84-1.95,4.65-.17,4.63-.41,9.25-.54,13.88-.14,5.11-.22,10.23-.28,15.35-.04,3.3.07,6.61.01,9.92-.04,2.55,1.41,4.11,3.37,5.27.73.43,1.03.83,1,1.62-.05,1.5-.05,3-.09,4.5,0,.25-.09.51-.15.85"/>
        <path class="cls-2" d="M381.92,369.75s-.03.09-.05.14c0,.01-.01.03-.02.05-.1.23-.25.44-.44.6-.15.13-.31.23-.5.29,0,0,0,0,0,0-.05.01-.1.03-.14.05-.49.18-.8.7-1.13,1.15-.15.21-.21.56-.16.82.42,2.26-.73,3.99-3.05,4.18-1.36.11-2.77-.1-4.12-.37-1.26-.24-2.19-1.11-2.9-2.18-1.11-1.69-1.64-3.52-1.45-5.55.11-1.17-.03-1.32-1.16-1.38-.29-.02-.57-.05-.87-.08-.07,0-.12-.06-.12-.12-.03-.6.28-.89.69-1.16.62-.41.73-.88.17-1.34-.69-.56-.59-1.25-.53-1.95.06-.67.35-.95,1.04-.9.48.04.88.02,1.26-.3.13-.11.37-.17.53-.12.62.17,1.21.25,1.84,0,.14-.06.46.1.57.26.26.36.55.57.98.68.17.05.36.41.35.61-.02.19-.29.37-.46.54-.02.02-.07.02-.11.03-1.18.34-1.29.51-.99,1.68.34,1.31,1.16,2.32,2.05,3.31.94,1.04,2.04,1.6,3.43,1.7.42.03.84.19,1.26.31.07.02.14-.02.16-.1.1-.42.26-.91.53-1.44.14-.27.28-.51.42-.71.11-.15.4-.49.89-.65.25-.08,1.15-.3,1.81.72.24.37.34.82.22,1.24"/>
        <path class="cls-4" d="M382.26,369.75s-.03.09-.05.14c0,.01-.01.03-.02.05-.09.23-.25.44-.44.6-.15.13-.31.23-.5.29,0,0,0,0,0,0-.05.01-.1.03-.14.05-.49.18-.8.7-1.13,1.15-.15.21-.21.56-.16.82.42,2.26-.73,3.99-3.05,4.18-1.36.11-2.77-.1-4.12-.37-1.26-.24-2.19-1.11-2.89-2.18-1.11-1.69-1.64-3.52-1.45-5.55.11-1.17-.03-1.32-1.16-1.38-.29-.02-.57-.05-.87-.08-.06,0-.12-.06-.12-.12-.03-.6.28-.89.69-1.16.62-.41.73-.88.17-1.34-.69-.56-.59-1.25-.53-1.95.06-.67.35-.95,1.04-.9.48.04.88.02,1.26-.3.13-.11.37-.17.53-.12.62.17,1.21.25,1.84,0,.14-.06.46.1.57.26.26.36.55.57.98.68.17.05.36.41.35.61-.02.19-.29.37-.46.54-.02.02-.07.02-.11.03-1.18.34-1.29.51-.99,1.68.34,1.31,1.17,2.32,2.06,3.31.93,1.04,2.04,1.6,3.43,1.7.42.03.84.19,1.26.31.07.02.14-.02.16-.1.1-.42.26-.91.53-1.44.14-.27.28-.51.42-.71.11-.15.4-.49.89-.65.25-.08,1.15-.3,1.81.72.24.37.34.82.22,1.24"/>
        <path class="cls-5" d="M382.6,369.75s-.03.09-.05.14c0,.01-.01.03-.02.05-.1.23-.25.44-.44.6-.15.13-.31.23-.5.29,0,0,0,0,0,0-.05.01-.1.03-.14.05-.5.18-.8.7-1.13,1.15-.15.21-.21.56-.16.82.42,2.26-.73,3.99-3.05,4.18-1.36.11-2.77-.1-4.12-.37-1.26-.24-2.19-1.11-2.89-2.18-1.11-1.69-1.64-3.52-1.45-5.55.11-1.17-.03-1.32-1.16-1.38-.29-.02-.57-.05-.87-.08-.07,0-.12-.06-.12-.12-.03-.6.28-.89.69-1.16.62-.41.73-.88.17-1.34-.69-.56-.59-1.25-.53-1.95.06-.67.35-.95,1.04-.9.48.04.88.02,1.26-.3.13-.11.37-.17.53-.12.62.17,1.21.25,1.84,0,.14-.06.46.1.57.26.26.36.55.57.98.68.17.05.36.41.35.61-.02.19-.29.37-.46.54-.02.02-.07.02-.11.03-1.18.34-1.29.51-.99,1.68.34,1.31,1.17,2.32,2.06,3.31.93,1.04,2.04,1.6,3.43,1.7.42.03.84.19,1.26.31.07.02.14-.02.16-.1.1-.42.26-.91.53-1.44.14-.27.28-.51.42-.71.11-.15.4-.49.89-.65.25-.08,1.15-.3,1.81.72.24.37.34.82.22,1.24"/>
      </g>
    </g>
  </g>
</svg>