<?xml version="1.0" encoding="UTF-8"?>
<svg id="Layer_2" data-name="Layer 2" xmlns="http://www.w3.org/2000/svg" viewBox="0 0 306.13 447.43">
  <defs>
    <style>
      .cls-1 {
        fill: #febe12;
      }
    </style>
  </defs>
  <g id="Layer_1-2" data-name="Layer 1">
    <g>
      <path class="cls-1" d="M174.72,415.72c-1.25,3.84-19.39-.07-23.16-.79-39.14-7.53-78.85-37.02-94.79-73.89-2.18-5.06-9.82-31.18-11.06-32.35-1.43-1.35-10.37-1.61-14.24-3.23C12.09,297.36-1.1,251.14.07,232.08c.29-4.66,2.19-9.59,2.87-14.09.73-4.83-.22-9.36,1.39-14.58,3.03-9.8,12.35-11.73,20.66-6.77-.99-14.47-4.01-27.49-2.86-42.29,1.52-19.38,13.95-61.52,26.79-76.01,7.69-8.68,18.66-15.15,26.49-24.42,4.86-5.75,8.39-14.06,12.93-19.01,3.26-3.56,9.44-7.38,13.04-10.92,10.87-10.68,9.69-15.87,27.06-18.85C140.94,2.99,160.71.56,173.24.02c8.9-.38,25.38,4.93,32.76,10.14,1.39.98,2.79,1.94,3.56,3.53.42,1.65-5.11,8.34-6.37,11.29-4.22,9.94-5.67,26.39,5.13,32.77,15.55,9.19,30.45-17.13,45.76-18.81,18.75-2.06,24.18,9.53,22.45,26.44-.61,5.92-7.92,22.49-14.44,22.55-2,.02-14.08-6.47-14.44-7.69-.45-1.51,7.75-10.77,9.11-14.69.52-1.49,1.2-1.18-.7-2.65-11.12,5.36-16.83,17.65-30.16,19.73-31.34,4.88-51.66-20.95-48.17-50.66-.97-1.16-5.71,4.14-6.5,4.97-2.69,2.86-11.54,17.05-13.97,17.04-4.81-1.99-3.18-9.25-3.61-13.41-.12-1.19-.38-7.05-2.36-6.6-6.69,5.26-10.56,12.79-15.46,19.49-1.12,1.53-3.45,2.1-4.08,3.15-1.68,2.8-.61,9.46-7.03,6.72-2.08-5.26-.25-10.57.11-15.88l-1.99-.5-21.01,34.4c-9.83,14.99-33.94,21.68-35.89,40.96-.61,6,.76,12.48-.45,18.51-1.59,7.91-8.54,16.92-11.28,24.65l-3.25,43.16c6.07-5.26,12.23-10.47,15.44-17.99,4.78-11.2,4.31-20.28,15.76-28.16,8.62-5.93,26.54-7.43,37.12-7.8,3.54-.12,9.01-.85,11.52,1.54v17.47c-19.32,6.1-51.29-6.82-57.61,20.74-2.03,8.84-3.06,16.03,8.72,10.71,8.35-3.77,10.8-12.49,22.41-13.52,11.69-1.04,21.26-1.39,29.96,7.05,8.8,8.54,2.37,8.29-6.97,8.95-10.79.76-20.27-2.03-29.98-2.03-5.88,0-1.1,9.36,1.08,11.98,3.71,4.45,18.89,3.48,24.9,3.02,4.2-.32,15.9-3.93,17.83-3.74,5.55.56,10.89,20.55,12.13,25.7.67,2.79,3.48,13.18,1.53,14.51s-7.16.26-10.11,2.87-3.62,9.51.13,12.04c4.11,2.76,22.95,5.49,25.42,10.51-.1,13.32-4.18,25.38-.51,38.93l-15.43-2.03-32.47,1.02c9.93,3.89,19.79,13.47,30.55,14.87,5.44.71,11.18-.23,16.59,1.38,7.82,2.32,8.92,11.78,15.72,16.2-.67.58-1.24,1.63-2,1.98-6.18,2.83-26.29-1.08-33.91.01,7.39,8.13,16.75,14.07,25.95,19.97v40.92Z"/>
      <path class="cls-1" d="M230.4,237.84c57.61-6.92,96.81,53.58,63.49,101.42-37.55,53.9-123.21,22.91-118.15-43.29,2.13-27.85,26.71-54.77,54.66-58.13ZM234.37,259.77c-17.21,2.36-33.97,19.83-35.68,37.18-3.99,40.49,46.32,64.23,73.82,32.9,26.39-30.08.72-75.41-38.14-70.08Z"/>
      <path class="cls-1" d="M231.62,180.66v-40.42l1.5-1.5h20.46c1.59,10.06,1.21,21.16,1.04,31.48-.06,4.12-2.84,7.88,1.45,11.44h19.96l1.5-1.5v-40.92l1.5-1.5h18.96l1.5,1.5v64.38h-116.28l-1.5-1.5v-62.88l1.5-1.5h18.96l1.5,1.5v39.92c0,.17,1.54,1.76,2.01,1.98,2.23,1.04,25.94.82,25.94-.48Z"/>
      <path class="cls-1" d="M253.33,12.24c49.65-6.79,64.26,58.22,35.48,89.45-1.87.47-19.61-8.63-20.18-10.52-.61-2.02,8.55-13.34,10.08-17.62,9.69-27.08-10.01-49.88-37.04-34.04-8.82,5.16-20.6,19.83-31.78,14.66-9.4-4.34-5.2-32.78,2.75-36.7,3.73-1.84,13.11,2.09,13.08,5.99-.02,3.28-4.54,5.22-1.6,7.47,6.23-8.5,18.59-17.24,29.2-18.69Z"/>
      <path class="cls-1" d="M262.06,373.3c16.58,1.87,33.15,16.72,36.98,32.89,1.34,5.66,2.82,35.68.53,39.31-1.82,2.87-15.62,1.8-19.04.66v-33.44c0-2.08-5.2-10.14-6.96-12-9.69-10.22-20.74-7.17-33.5-7.42-14.52-.29-29.27-1.21-43.92-1.08-5.3.05-10.62,2.36-16.43.04v-18.96h82.34Z"/>
      <path class="cls-1" d="M299.49,208.61v20.46l-1.5,1.5h-114.78l-1.5-1.5v-20.46c.98.32,2.17-1,2.5-1h112.79c.33,0,1.52,1.32,2.5,1Z"/>
      <path class="cls-1" d="M181.21,397.26h78.85c1.44,0,8.48,3.7,9.97,5,4.26,3.71,6.05,8.94,6.53,14.43.34,3.97.43,27.34-.94,29.08-1.97,2.5-19.06,2.24-19.06-1.09v-25.95l-1.5-1.5h-73.86l-1.5-1.5v-16.97l1.5-1.5Z"/>
      <path class="cls-1" d="M234.61,110.8h-52.4l-1.36-2.32c5.99-17.24,29.82-17.16,43.46-9.84,4.06,2.18,10.96,7.06,10.3,12.16Z"/>
      <path class="cls-1" d="M217.64,115.79c-1.37,19.66-30.77,20.32-36.79,2.32l1.35-2.32h35.43Z"/>
      <path class="cls-1" d="M214,329.03c-37.16-37.16,22.17-91.53,56.05-51.56,31.03,36.6-22.34,85.27-56.05,51.56ZM229.96,313.07c16.36,15.34,38.12-11.64,19.55-24.04-16.14-10.77-32.96,11.46-19.55,24.04Z"/>
    </g>
  </g>
</svg>