<?xml version="1.0" encoding="UTF-8"?>
<svg id="Layer_2" data-name="Layer 2" xmlns="http://www.w3.org/2000/svg" xmlns:xlink="http://www.w3.org/1999/xlink" viewBox="0 0 223.08 180">
  <defs>
    <style>
      .cls-1 {
        fill: none;
      }

      .cls-2 {
        fill-rule: evenodd;
      }

      .cls-2, .cls-3 {
        fill: #c74630;
      }

      .cls-4 {
        isolation: isolate;
      }

      .cls-5 {
        clip-path: url(#clippath);
      }
    </style>
    <clipPath id="clippath">
      <rect class="cls-1" width="223.08" height="180"/>
    </clipPath>
  </defs>
  <g id="Layer_1-2" data-name="Layer 1">
    <g class="cls-4">
      <g class="cls-5">
        <polygon class="cls-3" points="96.42 119.62 96.42 116.57 97.41 116.57 97.41 115.86 94.7 115.86 94.7 116.57 95.63 116.57 95.63 119.62 96.42 119.62"/>
        <path class="cls-3" d="M99.88,117.24l.57,1.18h-1.14l.57-1.18ZM101.05,119.62h.86l-2-3.83-1.98,3.83h.81l.24-.5h1.82l.25.5Z"/>
        <path class="cls-3" d="M104.14,117.96c.36.04.57.23.57.53,0,.24-.2.45-.46.45-.22,0-.4-.06-.57-.27l-.65.48c.36.39.79.55,1.22.55.66,0,1.27-.53,1.27-1.26s-.53-1.16-1.17-1.21c-.4-.02-.53-.18-.53-.35,0-.21.14-.34.35-.34.13,0,.3.08.4.19l.62-.45c-.29-.34-.64-.48-1.01-.48-.52,0-1.11.45-1.11,1.09,0,.59.43,1,1.08,1.08Z"/>
        <polygon class="cls-3" points="108.29 119.62 108.29 116.57 109.28 116.57 109.28 115.86 106.57 115.86 106.57 116.57 107.5 116.57 107.5 119.62 108.29 119.62"/>
        <polygon class="cls-3" points="113.12 119.62 113.12 118.92 111.57 118.92 111.57 117.98 112.99 117.98 112.99 117.27 111.57 117.27 111.57 116.57 112.79 116.57 112.79 115.86 110.79 115.86 110.79 119.62 113.12 119.62"/>
        <path class="cls-3" d="M120.85,117.95h-1.11v.44c0,.33-.24.57-.57.57-.38,0-.66-.28-.66-.62,0-.37.24-.63.58-.63h.59l-.62-1.2h.89v-.66h-2l.65,1.22c-.52.19-.85.66-.85,1.21,0,.81.62,1.4,1.42,1.4.67,0,1.21-.48,1.29-1.12h.39v-.62Z"/>
        <path class="cls-3" d="M127.3,116.54c.64,0,1.15.54,1.15,1.21s-.51,1.19-1.14,1.19-1.15-.52-1.15-1.19.5-1.21,1.14-1.21ZM126.52,120.36h2.32v-.73h-1.04c.84-.21,1.45-.98,1.45-1.88,0-1.09-.87-1.95-1.95-1.95s-1.95.87-1.95,1.95c0,.96.7,1.77,1.64,1.91l-.46.69Z"/>
        <path class="cls-3" d="M132.45,119.69c1.01,0,1.62-.65,1.62-1.75v-2.09h-.78v2.15c0,.57-.25.93-.84.93s-.84-.33-.84-.93v-2.15h-.78v2.02c0,1.05.53,1.81,1.63,1.81Z"/>
        <path class="cls-3" d="M137.07,117.24l.57,1.18h-1.14l.57-1.18ZM138.24,119.62h.86l-2-3.83-1.99,3.83h.81l.24-.5h1.82l.25.5Z"/>
        <polygon class="cls-3" points="140.48 115.86 140.48 119.62 142.78 119.62 142.78 118.92 141.26 118.92 141.26 115.86 140.48 115.86"/>
        <rect class="cls-3" x="144.27" y="115.86" width=".79" height="3.77"/>
        <polygon class="cls-3" points="148.28 119.62 148.28 116.57 149.27 116.57 149.27 115.86 146.56 115.86 146.56 116.57 147.49 116.57 147.49 119.62 148.28 119.62"/>
        <polygon class="cls-3" points="152.39 117.71 151.29 115.86 150.39 115.86 151.99 118.48 151.99 119.62 152.77 119.62 152.77 118.41 154.31 115.86 153.49 115.86 152.39 117.71"/>
        <polygon class="cls-3" points="160.89 117.32 158.88 115.79 158.88 119.62 159.66 119.62 159.66 117.36 160.89 118.24 162.11 117.36 162.11 119.62 162.9 119.62 162.9 115.79 160.89 117.32"/>
        <polygon class="cls-3" points="167 119.62 167 118.92 165.45 118.92 165.45 117.98 166.87 117.98 166.87 117.27 165.45 117.27 165.45 116.57 166.67 116.57 166.67 115.86 164.67 115.86 164.67 119.62 167 119.62"/>
        <polygon class="cls-3" points="170.96 119.62 170.96 118.92 169.41 118.92 169.41 117.98 170.82 117.98 170.82 117.27 169.41 117.27 169.41 116.57 170.62 116.57 170.62 115.86 168.62 115.86 168.62 119.62 170.96 119.62"/>
        <polygon class="cls-3" points="173.9 119.62 173.9 116.57 174.89 116.57 174.89 115.86 172.18 115.86 172.18 116.57 173.11 116.57 173.11 119.62 173.9 119.62"/>
        <path class="cls-3" d="M180.37,118.27v-1.7h.47c.55,0,.83.38.83.84,0,.52-.32.86-.87.86h-.43ZM180.37,119.62v-.65h.45c1,0,1.64-.67,1.64-1.63,0-.82-.68-1.48-1.57-1.48h-1.31v3.77h.79Z"/>
        <polygon class="cls-3" points="186.39 119.62 186.39 118.92 184.84 118.92 184.84 117.98 186.25 117.98 186.25 117.27 184.84 117.27 184.84 116.57 186.05 116.57 186.05 115.86 184.05 115.86 184.05 119.62 186.39 119.62"/>
        <path class="cls-3" d="M188.79,118.27v-1.7h.48c.55,0,.82.38.82.84,0,.52-.31.86-.87.86h-.43ZM189.18,118.97l.62.65h1.04l-.81-.87c.52-.25.85-.74.85-1.42,0-.82-.68-1.48-1.56-1.48h-1.31v3.77h.78v-.65h.39Z"/>
        <polygon class="cls-3" points="193.25 119.62 193.25 117.98 194.67 117.98 194.67 117.27 193.25 117.27 193.25 116.57 194.47 116.57 194.47 115.86 192.47 115.86 192.47 119.62 193.25 119.62"/>
        <polygon class="cls-3" points="198.57 119.62 198.57 118.92 197.02 118.92 197.02 117.98 198.44 117.98 198.44 117.27 197.02 117.27 197.02 116.57 198.24 116.57 198.24 115.86 196.23 115.86 196.23 119.62 198.57 119.62"/>
        <path class="cls-3" d="M203.12,117.96c-.11.57-.58.98-1.15.98-.63,0-1.13-.53-1.13-1.19s.5-1.21,1.13-1.21c.39,0,.77.2,1.05.6l.61-.43c-.34-.55-.96-.91-1.66-.91-1.07,0-1.93.88-1.93,1.95s.86,1.94,1.94,1.94c1,0,1.83-.76,1.94-1.73h-.79Z"/>
        <polygon class="cls-3" points="206.64 119.62 206.64 116.57 207.63 116.57 207.63 115.86 204.93 115.86 204.93 116.57 205.85 116.57 205.85 119.62 206.64 119.62"/>
        <rect class="cls-3" x="209.14" y="115.86" width=".79" height="3.77"/>
        <path class="cls-3" d="M213.49,116.54c.64,0,1.15.54,1.15,1.2s-.51,1.2-1.14,1.2-1.15-.52-1.15-1.2.5-1.2,1.14-1.2ZM213.49,119.69c1.08,0,1.95-.88,1.95-1.95s-.87-1.94-1.95-1.94-1.95.87-1.95,1.94.87,1.95,1.95,1.95Z"/>
        <polygon class="cls-3" points="219.73 118.04 217.05 115.79 217.05 119.62 217.84 119.62 217.84 117.46 220.52 119.69 220.52 115.86 219.73 115.86 219.73 118.04"/>
        <path class="cls-3" d="M222.68,118.92c-.23,0-.39.17-.39.39,0,.21.16.38.39.38s.39-.18.39-.38c0-.22-.16-.39-.39-.39ZM223.02,115.86h-.66v2.58h.66v-2.58Z"/>
        <rect class="cls-3" x="94.7" y="111.36" width="128.38" height=".52"/>
        <path class="cls-2" d="M159.9,60.92c.56-.54,1.81-.79,3.68-.79l-.4.49c.19.12.38.26.54.42.54.54.8,1.17.8,1.94v26.02c0,1.99-.24,3.89-.75,5.69-.52,1.83-1.22,3.54-2.15,5.13-.94,1.59-2.04,3.02-3.35,4.31-1.28,1.29-2.74,2.39-4.33,3.32-1.59.94-3.3,1.66-5.13,2.18-1.8.51-3.7.75-5.69.75s-3.86-.26-5.69-.77c-1.82-.51-3.54-1.24-5.13-2.18-1.59-.93-3.04-2.04-4.33-3.32-1.31-1.29-2.41-2.71-3.35-4.31-.94-1.59-1.64-3.3-2.16-5.13-.51-1.81-.75-3.7-.75-5.69v-14l-8.38,14.36.02-.02c-.26.47-.61.8-1.08,1.01-.4.19-.84.28-1.31.28s-.91-.09-1.31-.28c-.47-.23-.84-.59-1.08-1.03l.02.02-8.39-14.36v20.16c0,.77-.25,1.43-.79,1.97-.54.54-1.2.8-1.97.8s-1.41-.26-1.94-.8-.79-1.19-.79-1.97v-30.33c0-.63.16-1.19.53-1.69.38-.52.89-.84,1.5-1.01.63-.16,1.22-.12,1.78.12.56.23,1.01.59,1.31,1.1l11.14,19.09,11.12-19.09c.28-.47.77-.87,1.31-1.1.54-.21,1.19-.28,1.76-.12.61.16,1.12.54,1.5,1.01.38.49.56,1.08.56,1.69v24.17c0,1.43.21,2.83.59,4.21.37,1.36.89,2.62,1.59,3.79.68,1.17,1.52,2.25,2.5,3.23.98.99,2.06,1.8,3.23,2.5,1.17.7,2.43,1.22,3.79,1.59,1.36.38,2.76.56,4.24.56s2.84-.21,4.22-.59c1.36-.38,2.62-.89,3.8-1.59,1.19-.7,2.27-1.52,3.21-2.48.96-.98,1.78-2.04,2.49-3.26.7-1.17,1.22-2.43,1.59-3.79.38-1.38.59-2.79.59-4.24v-26.02c0-.77.28-1.43.84-1.97Z"/>
        <path class="cls-2" d="M146.34,77.41c-.96-.42-2.02-.63-3.14-.63s-2.15.21-3.11.63c-.96.42-1.83,1.01-2.55,1.73-.73.73-1.31,1.59-1.73,2.55-.42.96-.63,2.02-.63,3.14s.21,2.15.63,3.11c.42.96,1,1.83,1.73,2.56.73.73,1.59,1.31,2.55,1.73.96.42,2.01.63,3.11.63s2.18-.21,3.14-.63c.96-.42,1.82-1,2.55-1.73.73-.73,1.31-1.59,1.73-2.56.42-.96.63-2.01.63-3.11s-.21-2.18-.63-3.14c-.42-.96-1.01-1.82-1.73-2.55-.73-.73-1.59-1.31-2.55-1.73ZM150.02,96.48c-1.06.58-2.11,1.05-3.19,1.36-.91.26-1.85.4-2.81.44v.09c-2.41,0-4.45-.35-6.11-1.06-1.66-.7-3.07-1.66-4.29-2.88-1.22-1.22-2.18-2.65-2.9-4.31-.73-1.66-1.08-3.42-1.08-5.29,0-1.29.16-2.48.49-3.61.33-1.1.77-2.18,1.38-3.21.59-.98,1.29-1.92,2.11-2.74.8-.8,1.73-1.5,2.74-2.11,1.03-.61,2.11-1.06,3.21-1.38,1.12-.33,2.32-.49,3.61-.49,1.88,0,3.61.35,5.27,1.08s3.09,1.69,4.31,2.91c1.22,1.22,2.18,2.62,2.88,4.29.7,1.66,1.05,3.39,1.05,5.27,0,1.27-.14,2.46-.47,3.61-.31,1.08-.77,2.13-1.36,3.18-.61,1.06-1.29,1.97-2.09,2.77-.8.8-1.71,1.48-2.76,2.09Z"/>
        <path class="cls-3" d="M180.86,92.42c-1.1,0-2.16-.21-3.11-.63-.96-.42-1.83-1-2.55-1.73-.73-.73-1.31-1.59-1.73-2.56s-.63-2.01-.63-3.11.21-2.16.63-3.12c.42-.96,1.01-1.82,1.73-2.55.73-.73,1.59-1.31,2.55-1.74.96-.42,2.01-.63,3.11-.63s2.15.21,3.11.63c.96.42,1.83,1.01,2.55,1.74.73.73,1.31,1.59,1.73,2.55.42.96.63,2.02.63,3.12s-.21,2.15-.63,3.11c-.42.96-1,1.83-1.73,2.56-.73.73-1.59,1.31-2.55,1.73-.96.42-2.01.63-3.11.63ZM194.4,95.84v-21.88c0-.77-.26-1.41-.8-1.95-.54-.54-1.17-.8-1.94-.8s-1.38.26-1.92.8c-.54.54-.8,1.17-.8,1.95v.14c-.49-.47-1.03-.91-1.64-1.31-.77-.49-1.69-.91-2.79-1.27-1.08-.35-2.29-.54-3.61-.54-1.85,0-3.58.35-5.25,1.06-1.66.7-3.07,1.66-4.29,2.88-1.22,1.21-2.18,2.62-2.88,4.26-.7,1.62-1.06,3.37-1.06,5.25s.35,3.58,1.06,5.25,1.64,3.07,2.86,4.29c1.22,1.22,2.62,2.18,4.29,2.88,1.66.7,3.39,1.05,5.25,1.05,1.31,0,2.48-.14,3.51-.42,1.03-.28,1.95-.66,2.74-1.12.63-.38,1.21-.8,1.73-1.31,0,.77.26,1.38.8,1.92.54.54,1.17.8,1.92.8s1.41-.26,1.94-.8c.54-.53.8-1.17.8-1.94l.07.82Z"/>
        <path class="cls-2" d="M199.62,74.52c-.22-.21-.36-.44-.4-.7l-.74-5.37v-3.95c0-.52.19-.96.56-1.33s.82-.56,1.33-.56.98.19,1.34.57c.35.37.53.8.53,1.3v3.95l-.72,5.37c-.05.3-.17.54-.37.71-.22.19-.48.29-.76.29s-.55-.09-.77-.29ZM197.64,74.06s0,.01,0,.02c.1.62.4,1.16.89,1.62,0,0,.02.01.02.02.52.46,1.14.69,1.84.69s1.29-.23,1.82-.69c.49-.43.79-.98.89-1.67,0,0,0-.01,0-.02l.72-5.43s0-.07,0-.11v-4c0-.93-.32-1.73-.97-2.4-.68-.71-1.52-1.07-2.5-1.07s-1.77.34-2.46,1.03c-.69.69-1.03,1.51-1.03,2.47v4s0,.07,0,.11l.75,5.43Z"/>
        <path class="cls-2" d="M218.58,84.46c-.82-.62-1.57-1.08-2.25-1.37-.86-.36-1.76-.54-2.71-.57-.82,0-1.55-.19-2.18-.56-.64-.36-1.11-.89-1.42-1.58-.03-.07-.06-.14-.06-.22-.2-.61-.27-1.18-.19-1.68.08-.63.3-1.18.64-1.64.33-.44.77-.82,1.31-1.12,0,0,.02,0,.03-.02.55-.27,1.13-.41,1.74-.41.88,0,1.75.12,2.62.35.76.22,1.54.56,2.33,1.03.43.22.85.3,1.28.26.5-.05.89-.24,1.18-.56.23-.25.39-.5.47-.75.09-.25.12-.54.1-.87-.02-.26-.1-.5-.25-.74,0,0,0-.01-.02-.02-.15-.25-.34-.44-.59-.59,0,0-.01,0-.02,0-1.01-.63-2.13-1.13-3.37-1.51-1.12-.34-2.38-.5-3.8-.5-1.07,0-2.08.2-3.01.59-.92.41-1.74.95-2.46,1.62-.7.65-1.25,1.44-1.67,2.37-.41.92-.61,1.88-.61,2.88v.2c.04,1.07.29,2.07.74,3.02.44.94,1.07,1.74,1.88,2.39.05.04.09.08.13.13.62.51,1.34.94,2.16,1.28.87.36,1.76.55,2.68.57.83.03,1.56.22,2.18.57.65.37,1.12.91,1.42,1.63.03.06.04.13.05.2.2.62.26,1.18.18,1.68-.09.63-.3,1.18-.64,1.64-.39.52-.84.91-1.34,1.16-.55.28-1.13.41-1.74.41-.86,0-1.73-.12-2.6-.35-.83-.23-1.61-.56-2.34-1-.41-.24-.83-.34-1.28-.28-.45.05-.82.23-1.14.54-.21.21-.38.46-.47.72-.09.24-.13.52-.11.85.02.26.09.52.23.78.15.27.35.49.61.65,1.03.62,2.16,1.12,3.39,1.48,1.11.34,2.37.5,3.75.5,1.07,0,2.08-.19,3.01-.59.92-.41,1.74-.95,2.46-1.62.72-.7,1.27-1.5,1.64-2.38.41-.95.62-1.93.62-2.92v-.16c-.02-1.09-.25-2.1-.7-3.03-.43-.91-1.01-1.67-1.76-2.29-.06-.05-.11-.11-.15-.17ZM220.91,84.57s-.01-.09-.03-.14c-.01-.05-.03-.09-.05-.14-.02-.04-.05-.09-.08-.12-.03-.04-.07-.07-.1-.11-1.35-1.16-2.57-1.98-3.67-2.45-1.06-.44-2.17-.67-3.32-.69h-.02c-.54,0-1-.11-1.38-.34-.31-.18-.55-.42-.72-.73,0-.02,0-.03-.01-.04-.16-.43-.22-.8-.17-1.09.05-.38.16-.69.34-.93.19-.25.45-.47.78-.66.32-.16.66-.24,1.01-.24.74,0,1.47.1,2.2.3.62.18,1.27.47,1.95.88.01,0,.03.02.04.02.72.38,1.46.52,2.21.44.9-.09,1.62-.45,2.19-1.08.38-.41.64-.85.8-1.31.16-.44.22-.93.18-1.47-.03-.53-.19-1.03-.49-1.5-.29-.48-.66-.85-1.13-1.13-1.12-.7-2.37-1.26-3.74-1.68-1.26-.38-2.68-.57-4.26-.57-1.29,0-2.5.24-3.64.72-1.1.48-2.08,1.13-2.93,1.93-.85.8-1.53,1.76-2.03,2.88-.5,1.13-.75,2.31-.75,3.54v.24c.05,1.29.35,2.52.89,3.66.52,1.11,1.25,2.06,2.2,2.84.03.03.05.06.09.09.78.68,1.68,1.23,2.72,1.66,1.05.44,2.14.67,3.26.69.55.02,1.03.14,1.43.36.29.17.51.41.67.73,0,.02.02.05.02.07.16.43.22.79.17,1.08-.05.38-.17.69-.35.93-.23.31-.48.53-.77.67-.32.16-.67.25-1.02.25-.72,0-1.44-.1-2.18-.3-.69-.19-1.33-.46-1.93-.83-.73-.43-1.5-.59-2.29-.51-.82.09-1.51.43-2.09,1-.38.38-.66.81-.84,1.29-.18.43-.25.93-.22,1.5.03.5.17.99.42,1.46,0,0,0,.01,0,.02.29.51.68.92,1.17,1.22,1.16.7,2.42,1.26,3.78,1.66,1.26.38,2.67.57,4.21.57,1.29,0,2.5-.24,3.64-.72,1.1-.49,2.07-1.13,2.93-1.93.89-.87,1.56-1.84,2.02-2.92.49-1.14.74-2.32.74-3.54v-.16c-.03-1.34-.31-2.58-.85-3.72-.29-.6-.63-1.15-1.03-1.65Z"/>
        <path class="cls-2" d="M42.22,84.36c.55,0,.99-.19,1.34-.59,1.66-2.01,3.91-4.74,6.71-8.25l8.45-10.43c2.13-2.64,4.3-3.87,6.47-3.75,1.38.08,2.45.59,3.28,1.5.79.91,1.19,2.05,1.19,3.48v49.36h-3.2c-2.73,0-5.05-.95-6.99-2.88-1.94-1.94-2.92-4.31-2.92-7.03v-17.93l-8.25,10.43c-1.58,1.97-3.63,2.96-6.16,2.96-2.53-.04-4.58-1.03-6.12-3.04l-2.25-2.84v26.3c0,1.22-.51,2.09-1.58,2.68-1.07.59-2.13.59-3.16-.08-6.91-4.38-10.43-6.63-10.47-6.67-2.49-1.94-3.75-4.66-3.75-8.18v-43.08c0-1.42.4-2.57,1.18-3.48.83-.91,1.93-1.42,3.32-1.5,2.13-.12,4.27,1.11,6.44,3.75,0,0-.01-.01-.01-.01,0,0,5.07,6.2,15.18,18.65.35.43.79.63,1.3.63ZM42.16,47.84C18.88,47.84,0,66.71,0,90s18.88,42.16,42.16,42.16,42.16-18.88,42.16-42.16-18.88-42.16-42.16-42.16Z"/>
        <path class="cls-2" d="M17.93,109.4c0,2.49.87,4.42,2.57,5.73l10.19,6.52v-35.66c0-2.17-.79-3.71-2.41-4.62-2.17-1.22-3.87-2.21-5.05-2.96-3.32-2.09-5.09-4.54-5.29-7.3v38.3Z"/>
        <path class="cls-2" d="M55.17,75.26c-.02,1.06-.95,1.06-.97,0,.02-1.06.95-1.06.97,0ZM55.64,77.79c2.48-.09,2.48-4.95,0-5.04-2.48.09-2.48,4.94,0,5.04Z"/>
        <path class="cls-2" d="M61.36,75.26c.02-1.06.96-1.06.97,0-.02,1.06-.95,1.06-.97,0ZM62.8,77.79c2.48-.09,2.48-4.95,0-5.04-2.48.09-2.48,4.94,0,5.04Z"/>
        <path class="cls-2" d="M64.48,81.43c.09.57.04,1.15-.16,1.71-.28.18-.57.34-.87.49.11-.25.2-.52.27-.81.12-.49.13-.85.14-.86,0-.13-.1-.24-.23-.25-.13,0-.24.1-.25.23,0,.39-.25,1.48-.64,2.01-.35.14-.71.25-1.08.34.55-.7.81-1.49.93-2.44.14-1.43,1.6-1.7,1.88-.41ZM66.83,82.92c.3-.3.81-.93.41-1.33-.38-.36-.97.07-1.3.31-.35.28-.66.57-1.01.83.13-.75.16-1.75-.45-2.28-.52-.47-1.33-.4-1.81.11-.28.3-.47.72-.53,1.22-.17,1.21-.53,2.09-1.33,2.68-1.5.23-3.03.08-4.51-.32-.22-.05-.39-.18-.51-.34-.11-.22-.05-.25-.13-.44-.15-.35-.28-.53-.64-.79-.16-.12-.36-.25-.51-.3-.06-.03-.13-.05-.21-.08-.9-.39-2.32-1-3.09-.36-.55,1.19,1.37,2.6,2.33,3.02.33.13.93.26,1.22.16.07-.02.13-.04.18-.06.1-.03.21-.08.27-.13.07-.06.11-.1.27-.16.19-.04.42-.04.64.05,3.11,1.11,6.46.97,9.31-.78.3-.18.59-.38.88-.58.18-.13.36-.26.53-.43Z"/>
        <path class="cls-3" d="M175.18,153.64c-8.3,8.3-17.84,14.73-28.61,19.28-11.15,4.72-22.82,7.07-35.03,7.07s-23.88-2.36-35.03-7.07c-10.77-4.55-20.31-10.98-28.61-19.28-4.89-4.89-9.13-10.21-12.72-15.95l.31.04.36.04c3.52,5.57,7.66,10.74,12.42,15.5,8.26,8.25,17.74,14.65,28.44,19.18,11.09,4.69,22.69,7.03,34.83,7.03s23.75-2.34,34.83-7.03c10.7-4.53,20.18-10.92,28.44-19.18,8.04-8.04,14.32-17.25,18.82-27.61h.57c-4.54,10.51-10.88,19.84-19.02,27.98ZM47.9,26.36c8.31-8.3,17.84-14.73,28.61-19.29C87.65,2.36,99.33,0,111.54,0s23.88,2.36,35.03,7.07c10.77,4.55,20.3,10.98,28.61,19.29,8.3,8.3,14.73,17.84,19.29,28.61.23.54.45,1.08.67,1.62l-.43.31c-.23-.58-.47-1.15-.71-1.73-4.53-10.71-10.92-20.19-19.18-28.44-8.25-8.25-17.74-14.65-28.44-19.18-11.08-4.69-22.69-7.03-34.83-7.03s-23.75,2.34-34.83,7.03c-10.7,4.53-20.18,10.92-28.44,19.18-4.76,4.76-8.9,9.93-12.43,15.51l-.67.09c3.59-5.75,7.83-11.07,12.73-15.96Z"/>
      </g>
    </g>
  </g>
</svg>