<?xml version="1.0" encoding="UTF-8"?>
<svg id="Layer_2" data-name="Layer 2" xmlns="http://www.w3.org/2000/svg" xmlns:xlink="http://www.w3.org/1999/xlink" viewBox="0 0 1513.54 772.22">
  <defs>
    <style>
      .cls-1 {
        fill: none;
      }

      .cls-2 {
        fill: #2b466e;
      }

      .cls-2, .cls-3, .cls-4, .cls-5 {
        fill-rule: evenodd;
      }

      .cls-6 {
        clip-path: url(#clippath-1);
      }

      .cls-3 {
        fill: #f8fafc;
      }

      .cls-4 {
        fill: #86c1e9;
      }

      .cls-5 {
        fill: #86c4ed;
      }

      .cls-7 {
        clip-path: url(#clippath);
      }
    </style>
    <clipPath id="clippath">
      <rect class="cls-1" width="1513.54" height="772.22"/>
    </clipPath>
    <clipPath id="clippath-1">
      <rect class="cls-1" y="0" width="1513.55" height="772.22"/>
    </clipPath>
  </defs>
  <g id="Layer_1-2" data-name="Layer 1">
    <g class="cls-7">
      <g class="cls-6">
        <path class="cls-2" d="M1265.96,115.2c.06-.3.12-.61.14-.92q.27-5.7,5.6-5.7h182.17c1.5,0,3.01.06,4.52.1v10.29c-2.04.57-2.48,2.67-3.39,4.14-18.59,30.36-37.05,60.79-55.59,91.19-20.19,33.14-40.46,66.25-60.66,99.39-6.16,10.08-12.23,20.2-18.33,30.31-.54.89-1.37,1.69-1.02,3.43h4.68c37.88,0,75.76-.01,113.64,0,5.98,0,5.36-.72,5.39,5.44.03,9.98.03,19.97,0,29.96-.01,3.88-.06,3.88-3.65,3.96-3.32.07-6.63.14-9.95.2-1.81-.06-3.61-.2-5.42-.2-56.3,0-112.6,0-168.9-.02-1.7,0-3.49.39-5.54-.63,48.4-79.33,96.61-158.37,144.91-237.55-2.2-.98-3.85-.61-5.46-.61-39.09-.02-78.19-.02-117.27-.02-1.06,0-2.11-.06-3.17,0-1.66.11-2.58-.47-2.47-2.34.07-1.25,0-2.5,0-3.75-.07-8.89-.14-17.77-.21-26.66"/>
        <path class="cls-2" d="M1024.18,113.67c.45-6.76.45-6.78,7.02-6.72,28.8.27,57.6.57,86.4.85,1.65.02,3.31-.05,4.97-.07.42.33.86.33,1.3,0,20.05.27,40.11.4,60.16.85,8.2.18,16.34,1.89,24.59,1.27,1.74-.13,2.46.77,2.38,2.53-.06,1.09,0,2.19,0,3.27,0,87.94,0,175.85-.01,263.77,0,6.14.83,5.84-5.49,5.91-2.71.03-5.43-.34-8.11.31-1.93-.56-3.91-.32-5.86-.32-53.89-.01-107.77,0-161.66-.02-6.37,0-5.45.71-5.45-5.76-.02-86.61-.02-173.21-.02-259.81,0-2.02-.13-4.05-.2-6.08M1159.3,345.71c3.45.53,6.93.23,10.4.23,3.09,0,3.1-.1,3.18-3.51,0-.47,0-.94,0-1.4,0-62.74,0-125.48,0-188.22,0-5.33.62-4.98-4.89-5.04-33.07-.31-66.12-.66-99.19-.91-6.7-.05-6.6-1.75-6.1,6.67-.31,5.01-.3,10.03.02,15.04-.07,1.55-.2,3.11-.2,4.66-.01,55.8-.01,111.6-.01,167.39,0,.93.06,1.87,0,2.8-.1,1.77.65,2.59,2.38,2.53,1.05-.04,2.11,0,3.16,0,23.38,0,46.74,0,70.11-.01,1.65,0,3.3-.18,4.95-.27,5.41.42,10.8.38,16.2.05"/>
        <path class="cls-2" d="M252.2,346.58c1.48-.27,3-.44,4.05-1.77.73-.21,1.55-.25,1.94-1.1l-.08.09c.55-.1,1.32.05,1.06-.98l-.12.13c.78.58,1.44,0,2.06-.31,7.82-4.13,15.08-9.13,21.87-14.87.44-.37.89-.83.57-1.86-56.42-48.59-113.06-97.36-169.83-146.25,7.17-10.11,14.11-19.87,22.35-28.59,10.9-11.54,23.15-21.32,36.22-30.06,2.48-2.45,5.79-3.41,8.73-5.01,6.81-3.71,14.02-6.77,21.37-8.76,16.27-4.35,32.78-5.98,49.6-2.57,22.09,4.47,40.98,15.11,57.98,29.96,8.89,7.77,16.89,16.4,24.48,25.47,2.42,2.89,2.37,3.08-.59,5.54-7.88,6.56-15.82,13.07-23.57,19.79-1.69,1.45-3.33,1.86-5.31,1.81.4-1.76-.52-2.96-1.57-4.14-2.14-2.41-4.18-4.91-6.37-7.25-9.99-10.72-20.93-20.14-34.05-26.55-21.07-10.27-41.95-9.05-62.65,1.2-.53.25-1.15.44-1.2,1.2l.14-.05c-.69-.3-1.25.09-1.84.36-8.76,4.49-16.61,10.38-24.01,16.91-.46.4-.81.91-.5,1.6l.1-.08c-.98-.36-1.5.25-1.95.98-1.02,1.11-2.67,1.49-3.44,3.35,2.47,2.24,4.98,4.59,7.59,6.85,8.55,7.38,17.12,14.7,25.69,22.03,9.95,8.53,19.94,17.02,29.87,25.57,8.09,6.96,16.12,14,24.21,20.96,8.19,7.06,16.45,14.05,24.65,21.11,8.08,6.96,16.12,13.99,24.21,20.96,8.19,7.05,16.43,14.06,24.62,21.11,2.9,2.48,5.7,5.08,8.59,7.56,1.52,1.3,1.86,2.19.39,4.13-6.43,8.43-12.73,17.04-20.4,24.27-10.45,9.88-21.58,18.97-34.14,25.97-1.04.57-1.99,1.34-2.97,2.03-.7.28-1.55.29-1.9,1.16l.14-.07c-4.52,1.47-8.82,3.48-12.98,5.8-.66,0-1.31.04-1.67.78l.09-.12c-1.85.04-3.51.88-5.22,1.44-23.88,7.85-47.73,7.94-71.48-.48-25.21-8.92-45.47-25.32-63.5-45.07-1.54-1.69-1.34-2.62.23-4.11,5.12-4.83,10.51-9.36,15.29-14.57,2.94-2.66,5.96-5.24,8.79-8.01,1.57-1.53,2.58-1.53,4.04.16,3.79,4.42,7.95,8.47,12.27,12.36,11.47,10.31,24.01,18.74,38.77,23.14,16.82,5.01,33.29,3.81,49.41-3.15"/>
        <path class="cls-2" d="M439.06,169.54c2.8,6.17,6.77,11.63,10.3,17.34,11.99,19.46,24.06,38.84,36.19,58.19,1.24,1.98,1.16,3.41-.05,5.35-14.32,22.87-28.56,45.79-42.84,68.69-4.94,7.95-9.91,15.88-14.82,23.84-.71,1.16-1.24,2.43-2.01,3.96,1.71.85,3.36.52,4.89.52,34.25.02,68.48.02,102.72.02,6,0,5.42-.54,5.43,5.43.03,9.82.02,19.65,0,29.47,0,4.4-.03,4.39-4.1,4.46-3.16.05-6.32.13-9.49.19-1.81-.06-3.62-.2-5.43-.2-52.97,0-105.94,0-158.91-.02-1.56,0-3.2.33-4.76-.34.46-2.06,1.61-3.32,2.49-4.74,26.97-43.44,53.93-86.88,80.99-130.26,1.68-2.68,1.92-4.53.14-7.36-26.11-41.78-52.09-83.65-78.1-125.49-.81-1.29-1.35-2.84-2.9-3.48-.44-1.51-1.4-2.67-2.32-3.9-.79-1.06-.79-2.44,1.13-2.52.91-.04,1.81-.04,2.71-.05,57.95-.15,115.88-.29,173.82-.45.91,0,1.82-.04,2.71.04,1.19.12,1.98.72,1.96,2.09,0,.77.04,1.55.04,2.33.01,10.14.04,20.27.04,30.42,0,4.48-.04,4.43-4.58,4.53-3.01.06-6.04-.3-9.02.32-1.05-.09-2.09-.26-3.14-.26-31.23.06-62.46.14-93.7.25-.81,0-1.8-.37-2.56.87,1.24,1.95,2.23,4.21,3.95,5.97,2.69,5.17,5.8,10.09,9.21,14.8"/>
        <path class="cls-2" d="M647.38,347.31c4.52.04,9.04.12,13.57.12,30.6,0,61.22,0,91.82,0,1.06,0,2.11-.02,3.17,0,3.39.1,3.47.1,3.49,3.71.04,10.76.04,21.51-.02,32.26,0,3.27-.12,3.29-3.37,3.37-3.02.07-6.03.08-9.04.12-.47,0-.94.01-1.41.02-1.65-.04-3.3-.13-4.97-.13-52.95,0-105.92,0-158.88-.02-1.57,0-3.21.29-4.75-.28.1-2.02,1.26-3.13,2.04-4.41,16.05-25.86,32.11-51.69,48.17-77.52,10.93-17.57,21.74-35.22,32.87-52.66,2.12-3.32,2.04-5.63-.15-8.61-2.19-2.97-3.96-6.25-5.92-9.41-23.8-38.3-47.6-76.59-71.44-114.88-.94-1.5-1.41-3.56-3.55-3.93.1-2.23-2.47-3.59-1.85-6.05,1.77-.74,3.58-.37,5.34-.38,57.44-.16,114.87-.29,172.3-.42.6,0,1.21,0,1.81-.03,1.83-.12,2.75.57,2.75,2.64,0,11.38.05,22.75.14,34.13.02,2.08-.99,2.64-2.8,2.67-3.6.07-7.23-.29-10.82.29-.59-.08-1.2-.26-1.79-.26-31.85.07-63.7.14-95.56.23-.71,0-1.54-.15-1.86,1.03,1.04,1.92,2.12,3.95,3.67,5.66,2.69,5.2,5.93,10.03,9.14,14.88,5.11,9.44,11.12,18.28,16.73,27.39,9.89,16.05,19.87,32.02,29.9,47.97,1.34,2.12,1.24,3.75-.07,5.86-10.11,16.06-20.13,32.18-30.17,48.29-9.4,15.08-18.78,30.17-28.16,45.28-.23.38-.32.86-.47,1.3-.55.65-1.32,1.32.16,1.77"/>
        <path class="cls-2" d="M847.61,169.88c-.5,1.84-.33,3.72-.33,5.59v166.04c0,6.9-.37,5.91,5.88,5.91,39.36.03,78.72,0,118.09.02,5.91,0,5.34-.75,5.36,5.45.03,9.98.03,19.96,0,29.94,0,3.88-.05,3.88-3.65,3.96-3.31.07-6.63.14-9.94.2-1.8-.06-3.6-.2-5.41-.2-47.68,0-95.36,0-143.04,0-6.18,0-5.46.71-5.46-5.82-.01-86.58,0-173.15-.01-259.72,0-2.02-.14-4.04-.22-6.07.07-.45.18-.92.19-1.38.06-5.58-.69-5.35,5.6-5.3,43.16.38,86.33.76,129.5,1.13,1.81.01,3.61-.04,5.42-.07,2.81.44,5.65.45,8.48.06,5.1.07,10.2.1,15.3.23,3.3.08,3.4.13,3.39,3.34-.03,11.01-.19,22.03-.2,33.05,0,2.16-.63,3.08-2.82,3.01-3.6-.11-7.2.03-10.8.07-.59-.07-1.19-.2-1.79-.21-36.64-.34-73.3-.68-109.96-1.01-3.9-.03-3.91.03-3.91,4.14,0,.77.13,1.54.19,2.32-.29,5.12-.53,10.22.14,15.33"/>
        <path class="cls-4" d="M964.44,597.48c-.1,13.4-.14,26.8-.29,40.21-.08,6.25-.16,6.29-6.18,6.41-3.43.07-6.88-.04-10.33-.01-2.69.03-3.8-1.32-3.67-4.03.09-1.64.03-3.29.03-4.93-.03-33.11-.03-66.21,0-99.32,0-1.63.04-3.28,0-4.92-.05-2.23.69-3.82,3.1-3.72,16.3.77,32.69-1.85,48.88,2.87,23.65,6.87,27.08,32.04,16.47,49.6-3.9,6.44-9.42,10.66-16.43,12.93-3.17,1.02-4.1,2.48-1.72,5.84,9.12,12.89,17.96,26.01,26.9,39.07,1.18,1.72,2.19,3.55,4.03,6.59-7.16,0-13.32.04-19.49-.03-2.35-.03-3.5-1.81-4.89-3.55-5.96-7.51-10.54-15.98-15.66-24.07-3.69-5.82-7.29-11.73-10.64-17.77-2.18-3.94-5.61-1.89-8.48-2.51-1.22-.42-1.74.05-1.64,1.34M964.2,562c0,4.92-.02,9.83,0,14.75.01,1.91-.09,4.05,2.54,4.21,8.23.47,16.44.68,23.73-4.34,6.79-4.69,9.51-13.18,7.25-22.59-1.83-7.64-7.59-10.01-14.22-10.82-4.71-.57-9.49-.51-14.22-.93-3.62-.32-5.38.85-5.15,4.97.28,4.91.08,9.82.09,14.74"/>
        <path class="cls-4" d="M505.41,644.03c-7.32,0-13.61.29-19.85-.11-3.26-.23-5.33-2.88-7.08-5.79-5.36-8.89-10.89-17.66-16.4-26.44-2.82-4.51-5.78-8.9-8.59-13.41-.76-1.22-1.54-1.85-3.01-2.12-5.7-1.01-6.78-.21-6.8,6.15-.07,11.76,0,23.53-.07,35.29-.03,6.35-.09,6.35-5.9,6.51q-13.78.36-13.78-14.02v-93.58c0-1.91.05-3.82.05-5.74,0-2.23.74-3.73,3.19-3.62,16.28.74,32.77-2.16,48.83,3.04,12.08,3.9,20.29,11.42,21.53,24.98,1.37,14.72-3.19,26.85-16.04,34.64-2.92,1.77-6.08,3.13-9.9,5.06,11.14,16.19,22.11,32.13,33.84,49.17M443.68,561.9c0,4.9-.03,9.8,0,14.7,0,1.92-.08,4.1,2.47,4.3,8.74.62,17.54.89,24.98-5.02,6.83-5.44,8.15-12.97,6.43-21.28-1.67-8.06-7.58-10.62-14.53-11.4-4.71-.54-9.46-.49-14.18-.92-4.26-.37-5.49,1.64-5.25,5.75.27,4.61.07,9.25.08,13.88"/>
        <path class="cls-4" d="M928.07,612.85c0,6.02-.48,12.08.14,18.02.52,5-2.16,7.11-5.64,8.55-14.85,6.19-30.17,8.06-46.21,6.19-11.25-1.31-20.07-6.28-26.57-15.34-6.58-9.15-11.41-19.08-12.14-31.05-.61-10.13-1.8-20.58.29-30.17,4.03-18.28,12.05-34.77,31.15-41.24,17.76-6.01,35.11-5.79,51.11,5.85,4.97,3.6,4.99,3.57,1.24,9.22-6.44,9.69-6.61,9.95-15.68,3.46-19.37-13.85-40.94-2.48-45.86,19.25-3.34,14.77-3.04,29.79,2.3,44.22,5.68,15.32,15.48,21.19,28.72,20.42,4.51-.25,8.92-1.08,13.3-2.01,3.04-.65,4.24-2.34,4.17-5.71-.2-9.56-.13-19.14-.05-28.7.05-5.89.15-5.89,5.6-6.06q14.13-.42,14.13,14.45v10.66Z"/>
        <path class="cls-4" d="M1215.38,569.56c9.88-11.97,19.92-23.81,29.54-36.01,3.9-4.94,8.23-7.17,14.35-6.52,4.17.44,8.39.08,14.27.08-15.98,20.07-33.12,37.16-48.73,56.25,16.82,19.81,33.58,39.53,51.44,60.56-8.6,0-15.84.07-23.04-.09-1.18-.03-2.6-.84-3.42-1.77-11.95-13.37-23.94-26.73-34.61-41.22-.25-1.07-.98-1.79-1.96-1.63-.7.11-.74,1.01-.46,1.72-.07,12.29-.08,24.58-.21,36.89-.05,6.15-.1,6.26-6.1,6.24-4.19-.02-9.53,1.82-12.31-.76-3.24-3-1.22-8.77-1.23-13.3-.12-31.16-.07-62.32-.07-93.48,0-1.91.08-3.83.02-5.73-.11-2.88,1.34-3.53,3.9-3.73,15.81-1.28,15.78-1.34,15.82,15.25,0,9.03.11,18.04.17,27.05-.18,1.07-1.1,2.62.74,2.77,1.24.09,2.14-1.02,1.88-2.58"/>
        <path class="cls-4" d="M235.26,628.98c1.82-3.46,4.46-5.36,6.75-7.55,7.05-6.73,7.17-6.76,13.96-.07,7.42,7.32,16.23,9.62,26.17,8.31,6.42-.85,10.75-4.96,14.01-10.26,2.56-4.18.96-10.59-3.58-14.43-3.13-2.63-6.54-5.43-10.28-6.7-7.49-2.6-14.52-6.3-21.68-9.55-9.22-4.15-16.72-10.79-20.98-20.76-6.73-15.81.56-34.57,16.36-40.14,18.14-6.39,35.68-5.12,51.8,6.58,4.49,3.27,4.55,3.74,1.35,8.29-2.33,3.29-4.3,7.61-7.52,9.26-4.43,2.3-5.63-4.09-8.83-5.9-7.41-4.18-14.77-7.75-23.56-4.77-4.29,1.45-8.55,2.97-9.97,7.89-1.52,5.31-.37,9.96,3.59,14.16,4.89,5.22,10.88,8.31,17.12,11.13,6.45,2.91,13.14,5.36,19.41,8.68,9,4.78,14.94,12.24,17.68,22.67,2.8,10.68-1.64,24.89-12.54,32.41-7.25,5.01-15.34,7.1-23.78,7.64-17.2,1.07-32.86-2.92-45.49-16.9"/>
        <path class="cls-4" d="M1034.88,585.14c0-17.23-.04-34.45.04-51.68.01-6.19.14-6.3,6.21-6.31,17.46-.06,34.92-.06,52.37,0,5.65.02,5.65.14,5.8,5.85.04,1.37-.15,2.75.04,4.1.65,4.57-1.66,5.51-5.52,5.45-10.85-.15-21.7-.1-32.53-.03-6.19.04-6.26.12-6.32,6.14-.07,6.56-.08,13.14,0,19.7.06,5.85.14,5.95,5.6,6.01,8.19.09,16.41.18,24.59-.05,3.76-.12,5.11,1.07,5.02,5.08-.29,12.35.88,9.82-9.64,10.02-7.14.13-14.27.12-21.42,0-3.03-.05-4.24,1.13-4.21,4.28.09,10.4.15,20.8-.02,31.19-.04,3.54,1.74,3.98,4.44,3.98,11.11-.05,22.22-.02,33.33-.01,1.85,0,3.7.01,5.56.05,1.94.03,2.8,1.16,2.86,3.09,0,.27,0,.54.02.82,1.1,11.07.9,11.3-10.04,11.3-16.65,0-33.33.04-49.98-.03-6.02-.01-6.13-.14-6.14-6.45-.07-17.49-.04-35-.04-52.5"/>
        <path class="cls-4" d="M1114.29,585.29c0-17.22-.04-34.45.02-51.68.02-6.35.14-6.45,6.05-6.47,17.46-.06,34.92-.06,52.38,0,5.85.02,5.87.13,5.96,6.49.03,1.65-.09,3.29.02,4.93.17,2.82-1.17,3.92-3.76,3.91-5.29-.03-10.57.01-15.87.02-6.88,0-13.77.06-20.63,0-2.98-.02-4.22,1.16-4.16,4.37.15,7.66.18,15.32,0,22.97-.11,3.71,1.45,4.68,4.7,4.62,7.94-.16,15.87-.08,23.81-.04,6.68.04,6.68.07,6.71,7.29,0,.82-.11,1.66.01,2.45.68,4.54-1.55,5.49-5.46,5.38-7.94-.24-15.88-.13-23.81-.06-5.74.06-5.85.13-5.89,5.72-.09,9.56.15,19.14-.12,28.71-.11,4.12,1.45,5.08,5.11,5.01,11.37-.18,22.74-.09,34.11-.05,6.97.02,6.97.06,7.01,7.06,0,.55,0,1.09,0,1.64-.08,6.44-.08,6.49-6.71,6.53-7.66.05-15.33.01-23,.01-9.8,0-19.58.03-29.37-.01-7.02-.03-7.09-.09-7.1-7.11-.05-17.23-.02-34.46-.02-51.69"/>
        <path class="cls-4" d="M659.74,629.14q1.63,14.97-12.37,14.97c-15.86,0-31.71.03-47.59-.03-5.47-.02-5.6-.15-5.6-5.94-.06-34.99-.06-69.97,0-104.94,0-5.9.12-6.03,5.57-6.04,17.71-.06,35.43.1,53.13-.11,4.21-.06,5.54,1.35,5.43,5.59-.28,11.69.77,9.72-9.09,9.84-10.06.11-20.1.15-30.15-.03-3.73-.07-5.26,1.25-5.15,5.18.18,7.37.16,14.75.01,22.13-.08,3.57,1.35,4.75,4.7,4.69,8.2-.16,16.39-.1,24.59-.03,6.12.05,6.12.12,6.25,6.24.02.55.02,1.09,0,1.64-.02,7.06-.02,7.11-6.94,7.14-7.66.05-15.33.19-23.01-.06-3.97-.14-5.74.98-5.62,5.44.29,10.65.22,21.3.29,31.96.51,4.08,3.64,2.21,5.47,2.25,13.36.2,26.73.11,40.08.11"/>
        <path class="cls-4" d="M580.38,629.23q1.12,14.88-12.6,14.88c-15.89,0-31.77-.1-47.63.05-3.96.05-5.51-.99-5.5-5.45.18-35.3.08-70.6.13-105.89.01-5.55.16-5.66,5.92-5.67,17.48-.06,34.94-.06,52.4,0,5.53.02,5.53.13,5.68,5.97.02.54.01,1.09.01,1.63,0,7.66,0,7.71-7.13,7.73-10.32.04-20.64-.05-30.97.03-6,.06-6.05.15-6.13,6.44-.06,6.3-.06,12.59,0,18.88.08,6.47.13,6.51,6.79,6.54,7.66.06,15.35-.05,23.01.04,5.48.06,5.59.17,5.61,6.08.03,10.02.68,8.91-8.38,8.95-6.88.04-13.77-.04-20.64.02-6.23.07-6.36.11-6.37,6.14-.03,10.4.11,20.8.19,31.18.5,4.09,3.64,2.21,5.48,2.25,13.38.23,26.75.17,40.12.2"/>
        <path class="cls-4" d="M358.11,542.66c-8.98-.12-17.96-.22-26.96-.36-6.52-.1-6.52-.12-6.6-6.72,0-1.1.11-2.21-.02-3.29-.42-3.86,1.06-5.32,4.93-5.24,10.29.22,20.63.07,30.94.07,15.88,0,31.75-.03,47.61.03,6.17.01,6.17.11,6.34,6.2q.22,8.94-8.42,8.96c-7.15.01-14.29.17-21.42-.05-3.75-.12-5.14,1.15-5.04,5.15.22,9.84.07,19.69.07,29.53,0,20.24.02,40.47-.03,60.7-.02,6.3-.13,6.33-6.13,6.46-3.44.07-6.88-.06-10.32,0-2.68.03-3.81-1.27-3.69-4,.1-2.19,0-4.37,0-6.56-.05-29.53-.11-59.06-.17-88.59.36-1.14.12-1.97-1.1-2.28"/>
        <path class="cls-5" d="M700.44,593.26c-.01-14.5.03-28.99-.01-43.48-.01-7.42-.06-7.44-7.48-7.47-7.15-.03-14.3.04-21.43-.03-5.83-.06-5.83-.13-5.91-6.46-.02-.83-.02-1.64,0-2.46.13-6.1.14-6.19,6.22-6.2,25.65-.04,51.3-.04,76.98,0,6.03,0,6.03.11,6.15,6.25.02,1.1-.11,2.2.02,3.29.51,4.12-.92,5.87-5.19,5.68-7.14-.31-14.3-.05-21.43-.09-9.63-.06-8.26.26-8.26,8.32-.03,28.17-.02,56.33-.02,84.5,0,1.91-.05,3.83,0,5.74.07,2.53-1.24,3.28-3.46,3.25-3.97-.08-7.95-.21-11.91.05-3.72.24-4.34-1.67-4.31-4.94.1-15.31.05-30.62.05-45.94"/>
        <path class="cls-4" d="M230.16,577.58c.11,1.56.27,2.12.16,2.63-1.01,4.98-.56,11.24-4.09,14.41-3.02,2.73-8.61.78-13.07.82-8.7.12-17.4.02-26.11.04-3.37,0-5.43-.92-2.92-4.66,2.03-3.01-.32-6.79,2.2-9.95,1.42-1.78,2.15-3.36,4.66-3.34,12.91.09,25.79.04,39.18.04"/>
        <path class="cls-4" d="M1332.7,577.59c.77,5.67-1.82,10.14-2,14.97-.07,1.53-1.41,2.87-3.32,2.87-13.82,0-27.64,0-43.24,0,4.66-4.79,3.86-9.67,5.09-14,.64-2.24,1.22-3.92,4.05-3.89,13.1.11,26.2.06,39.41.06"/>
        <path class="cls-5" d="M88.72,192.02c1.24.36,1.76-.32,2.44-1.35,5-7.72,11.29-14.32,17.42-21.05,2.22-2.44,4.89-4.43,7.35-6.61.78,1.94-.84,2.75-1.71,3.93-4.29,5.82-8.56,11.67-12.89,17.46-1.1,1.48-.69,2.55.54,3.56.59.49,1.18.97,1.76,1.47,17.15,14.78,34.3,29.57,51.46,44.34,26.33,22.67,52.64,45.33,78.97,67.99,11.24,9.68,22.5,19.34,33.73,29.04,2.75,2.38,2.65,2.49,0,4.88-2.82,2.55-6.32,4.22-8.74,7.27,0,0-.83.23-.93.85l.08-.09c-.74.2-1.44.46-1.94,1.1-1.05,1.33-2.58,1.49-4.05,1.77-.64-1.52-161.85-140.31-163.48-140.52v-14.05Z"/>
        <path class="cls-4" d="M730.05,394.28c-.05,3.59-.09,7.17-.18,10.75-.07,3.23-.1,3.23-3.36,3.32-.6.01-1.21,0-1.81,0h-177.68c.79-3.97,3.01-6.71,4.79-9.62,7.21-11.75,14.61-23.37,21.89-35.07,7.13-11.45,14.21-22.92,21.3-34.36,6.39-10.29,12.79-20.56,19.16-30.83,5.82-9.39,11.56-18.83,17.52-28.11.85-1.32.38-2.08-.11-2.79-7.4-10.7-13.8-22.07-20.8-33.04-6.52-10.19-12.78-20.58-19.17-30.86-7.19-11.58-14.43-23.14-21.62-34.71-5.91-9.52-11.77-19.06-17.67-28.58-1.11-1.8-2.28-3.57-3.47-5.31-.97-1.4-1.82-2.82-1.51-5.03h24.01c.79,1.14,1.65,2.23,2.37,3.41,11.78,18.89,23.53,37.78,35.28,56.68,12.57,20.22,25.07,40.48,37.74,60.62,1.65,2.62,1.8,4.46.04,7.09-4.2,6.29-8.04,12.83-12.04,19.26-23.01,37.02-46.04,74.03-69.04,111.06-.86,1.39-1.98,2.71-2.17,4.76,2.03.77,3.98.48,5.87.48,51.48.01,102.96,0,154.44.03,1.95,0,3.92.11,5.88.18.02.27.13.49.31.67"/>
        <path class="cls-4" d="M509.13,393.62c0,3.59-.02,7.17,0,10.76.02,4.34,0,3.97-4.04,3.97h-1.81c-57.17,0-114.35,0-171.52-.06-1.81,0-4.29,1.12-5.31-.9-.93-1.81,1.35-3.24,2.24-4.71,6.2-10.04,12.62-19.94,18.87-29.96,7.06-11.31,13.96-22.71,21-34.03,6.55-10.53,13.2-20.99,19.75-31.51,7.52-12.07,14.9-24.23,22.49-36.26,1.04-1.64.41-2.42-.34-3.63-5.78-9.24-11.54-18.49-17.27-27.75-6.77-10.95-13.47-21.93-20.25-32.87-6.22-10.02-12.53-19.98-18.75-30.01-6.79-10.93-13.51-21.9-20.29-32.82-2.62-4.23-5.78-8.13-7.76-13.55,7.98-.09,15.69-.18,23.42-.27.41.04.82.06,1.24.08,1.06,1.52,2.18,2.99,3.16,4.55,8.81,14.17,17.57,28.36,26.38,42.54,15,24.13,29.95,48.3,45.1,72.34,2.21,3.5,2.32,6.04.01,9.61-8.29,12.82-16.23,25.9-24.31,38.89-18.83,30.3-37.67,60.59-56.48,90.92-.76,1.22-2.15,2.29-1.6,4.12,1.81.59,3.64.32,5.43.32,51.44.01,102.89,0,154.34.03,2.1,0,4.21.13,6.32.19"/>
        <path class="cls-4" d="M1413.61,394.43c-.06,3.74-.2,7.48-.16,11.22.01,1.96-.61,2.92-2.61,2.72-.89-.1-1.81-.01-2.71-.01-60.98,0-121.94,0-182.91-.03-1.61,0-3.26.37-4.95-.4.18-3.84,2.88-6.36,4.66-9.22,6.56-10.51,12.76-21.26,19.45-31.71,6.43-10.04,12.26-20.51,18.47-30.71,6.14-10.08,12.5-20.01,18.66-30.07,6.22-10.2,12.24-20.52,18.45-30.73,6.15-10.06,12.47-20.02,18.62-30.08,6.16-10.06,12.21-20.2,18.32-30.29,6.13-10.08,12.3-20.13,18.45-30.19,2.99-4.88,5.61-9.99,9.35-14.55-1.66-1.44-3.38-.86-4.91-.86-39.09-.05-78.17-.04-117.25-.04-1.06,0-2.13-.12-3.17.01-2.51.33-3.02-.95-3-3.25.08-11.07.09-22.15-.01-33.23,0-2.25.66-3.02,2.84-2.94,4.37.13,8.75.02,13.13.02.53,6.23.15,12.48.24,18.71.08,5.75.03,5.76,5.79,5.77h60.69c18.87,0,37.74-.02,56.6.02,1.54,0,3.28-.52,4.59.76-.19,1.68-1.13,2.76-1.84,3.93-36.95,60.59-73.9,121.16-110.85,181.74-9.66,15.84-19.32,31.67-28.94,47.54-.82,1.35-2.23,2.57-1.64,4.49,2.07.6,4.04.34,5.99.34,54.64.01,109.29,0,163.94.03,2.1,0,4.21.13,6.33.19.03.32.16.58.38.81"/>
        <path class="cls-5" d="M995.57,128.4c5.01.04,10.02.08,15.02.13.07,2.17.19,4.36.19,6.53,0,83.58,0,167.16,0,250.73.01,6.65-.67,6.43,6.04,6.43,52.79,0,105.58,0,158.38,0,1.95,0,3.91.09,5.87.15.09.34.17.68.26,1.01-.03,3.58-.15,7.18-.07,10.76.05,1.93-.49,2.96-2.52,2.8-1.2-.08-2.42,0-3.63,0-58.09,0-116.18,0-174.29,0-1.81,0-3.61.04-5.43.07-.95-1.41-.61-3.02-.61-4.55-.01-89.87-.01-179.74,0-269.61,0-1.51-.45-3.15.77-4.45"/>
        <path class="cls-5" d="M946.98,393.63c.03,4.62.06,9.24.09,13.85-1.34,1.07-2.91.69-4.38.69-52.97.02-105.95.02-158.91,0-1.48,0-3.04.38-4.38-.67.03-2.03.09-4.06.09-6.08V135.86q0-5.88,5.81-5.83c3.32.03,6.63.05,9.95.07.06,2.18.16,4.37.16,6.54,0,83.72,0,167.44,0,251.16,0,5.6.02,5.6,5.44,5.62.6,0,1.21,0,1.81,0,46,0,92,0,137.99.02,2.1,0,4.21.13,6.32.2"/>
        <path class="cls-4" d="M265.18,384.22c4.17-2.32,8.46-4.33,12.98-5.8-.07.45.02,1.11-.23,1.29-9.3,6.98-18.43,14.34-28.82,19.5-7.4,3.67-14.97,6.93-22.97,9.37-11.5,3.5-23.1,5.16-34.98,5.15-5.74,0-11.41-1.16-17.11-1.66-8.2-.71-15.7-3.77-23.29-6.54-8.68-3.18-16.58-8.09-24.24-13.34-13.04-8.92-24.57-19.62-35.16-31.73,5.63-5.11,11.13-10.11,16.63-15.11,8.08,9.32,16.85,17.87,26.52,25.42,26.03,20.29,54.79,31.24,87.87,27.28,14.52-1.76,28.28-6.12,41.22-13.18,0,0-.1.12-.1.12.36-.73.93-.95,1.67-.77"/>
        <path class="cls-4" d="M172.92,170.53c-.3-.69.04-1.19.5-1.6,7.4-6.53,15.26-12.42,24.01-16.91.72.49,1.31.24,1.84-.36l-.15.05c1.54.13,2.97-.43,4.45-.76,4.27-.96,8.54-1.82,12.93-2.01,16.65-.74,31.41,4.86,45.02,14.27,11.12,7.69,20.45,17.41,29.19,27.78,1.28,1.53,2.3,3.38,4.69,3.04-4.88,5.34-10.78,9.43-16.19,14.1-1.3,1.11-2.12.8-3.07-.12-1.09-1.07-2.18-2.15-3.12-3.34-6.13-7.73-13.09-14.67-20.59-20.85-10.02-8.24-21.28-14.49-33.73-18-11.83-3.32-23.65-2.49-35.36,1.01-3.54,1.06-6.72,3.14-10.43,3.69"/>
        <path class="cls-5" d="M847.61,169.88c-.67-5.11-.43-10.21-.14-15.33,4.06.21,8.12.61,12.18.63,27.29.2,54.58.33,81.87.5,1.79.02,3.63-.28,5.38.45-.04,3.57-.06,7.16-.12,10.74-.07,3.91-.09,3.92-4.04,3.9-8.57-.06-17.15-.14-25.73-.2-18.35-.16-36.71-.3-55.06-.46-4.79-.04-9.57-.14-14.34-.23"/>
        <path class="cls-4" d="M659.48,169.46c-3.22-4.84-6.45-9.68-9.14-14.88,21.39-.05,42.79-.11,64.19-.13,5.12,0,10.24.08,15.36.14,0,3.43.04,6.86.02,10.29-.02,4.17-.04,4.22-3.93,4.27-6.48.07-12.96.07-19.45.1-15.68.07-31.36.14-47.04.21"/>
        <path class="cls-4" d="M439.06,169.54c-3.42-4.7-6.52-9.62-9.21-14.79,1.65-.08,3.29-.22,4.95-.22,20.26-.04,40.55-.07,60.82-.08,4.5,0,9.01.1,13.52.14,0,3.74.05,7.47,0,11.2-.03,3.25-.07,3.33-3.28,3.35-10.69.08-21.37.09-32.05.14-11.58.07-23.16.16-34.74.25"/>
        <path class="cls-5" d="M1143.1,345.66v-167.98c0-1.09.01-2.19,0-3.28-.04-5.56.61-5.02-4.8-5.07-25.2-.28-50.39-.53-75.58-.78-.32-5.01-.33-10.03-.02-15.04,30.17.32,60.35.63,90.52.95,6.44.06,6.07-.58,6.07,6.39,0,61.62,0,123.24,0,184.86-5.39.33-10.79.38-16.2-.05"/>
        <path class="cls-3" d="M1181.08,392.38c-1.96-.06-3.92-.15-5.87-.15-52.8,0-105.59,0-158.38,0-6.71,0-6.03.22-6.04-6.43,0-83.57,0-167.15,0-250.73,0-2.17-.12-4.36-.19-6.54.06-3.38.14-6.77.17-10.15.05-5.28-.4-4.83,4.48-4.8,2.98.02,5.96.07,8.93.1.07,2.03.21,4.05.21,6.08,0,86.6,0,173.2.02,259.81,0,6.47-.92,5.76,5.45,5.76,53.89.02,107.77,0,161.66.02,1.95,0,3.94-.25,5.86.32.01,6.45.01,6.42-6.02,6.46-3.12.02-6.24.14-9.35.21-.32.02-.63.04-.95.05"/>
        <path class="cls-3" d="M509.13,393.62c-2.11-.06-4.22-.19-6.32-.19-51.45-.02-102.9-.01-154.34-.03-1.79,0-3.62.27-5.43-.32-.56-1.83.84-2.9,1.6-4.12,18.81-30.33,37.65-60.63,56.48-90.92,8.08-12.99,16.02-26.08,24.31-38.89,2.31-3.57,2.2-6.1-.01-9.61-15.15-24.04-30.1-48.21-45.1-72.34-8.81-14.18-17.58-28.36-26.38-42.54-.98-1.56-2.1-3.03-3.16-4.55-.12-.72-.21-1.47-.99-1.81-2.41-4.06-4.83-8.12-7.52-12.64,5.72-.89,11.16-.06,16.53-.56,1.55.64,2.09,2.19,2.9,3.48,26.01,41.84,51.99,83.71,78.1,125.49,1.78,2.83,1.54,4.68-.14,7.36-27.06,43.38-54.02,86.82-80.99,130.26-.87,1.42-2.03,2.68-2.49,4.74,1.56.67,3.2.34,4.76.34,52.97.02,105.94.01,158.91.02,1.81,0,3.61.13,5.43.2,0,6.45,0,6.42-6.38,6.45-3.26.02-6.51.13-9.77.19"/>
        <path class="cls-3" d="M729.74,393.61c-1.96-.07-3.93-.18-5.88-.18-51.48-.02-102.96-.01-154.44-.03-1.89,0-3.84.29-5.87-.48.19-2.05,1.31-3.38,2.17-4.77,23-37.03,46.03-74.04,69.04-111.06,4-6.43,7.84-12.97,12.04-19.26,1.76-2.63,1.61-4.46-.04-7.08-12.67-20.14-25.17-40.4-37.74-60.62-11.75-18.9-23.51-37.79-35.28-56.68-.72-1.18-1.58-2.28-2.37-3.41-2.23-4.99-5.83-9.18-8.65-14.98h16.3c2.14.38,2.61,2.43,3.55,3.93,23.83,38.28,47.63,76.58,71.44,114.88,1.96,3.16,3.73,6.44,5.92,9.41,2.18,2.97,2.27,5.29.15,8.61-11.13,17.44-21.94,35.09-32.87,52.66-16.06,25.84-32.13,51.67-48.17,77.52-.77,1.28-1.94,2.38-2.04,4.41,1.54.57,3.18.28,4.75.28,52.96.02,105.93.01,158.88.02,1.66,0,3.32.09,4.97.13.13.31.26.6.39.9-.32,5.61-.32,5.59-5.68,5.61-3.15.01-6.29.07-9.44.11-.37.03-.75.05-1.13.07"/>
        <path class="cls-3" d="M1413.24,393.62c-2.12-.06-4.23-.19-6.33-.19-54.65-.02-109.3-.01-163.94-.03-1.95,0-3.92.26-5.99-.34-.59-1.92.82-3.14,1.64-4.49,9.62-15.86,19.28-31.7,28.94-47.54,36.95-60.57,73.9-121.15,110.85-181.74.71-1.17,1.65-2.25,1.84-3.93-1.31-1.28-3.05-.76-4.59-.76-18.86-.04-37.74-.02-56.6-.02h-60.69c-5.77-.01-5.72-.02-5.79-5.77-.08-6.23.29-12.48-.24-18.7.05-3.99.21-8,.15-12-.04-2.14.53-3.05,2.76-2.95,3.57.17,7.15.04,10.72.04.07,8.89.14,17.78.21,26.66,0,1.25.07,2.5,0,3.75-.11,1.87.81,2.46,2.47,2.34,1.05-.07,2.11,0,3.17,0,39.09,0,78.19,0,117.27.02,1.61,0,3.26-.37,5.46.61-48.3,79.18-96.5,158.22-144.91,237.55,2.05,1.02,3.84.63,5.54.63,56.3.02,112.6.01,168.9.02,1.81,0,3.61.13,5.42.2.01,6.45.01,6.43-6.1,6.45-2.88,0-5.74.07-8.6.11-.52.03-1.05.06-1.57.08"/>
        <path class="cls-3" d="M946.98,393.63c-2.11-.07-4.22-.2-6.32-.2-45.99-.02-91.99-.02-137.99-.02-.6,0-1.21,0-1.81,0-5.42-.02-5.44-.02-5.44-5.62,0-83.72,0-167.44,0-251.16,0-2.17-.11-4.35-.16-6.54.08-3.23.15-6.47.21-9.7.09-5.68-.8-5.3,4.91-5.27,2.84,0,5.67.03,8.51.04.07,2.02.22,4.05.22,6.07,0,86.57,0,173.14.01,259.72,0,6.53-.72,5.81,5.46,5.82,47.68,0,95.36,0,143.04.01,1.81,0,3.61.13,5.41.2v6.12c-5.02.7-9.9.02-14.73.43-.31.08-.62.16-.92.24l-.39-.15Z"/>
        <path class="cls-3" d="M172.28,121.02c-13.07,8.74-25.32,18.51-36.22,30.06-8.25,8.72-15.19,18.48-22.35,28.59,56.77,48.89,113.41,97.66,169.83,146.25.32,1.03-.12,1.49-.57,1.86-6.78,5.74-14.04,10.74-21.87,14.87-.62.32-1.28.89-2.06.31,2.42-3.05,5.92-4.72,8.74-7.27,2.65-2.38,2.74-2.5,0-4.87-11.22-9.71-22.48-19.36-33.73-29.04-26.33-22.66-52.64-45.32-78.97-67.99-17.16-14.77-34.31-29.56-51.46-44.34-.58-.5-1.17-.98-1.77-1.47-1.23-1.01-1.64-2.08-.54-3.56,4.33-5.8,8.61-11.64,12.89-17.46.87-1.18,2.49-1.99,1.71-3.92l-.05.02c1.11.45,1.61-.15,1.88-1.18.96-2.78,3.63-3.9,5.53-5.66,1.53-1.41,3.25-2.68,4.77-4.15,11.29-10.89,23.52-20.44,37.25-27.86,2.25-1.22,4.45-2.59,6.98-3.17"/>
        <path class="cls-3" d="M263.61,384.87c-12.94,7.06-26.7,11.42-41.22,13.18-33.07,3.97-61.84-6.98-87.87-27.28-9.67-7.55-18.44-16.1-26.52-25.42,8.49-8.73,17.82-16.48,26.53-24.96,2.63-2.56,3.09.66,4.38,1.7-4.77,5.21-10.17,9.74-15.29,14.57-1.57,1.49-1.77,2.42-.23,4.11,18.03,19.76,38.29,36.15,63.5,45.08,23.75,8.42,47.6,8.33,71.48.48,1.72-.56,3.37-1.41,5.22-1.44"/>
        <path class="cls-3" d="M295.41,194.03c-2.39.35-3.41-1.51-4.69-3.04-8.74-10.37-18.07-20.09-29.19-27.78-13.62-9.41-28.37-15.01-45.02-14.27-4.39.19-8.67,1.05-12.93,2.01-1.48.33-2.91.89-4.45.76.05-.76.66-.95,1.19-1.2,20.7-10.26,41.59-11.47,62.66-1.2,13.12,6.41,24.07,15.82,34.05,26.55,2.18,2.35,4.22,4.84,6.36,7.25,1.05,1.18,1.97,2.37,1.57,4.14-2.97.36-3.98,3.75-6.64,4.6-1.49.03-2.51.75-3.04,2.21l.12-.03Z"/>
        <path class="cls-3" d="M946.9,156.13c-1.75-.73-3.59-.43-5.38-.45-27.29-.17-54.58-.29-81.87-.5-4.06-.03-8.13-.42-12.18-.63-.06-.78-.19-1.55-.19-2.32,0-4.12,0-4.17,3.91-4.14,36.66.33,73.32.68,109.96,1.01.6.01,1.2.14,1.79.21-.04,6.69-.04,6.65-6.71,6.62-3.11-.02-6.24-.48-9.33.2"/>
        <path class="cls-3" d="M729.89,154.58c-5.12-.06-10.24-.14-15.36-.14-21.4.03-42.79.08-64.19.13-1.54-1.71-2.63-3.74-3.67-5.66.32-1.18,1.15-1.03,1.86-1.03,31.85-.09,63.71-.17,95.56-.23.59,0,1.19.18,1.79.26,0,6.4,0,6.38-6.15,6.42-3.28.03-6.56.16-9.84.25"/>
        <path class="cls-3" d="M509.13,154.59c-4.5-.05-9.01-.14-13.51-.14-20.27,0-40.56.04-60.82.08-1.65,0-3.3.15-4.95.22-1.73-1.76-2.71-4.03-3.95-5.97.76-1.24,1.75-.87,2.56-.87,31.24-.1,62.47-.18,93.71-.25,1.04,0,2.09.18,3.14.26-.11,7.39,1.03,6.28-6.23,6.41-3.31.06-6.63.17-9.93.26"/>
        <path class="cls-3" d="M1159.3,345.71c0-61.62,0-123.23,0-184.85,0-6.98.37-6.33-6.07-6.39-30.17-.31-60.35-.63-90.52-.95-.5-8.42-.59-6.72,6.1-6.67,33.06.25,66.12.6,99.19.91,5.51.06,4.89-.29,4.89,5.04,0,62.74,0,125.48,0,188.22,0,.47,0,.94,0,1.4-.09,3.41-.09,3.52-3.18,3.51-3.46,0-6.94.3-10.4-.23"/>
      </g>
    </g>
  </g>
</svg>