<?xml version="1.0" encoding="UTF-8"?>
<svg id="Layer_2" data-name="Layer 2" xmlns="http://www.w3.org/2000/svg" viewBox="0 0 811.13 227.66">
  <defs>
    <style>
      .cls-1 {
        fill: #fff;
      }

      .cls-2 {
        fill: #ce2e2b;
      }

      .cls-3 {
        fill: #cf2e2b;
      }
    </style>
  </defs>
  <g id="Layer_1-2" data-name="Layer 1">
    <g>
      <path class="cls-3" d="M641.21,101.64c1.38-13.62,21.56-15.48,25.26-2.22.62,2.24.32,4.08.67,6.05.12.68.95,1.69.95,2.53,1.26-1.09,2.45-2.28,3.6-3.47,3.34-3.46,9.58-11.52,13.68-13.2,5.81-2.4,13.18-.22,16.27,5.33.73,1.31.99,2.59,1.61,3.91,1.36-5.91,6.39-9.16,12.24-9.6,6.94-.51,18-.49,24.97-.01,5.23.36,9.86,3.35,11.03,8.65,1.67-5.93,6.66-8.31,12.47-8.65,6.14-.36,14.25-.29,20.42,0,14.7.69,22.57,6.6,25.52,21.04,1.21,5.9,2.18,11.5-.41,17.29-1.23,2.75-3.41,4.56-4.82,7.12,2.84,3.47,5.12,6.41,5.49,11.08.13,1.66-.03,1.52.37,3.23,1.89,8.2-3.9,14.91-12.38,13.58-4.05-.64-8.49-5.81-11.02-8.9-1.64-2-3.68-5.89-5.29-7.43-1.46-1.4-2.95-.31-3.44,1.36-.64,2.19-.31,4.85-.95,7.21-2.14,7.85-11.49,10.51-17.69,5.35-1.89-1.57-2.91-4.02-5.15-5.16-.93-.03-4.65,4.43-6,5.28-1.84,1.16-4.56,1.76-6.72,1.92-6.08.43-15.52.42-21.61.01-2.44-.16-4.99-.78-7.08-2.04-1.61-.97-3.6-3.45-5.39-3.51-2.21-.08-3.61,2.42-5.28,3.62-2.74,1.97-6.23,2.86-9.58,2.14-7.01-1.52-13.86-13.88-19.09-18.83-1.05-1-3.25-2.15-4.5-1-1.44,1.33-.93,8.06-1.3,10.34-1.14,7.05-7.75,11.51-14.68,8.97-2.95-1.08-5.38-4.64-8.74-3.1-4.33,1.98-4.55,4.25-10.53,3.89-7.55-.45-8.48-8.07-13.73-9.31-2.54-.6-12.66-.6-15.07.17-3.42,1.08-5.19,5.59-8.28,7.56-2.4,1.53-5.35,1.9-8.16,1.47-2.86-.44-4.91-2.73-7.78-2.79-2.84-.06-5.06,2.05-7.75,2.6-4,.82-8.21-.54-10.86-3.67-1.4-1.65-1.81-2.1-3.37-3.59-3.85-3.69-4.06-7.49-4.56-12.6-.79.62-1.24,1.9-1.6,2.84-2.47,6.35-3.27,16.44-11.78,17.5-3.08.38-5.98-.87-7.97-3.19-1.26-1.46-1.75-2-3.13-3.35-4.21-4.1-4.86-9.71-6.84-15.01-.65,0-1.2,1.71-1.35,2.25-1.24,4.24-.67,8.71-2.71,12.89-3.45,7.05-12.82,8.26-18.01,2.39-1.24-1.4-1.75-2.05-3.11-3.37-3.34-3.25-4.79-6.06-4.44-10.91,2.87-14.04,4.53-28.39,7.51-42.41,1.24-5.82,3.47-10.01,9.29-12.31,9.11-3.6,18.52-.05,22.01,9.18,1.76,4.65,2.93,9.92,4.38,14.7l.5-.34c2.35-5.79,3.02-14.1,6.94-18.98,7.87-9.78,24.57-7.13,28.19,5.15,2.59,8.77,3.79,20.03,5.43,29.13.3,1.65.63,3.3.93,4.95.53-.39.8-1.32,1.07-1.93,4.34-10,7.8-20.79,12.33-30.63,7.67-16.7,28.75-16.4,35.84.24l13.16,32.32v-33.72ZM536.81,123.6c0-.32-.01-.65-.11-.96-2.25-6.87-3.98-15.15-6.67-21.66-5.09-12.33-23.35-11.08-26.47,2.21-3.25,13.86-4.48,28.87-7.56,42.84-1.63,13.06,17.09,15.85,20.54,3.74l2.99-25.45c.41.07.42.48.54.77,3.46,8.24,4.99,18.48,8.53,26.75,1.83,4.27,4.65,6.56,9.49,6.05,5.66-.6,7.04-4.78,8.61-9.39,2.69-7.89,4.92-15.98,7.38-23.94.34-.37.43.03.48.36,1.08,8.59,1.93,17.2,3.29,25.75,2.74,9.07,16.73,9.07,19.87.29,2.8,6.95,12.56,9.21,17.88,3.72,1.93-1.99,2.6-4.67,3.76-7.09h21.52c1.04,2.53,1.67,5.16,3.66,7.18,6.31,6.41,18.8,1.86,18.09-7.53-.11-1.44-.73-3.19-1.19-4.57-4.51-13.39-11.35-26.67-16.12-40.04-6.7-13.44-24.32-13.09-30.8.57-5.97,12.59-10.09,26.79-15.91,39.53l-.54,2.22c-.37,0-.34-.85-.4-1.16-2.68-13.82-4.61-27.8-7.35-41.61-4.1-12.91-21.94-13.05-26.68-.18-2.45,6.65-4.3,14.37-6.37,21.24-.1.34.15.42-.48.35ZM664.73,115.2v-12.84c0-2.01-1.31-4.75-2.63-6.25-5.99-6.76-17.86-3.12-18.5,5.99-1.04,14.93.81,31.05,0,46.1,1.1,9.2,12.76,12.91,18.72,5.51.71-.88,2.17-3.5,2.17-4.55v-18.6l20.51,24.25c9.2,8.12,23.58-2.6,16.07-13.43l-16.9-18.38,12.6-11.63c12.68-11.3-5.62-26.97-15.73-13.57l-16.31,17.41ZM726.17,116.4v-4.92l.36-.36h16.08c1.26,0,3.98-2.1,4.8-3.12,4.8-5.88.99-14.13-6.47-14.65-8.97-.63-19.02.24-28.02.32-4.02,1.03-7.3,4.47-7.64,8.68v45.37c.71,4.52,4.29,8.14,8.77,9,8.85-.57,18.64.76,27.37,0,6.96-.6,10.97-8.68,6.12-14.29-.98-1.13-4.21-3.23-5.65-3.23h-15.36l-.36-.36v-4.8l.36-.36h13.68c.34,0,2.31-.86,2.75-1.09,5.53-2.98,6.57-9.69,1.58-13.79-1.15-.95-3.83-2.39-5.29-2.39h-13.08ZM774.17,132.96c5.51,7.08,9.99,14.95,15.73,21.83,8.83,8.14,22.35-1.96,16.39-12.31-2.16-3.74-5.98-7.19-8.32-10.89-.07-.43,2.89-2.43,3.46-2.95,5.98-5.4,7.42-12.71,5.27-20.41-2.77-9.91-11.32-14.35-21.11-14.89-6.49-.36-16.41-.51-22.81.01-5.18.42-8.78,3.57-9.45,8.79l.04,46.94c1.38,9.28,14.31,11.89,19.33,4.1.4-.62,1.49-2.69,1.49-3.31v-16.92ZM750.89,128.88v-14.16l-4.08,2.76c1.77,1.85,3.29,4.85,3.36,7.45.04,1.36-.85,2.87.71,3.95ZM702.89,139.92v-23.64l-.48-.24-11.01,11.08,11.49,12.8ZM750.89,134.4c-.63-.13-.37.13-.5.35-.94,1.56-1.91,2.92-3.33,4.09l2.04,1.8,1.8,2.4v-8.64Z"/>
      <path class="cls-3" d="M325.28,203.37c-30.47-26.34-44.4-69.63-32.61-108.76,18.15-60.25,87.32-88.97,143.11-58.98,48.64,26.15,69.27,90.6,42.52,139.73-30.39,55.82-104.65,69.82-153.01,28.01ZM383.4,29.11c-67.17,3.31-109.25,75.07-79.72,135.74,30.89,63.44,119.05,71.56,160.84,14.51,47.2-64.43-1.71-154.15-81.13-150.25Z"/>
      <path class="cls-2" d="M165.29,141.84c-1.2.49-2.28,1.27-3.55,1.61-4.02,1.09-8.72-.59-10.06,4.82-1.41,5.68,1.41,11.41-4.26,16.14-4.64,3.87-7.73,1.55-11.96-.77-3.81-2.08-4.37.06-7.44,1.52-4.35,2.07-7.93.88-10.96-2.57-.45-.51-.72-1.37-1.04-1.72-.42-.45-1.73-1.06-2.33-1.63s-1.21-1.73-1.78-2.06c-1.14-.65-8-.61-9.61-.46-6.33.59-6.18,6.16-10.71,8.49-4.1,2.11-7.97.68-10.77-2.62-.48-.57-.66-1.35-1.08-1.8-.62-.66-2.25-1.47-3-2.28-3.85-4.11-3.45-9.56-2.09-14.57,3.62-13.39,9.54-26.76,13.37-40.15,6.39-15.84,24.31-14.9,29.77.72l9.96,30.13.11-28.69c.26-6.71,3.73-12.51,10.92-13.08,5.4-.42,15.77-.5,21.1.04,3.3.33,6.1,2.15,7.71,5.01,1.78-2.97,4.99-4.68,8.4-5.04,6.86.47,14.57-.65,21.33.03,3.19.32,5.66,1.93,7.47,4.53,6.64-9.13,18.12-5.58,19.97,5.24.52,3.04.69,6.02,1.52,9.04l.02,26.74c4.83.99,10.55-1.19,14.61,2.43v-37.08c0-5.3,5.04-10.37,10.23-10.89,6.89-.69,14.79.43,21.78,0,4.73.41,8.4,4.72,8.97,9.27.27,2.12.22,3.15.67,5.33,1.1,5.26-.17,9.15-4.92,11.89,1.6,1.62,2.66,4.23,2.87,6.48s.03,2.5.61,4.67c1.03,3.9-.15,7.66-3.24,10.2,2.45,2.09,4.06,5.16,4.31,8.4.14,1.74-.12,2.03.32,3.76,1.95,7.71-2.09,12.36-9.8,12.91-4.5.32-15.39.49-19.45-.71-2.32-.68-4.74-3.16-6.95-3.15-2,.01-3.94,2.18-5.75,2.91-3.57,1.44-17.08,1.27-21.38.96-2.82-.2-5.95-1.02-8.01-3.03-.86-.84-1.41-2.25-2.02-2.9-.5-.54-1.88-1.15-2.58-1.86-4.37-4.44-3.36-10.57-3.95-16.21-.98.52-2.14,1.32-3.2,1.6-2.46.66-5.39.14-7.65,1.23-4.19,2.02-2.51,9.23-3.22,13.1-1.49,8.15-9.94,11.83-15.81,5.06-1.02-1.18-1.24-1.49-2.41-2.63-2.86-2.77-5.04-6.12-5.04-10.32v-8.04ZM222.65,141.12v-36.84c0-3.5-2.71-8.06-6.08-9.28-6.04-2.21-11.31,3.5-11.45,9.28.7,14.41-.9,29.63,0,43.94.3,4.84,2.41,9.48,7.6,10.4,7.49-.46,15.88.69,23.26.04,7.14-.64,8.47-12.27,3.07-16.29-.38-.28-2.02-1.24-2.36-1.24h-14.04ZM111.75,149.55c.92,5.81,4.99,12.01,11.71,9.62,5.63-2.01,6.69-7.8,5.52-13.05-3-13.48-10.13-27.81-13.6-41.36-4.59-12.65-19.14-13.79-24.84-1.07-4.05,13.59-10.05,27.4-13.69,41.03-1.29,4.83-1.58,10.16,3.02,13.3,7.15,4.89,12.78-1.63,13.93-8.47h17.94ZM147.77,113.04h13.08c.74,0,3.26-1.79,3.82-2.42,4.42-4.9,2.19-14.75-4.77-15.35-7.08-.61-15.09.42-22.27.07-4.82.98-7.1,5.27-7.39,9.89-.92,14.62.72,30.19,0,44.9.18,5.78,5.36,11.5,11.45,9.28,3.36-1.23,6.08-5.79,6.08-9.28v-13.32h11.16c.59,0,2.21-.94,2.74-1.34,4.63-3.55,4.15-11.93-.62-15.18-.34-.23-1.85-1-2.12-1h-11.16v-6.24ZM185.21,150.12c.36-4.27-.27-9,0-13.32h11.16c.29,0,1.52-.57,1.87-.77,4.75-2.61,5.25-9.96,2.08-13.99-.68-.87-2.86-2.77-3.95-2.77h-11.16v-6.24h13.08c.18,0,1.82-.82,2.12-1,6.55-4,4.72-16.09-3.07-16.77-7.08-.61-15.09.42-22.27.07-4.81.96-7.09,5.27-7.39,9.89-.95,14.59.74,30.2,0,44.9.84,12.63,16.42,13.1,17.53,0ZM260.57,113.04h13.08c.19,0,1.98-.89,2.26-1.1,5.64-3.95,4.72-14.47-2.13-16.56-7.28.22-15.26-.66-22.46-.12-4.57.34-7.52,4.16-8.03,8.53v45.84c.48,4.12,3.29,8.24,7.55,8.99,7.03-.49,14.92.64,21.85,0,9.91-.91,8.82-17.77-.73-17.77h-11.4v-5.28h11.16c.69,0,3.12-1.51,3.7-2.06,4.16-3.94,3.46-11.12-1.44-14.12-.47-.29-2.06-1.1-2.5-1.1h-10.92v-5.28Z"/>
      <path class="cls-2" d="M25.62,118.08c.44-.08.4-.49.51-.81,2.14-6.31,2.99-20.4,8.77-23.87,7.17-4.3,12.56,1.27,14.6,7.88,1.68,5.47,2.62,11.24,3.96,16.8.44-.08.4-.49.51-.81,2.42-7.16,2.9-21.69,10.94-24.58,8.01-2.87,14.28,4.28,14.72,11.82.11,1.87-.07,1.37.41,3.19,1.04,3.93.29,6.82-.49,10.67-2.25,11.2-5.11,24.33-8.16,35.28-1.99,7.15-5.8,13.7-14.4,12.37-4.23-.66-5.3-3.46-7.63-6.05-.58-.64-1.73-1.23-2.51-2.05-2.84-3.03-4.08-7.06-4.92-11.04-.53-.49-1.67,2.09-1.8,2.4-1.57,3.86-1.78,7.93-4.25,11.59-4.55,6.76-12.62,7.06-17.95,1-.46-.53-.6-1.21-.98-1.66-.61-.71-1.94-1.41-2.75-2.29-3.35-3.71-4.13-8.76-5.28-13.44-3.18-12.89-5.82-25.92-8.93-38.83.07-14.89,16.92-19.79,21.75-3.51,1.55,5.22,2.58,10.65,3.86,15.94ZM25.62,128.16c.02-.41-.02-.81-.11-1.21-1.78-7.91-3.8-17.35-6.2-25-4.13-13.17-17.93-7.55-16.91,4.19,3.8,13.9,5.96,28.65,9.85,42.47,1.95,6.93,5.22,11.68,13.22,10.72,3.91-.47,7.44-4.89,8.61-8.43l5.57-20.83,6.39,22.41c3.72,8.45,14.49,9.72,19.21,1.28,1.12-2,1.66-4.2,2.24-6.4,3.67-13.84,6.12-28.04,9.69-41.91-.11-11.83-13.08-16.28-17.13-3.22-2.5,8.06-3.69,16.97-6.14,25.06-.08.27-.09.89-.46.86-1.74-7.42-3.31-14.9-5.21-22.28-1.2-4.68-2.62-12.06-9.05-11.53-4.08.33-5.87,3.71-6.93,7.23-2.51,8.26-3.55,17.62-6.14,25.78-.1.32-.08.73-.51.8Z"/>
      <path class="cls-3" d="M715.13,178.92c.66-4.69,7.08-6.69,10.2-3.04.54-.37,1.1-.87,1.71-1.13,1.77-.77,9.05-.71,11.19-.45,3.27.41,6.03,2.27,7.5,5.21,4.86-5.94,13.09-7.08,19.72-3.4.83.46,1.45,1.2,2.35,1.49.89-1.96,2.66-3.15,4.81-3.36,1.97-.2,9.55-.24,11.08.43.37.16,1.23.94,1.39.94.09,0,1.23-.79,1.64-.93,2.28-.83,10.31-.63,12.75.06,6.72,1.91,8.45,10.25,4.24,15.43,5.58,4.84.17,13.6-6.43,10.04-1.32-.71-1.72-1.84-2.83-2.69-1.22,3.08-4.85,4.23-7.8,3-.54-.22-1.41-1.08-1.8-1.08-.36,0-.93.6-1.39.77-1.9.67-8.88.66-11.06.41-2.38-.28-3.75-1.82-4.83-3.81-5.56,5.92-15.56,5.09-21.24-.24-1.27,5.69-8.81,5.83-11.16.72-1.09,2.9-4.15,4.32-7.08,3.49-2.35-.67-3.09-1.96-4.2-3.96-5.16,5.55-15.84,5.49-20.64-.49-1.33,1.17-2.26,2.61-4.03,3.41-2.56,1.15-10.32,1.29-13.14.81-2.83-.49-4.46-2.83-4.76-5.56-.39-3.55-.35-11.25-.02-14.85.27-2.98,2.07-5.49,5.18-5.86,3.79-.45,9.78-.28,12.82,2.25l1.67,1.8c1.12-4.13,5.99-5.69,9.37-3,.88.7,2.15,2.76,2.15,3.85v10.32c0,.68,2.31.95,2.64,0,.33-3.27-.45-7.4,0-10.56ZM705.47,176.46c-1.32.27-2.23,1.68-2.35,2.93-.26,2.75-.28,10.99.61,13.33,2.94,7.63,16.59,7.76,19.92.48,1.09-2.39,1.18-11.26.85-14.05-.45-3.72-6.53-3.73-6.97,0-.35,2.93.82,10-.84,12.12-1.53,1.94-5.38,1.58-6.29-.89-.94-2.59.04-7.96-.3-10.98-.27-2.35-2.41-3.4-4.62-2.95ZM760.73,191.28c-4.29,3.28-10.04-.66-7.97-5.93,1.26-3.22,4.55-3.24,7.37-2.24,1.95.69,4.77,2.94,6.46.23,1.58-2.52-1.08-4.74-3.14-5.72-8.33-3.97-18.93,1.3-18.1,11.14.84,9.97,15.53,13.32,21.23,5.62,1.59-2.15,3.18-8.31-.34-9.23-1.01-.26-6.92-.26-7.93,0-1.15.3-2.11,1.46-2.17,2.64-.15,2.8,2.1,3.77,4.58,3.49ZM699.07,186.94c2.11-3.96.83-8.54-3.63-9.92-1.75-.55-7.08-.6-8.99-.38-1.34.16-2.6,1.68-2.76,3-.41,3.39-.31,11.64,0,15.14.14,1.55,1.09,3.28,2.76,3.48,2.11.25,7.73.24,9.85,0,5.4-.61,8.12-8.62,2.78-11.31ZM733.13,190.56c2.72,2.13,4.99,10.54,9.59,7.55,3.69-2.4.29-6.16-1.66-8.39,5.3-3.31,3.75-12.16-2.59-13.02-1.91-.26-7.92-.33-9.76-.05-1.39.21-2.33,1.42-2.51,2.77-.69,5.03.42,11.54.03,16.72.76,2.22,3.21,3.28,5.31,2.06.34-.2,1.6-1.47,1.6-1.76v-5.88ZM776.57,190.56h4.44c1.05,0,2.58-1.41,2.75-2.54s-.92-3.46-2.03-3.46h-4.8c-.54-.43-.56-1.46,0-1.92h5.52c.85,0,2.04-2.12,2.04-3,0-1.07-1.01-2.7-2.1-2.95-1.02-.23-9.43-.23-10.46,0-1.43.32-2.21,1.84-2.34,3.18-.46,4.87.36,10.43,0,15.37.18,1.49,1.52,2.82,3,3,1.98.24,6.88.2,8.9,0,2.52-.24,4-2.89,2.27-4.93-.22-.26-1.36-1.08-1.56-1.08h-5.64v-1.68ZM792.65,195.96c.27-1.54-.2-3.78,0-5.4,2.53,2.35,5.09,10.77,9.68,7.4,3.61-2.65-.39-5.97-1.78-8.47,5.42-3.16,3.47-12.08-2.77-12.83-2.07-.25-7.53-.28-9.58-.03-2.09.25-2.6,2.15-2.75,3.97-.21,2.53-.35,13.89.3,15.77,1.16,3.35,6.31,2.88,6.9-.42Z"/>
      <path class="cls-3" d="M595.13,192.96l-3.36.24c.54,4.83-2.83,9.1-7.92,7.56-.56-.17-1.27-.82-1.8-.82-.47,0-1.13.57-1.67.72-2.98.82-5.9-.08-7.13-3.09h-3.88c-2.55,4.59-8.89,4.65-11.08-.28-2.5,5.18-10.45,4.65-12.36-.72l-.49.15c-2.89,5.97-10.59,5.57-12.95-.74-1.84-4.91-2.64-10.84-4.29-15.88.19-7.77,10.79-8.34,11.86-.57,1.01-7.46,10.28-7.44,11.28,0,1.2-7.84,11.67-7.16,12,.72,2.12-7.31,11.51-8.62,15.04-1.6l1.64,4v-3.96c0-1.32,2.05-3.41,3.27-3.93,1.75-.76,9.09-.72,11.25-.5,1.1.11,2.73,1.13,2.88,1.13.13,0,.78-.58,1.15-.7,2.07-.68,8.74-.67,11.08-.43.89.09,2.53.93,2.84.9.42-.04,1.1-.63,1.6-.78,2.78-.83,5.93.11,7.24,2.84.13.26.68,1.82.68,1.96v10.68h3.6v-10.92c0-2.18,2.88-4.41,4.95-4.65,2.21-.26,7.58-.26,9.79,0,4.78.57,6.2,6.35,2.82,9.49,1.6,2.46,1.6,4.91,0,7.37,2.84,2.47,2.45,7.19-1.02,8.89-1.82.89-8.66.82-10.91.63-1.14-.1-2.77-1-3.33-.97-.63.04-1.79.84-2.9.96-2.28.23-7.54.24-9.78-.06-3.91-.53-5.36-4.01-4.98-7.62l-3.36.24c.57,4.66-2.73,9.09-7.73,7.61-1.53-.45-4.03-2.72-4.03-4.37v-3.48ZM539.94,187.68c-.82-2.74-1.35-6.16-2.39-8.77-1.03-2.59-3.57-3.73-5.86-1.75-1.22,1.06-1.22,2.07-1.01,3.58.45,3.23,2.83,11.56,4.04,14.68.93,2.41,2.77,3.39,5.34,3.07,3.89-.49,4.08-6.19,5.39-9.01.11-.24.14-.56.49-.59.48,1.92,1.06,4.41,1.81,6.23,1.86,4.52,7.22,4.75,9,.13s2.31-9.93,4.01-14.47c.9-4.42-4.91-6.52-6.78-2.22l-2.76,9.12c-.79-2.74-1.35-5.94-2.33-8.59-1.36-3.66-4.78-4.05-6.25-.36l-2.69,8.94ZM567.56,195.15h7.02c.69.8.63,1.81,1.48,2.61,1.58,1.51,4.17,1.18,5.4-.6.73-1.05.57-2.21.31-3.43-.58-2.69-4.06-11.17-5.39-13.81-2.66-5.31-8.2-4.6-10.64.57-2.03,4.31-3.34,9.28-5.3,13.66-1.01,5.34,6.27,6.32,7.12,1ZM619.61,192.24v-13.32c0-.3-.99-1.54-1.32-1.8-1.84-1.45-4.71-.75-5.53,1.43.18,5.31-.63,11.48-.13,16.7.14,1.43,1.05,2.74,2.55,2.97,3.1.48,7.45-.24,10.68-.09,1.74-.71,2.23-3.2,1.3-4.68-.17-.27-1.2-1.21-1.43-1.21h-6.12ZM589.37,182.64h5.64c.25,0,1.48-1.16,1.67-1.45,1.02-1.63.25-3.79-1.49-4.49h-10.69c-1.48.65-2.2,1.84-2.34,3.41-.3,3.42-.42,12.08.03,15.35.61,4.46,6.68,4.36,7.18.02.17-1.47-.12-3.18,0-4.68,2.46-.05,6.78.81,6.97-2.77.06-1.04-1.05-3.23-2.05-3.23h-4.92v-2.16ZM604.49,190.8h4.92c.92,0,2.06-2.01,2.06-3s-1.14-3-2.06-3h-4.92v-2.16h5.64c.08,0,1.17-.73,1.32-.9,1.32-1.47.96-4.18-.95-4.99-3.15.14-7.41-.56-10.44-.09-1.87.29-2.64,1.99-2.78,3.7-.32,3.74-.33,10.93,0,14.66.45,5.03,6.63,4.78,7.19.69.21-1.53-.11-3.34.02-4.9ZM634.97,182.64h5.64c.17,0,1.23-.73,1.43-.97,1.24-1.51.61-4.64-1.44-5.02-1.25-.23-9.03-.21-10.25.04-1.4.29-2.22,1.62-2.35,2.93-.49,5,.39,10.77,0,15.86.04,1.04,1.57,2.59,2.54,2.74,1.34.21,9.01.21,10.19-.1,1.83-.47,2.51-2.89,1.54-4.44-.18-.29-1.42-1.45-1.67-1.45h-5.64v-1.68h4.2c1.6,0,3.26-2.06,2.95-3.66-.15-.76-1.51-2.34-2.23-2.34h-4.92v-1.92Z"/>
      <path class="cls-3" d="M672.17,185.03c2.82.78,4.4,3.44,4.02,6.31-.1.73-.62,1.63-.64,2.24-.03.66.28,1.49.23,2.39-.18,3.38-2.75,5.51-6.1,5.12-1.1-.13-2.65-1.2-3.12-1.18-.54.03-2.13.75-2.96.9-7.88,1.42-16.38-4.89-12.75-13.23.35-.81,1.71-2.24,1.85-2.72.23-.79-.46-1.92-.46-2.82,0-3.8,3.21-6.86,6.69-7.73,7.45-1.87,15.75,2,13.25,10.72ZM667.13,187.44c.98-1.07,2.74-1.94,3.06-3.53,1.21-5.94-3.87-8.14-8.91-7.71-5.02.42-8.61,4.67-5.43,9.32-4.88,2.65-4.4,9.64.51,12.1,3.56,1.79,7.49,1.29,10.9-.58.83.56.91,1.13,2.03,1.55,3.79,1.42,5.32-3.16,3.35-5.87,2.61-1.41,1.06-5.17-1.61-5.71-1.64-.33-2.47.7-3.91.42Z"/>
      <path class="cls-3" d="M325.38,33.12l-6.61-11.04.37,15.23c-.3.14-.62.5-.91.57-.63.15-5.02-2.05-6.06-2.47-2.69-1.08-5.4-2.1-8.15-3.01l7.83,9.83c.32.53-1.52,1.93-1.71,1.91l-9.96-12.1,2.89-2.42.53-.07,13.14,5.24c-.24-2.35-.16-4.72-.24-7.08-.02-.46-.24-.92-.25-1.43-.03-1.39-.22-4.33,0-5.53.13-.71,2.69-1.94,3.46-2.26l7.79,13.1c.09.54-1.99,1.61-2.12,1.51Z"/>
      <path class="cls-3" d="M364.95,2.19l2.66,15.34-2.4.24-2.64-12.48-4.25,13.86c-.32.68-1.32.65-1.89.31-.86-.5-2.98-3.08-3.94-3.98-2.18-2.01-4.46-3.96-6.72-5.88l4.08,12.36-2.38.58-5.04-14.59,3.28-1.19c.73-.07,4.06,2.98,4.86,3.68,2.14,1.88,4.09,4.01,6.23,5.88l4.2-13.44,3.94-.69Z"/>
      <path class="cls-3" d="M295.32,38.94c3.27-.45,6.35.45,7.78,3.61,4.2,9.29-12.13,23.13-18.38,14.78-4.74-6.33,3.86-17.48,10.6-18.4ZM294.83,41.34c-5.78.79-12.79,10.77-6.78,15.06,6.6,4.72,18.34-8.91,11.04-14.16-1.33-.96-2.65-1.12-4.26-.9Z"/>
      <path class="cls-3" d="M392.09,15.6l.48-15.6c5.48.32,13.28-.4,17.04,4.45,2.69,3.47,1.19,8.39-2.62,10.32-4.68,2.37-9.92.64-14.89.83ZM394.49,13.92c4.32.26,12.73,1.57,13.62-4.5,1.06-7.26-8.07-7.62-13.14-7.5l-.48,12Z"/>
      <path class="cls-3" d="M289.61,66.49l-1.56,2.39-6.12-4.07c-1.48,2.74-3.32,5.28-4.85,8-.27.48-1.64,2.66-1.38,3.02l5.88,3.14c.42.65-.85,1.87-.86,2.64l-13.9-7.34,1.33-2.52,5.85,2.8,6.49-10.58c0-.8-4.63-3.1-5.26-4.07l1.78-2.24,12.6,8.84Z"/>
      <path class="cls-3" d="M504.18,78.24l-5.52-9.74c-.73.28-4.59,2.49-4.47,3.03l5.88,10.43-1.66.73-7.18-12.71,12.79-8.53c.79.14,7.39,12.07,8.05,13.76l-1.17.76-.49-.25-6.36-10.91c-.56.72-3.71,2.03-3.73,2.73l5.5,9.85-1.65.84Z"/>
      <path class="cls-3" d="M468.12,24.29c.23.39-.33,7.14-.43,8.23-.24,2.54-.58,5.37-1,7.88-.06.38-.22,2.09-.56,2.08l-2-1.85c-.18-1.08.83-3.53.32-4.38-.12-.2-3.26-2.33-3.78-2.69-1.52-1.05-3.14-1.95-4.65-3.02l-3.84,2.06-2.48-1.16c-.22-.29,4.36-2.77,4.79-3,3.59-1.93,7.33-3.63,11.05-5.29.4-.5,2.49.98,2.59,1.14ZM465.77,25.68l-7.77,3.58-.15.49,6.84,4.56c.24-.17.31-.31.36-.6.44-2.57.32-5.44.72-8.04Z"/>
      <path class="cls-3" d="M328.01,15.84l2.06,4.34,9.69-4.1.48,1.68-9.02,4.08,2.08,4.79c.44.32,8.51-3.88,9.97-4.28.48-.13.55,1.2.81,1.52l-12.22,5.4-6.96-13.88,12.83-5.77.83,1.56-10.55,4.68Z"/>
      <path class="cls-3" d="M389.69,15.6l-2.64-.12-2.32-3.68-10.12.72-1.54,3.98-2.82.54c.96-2.55,1.97-5.1,3.08-7.6.55-1.25,3.91-8.55,4.53-8.91,2.22-1.29,3.06.59,4.11,2.04,2.93,4.03,5.47,8.59,7.72,13.03ZM383.69,10.08l-4.21-6.95-.58-.25-3.36,7.92,8.16-.72Z"/>
      <polygon class="cls-3" points="430.25 6 429.64 7.69 418.84 4.86 417.53 9.6 427.37 12.01 427.12 13.67 417.4 11.34 416.09 16.8 426.65 19.44 426.17 21.12 413.46 17.99 416.34 2.65 430.25 6"/>
      <path class="cls-3" d="M487.37,42.72l-2.6-.76c.87-3.15-7.49-8.83-7.91-4.34-.29,3.03,7.85,9.07,3.43,12.54-3.92,3.07-11.55-3.79-11.88-8.04l2.42.22c.25,2.85,3.84,6.71,6.82,6.13.5-.1,1.23-.8,1.32-1.32.53-2.88-4.82-6.87-4.8-10.31,0-1.27,1.17-2.8,2.39-3.12,4.16-1.1,10.65,4.79,10.81,9.01Z"/>
      <path class="cls-3" d="M500.58,59.52l-4.68-6.43-10.8,8.59c-.33-.51-1.84-1.82-1.53-2.37l10.53-8.44-4.93-5.76c-.38-.72.75-1.85,1.46-1.21,3.98,4.55,7.85,9.19,11.27,14.19.28.68-.86,1.05-1.32,1.43Z"/>
      <path class="cls-3" d="M456.17,18.96l-6.94-3.34-5.79,12.22-2.36-1.07,5.75-12.46-6.71-3.14.45-1.32c.67-.61,14.64,6.38,16.29,7.55l-.7,1.56Z"/>
      <path class="cls-1" d="M536.81,123.6c.63.07.38-.01.48-.35,2.06-6.87,3.92-14.59,6.37-21.24,4.74-12.87,22.59-12.73,26.68.18,2.74,13.81,4.67,27.79,7.35,41.61.06.31.03,1.16.4,1.16l.54-2.22c5.82-12.75,9.94-26.94,15.91-39.53,6.47-13.67,24.1-14.02,30.8-.57,4.77,13.38,11.61,26.65,16.12,40.04.46,1.38,1.08,3.13,1.19,4.57.71,9.4-11.78,13.94-18.09,7.53-2-2.03-2.62-4.65-3.66-7.19h-21.52c-1.16,2.42-1.83,5.1-3.76,7.09-5.32,5.49-15.08,3.24-17.88-3.72-3.13,8.78-17.12,8.78-19.87-.29-1.37-8.55-2.22-17.16-3.29-25.75-.04-.33-.14-.73-.48-.36-2.46,7.96-4.68,16.06-7.38,23.94-1.57,4.6-2.95,8.79-8.61,9.39-4.85.51-7.66-1.77-9.49-6.05-3.54-8.27-5.08-18.51-8.53-26.75-.12-.3-.13-.71-.54-.77l-2.99,25.45c-3.45,12.11-22.17,9.32-20.54-3.74,3.08-13.97,4.31-28.98,7.56-42.84,3.12-13.3,21.39-14.54,26.47-2.21,2.68,6.51,4.42,14.79,6.67,21.66.1.31.12.64.11.96ZM614.81,130.08l-4.68-16.32-4.92,16.32h9.6Z"/>
      <path class="cls-1" d="M774.17,132.96v16.92c0,.63-1.09,2.7-1.49,3.31-5.01,7.79-17.95,5.18-19.33-4.1l-.04-46.94c.68-5.22,4.27-8.36,9.45-8.79,6.4-.52,16.32-.37,22.81-.01,9.79.54,18.33,4.98,21.11,14.89,2.15,7.69.7,15-5.27,20.41-.57.51-3.52,2.52-3.46,2.95,2.34,3.7,6.16,7.15,8.32,10.89,5.97,10.34-7.56,20.45-16.39,12.31-5.74-6.88-10.22-14.76-15.73-21.83ZM774.17,118.56h9.48c.1,0,1.12-.49,1.31-.61,2.05-1.33,2.3-4.59.37-6.11-.17-.13-1.13-.72-1.2-.72h-9.96v7.44Z"/>
      <path class="cls-1" d="M664.73,115.2l16.31-17.41c10.11-13.4,28.41,2.27,15.73,13.57l-12.6,11.63,16.9,18.38c7.51,10.83-6.87,21.54-16.07,13.43l-20.51-24.25v18.6c0,1.05-1.46,3.67-2.17,4.55-5.96,7.4-17.62,3.69-18.72-5.51.81-15.05-1.04-31.17,0-46.1.64-9.11,12.51-12.75,18.5-5.99,1.33,1.5,2.63,4.24,2.63,6.25v12.84Z"/>
      <path class="cls-1" d="M726.17,116.4h13.08c1.45,0,4.13,1.45,5.29,2.39,4.99,4.1,3.95,10.81-1.58,13.79-.44.24-2.41,1.09-2.75,1.09h-13.68l-.36.36v4.8l.36.36h15.36c1.44,0,4.67,2.1,5.65,3.23,4.85,5.61.84,13.7-6.12,14.29-8.73.75-18.53-.58-27.37,0-4.48-.87-8.06-4.48-8.76-9v-45.37c.32-4.21,3.6-7.65,7.62-8.68,9-.07,19.06-.94,28.02-.32,7.46.52,11.27,8.77,6.47,14.65-.83,1.01-3.54,3.12-4.8,3.12h-16.08l-.36.36v4.92Z"/>
      <path class="cls-1" d="M383.4,29.11c79.42-3.91,128.32,85.82,81.13,150.25-41.79,57.05-129.96,48.93-160.84-14.51-29.53-60.67,12.55-132.43,79.72-135.74ZM424.01,41.04c-20.39-8.71-43.67-9.61-64.68-2.41-2.16.74-4.77,1.57-6.6,2.88,6.67.57,9.9,5.64,11.69,11.47,2.26,7.35,3.6,15.05,5.95,22.37,2.6-9,4.18-18.37,7.39-27.17,5.35-10.66,18.75-8.2,21.95,2.63l6.42,24.54c2.12-7.22,3.57-14.68,5.71-21.89,1.35-4.56,3.42-8.88,8.01-10.95,1.25-.56,2.35-.64,3.54-1.02.27-.08.58-.08.62-.45ZM437.21,198.24c.16.17,2.16-1.27,2.47-1.48,31.37-21.54,45.42-61.63,34.84-98.36-6.03-20.93-19.94-39.39-38.4-50.88.48,1.45,1.33,2.74,1.78,4.22.52,1.68.9,3.72.71,5.48-4.88,17.28-7.93,35.6-13,52.76-1.14,3.86-2.87,7.9-5.93,10.63-1.18,1.05-2.67,1.71-3.84,2.75,5.59,1.92,8.58,7.39,10.2,12.72,5.19,17.06,8.06,35.54,13.02,52.74.46,3.38-.51,6.4-1.86,9.42ZM340.01,48.24c-.14-.13-1.41.69-1.66.86-48.51,31.49-52.3,102.52-9.62,140.86,3.73,3.35,7.83,6.41,12.12,9l-1.92-4.56c-.31-1.62-.8-3.22-.57-4.89,5.02-17.5,7.89-36.41,13.24-53.72,1.57-5.1,4.48-10.07,9.53-12.31-5.65-2.65-8.45-7.29-10.2-13.08-5.19-17.16-8.18-35.63-13.05-52.95-.33-3.29.53-6.37,2.13-9.21ZM403.13,123.6c.15-.2-2.37-1.49-2.71-1.72-8.99-6.13-8.32-17.1-11.94-26.22-.1-.25-.09-.58-.46-.62-1.48,5.33-2.7,10.83-4.44,16.08-1.31,3.95-2.98,7.14-6.25,9.83-1.1.91-2.39,1.5-3.47,2.4,11.41,4.43,10.99,18.38,15,28.08,3.63-9.58,3.5-23.22,14.28-27.84ZM406.5,171.12c-1.36,5.89-2.78,11.78-4.34,17.62-1.88,7.02-3.25,15.45-12.13,16.43-6.67.74-10.92-4.07-12.88-9.87-2.5-7.39-3.67-15.8-5.96-23.32-.08-.27-.09-.89-.46-.86l-5.88,23.04c-1.21,4.42-4.06,8.3-8.28,10.2l-3.83,1.08c17.19,7.29,36.15,9.28,54.48,5.41,5.85-1.24,11.51-3.18,17.04-5.41.07-.31-.25-.29-.48-.35-6.16-1.86-8.82-4.13-10.92-10.44-2.31-6.94-3.71-14.78-5.71-21.89-.12-.44-.27-1.41-.65-1.63Z"/>
      <path class="cls-1" d="M111.75,149.55h-17.94c-1.16,6.85-6.79,13.36-13.93,8.48-4.6-3.14-4.31-8.47-3.02-13.3,3.64-13.63,9.64-27.45,13.69-41.03,5.7-12.72,20.25-11.58,24.84,1.07,3.48,13.55,10.6,27.88,13.6,41.36,1.17,5.26.11,11.05-5.52,13.05-6.72,2.39-10.79-3.81-11.71-9.62ZM106.49,132l-3.72-16.32-3.96,16.32h7.68Z"/>
      <path class="cls-1" d="M260.57,113.04v5.28h10.92c.44,0,2.03.81,2.5,1.1,4.91,3,5.6,10.19,1.44,14.12-.58.55-3.01,2.06-3.7,2.06h-11.16v5.28h11.4c9.55,0,10.64,16.86.73,17.77-6.93.63-14.82-.5-21.85,0-4.27-.76-7.07-4.88-7.57-8.99v-45.84c.52-4.37,3.46-8.19,8.04-8.53,7.21-.54,15.18.34,22.46.12,6.86,2.09,7.77,12.61,2.13,16.56-.29.2-2.07,1.1-2.26,1.1h-13.08Z"/>
      <path class="cls-1" d="M185.21,150.12c-1.11,13.11-16.69,12.64-17.53,0,.74-14.7-.95-30.31,0-44.9.3-4.61,2.58-8.92,7.39-9.89,7.17.35,15.19-.68,22.27-.07,7.78.67,9.61,12.76,3.07,16.77-.3.18-1.94,1-2.12,1h-13.08v6.24h11.16c1.1,0,3.27,1.9,3.95,2.77,3.17,4.03,2.67,11.37-2.08,13.99-.35.19-1.58.77-1.87.77h-11.16c-.27,4.32.36,9.05,0,13.32Z"/>
      <path class="cls-1" d="M147.77,113.04v6.24h11.16c.27,0,1.78.77,2.12,1,4.76,3.25,5.25,11.63.62,15.18-.53.4-2.15,1.34-2.74,1.34h-11.16v13.32c0,3.5-2.71,8.06-6.08,9.28-6.1,2.23-11.27-3.49-11.45-9.28.72-14.72-.92-30.29,0-44.9.29-4.61,2.57-8.91,7.39-9.89,7.18.35,15.19-.68,22.27-.07,6.96.6,9.19,10.45,4.77,15.35-.57.63-3.08,2.42-3.82,2.42h-13.08Z"/>
      <path class="cls-1" d="M222.65,141.12h14.04c.34,0,1.98.96,2.36,1.24,5.4,4.01,4.08,15.65-3.07,16.29-7.39.66-15.77-.49-23.26-.04-5.19-.92-7.3-5.56-7.6-10.4-.89-14.31.7-29.54,0-43.94.15-5.77,5.42-11.48,11.45-9.28,3.36,1.23,6.08,5.79,6.08,9.28v36.84Z"/>
      <path class="cls-1" d="M25.62,128.16c.43-.07.41-.49.51-.8,2.59-8.16,3.63-17.51,6.14-25.78,1.07-3.51,2.85-6.89,6.93-7.23,6.43-.52,7.85,6.85,9.05,11.53,1.89,7.38,3.47,14.86,5.21,22.28.37.03.37-.58.46-.86,2.46-8.09,3.64-17,6.14-25.06,4.05-13.06,17.02-8.62,17.13,3.22-3.57,13.87-6.02,28.07-9.69,41.91-.58,2.2-1.13,4.4-2.24,6.4-4.71,8.44-15.48,7.17-19.21-1.28l-6.39-22.41-5.57,20.83c-1.18,3.54-4.71,7.96-8.61,8.43-8,.95-11.28-3.79-13.22-10.72-3.88-13.82-6.05-28.57-9.85-42.47-1.02-11.74,12.78-17.36,16.91-4.19,2.4,7.65,4.42,17.09,6.2,25,.09.4.13.8.11,1.21Z"/>
      <path class="cls-1" d="M760.73,191.28c-2.48.28-4.73-.69-4.58-3.49.06-1.19,1.01-2.34,2.17-2.64,1.01-.26,6.92-.26,7.93,0,3.52.92,1.93,7.08.34,9.23-5.71,7.7-20.39,4.35-21.23-5.62-.83-9.84,9.77-15.11,18.1-11.14,2.06.98,4.72,3.2,3.14,5.72-1.69,2.71-4.51.46-6.46-.23-2.82-1-6.11-.98-7.37,2.24-2.07,5.27,3.68,9.21,7.97,5.93Z"/>
      <path class="cls-1" d="M792.65,195.96c-.59,3.29-5.74,3.76-6.9.42-.65-1.88-.51-13.24-.3-15.77.15-1.82.66-3.72,2.75-3.97,2.05-.25,7.51-.21,9.58.03,6.24.75,8.2,9.67,2.77,12.83,1.39,2.5,5.39,5.81,1.78,8.47-4.59,3.37-7.15-5.05-9.68-7.4-.2,1.62.27,3.86,0,5.4ZM792.65,185.04c5.4.8,5.41-3.2,0-2.4v2.4Z"/>
      <path class="cls-1" d="M699.07,186.94c5.34,2.68,2.63,10.69-2.78,11.31-2.12.24-7.74.25-9.85,0-1.67-.2-2.63-1.93-2.76-3.48-.31-3.49-.4-11.74,0-15.14.16-1.32,1.42-2.84,2.76-3,1.92-.23,7.24-.17,8.99.38,4.46,1.39,5.74,5.96,3.63,9.92ZM690.89,184.56c3.24.31,3.28-2.36,0-1.92v1.92ZM694.68,190.62c-.6-.58-2.91-.18-3.78-.3v1.92c.79.23,5.54.08,3.78-1.62Z"/>
      <path class="cls-1" d="M733.13,190.56v5.88c0,.3-1.25,1.56-1.6,1.76-2.1,1.22-4.55.17-5.31-2.06.39-5.19-.72-11.69-.03-16.72.18-1.34,1.13-2.55,2.51-2.77,1.84-.29,7.86-.21,9.76.05,6.34.85,7.89,9.71,2.59,13.02,1.94,2.23,5.35,5.99,1.66,8.39-4.6,2.99-6.86-5.41-9.59-7.55ZM733.13,185.04h3.48c.58,0,1.03-1.98-.1-2.29-1.03-.28-2.31-.01-3.38-.11v2.4Z"/>
      <path class="cls-1" d="M705.47,176.46c2.22-.45,4.36.6,4.62,2.95.34,3.01-.64,8.39.3,10.98.9,2.47,4.76,2.84,6.29.89,1.66-2.12.49-9.18.84-12.12.45-3.73,6.53-3.72,6.97,0,.33,2.79.25,11.65-.85,14.05-3.33,7.27-16.97,7.15-19.92-.48-.9-2.33-.87-10.58-.61-13.33.12-1.25,1.03-2.66,2.35-2.93Z"/>
      <path class="cls-1" d="M776.57,190.56v1.68h5.64c.21,0,1.34.82,1.56,1.08,1.73,2.04.25,4.69-2.27,4.93-2.02.2-6.92.23-8.9,0-1.48-.18-2.82-1.51-3-3,.36-4.94-.46-10.51,0-15.37.13-1.34.91-2.86,2.34-3.18,1.03-.23,9.44-.23,10.46,0,1.09.25,2.1,1.88,2.1,2.95,0,.88-1.2,3-2.04,3h-5.52c-.56.46-.54,1.49,0,1.92h4.8c1.11,0,2.2,2.29,2.03,3.46s-1.7,2.54-2.75,2.54h-4.44Z"/>
      <path class="cls-1" d="M539.94,187.68l2.69-8.94c1.47-3.69,4.89-3.3,6.25.36.99,2.65,1.54,5.85,2.33,8.59l2.76-9.12c1.87-4.3,7.68-2.19,6.78,2.22-1.71,4.53-2.29,10.02-4.01,14.47s-7.14,4.38-9-.13c-.75-1.83-1.33-4.31-1.81-6.23-.35.03-.38.35-.49.59-1.31,2.83-1.5,8.53-5.39,9.01-2.56.32-4.4-.67-5.34-3.07-1.21-3.11-3.59-11.45-4.04-14.68-.21-1.5-.21-2.52,1.01-3.58,2.29-1.98,4.82-.84,5.86,1.75,1.04,2.61,1.57,6.04,2.39,8.77Z"/>
      <path class="cls-1" d="M567.56,195.15c-.85,5.33-8.12,4.34-7.12-1,1.96-4.38,3.27-9.35,5.3-13.66,2.44-5.17,7.98-5.88,10.64-.57,1.33,2.64,4.81,11.12,5.39,13.81.26,1.22.41,2.38-.31,3.43-1.23,1.78-3.81,2.1-5.4.6-.84-.8-.78-1.8-1.48-2.6h-7.02ZM572.57,189.12l-1.44-5.28-1.44,5.28h2.88Z"/>
      <path class="cls-1" d="M634.97,182.64v1.92h4.92c.72,0,2.08,1.58,2.23,2.34.31,1.6-1.35,3.66-2.95,3.66h-4.2v1.68h5.64c.25,0,1.48,1.16,1.67,1.45.97,1.55.29,3.96-1.54,4.44-1.18.31-8.85.31-10.19.1-.97-.15-2.5-1.71-2.54-2.74.38-5.09-.49-10.86,0-15.86.13-1.32.95-2.65,2.35-2.93,1.23-.25,9.01-.27,10.25-.04,2.05.38,2.68,3.51,1.44,5.02-.2.24-1.26.97-1.43.97h-5.64Z"/>
      <path class="cls-1" d="M604.49,190.8c-.13,1.56.19,3.37-.02,4.9-.56,4.1-6.74,4.34-7.19-.69-.33-3.73-.32-10.92,0-14.66.15-1.71.91-3.41,2.78-3.7,3.03-.47,7.29.23,10.44.09,1.91.81,2.28,3.52.95,4.99-.15.17-1.24.9-1.32.9h-5.64v2.16h4.92c.92,0,2.06,2.01,2.06,3s-1.14,3-2.06,3h-4.92Z"/>
      <path class="cls-1" d="M589.37,182.64v2.16h4.92c1,0,2.11,2.19,2.05,3.23-.19,3.58-4.51,2.72-6.97,2.77-.12,1.5.17,3.22,0,4.68-.49,4.34-6.57,4.44-7.18-.02-.45-3.27-.33-11.93-.03-15.35.14-1.57.86-2.76,2.34-3.42h10.69c1.74.71,2.5,2.87,1.49,4.5-.18.29-1.42,1.45-1.67,1.45h-5.64Z"/>
      <path class="cls-1" d="M619.61,192.24h6.12c.23,0,1.26.94,1.43,1.21.93,1.48.44,3.98-1.3,4.68-3.22-.15-7.58.57-10.68.09-1.5-.23-2.41-1.54-2.55-2.97-.51-5.22.31-11.39.13-16.7.81-2.18,3.69-2.88,5.53-1.43.33.26,1.32,1.5,1.32,1.8v13.32Z"/>
      <path class="cls-1" d="M667.13,187.44c1.43.28,2.27-.76,3.91-.42,2.67.54,4.22,4.3,1.61,5.71,1.96,2.7.44,7.29-3.35,5.87-1.13-.42-1.2-.99-2.03-1.55-3.41,1.86-7.34,2.36-10.9.58-4.91-2.46-5.39-9.45-.51-12.1-3.18-4.65.41-8.9,5.43-9.32,5.05-.43,10.13,1.77,8.91,7.71-.32,1.59-2.08,2.46-3.06,3.53ZM663.71,181.5c-.76-.76-2.28.36-1.32,1.32.96.96,2.08-.55,1.32-1.32ZM662.81,192.72l-2.64-2.76c-.13-.2-.42.12-.49.24-1.21,1.84,1.62,3.12,3.13,2.53Z"/>
      <path class="cls-3" d="M437.21,198.24c1.35-3.02,2.32-6.04,1.86-9.42-4.96-17.21-7.83-35.68-13.02-52.74-1.62-5.33-4.61-10.8-10.2-12.72,1.17-1.05,2.67-1.7,3.84-2.75,3.06-2.73,4.79-6.78,5.93-10.63,5.07-17.16,8.13-35.48,13-52.76.19-1.76-.19-3.8-.71-5.48-.45-1.48-1.3-2.77-1.78-4.22,18.46,11.49,32.37,29.95,38.4,50.88,10.57,36.72-3.47,76.81-34.84,98.36-.31.21-2.32,1.65-2.47,1.48Z"/>
      <path class="cls-3" d="M340.01,48.24c-1.6,2.84-2.46,5.92-2.13,9.21,4.88,17.32,7.86,35.79,13.05,52.95,1.75,5.79,4.55,10.43,10.2,13.08-5.05,2.24-7.96,7.21-9.53,12.31-5.35,17.31-8.22,36.22-13.24,53.72-.23,1.67.26,3.27.57,4.89l1.92,4.56c-4.29-2.59-8.39-5.65-12.12-9-42.68-38.34-38.88-109.37,9.62-140.86.25-.17,1.52-.99,1.66-.86Z"/>
      <path class="cls-3" d="M406.5,171.12c.38.22.53,1.19.65,1.63,2,7.11,3.4,14.95,5.71,21.89,2.1,6.31,4.76,8.59,10.92,10.44.23.07.55.04.48.35-5.52,2.23-11.19,4.17-17.04,5.41-18.33,3.87-37.29,1.89-54.48-5.41l3.83-1.08c4.22-1.9,7.08-5.78,8.28-10.2l5.88-23.04c.37-.03.37.58.46.86,2.28,7.52,3.46,15.93,5.96,23.32,1.96,5.81,6.21,10.61,12.88,9.87,8.88-.98,10.24-9.41,12.13-16.43,1.57-5.84,2.98-11.73,4.34-17.62Z"/>
      <path class="cls-3" d="M424.01,41.04c-.04.37-.35.37-.62.45-1.2.38-2.29.45-3.54,1.02-4.58,2.07-6.65,6.4-8.01,10.95-2.14,7.21-3.58,14.68-5.71,21.89l-6.42-24.54c-3.2-10.82-16.61-13.29-21.95-2.63-3.21,8.8-4.79,18.17-7.39,27.17-2.35-7.33-3.69-15.03-5.95-22.37-1.79-5.83-5.02-10.9-11.69-11.47,1.82-1.31,4.43-2.14,6.6-2.88,21.01-7.2,44.29-6.31,64.68,2.41Z"/>
      <path class="cls-3" d="M403.13,123.6c-10.78,4.63-10.64,18.27-14.28,27.84-4.01-9.71-3.59-23.65-15-28.08,1.08-.91,2.37-1.49,3.47-2.4,3.26-2.69,4.93-5.88,6.25-9.83,1.74-5.25,2.97-10.75,4.44-16.08.38.04.36.37.46.62,3.62,9.12,2.95,20.09,11.94,26.22.34.23,2.87,1.52,2.71,1.72Z"/>
      <path class="cls-1" d="M352.73,41.52c-2.17.91-4.33,1.82-6.5,2.73"/>
    </g>
  </g>
</svg>